<svg width="26" height="30" viewBox="0 0 26 30" fill="none" xmlns="http://www.w3.org/2000/svg">
<g clip-path="url(#clip0_2153_67545)">
<path d="M25.3078 20.8324C25.3078 22.7016 25.314 24.5715 25.3059 26.4407C25.2985 28.2201 24.2075 29.5713 22.5012 29.9291C22.3302 29.9653 22.1524 29.9834 21.9778 29.984C20.3628 29.9865 18.7478 30.0089 17.1335 29.974C15.9169 29.9472 15.0529 29.2682 14.3896 28.2968C13.9731 27.6877 13.7984 27.0112 13.8003 26.2724C13.8078 22.585 13.8034 18.8983 13.8034 15.211C13.8034 13.6828 14.4381 12.5306 15.8305 11.8609C16.1494 11.7076 16.5193 11.591 16.8686 11.5841C18.5657 11.5504 20.2639 11.5373 21.961 11.5623C23.1017 11.5785 23.9433 12.1957 24.6072 13.0792C25.1039 13.7395 25.319 14.4858 25.3121 15.3176C25.2966 17.1556 25.3078 18.9937 25.3078 20.8324Z" fill="black"/>
<path d="M0.00316935 9.20478C0.00316935 7.35612 6.12283e-05 5.50746 0.00441259 3.65881C0.00814233 2.00593 0.869712 0.713427 2.30442 0.212139C2.53691 0.131085 2.78431 0.0500309 3.02612 0.0475369C4.74429 0.0288321 6.46246 0.00825688 8.18001 0.0325731C9.32317 0.0487839 10.1568 0.675394 10.8188 1.56013C11.3074 2.21355 11.5144 2.95052 11.5125 3.76979C11.502 7.4565 11.5057 11.1438 11.5094 14.8306C11.5107 15.8992 11.18 16.8245 10.3812 17.5546C9.81363 18.0733 9.14974 18.415 8.3783 18.43C6.73287 18.4624 5.08618 18.4718 3.44075 18.4549C2.26774 18.4431 1.38815 17.8458 0.703739 16.9255C0.223224 16.2814 -0.00429014 15.5594 6.12283e-05 14.7507C0.0106288 12.9021 0.00316935 11.0534 0.00316935 9.20478Z" fill="black"/>
<path d="M5.7681 30C5.01221 30 4.25694 30 3.50104 30C1.82266 29.9993 0.488033 28.6364 0.106978 27.2416C0.0504099 27.0346 0.0224369 26.8127 0.0211936 26.5976C0.0180855 25.6636 -0.0154821 24.7271 0.0460586 23.7968C0.146762 22.2711 1.5622 20.8639 3.08828 20.8097C4.75237 20.7498 6.42081 20.761 8.08613 20.7816C9.28587 20.7959 10.1686 21.4244 10.853 22.3728C11.3111 23.0081 11.5268 23.7145 11.5094 24.4989C11.492 25.2976 11.5212 26.0988 11.4734 26.8956C11.3764 28.4936 9.97587 29.8852 8.37581 29.965C7.50865 30.0081 6.63775 29.9725 5.76872 29.9725C5.7681 29.9825 5.7681 29.9912 5.7681 30Z" fill="black"/>
<path d="M19.5559 9.2181C18.7272 9.2181 17.8992 9.23057 17.0712 9.21436C16.3837 9.20126 15.7814 8.92568 15.2592 8.49422C14.3156 7.71423 13.7661 6.73722 13.8009 5.47278C13.8214 4.73581 13.7766 3.99572 13.8245 3.26062C13.9426 1.45249 15.2636 0.102631 17.0706 0.032176C18.7148 -0.0314203 20.3634 0.0134712 22.01 0.0278115C22.7429 0.03467 23.3782 0.337688 23.9253 0.809048C24.8254 1.5853 25.3469 2.54485 25.3115 3.77126C25.2903 4.49763 25.337 5.22774 25.2903 5.95224C25.1685 7.862 23.7344 9.20812 21.8248 9.23493C21.0689 9.24553 20.3124 9.2368 19.5565 9.2368C19.5559 9.23119 19.5559 9.22496 19.5559 9.2181Z" fill="black"/>
</g>
<defs>
<clipPath id="clip0_2153_67545">
<rect width="25.3125" height="30" fill="white"/>
</clipPath>
</defs>
</svg>
