<svg width="23" height="22" viewBox="0 0 23 22" fill="none" xmlns="http://www.w3.org/2000/svg">
<path d="M16.923 19.8279C16.4009 19.7976 16.0013 19.7444 15.6461 19.5303C15.3588 19.3575 15.073 19.3508 14.7761 19.4919C14.7074 19.5244 14.638 19.5583 14.5649 19.5783C14.1055 19.7046 13.8515 19.9933 13.7112 20.4593C13.4616 21.2902 12.5901 21.9356 11.7172 21.9608C11.1337 21.9777 10.5362 22.0043 9.96758 21.9009C9.12861 21.7488 8.55551 21.1956 8.28965 20.3862C8.15671 19.9822 7.94475 19.7223 7.53709 19.6167C7.45732 19.596 7.37978 19.5583 7.30667 19.5184C6.99279 19.3478 6.69295 19.3589 6.37391 19.5288C5.70997 19.8818 5.01575 19.9121 4.32818 19.6085C4.07561 19.497 3.83189 19.3338 3.6288 19.1455C3.12734 18.6824 2.59265 18.2393 2.34524 17.5665C2.11556 16.9417 2.12146 16.3162 2.43238 15.7313C2.63991 15.3399 2.65173 14.9854 2.4538 14.6043C2.39767 14.4965 2.35632 14.3813 2.31422 14.2668C2.22043 14.0135 2.04687 13.8495 1.78544 13.7757C1.40657 13.6678 1.06611 13.4884 0.77513 13.2188C0.31872 12.7956 0.0617126 12.2757 0.03291 11.6524C0.00410748 11.0372 -0.0542362 10.4168 0.120795 9.81347C0.336445 9.06977 0.809102 8.50553 1.5432 8.29579C2.30757 8.07719 2.43829 7.47529 2.59412 6.87117C2.63474 6.71387 2.53799 6.50043 2.45823 6.33574C2.12959 5.65777 2.09636 4.97316 2.39694 4.28559C2.49294 4.06625 2.62366 3.84543 2.79057 3.6763C3.19011 3.27159 3.58301 2.84251 4.04681 2.52272C4.73437 2.04933 5.51426 2.02496 6.26165 2.3957C6.66267 2.5951 7.02012 2.63055 7.40932 2.41933C7.50902 2.36542 7.61832 2.32628 7.72541 2.28787C7.98759 2.1926 8.15376 2.01757 8.23056 1.74432C8.40042 1.14094 8.74753 0.66385 9.2837 0.332251C9.62712 0.120294 10.0016 -0.0104252 10.4063 0.000652752C10.9971 0.0161618 11.6019 -0.0141178 12.1743 0.10257C12.9387 0.258399 13.4313 0.799739 13.7304 1.51833C13.822 1.73767 13.8988 2.02496 14.0745 2.135C14.4017 2.33957 14.7887 2.46438 15.1661 2.56556C15.3086 2.60396 15.5051 2.50795 15.6565 2.43262C16.3322 2.09881 17.0176 2.0641 17.7066 2.36172C17.9333 2.45995 18.1608 2.5951 18.3351 2.76718C18.7398 3.16672 19.1674 3.56109 19.4857 4.02636C19.9466 4.69916 19.9798 5.46723 19.6142 6.19837C19.4023 6.62303 19.3727 7.00041 19.598 7.40956C19.6489 7.50187 19.6822 7.60527 19.7191 7.70497C19.8129 7.95828 19.9835 8.1215 20.2479 8.19535C20.8513 8.36447 21.3313 8.70789 21.6644 9.24258C21.8689 9.57049 22.0019 9.92867 21.9982 10.3186C21.993 10.888 22.0336 11.4685 21.9347 12.0231C21.7833 12.8754 21.2235 13.4455 20.4059 13.7151C20.0219 13.8414 19.7664 14.0423 19.6541 14.4293C19.6246 14.5312 19.5766 14.6279 19.53 14.7239C19.3853 15.0267 19.3941 15.3148 19.5566 15.6175C19.9163 16.2889 19.9443 16.989 19.6349 17.6839C19.5256 17.9299 19.3661 18.1655 19.1837 18.3641C18.7221 18.8685 18.2767 19.4047 17.6084 19.6529C17.3528 19.7481 17.0796 19.7895 16.923 19.8279ZM11.0082 16.9055C14.2533 16.9225 16.9149 14.272 16.9319 10.9958C16.9489 7.76627 14.3175 5.08763 11.0303 5.06473C7.79188 5.04184 5.09551 7.71826 5.09625 10.9877C5.09699 14.2535 7.7291 16.8886 11.0082 16.9055Z" fill="black"/>
<path d="M15.2476 10.9924C15.2417 13.3313 13.3525 15.219 11.0158 15.2197C8.67323 15.2204 6.76487 13.3054 6.78334 10.9709C6.8018 8.62686 8.6976 6.74288 11.0262 6.75543C13.368 6.76725 15.2535 8.6601 15.2476 10.9924Z" fill="black"/>
</svg>
