<svg width="20" height="20" viewBox="0 0 20 20" fill="none" xmlns="http://www.w3.org/2000/svg">
<path d="M16.1553 6.83341C16.1553 6.83341 16.1553 6.04175 15.3636 5.25008C14.572 4.45841 13.8595 4.45841 13.8595 4.45841L12.9886 5.32925V3.66675H3.48865V16.3334H12.9886V10.0001L16.1553 6.83341ZM8.47615 12.6917L8.00115 12.2167L8.23865 11.3459L9.42615 12.5334L8.47615 12.6917ZM9.18865 11.1876L8.71365 10.7126L12.8303 6.59591C12.9886 6.67508 13.147 6.83341 13.3053 6.99175L9.18865 11.1876ZM14.6511 5.64591L13.9386 6.43758C13.7803 6.27925 13.622 6.20008 13.4636 6.04175L14.1761 5.32925C14.2553 5.40841 14.4136 5.48758 14.6511 5.64591ZM12.197 15.5417H4.28031V4.45841H12.197V6.12091L7.52615 10.7917L6.65531 14.0376L9.90115 13.1667L12.197 10.7917V15.5417Z" fill="#65676B"/>
</svg>
