<svg width="15" height="15" viewBox="0 0 15 15" fill="none" xmlns="http://www.w3.org/2000/svg">
<path d="M0.250036 14.9577C0.111965 14.9577 0 14.8458 0 14.7077C0 9.86816 0 5.07518 0 0.250025C0 0.111954 0.111953 0 0.250024 0C5.08685 0 9.89277 0 14.75 0C14.888 0 15 0.111926 15 0.249998C15 5.05263 15 9.85836 15 14.7077C15 14.8458 14.8881 14.9577 14.75 14.9577C9.93568 14.9577 5.11586 14.9577 0.250036 14.9577ZM13.4214 13.6458C13.5595 13.6458 13.6714 13.5339 13.6714 13.3958C13.6714 10.8262 13.6714 8.28613 13.6714 5.74368C13.6714 5.60561 13.5595 5.49368 13.4214 5.49368C10.8302 5.49368 8.26765 5.49368 5.71037 5.49368C5.5723 5.49368 5.46037 5.60561 5.46037 5.74368C5.46037 8.31386 5.46037 10.8381 5.46037 13.3958C5.46037 13.5339 5.5723 13.6458 5.71037 13.6458C8.29435 13.6458 10.8431 13.6458 13.4214 13.6458ZM5.71678 1.33242C5.5787 1.33242 5.46677 1.44436 5.46677 1.58244C5.46677 2.33039 5.46677 3.04847 5.46677 3.76648C5.46677 3.90456 5.57871 4.01648 5.71678 4.01648C8.3071 4.01648 10.857 4.01648 13.4112 4.01648C13.5492 4.01648 13.6612 3.90455 13.6612 3.76648C13.6612 3.02536 13.6612 2.30729 13.6612 1.58242C13.6612 1.44435 13.5492 1.33242 13.4112 1.33242C10.8254 1.33242 8.27763 1.33242 5.71678 1.33242ZM1.35036 13.3471C1.35036 13.4852 1.4623 13.5971 1.60037 13.5971C2.36084 13.5971 3.0969 13.5971 3.81133 13.5971C3.9494 13.5971 4.06133 13.4852 4.06133 13.3471C4.06133 10.7533 4.06133 8.23736 4.06133 5.72831C4.06133 5.59023 3.94938 5.47831 3.81131 5.47831C3.05622 5.47831 2.33135 5.47831 1.60036 5.47831C1.46229 5.47831 1.35036 5.59024 1.35036 5.72831C1.35036 8.29553 1.35036 10.8284 1.35036 13.3471ZM3.81259 4.03314C3.95066 4.03314 4.06261 3.9212 4.06261 3.78312C4.06261 3.03072 4.06261 2.31031 4.06261 1.57858C4.06261 1.44051 3.95066 1.32858 3.81259 1.32858C3.05811 1.32858 2.33419 1.32858 1.60805 1.32858C1.46998 1.32858 1.35805 1.44052 1.35805 1.57859C1.35805 2.32778 1.35805 3.05029 1.35805 3.78314C1.35805 3.92121 1.46998 4.03314 1.60805 4.03314C2.34619 4.03314 3.06235 4.03314 3.81259 4.03314Z" fill="black"/>
<path d="M12.6862 8.15027C12.4197 8.15027 12.0635 8.15027 11.6574 8.15027C11.5498 9.12909 11.8124 10.154 11.0488 10.9535C10.2648 11.7747 9.24111 11.5159 8.23923 11.5774C8.23923 12.0002 8.23923 12.3948 8.23923 12.7241C7.60376 12.0822 6.96318 11.4339 6.36102 10.8254C6.89271 10.3103 7.53842 9.68384 8.19567 9.0471C8.19567 9.39558 8.19567 9.78505 8.19567 10.1668C10.4569 10.4551 10.3532 10.0733 10.1969 8.15668C9.83173 8.15668 9.46019 8.15668 9.08865 8.15668C8.76309 8.15668 8.79723 8.20504 8.99896 8.01319C9.31285 7.71467 9.63314 7.42385 9.93806 7.11765C10.2507 6.80248 10.5492 6.47322 10.79 6.21826C11.4665 6.90753 12.0879 7.54043 12.6862 8.15027Z" fill="black"/>
</svg>
