<svg width="14" height="14" viewBox="0 0 14 14" fill="none" xmlns="http://www.w3.org/2000/svg">
<g clip-path="url(#clip0_1_3235)">
<path d="M6.98789 10.428C6.99269 10.5312 6.9975 10.6347 7.00267 10.7495C8.12156 10.7495 9.2338 10.7495 10.335 10.7495C10.3523 10.7681 10.3638 10.7747 10.3638 10.7813C10.3649 11.2308 10.3834 11.6814 10.3605 12.1299C10.3305 12.7208 9.97776 13.1139 9.47834 13.395C8.99222 13.6688 8.45808 13.8007 7.91248 13.8948C7.747 13.9232 7.58077 13.9484 7.41491 13.975C7.10167 13.975 6.78805 13.975 6.47481 13.975C6.23913 13.9298 6.00235 13.889 5.76779 13.8387C5.20926 13.7183 4.66884 13.5521 4.21449 13.1893C4.02499 13.038 3.85729 12.8659 3.75977 12.6388C3.79153 12.6228 3.82589 12.61 3.85433 12.59C4.18235 12.3592 4.50889 12.1266 4.83655 11.8954C5.41723 11.4856 5.99718 11.0744 6.58082 10.6682C6.70974 10.5786 6.85196 10.5075 6.98789 10.428ZM9.5175 12.2305C9.51565 11.8834 9.2338 11.6023 8.88842 11.6034C8.5157 11.6045 8.24161 11.9111 8.24789 12.3198C8.25196 12.5816 8.59438 12.8783 8.88879 12.8754C9.2423 12.8718 9.51897 12.5878 9.5175 12.2305Z" fill="black"/>
<path d="M6.00451 3.57364C6.3281 3.57364 6.65168 3.57364 6.98488 3.57364C6.98488 3.42015 6.98488 3.2878 6.98488 3.13687C6.88551 3.13687 6.79095 3.13687 6.69638 3.13687C6.71891 3.09312 6.73332 3.04317 6.76472 3.00707C7.05211 2.67384 7.34356 2.3439 7.63205 2.01103C8.13406 1.43171 8.63459 0.851292 9.13585 0.27124C9.48862 0.387178 9.75865 0.611396 9.99876 0.886292C10.2987 1.22937 10.373 1.62968 10.3707 2.0639C10.3652 3.05046 10.3789 4.037 10.3663 5.02357C10.3571 5.74617 10.022 6.29126 9.34899 6.59168C9.13401 6.68756 8.87876 6.732 8.64087 6.73528C7.53564 6.74987 6.42968 6.74298 5.32445 6.74043C4.87158 6.73933 4.46746 6.87638 4.09696 7.12867C3.48008 7.54903 3.20932 8.14407 3.19232 8.86412C3.18198 9.30053 3.19085 9.73693 3.19085 10.1733C3.19085 10.2222 3.19085 10.2714 3.19085 10.3359C3.09517 10.3359 3.01354 10.337 2.9319 10.3359C2.55918 10.3308 2.18499 10.341 1.81375 10.3155C1.37122 10.2849 1.01623 10.0738 0.747681 9.72414C0.858129 9.59143 0.966361 9.4573 1.07903 9.32678C1.31396 9.05516 1.55259 8.78643 1.78678 8.51445C2.12736 8.11851 2.46388 7.71893 2.8052 7.32299C3.09924 6.98211 3.39882 6.64633 3.69285 6.30581C4.04044 5.90367 4.38324 5.49752 4.73084 5.09502C5.07253 4.69945 5.41939 4.30829 5.75923 3.91126C5.84936 3.80553 5.92324 3.68631 6.00451 3.57364Z" fill="black"/>
<path d="M6.98795 10.428C6.85164 10.5075 6.70943 10.5786 6.58051 10.6683C5.99687 11.0744 5.41729 11.4857 4.83623 11.8955C4.50858 12.1266 4.18204 12.3592 3.85402 12.59C3.82521 12.6101 3.79122 12.6228 3.75945 12.6389C3.71476 12.489 3.63274 12.3395 3.63126 12.1893C3.62055 11.03 3.61575 9.87022 3.62978 8.71084C3.63828 7.9824 4.32093 7.27001 5.0612 7.18105C5.18864 7.16574 5.31755 7.15772 5.4461 7.15772C6.50109 7.15589 7.55645 7.14277 8.61106 7.16027C9.56447 7.17631 10.4336 6.52772 10.7004 5.61881C10.7532 5.43871 10.7801 5.24584 10.7853 5.05808C10.7975 4.6173 10.7894 4.17615 10.7894 3.73501C10.7894 3.68615 10.7894 3.63729 10.7894 3.5837C10.8315 3.57932 10.8581 3.57385 10.8847 3.57385C11.3224 3.57422 11.7605 3.56255 12.1975 3.57969C12.629 3.59682 12.9684 3.7886 13.2355 4.13641C13.5776 4.58121 13.7031 5.09964 13.8243 5.62428C13.7907 5.63777 13.7526 5.64542 13.7238 5.66584C13.241 6.00308 12.759 6.34141 12.2777 6.68084C11.3453 7.33891 10.4144 7.99881 9.48135 8.65615C8.77581 9.15308 8.06732 9.64563 7.36288 10.144C7.29676 10.1907 7.25022 10.2647 7.19481 10.3259C7.1298 10.3682 6.9994 10.2807 6.98795 10.428Z" fill="black"/>
<path d="M6.00456 3.57357C5.92329 3.68623 5.84941 3.80545 5.75928 3.91082C5.41907 4.30785 5.07258 4.69904 4.73089 5.09462C4.38329 5.49712 4.0405 5.9029 3.69289 6.3054C3.39885 6.64592 3.0989 6.98207 2.80523 7.32259C2.46392 7.71816 2.1274 8.11774 1.78682 8.51404C1.55262 8.78639 1.31399 9.05472 1.07906 9.32634C0.966395 9.45686 0.858163 9.59139 0.747715 9.72373C0.472886 9.41384 0.338058 9.03868 0.2398 8.64858C0.0828076 8.02477 -0.0291186 7.39332 0.00671249 6.74764C0.0447601 6.0604 0.127874 5.37462 0.427451 4.74571C0.78096 4.00342 1.40006 3.59545 2.2312 3.57904C3.47494 3.55461 4.71944 3.5692 5.96356 3.56737C5.97722 3.56774 5.99089 3.57175 6.00456 3.57357Z" fill="black"/>
<path d="M7.19434 10.3264C7.25011 10.2652 7.29629 10.1912 7.36241 10.1445C8.06684 9.64611 8.77534 9.15356 9.48088 8.65663C10.414 7.99929 11.3448 7.33939 12.2772 6.68132C12.7585 6.34189 13.2406 6.00356 13.7234 5.66632C13.7522 5.6459 13.7902 5.63825 13.8238 5.62476C13.9306 6.14356 14.0126 6.66455 13.9975 7.19647C13.9842 7.66095 13.928 8.11814 13.757 8.55528C13.6318 8.87575 13.5272 9.20642 13.3758 9.51413C13.1061 10.0606 12.6518 10.3414 12.0267 10.3406C10.4428 10.3385 8.85882 10.3392 7.27486 10.3381C7.24864 10.3374 7.2213 10.3301 7.19434 10.3264Z" fill="black"/>
<path d="M9.13581 0.271153C8.63454 0.851204 8.13402 1.43162 7.63201 2.01094C7.34388 2.34344 7.05243 2.67376 6.76468 3.00699C6.73328 3.04308 6.71887 3.09339 6.69634 3.13678C5.68789 3.13787 4.67908 3.1386 3.67066 3.13933C3.65773 3.13933 3.64517 3.1324 3.61857 3.12438C3.61857 3.04126 3.6182 2.95594 3.61857 2.871C3.62042 2.46193 3.61414 2.05251 3.62633 1.64381C3.64775 0.918287 3.95285 0.525995 4.65396 0.298862C5.129 0.145008 5.62066 0.0768305 6.11565 0.035997C6.97264 -0.0343676 7.82705 -0.00264886 8.67555 0.140633C8.8318 0.166883 8.98251 0.226674 9.13581 0.271153ZM5.09022 2.29459C5.43966 2.29459 5.7289 2.00402 5.72557 1.65657C5.72225 1.30876 5.43006 1.00943 5.08357 1.02475C4.71898 1.04079 4.45523 1.25589 4.45634 1.66678C4.45745 2.07183 4.78436 2.29094 5.09022 2.29459Z" fill="black"/>
</g>
<defs>
<clipPath id="clip0_1_3235">
<rect width="14" height="14" fill="white"/>
</clipPath>
</defs>
</svg>
