<svg width="26" height="30" viewBox="0 0 26 30" fill="none" xmlns="http://www.w3.org/2000/svg">
<path fill-rule="evenodd" clip-rule="evenodd" d="M1.53711 16.4733C1.53711 18.0862 2.84468 19.3938 4.45764 19.3938C6.07061 19.3938 7.37818 18.0862 7.37818 16.4733C7.37818 14.8603 6.07061 13.5527 4.45764 13.5527C2.84468 13.5527 1.53711 14.8603 1.53711 16.4733ZM9.8816 16.4733C9.8816 18.0862 11.1892 19.3938 12.8021 19.3938C14.4151 19.3938 15.7227 18.0862 15.7227 16.4733C15.7227 14.8603 14.4151 13.5527 12.8021 13.5527C11.1892 13.5527 9.8816 14.8603 9.8816 16.4733ZM21.1464 19.3938C19.5335 19.3938 18.2259 18.0862 18.2259 16.4733C18.2259 14.8603 19.5335 13.5527 21.1464 13.5527C22.7594 13.5527 24.067 14.8603 24.067 16.4733C24.067 18.0862 22.7594 19.3938 21.1464 19.3938Z" fill="#66748A"/>
</svg>
