<svg width="23" height="20" viewBox="0 0 23 20" fill="none" xmlns="http://www.w3.org/2000/svg">
<g clip-path="url(#clip0_1003_64145)">
<path d="M1.69231 17.1411L2.67949 18.8463C2.88462 19.2052 3.17949 19.4873 3.52564 19.6924L7.05128 13.5898H0C0 13.9873 0.102564 14.3847 0.307692 14.7437L1.69231 17.1411Z" fill="#0066DA"/>
<path d="M11.1923 6.41018L7.66667 0.307617C7.32051 0.512745 7.02564 0.794797 6.82051 1.15377L0.307692 12.4358C0.106337 12.7871 0.000268093 13.1848 0 13.5897H7.05128L11.1923 6.41018Z" fill="#00AC47"/>
<path d="M18.8589 19.6924C19.2051 19.4873 19.4999 19.2052 19.7051 18.8463L20.1153 18.1411L22.0769 14.7437C22.282 14.3847 22.3846 13.9873 22.3846 13.5898H15.3328L16.8333 16.5386L18.8589 19.6924Z" fill="#EA4335"/>
<path d="M11.1923 6.41026L14.7179 0.307692C14.3718 0.102564 13.9743 0 13.5641 0H8.82047C8.41022 0 8.01278 0.115385 7.66663 0.307692L11.1923 6.41026Z" fill="#00832D"/>
<path d="M15.3333 13.5898H7.05128L3.52563 19.6924C3.87179 19.8975 4.26922 20.0001 4.67948 20.0001H17.7051C18.1154 20.0001 18.5128 19.8847 18.859 19.6924L15.3333 13.5898Z" fill="#2684FC"/>
<path d="M18.8205 6.7948L15.5641 1.15377C15.3589 0.794797 15.0641 0.512745 14.7179 0.307617L11.1923 6.41018L15.3333 13.5897H22.3717C22.3717 13.1922 22.2692 12.7948 22.0641 12.4358L18.8205 6.7948Z" fill="#FFBA00"/>
</g>
<defs>
<clipPath id="clip0_1003_64145">
<rect width="22.3846" height="20" fill="white"/>
</clipPath>
</defs>
</svg>
