<svg width="36" height="36" viewBox="0 0 36 36" fill="none" xmlns="http://www.w3.org/2000/svg">
<g filter="url(#filter0_dd_3311_80231)">
<path d="M23 13C23 18.5228 18.5228 23 13 23C7.47715 23 3 18.5228 3 13C3 7.47715 7.47715 3 13 3C18.5228 3 23 7.47715 23 13Z" fill="#253858"/>
</g>
<g filter="url(#filter1_di_3311_80231)">
<path d="M21 13C21 17.4183 17.4183 21 13 21C8.58172 21 5 17.4183 5 13C5 8.58172 8.58172 5 13 5C17.4183 5 21 8.58172 21 13Z" fill="url(#paint0_linear_3311_80231)"/>
</g>
<path fill-rule="evenodd" clip-rule="evenodd" d="M13 6.75C12.3096 6.75 11.75 7.30964 11.75 8V18C11.75 18.6904 12.3096 19.25 13 19.25C13.6904 19.25 14.25 18.6904 14.25 18V8C14.25 7.30964 13.6904 6.75 13 6.75Z" fill="white"/>
<path fill-rule="evenodd" clip-rule="evenodd" d="M19.25 13C19.25 12.3096 18.6904 11.75 18 11.75L8 11.75C7.30964 11.75 6.75 12.3096 6.75 13C6.75 13.6904 7.30964 14.25 8 14.25L18 14.25C18.6904 14.25 19.25 13.6904 19.25 13Z" fill="white"/>
<defs>
<filter id="filter0_dd_3311_80231" x="1" y="1" width="24" height="24" filterUnits="userSpaceOnUse" color-interpolation-filters="sRGB">
<feFlood flood-opacity="0" result="BackgroundImageFix"/>
<feColorMatrix in="SourceAlpha" type="matrix" values="0 0 0 0 0 0 0 0 0 0 0 0 0 0 0 0 0 0 127 0" result="hardAlpha"/>
<feOffset dx="-1" dy="-1"/>
<feGaussianBlur stdDeviation="0.5"/>
<feColorMatrix type="matrix" values="0 0 0 0 0.62309 0 0 0 0 0.68847 0 0 0 0 0.808333 0 0 0 1 0"/>
<feBlend mode="normal" in2="BackgroundImageFix" result="effect1_dropShadow_3311_80231"/>
<feColorMatrix in="SourceAlpha" type="matrix" values="0 0 0 0 0 0 0 0 0 0 0 0 0 0 0 0 0 0 127 0" result="hardAlpha"/>
<feOffset dx="1" dy="1"/>
<feGaussianBlur stdDeviation="0.5"/>
<feColorMatrix type="matrix" values="0 0 0 0 0 0 0 0 0 0 0 0 0 0 0 0 0 0 0.25 0"/>
<feBlend mode="normal" in2="effect1_dropShadow_3311_80231" result="effect2_dropShadow_3311_80231"/>
<feBlend mode="normal" in="SourceGraphic" in2="effect2_dropShadow_3311_80231" result="shape"/>
</filter>
<filter id="filter1_di_3311_80231" x="0" y="0" width="36" height="36" filterUnits="userSpaceOnUse" color-interpolation-filters="sRGB">
<feFlood flood-opacity="0" result="BackgroundImageFix"/>
<feColorMatrix in="SourceAlpha" type="matrix" values="0 0 0 0 0 0 0 0 0 0 0 0 0 0 0 0 0 0 127 0" result="hardAlpha"/>
<feOffset dx="5" dy="5"/>
<feGaussianBlur stdDeviation="5"/>
<feColorMatrix type="matrix" values="0 0 0 0 0.10697 0 0 0 0 0.0704861 0 0 0 0 0.291667 0 0 0 1 0"/>
<feBlend mode="normal" in2="BackgroundImageFix" result="effect1_dropShadow_3311_80231"/>
<feBlend mode="normal" in="SourceGraphic" in2="effect1_dropShadow_3311_80231" result="shape"/>
<feColorMatrix in="SourceAlpha" type="matrix" values="0 0 0 0 0 0 0 0 0 0 0 0 0 0 0 0 0 0 127 0" result="hardAlpha"/>
<feOffset dx="10" dy="10"/>
<feGaussianBlur stdDeviation="7.5"/>
<feComposite in2="hardAlpha" operator="arithmetic" k2="-1" k3="1"/>
<feColorMatrix type="matrix" values="0 0 0 0 1 0 0 0 0 1 0 0 0 0 1 0 0 0 0.2 0"/>
<feBlend mode="normal" in2="shape" result="effect2_innerShadow_3311_80231"/>
</filter>
<linearGradient id="paint0_linear_3311_80231" x1="10.2346" y1="8.85185" x2="16.8519" y2="26.2346" gradientUnits="userSpaceOnUse">
<stop stop-color="#593EC5"/>
<stop offset="1" stop-color="#6342E8" stop-opacity="0"/>
</linearGradient>
</defs>
</svg>
