<svg width="69" height="38" viewBox="0 0 69 38" fill="none" xmlns="http://www.w3.org/2000/svg">
<rect x="15.1582" y="0.789062" width="36.8183" height="36.8183" rx="18.4091" fill="#5664D2"/>
<path d="M26.9396 12.5703C26.3537 12.5703 25.7918 12.8031 25.3775 13.2173C24.9632 13.6316 24.7305 14.1935 24.7305 14.7794V15.884H42.4032V14.7794C42.4032 14.1935 42.1705 13.6316 41.7562 13.2173C41.3419 12.8031 40.78 12.5703 40.1941 12.5703H26.9396Z" fill="white"/>
<path fill-rule="evenodd" clip-rule="evenodd" d="M42.4032 18.0938H24.7305V23.6165C24.7305 24.2024 24.9632 24.7643 25.3775 25.1786C25.7918 25.5928 26.3537 25.8256 26.9396 25.8256H40.1941C40.78 25.8256 41.3419 25.5928 41.7562 25.1786C42.1705 24.7643 42.4032 24.2024 42.4032 23.6165V18.0938ZM26.9396 22.5119C26.9396 22.219 27.0559 21.9381 27.2631 21.7309C27.4702 21.5238 27.7512 21.4074 28.0441 21.4074H29.1487C29.4416 21.4074 29.7226 21.5238 29.9297 21.7309C30.1368 21.9381 30.2532 22.219 30.2532 22.5119C30.2532 22.8049 30.1368 23.0858 29.9297 23.293C29.7226 23.5001 29.4416 23.6165 29.1487 23.6165H28.0441C27.7512 23.6165 27.4702 23.5001 27.2631 23.293C27.0559 23.0858 26.9396 22.8049 26.9396 22.5119ZM32.4623 21.4074C32.1694 21.4074 31.8884 21.5238 31.6813 21.7309C31.4741 21.9381 31.3578 22.219 31.3578 22.5119C31.3578 22.8049 31.4741 23.0858 31.6813 23.293C31.8884 23.5001 32.1694 23.6165 32.4623 23.6165H33.5669C33.8598 23.6165 34.1407 23.5001 34.3479 23.293C34.555 23.0858 34.6714 22.8049 34.6714 22.5119C34.6714 22.219 34.555 21.9381 34.3479 21.7309C34.1407 21.5238 33.8598 21.4074 33.5669 21.4074H32.4623Z" fill="white"/>
<rect x="15.4609" y="0.667969" width="36.8183" height="36.8183" rx="18.4091" fill="#5664D2"/>
<path d="M35.0942 27.0065C34.8904 26.8982 34.7124 26.8042 34.5348 26.7096C34.0751 26.4644 33.6176 26.2153 33.1547 25.9762C33.0582 25.9263 33.0296 25.8691 33.0302 25.7651C33.0342 24.9437 33.0269 24.1224 33.0357 23.3011C33.0385 23.052 32.9624 22.8536 32.7981 22.6687C31.6297 21.3537 30.4674 20.0332 29.2999 18.7175C29.2199 18.6272 29.188 18.5387 29.1895 18.4191C29.1959 17.978 29.1919 17.537 29.1919 17.0959C29.1919 17.0408 29.1919 16.9858 29.1919 16.9219C32.4425 16.9219 35.6801 16.9219 38.9346 16.9219C38.9346 16.983 38.9346 17.0372 38.9346 17.0913C38.9346 17.5424 38.9395 17.9939 38.9304 18.445C38.9285 18.5308 38.8911 18.6339 38.8349 18.6981C37.6689 20.0286 36.4993 21.3564 35.326 22.6802C35.1657 22.8609 35.089 23.0523 35.0908 23.2978C35.0991 24.4689 35.0945 25.64 35.0945 26.8112C35.0942 26.8666 35.0942 26.9219 35.0942 27.0065Z" fill="white"/>
<path d="M31.0567 16.1595C30.4332 16.1595 29.8214 16.1595 29.2012 16.1595C29.2012 14.1163 29.2012 12.0803 29.2012 10.0312C29.8141 10.0312 30.4295 10.0312 31.0567 10.0312C31.0567 12.0681 31.0567 14.1077 31.0567 16.1595Z" fill="white"/>
<path d="M31.8184 11.6602C32.4459 11.6602 33.0619 11.6602 33.6855 11.6602C33.6855 13.1613 33.6855 14.654 33.6855 16.158C33.0643 16.158 32.4453 16.158 31.8184 16.158C31.8184 14.6616 31.8184 13.1686 31.8184 11.6602Z" fill="white"/>
<path d="M36.3061 16.1627C35.6812 16.1627 35.0695 16.1627 34.4453 16.1627C34.4453 15.2167 34.4453 14.2731 34.4453 13.3164C35.0601 13.3164 35.6785 13.3164 36.3061 13.3164C36.3061 14.26 36.3061 15.2039 36.3061 16.1627Z" fill="white"/>
<path d="M38.9269 14.918C38.9269 15.3368 38.9269 15.7405 38.9269 16.1533C38.3054 16.1533 37.69 16.1533 37.0664 16.1533C37.0664 15.7408 37.0664 15.3326 37.0664 14.918C37.6873 14.918 38.299 14.918 38.9269 14.918Z" fill="white"/>
<rect x="15.4609" y="0.0429688" width="36.8183" height="36.8183" rx="18.4091" fill="#5664D2"/>
<path d="M30.3828 26.4496L35.9992 11.4727H37.372L31.7557 26.4496H30.3828Z" fill="#F9F9F9"/>
<path d="M37.7479 25.2034H39.2455L43.8634 18.963L39.2455 12.7227H37.623L42.3657 18.963L37.7479 25.2034Z" fill="#F9F9F9"/>
<path d="M30.0101 25.2034H28.5124L23.8945 18.963L28.5124 12.7227H30.1349L25.3922 18.963L30.0101 25.2034Z" fill="#F9F9F9"/>
</svg>
