<svg width="24" height="24" viewBox="0 0 24 24" fill="none" xmlns="http://www.w3.org/2000/svg">
<path fill-rule="evenodd" clip-rule="evenodd" d="M5.99979 0H22.8001C23.4628 0 24 0.537175 24 1.19994V22.8001C24 23.4628 23.4628 24 22.8001 24H1.19994C0.537175 24 0 23.4628 0 22.8001V1.19994C0 0.537175 0.537175 0 1.19994 0H5.99979ZM4.79986 1.19994H1.19984V22.8001H4.79986V1.19994ZM5.99979 22.8001V1.19994H22.8001V22.8001H5.99979Z" fill="#6D7884"/>
<rect x="1.42969" y="2.28613" width="2.85714" height="0.857143" rx="0.428571" fill="#6D7884"/>
<rect x="1.42969" y="4" width="2.85714" height="0.857143" rx="0.428571" fill="#6D7884"/>
<rect x="1.42969" y="5.71387" width="2.85714" height="0.857143" rx="0.428571" fill="#6D7884"/>
<rect x="1.42969" y="7.42871" width="2.85714" height="0.857143" rx="0.428571" fill="#6D7884"/>
<rect x="1.42969" y="9.14258" width="2.85714" height="0.857143" rx="0.428571" fill="#6D7884"/>
<rect x="1.42969" y="10.8574" width="2.85714" height="0.857143" rx="0.428571" fill="#6D7884"/>
<rect x="7" y="2" width="15" height="20" rx="0.5" fill="#6D7884"/>
<path d="M14.6169 12.5886L19.4168 15.6496C19.7131 15.8009 20.0736 15.6783 20.2218 15.376C20.3698 15.0734 20.2497 14.7057 19.9534 14.5546L15.1536 11.4934C14.8571 11.3423 14.4967 11.4649 14.3487 11.7673C14.2004 12.0696 14.3205 12.4374 14.6169 12.5886Z" fill="white"/>
<path d="M15.1536 12.5108L19.9534 9.65394C20.2497 9.51275 20.3698 9.16954 20.2218 8.88737C20.0735 8.60499 19.7131 8.49059 19.4168 8.63177L14.6169 11.4886C14.3205 11.6298 14.2004 11.973 14.3487 12.2552C14.4967 12.5376 14.8571 12.652 15.1536 12.5108Z" fill="white"/>
</svg>
