<svg width="17" height="16" viewBox="0 0 17 16" fill="none" xmlns="http://www.w3.org/2000/svg">
<path d="M11.0314 0C8.08947 0 5.70883 0.88 5.70883 2V4C2.8056 4.1 0.870117 4.94 0.870117 6V8V10V12C0.870117 13.09 3.25076 14 6.1927 14C6.21205 14 6.23431 14 6.25754 14C6.96592 14 7.66076 13.945 8.34108 13.84C9.01657 15.145 10.3675 15.998 11.9121 15.998C13.864 15.998 15.5072 14.635 15.9998 12.781C16.2021 12.582 16.3327 12.339 16.355 12.064V10V2C16.355 0.88 13.9743 0 11.0324 0L11.0314 0ZM6.1927 5C8.61205 5 10.5475 5.45 10.5475 6C10.5475 6.55 8.61205 7 6.1927 7C3.77334 7 1.83786 6.55 1.83786 6C1.83786 5.45 3.77334 5 6.1927 5ZM6.1927 13C3.57012 13 2.07979 12.29 1.83786 12V11.2C2.99818 11.712 4.34915 12.009 5.76689 12.009C5.91689 12.009 6.06592 12.006 6.21399 11.999C6.7056 11.998 7.21076 11.969 7.70818 11.914C7.66657 12.285 7.72947 12.626 7.82721 12.951C7.38979 12.972 6.89141 13.002 6.38721 13.002C6.31947 13.002 6.25076 13.001 6.18302 13H6.1927ZM7.71205 10.91C7.26012 10.967 6.73657 11 6.20625 11C6.20141 11 6.19657 11 6.1927 11C3.57108 11 2.08076 10.29 1.83883 10V9.16C3.02238 9.695 4.40237 10.006 5.85205 10.006C5.97205 10.006 6.09205 10.004 6.21108 10C6.8227 9.999 7.44108 9.956 8.04689 9.872C7.85625 10.178 7.76528 10.526 7.71592 10.887L7.71205 10.91ZM6.1927 9C3.57012 9 2.07979 8.29 1.83786 8V7.1C3.02141 7.635 4.40141 7.946 5.85108 7.946C5.97108 7.946 6.09108 7.944 6.21012 7.94C6.29528 7.944 6.41528 7.946 6.53625 7.946C7.98592 7.946 9.36496 7.635 10.6143 7.074L10.5485 7.44C9.79657 7.705 9.1627 8.157 8.67592 8.744C7.94818 8.909 7.11689 9 6.26528 9C6.24012 9 6.21496 9 6.19076 9H6.1927ZM11.9121 15C10.0898 15 8.61205 13.473 8.61205 11.59C8.61205 9.707 10.0898 8.18 11.9121 8.18C13.7343 8.18 15.2121 9.707 15.2121 11.59C15.2121 13.473 13.7343 15 11.9121 15ZM15.3862 8C15.2169 8.167 15.0137 8.3 14.7891 8.386C14.5104 8.142 14.2085 7.926 13.8814 7.752C14.4379 7.599 14.9469 7.4 15.423 7.142L15.3862 8ZM15.3862 6C15.154 6.31 13.8282 6.94 11.5153 7V6C11.5182 6 11.5221 6 11.5259 6C12.9224 6 14.2491 5.695 15.4482 5.145L15.3862 6ZM15.3862 4C15.1443 4.33 13.654 5 11.0314 5H10.8088C9.63496 4.37 8.24625 4 6.77431 4C6.76076 4 6.74625 4 6.7327 4H6.67657V3.1C7.86012 3.635 9.24012 3.946 10.6898 3.946C10.8098 3.946 10.9298 3.944 11.0488 3.94C11.134 3.944 11.254 3.946 11.375 3.946C12.8246 3.946 14.2037 3.635 15.453 3.074L15.3872 4H15.3862ZM11.0314 3C8.61205 3 6.67657 2.55 6.67657 2C6.67657 1.45 8.61205 1 11.0314 1C13.4508 1 15.3862 1.45 15.3862 2C15.3862 2.55 13.4508 3 11.0314 3Z" fill="white"/>
</svg>
