<svg width="25" height="25" viewBox="0 0 25 25" fill="none" xmlns="http://www.w3.org/2000/svg">
<path d="M18.7976 12.55C18.7311 12.55 18.6673 12.5764 18.6202 12.6235C18.5732 12.6705 18.5468 12.7343 18.5468 12.8009V18.2471C18.5467 18.3855 18.4344 18.4978 18.2959 18.4979H14.7009C14.5624 18.4979 14.4501 18.6103 14.4501 18.7488C14.4501 18.8873 14.5624 18.9997 14.7009 18.9997H18.2959C18.4955 18.9994 18.6868 18.92 18.8279 18.7789C18.9689 18.6379 19.0483 18.4466 19.0485 18.2471V12.8009C19.0485 12.7343 19.0221 12.6705 18.975 12.6235C18.928 12.5764 18.8642 12.55 18.7976 12.55Z" fill="#516D83"/>
<path d="M18.2959 6H12.6662C12.529 6.0019 12.4187 6.11367 12.4187 6.25087C12.4187 6.38817 12.529 6.49994 12.6662 6.50173H18.2959C18.4344 6.50184 18.5466 6.61417 18.5467 6.7526V7.76592H5.50174V6.7526C5.50185 6.61417 5.61407 6.50184 5.7526 6.50173H11.6627C11.7999 6.49972 11.9099 6.38806 11.9099 6.25087C11.9099 6.11379 11.7999 6.00202 11.6627 6H5.7526C5.55303 6.00022 5.36174 6.07963 5.22063 6.22074C5.07963 6.36174 5.00022 6.55314 5 6.7526V18.2474C5.00022 18.4469 5.07963 18.6383 5.22063 18.7793C5.36174 18.9204 5.55303 18.9998 5.7526 19H13.6974C13.836 19 13.9483 18.8877 13.9483 18.7491C13.9483 18.6106 13.836 18.4983 13.6974 18.4983H5.7526C5.61407 18.4982 5.50185 18.3858 5.50174 18.2474V8.26755H18.5467V11.7974C18.5467 11.9361 18.6591 12.0483 18.7976 12.0483C18.9361 12.0483 19.0485 11.9361 19.0485 11.7974V6.75261C19.0482 6.55315 18.9688 6.36175 18.8278 6.22074C18.6867 6.07963 18.4954 6.00022 18.2959 6Z" fill="#516D83"/>
<path d="M9.51821 15.7664C10.4194 15.7654 11.2834 15.4069 11.9207 14.7697C12.558 14.1324 12.9163 13.2684 12.9173 12.3672C12.7308 7.85764 6.3051 7.8585 6.11902 12.3672C6.11779 13.0208 6.30616 13.6607 6.66118 14.2094C6.69724 14.2654 6.75414 14.3048 6.81931 14.3188C6.88438 14.3328 6.95247 14.3204 7.00836 14.2841C7.06436 14.2479 7.10355 14.1909 7.11733 14.1257C7.13122 14.0605 7.11845 13.9926 7.08205 13.9367C5.83355 12.0585 7.25889 9.43945 9.51826 9.46984C10.2864 9.47073 11.0229 9.77627 11.5661 10.3195C12.1092 10.8627 12.4148 11.5992 12.4157 12.3673C12.4358 14.7727 9.5569 16.1527 7.70168 14.6232C7.59394 14.5366 7.43636 14.5534 7.34935 14.6609C7.26233 14.7685 7.2789 14.9261 7.38619 15.0133C7.98827 15.5037 8.74187 15.77 9.51832 15.7666L9.51821 15.7664Z" fill="#516D83"/>
<path d="M9.51838 10.0761C7.3952 10.0764 6.42916 12.7484 8.03045 14.1043C9.43765 15.347 11.7392 14.3547 11.8035 12.4693C11.8319 11.8451 11.6039 11.2364 11.1723 10.7845C10.7407 10.3324 10.1433 10.0766 9.51833 10.076L9.51838 10.0761ZM11.2978 12.1857L9.76925 12.1254V10.5975C10.1647 10.6539 10.5299 10.8408 10.8069 11.1286C11.0839 11.4163 11.2567 11.7885 11.2978 12.1857ZM7.72981 12.3666C7.7306 11.9361 7.88649 11.5202 8.16893 11.1954C8.45127 10.8705 8.84133 10.6581 9.26758 10.5975V12.2743L8.18134 13.5507C7.89071 13.2248 7.7299 12.8034 7.72978 12.3666L7.72981 12.3666ZM9.51847 14.1554C9.1799 14.1553 8.84853 14.0585 8.56317 13.8763L9.63057 12.6221L11.2769 12.687H11.2768C11.2015 13.0986 10.9845 13.471 10.6633 13.7392C10.3421 14.0074 9.937 14.1547 9.51847 14.1554Z" fill="#516D83"/>
<path d="M14.4495 17.7856C14.4495 17.8521 14.4759 17.9159 14.5229 17.963C14.57 18.0101 14.6338 18.0364 14.7003 18.0364H15.7213C15.7878 18.0364 15.8516 18.0101 15.8986 17.963C15.9457 17.9159 15.9721 17.8521 15.9721 17.7856V14.9317C15.9721 14.8651 15.9457 14.8013 15.8986 14.7543C15.8516 14.7072 15.7878 14.6808 15.7213 14.6808H14.7003C14.6338 14.6808 14.57 14.7072 14.5229 14.7543C14.4759 14.8013 14.4495 14.8651 14.4495 14.9317V17.7856ZM14.9512 15.1825H15.4704V17.5347H14.9512V15.1825Z" fill="#516D83"/>
<path d="M12.6661 18.0364H13.6871C13.7536 18.0364 13.8174 18.0101 13.8645 17.9629C13.9115 17.9159 13.9379 17.852 13.9379 17.7855V16.1904V16.1905C13.9379 16.1239 13.9115 16.0601 13.8645 16.013C13.8174 15.966 13.7536 15.9395 13.6871 15.9396H12.6661C12.5996 15.9395 12.5358 15.966 12.4888 16.013C12.4417 16.0601 12.4153 16.1239 12.4153 16.1905V17.7856V17.7855C12.4153 17.852 12.4417 17.9159 12.4888 17.9629C12.5358 18.0101 12.5996 18.0364 12.6661 18.0364ZM12.917 16.4413H13.4361V17.5347H12.917V16.4413Z" fill="#516D83"/>
<path d="M16.4839 14.9317V17.7856C16.4839 17.8521 16.5103 17.9159 16.5574 17.963C16.6044 18.0101 16.6682 18.0364 16.7348 18.0364H17.7557C17.8222 18.0364 17.886 18.0101 17.9331 17.963C17.9801 17.9159 18.0065 17.8521 18.0065 17.7856V14.9317C18.0065 14.8651 17.9801 14.8013 17.9331 14.7543C17.886 14.7072 17.8222 14.6808 17.7557 14.6808H16.7348C16.6682 14.6808 16.6044 14.7072 16.5574 14.7543C16.5103 14.8013 16.4839 14.8651 16.4839 14.9317ZM16.9856 15.1825H17.5047V17.5347H16.9856V15.1825Z" fill="#516D83"/>
<path d="M14.7193 9.81008H17.2453C17.3825 9.80818 17.4926 9.69641 17.4926 9.55922C17.4926 9.42202 17.3825 9.31037 17.2453 9.30835H14.7193C14.5821 9.31037 14.4719 9.42202 14.4719 9.55922C14.4719 9.69641 14.5821 9.80818 14.7193 9.81008Z" fill="#516D83"/>
<path d="M14.7193 10.9276H17.2453C17.3825 10.9256 17.4926 10.814 17.4926 10.6768C17.4926 10.5396 17.3825 10.4278 17.2453 10.4259H14.7193C14.5821 10.4278 14.4719 10.5396 14.4719 10.6768C14.4719 10.814 14.5821 10.9256 14.7193 10.9276Z" fill="#516D83"/>
<path d="M14.7193 12.0452H17.2453C17.3825 12.0433 17.4926 11.9315 17.4926 11.7943C17.4926 11.6571 17.3825 11.5454 17.2453 11.5435H14.7193C14.5821 11.5454 14.4719 11.6571 14.4719 11.7943C14.4719 11.9315 14.5821 12.0433 14.7193 12.0452Z" fill="#516D83"/>
<path d="M6.17615 7.13369C6.17816 7.27088 6.28982 7.38097 6.42701 7.38097C6.56421 7.38097 6.67597 7.27088 6.67788 7.13369C6.67597 6.99649 6.56421 6.88629 6.42701 6.88629C6.28982 6.88629 6.17816 6.99649 6.17615 7.13369Z" fill="#516D83"/>
<path d="M8.07153 7.13369C8.07355 7.27088 8.18521 7.38097 8.3224 7.38097C8.45959 7.38097 8.57136 7.27088 8.57326 7.13369C8.57136 6.99649 8.45959 6.88629 8.3224 6.88629C8.18521 6.88629 8.07355 6.99649 8.07153 7.13369Z" fill="#516D83"/>
<path d="M9.96729 7.13369C9.9693 7.27088 10.081 7.38097 10.2182 7.38097C10.3553 7.38097 10.4671 7.27088 10.469 7.13369C10.4671 6.99649 10.3553 6.88629 10.2182 6.88629C10.081 6.88629 9.9693 6.99649 9.96729 7.13369Z" fill="#516D83"/>
<rect x="0.414062" y="0.414062" width="23.1875" height="23.1875" rx="11.5938" stroke="#F1BF42" stroke-width="0.828125"/>
</svg>
