<svg width="18" height="19" viewBox="0 0 18 19" fill="none" xmlns="http://www.w3.org/2000/svg">
<path d="M13.1068 9.49426C11.7811 8.1742 10.4618 6.86021 9.13617 5.54016C8.21542 6.13621 7.28256 6.74034 6.3724 7.32984C7.34562 9.66157 8.99743 11.3001 11.3132 12.2762C11.9032 11.3609 12.5021 10.4323 13.1068 9.49426ZM13.4645 9.16898C13.662 8.96407 13.8593 8.75739 14.0593 8.55324C14.3002 8.30694 14.3027 8.04601 14.0613 7.80274C13.777 7.51632 13.4915 7.23117 13.2067 6.94525C13.1782 6.91648 13.1517 6.88544 13.1174 6.84784C13.1499 6.81983 13.1759 6.79863 13.2006 6.77618C14.0802 5.97546 14.9584 5.17324 15.8395 4.37429C16.2994 3.95715 16.3582 3.34368 16.0479 2.89273C15.6243 2.27674 14.7818 2.24091 14.2747 2.79936C13.5967 3.54632 12.9173 4.29202 12.2385 5.03798C12.0919 5.19898 11.9451 5.35947 11.7932 5.52577C11.7554 5.49069 11.7241 5.46369 11.6951 5.43467C11.4035 5.14371 11.1134 4.85123 10.8205 4.56128C10.6137 4.35637 10.3473 4.34729 10.1346 4.54538C9.91036 4.75458 9.69468 4.97287 9.47975 5.18283C10.8099 6.51348 12.1262 7.83 13.4645 9.16898ZM12.9751 13.6356C12.4779 14.0081 11.9264 14.1986 11.3583 14.3495C10.7204 14.5188 10.0716 14.6319 9.41391 14.6773C8.76484 14.722 8.11351 14.7735 7.46419 14.7634C6.73919 14.752 6.01368 14.6914 5.29146 14.621C4.67392 14.561 4.06597 14.4285 3.47341 14.2392C3.04205 14.1014 2.62632 13.9266 2.25852 13.6447C2.25045 13.6674 2.24263 13.6788 2.24263 13.6901C2.24187 14.0813 2.24036 14.4722 2.24238 14.8633C2.24313 15.0117 2.3009 15.1386 2.40029 15.2496C2.6079 15.4818 2.87732 15.6178 3.15708 15.7339C3.91537 16.0483 4.71605 16.1886 5.5243 16.2876C6.31715 16.3845 7.1143 16.4145 7.91346 16.4014C9.02392 16.383 10.1253 16.2856 11.2052 16.0133C11.706 15.8871 12.1981 15.7332 12.6244 15.4273C12.8091 15.2948 12.9688 15.1333 12.9733 14.8868C12.9801 14.479 12.9751 14.0712 12.9751 13.6356ZM7.80272 14.3326C8.46364 14.2794 9.12583 14.2387 9.78499 14.1698C10.5617 14.0888 11.3248 13.9316 12.0526 13.6384C12.3366 13.5241 12.6121 13.3855 12.821 13.1493C12.9541 12.9987 13.0233 12.8251 12.9441 12.6275C12.852 12.3978 12.6635 12.255 12.4549 12.1394C12.4264 12.1235 12.3734 12.1384 12.3371 12.1525C12.2239 12.1959 12.1169 12.2595 12.0006 12.2896C11.8586 12.3262 11.7713 12.4087 11.6999 12.5306C11.5937 12.712 11.4247 12.79 11.2193 12.7549C11.123 12.7382 11.0344 12.6789 10.9398 12.6454C10.8906 12.628 10.8344 12.6098 10.7847 12.6166C10.3904 12.6711 9.99739 12.7355 9.60311 12.7892C8.88593 12.8869 8.16371 12.9078 7.44123 12.9028C6.61356 12.8972 5.78892 12.8425 4.97033 12.711C4.29528 12.6027 3.62401 12.4753 2.99588 12.1934C2.83444 12.121 2.7247 12.1432 2.5905 12.2479C2.12482 12.6118 2.13063 13.0052 2.61572 13.3426C3.01859 13.623 3.47619 13.7726 3.94363 13.8938C5.20847 14.2218 6.49954 14.3109 7.80272 14.3326ZM2.25524 9.68453C2.24919 9.70447 2.24263 9.71582 2.24263 9.72743C2.24187 10.1183 2.23986 10.5095 2.24263 10.9004C2.24389 11.0889 2.33698 11.2357 2.4732 11.3581C2.77339 11.6281 3.13841 11.7773 3.51428 11.8992C4.66636 12.2724 5.85779 12.4001 7.06006 12.4253C7.72679 12.4392 8.39528 12.4077 9.06201 12.3764C9.42804 12.3592 9.7923 12.3004 10.1914 12.2568C10.1387 12.2181 10.1177 12.1987 10.0935 12.1856C9.40811 11.8146 8.78275 11.3591 8.19827 10.8448C8.1627 10.8136 8.10291 10.7961 8.05397 10.7954C7.87764 10.7924 7.70131 10.8035 7.52498 10.8019C6.6847 10.7949 5.84719 10.7477 5.01624 10.6152C4.04756 10.461 3.09452 10.2604 2.25524 9.68453ZM7.69122 10.3341C7.6665 10.2993 7.65313 10.2798 7.63926 10.2609C7.33351 9.84048 7.025 9.42209 6.7243 8.99813C6.67764 8.93227 6.63551 8.90375 6.55554 8.89921C5.82121 8.85833 5.09343 8.77253 4.38281 8.57368C3.96129 8.45583 3.54909 8.31805 3.21585 8.01371C3.19265 7.99251 3.1321 7.98368 3.10562 7.99882C2.90204 8.11314 2.69468 8.22392 2.50448 8.35817C2.37885 8.447 2.28072 8.57343 2.25423 8.73796C2.21236 8.99864 2.35716 9.17049 2.54005 9.31559C2.92979 9.62472 3.39345 9.77588 3.86316 9.90483C4.93401 10.1988 6.03185 10.2957 7.13675 10.3333C7.31535 10.3394 7.4942 10.3341 7.69122 10.3341ZM6.38476 8.43211C6.34919 8.36195 6.33128 8.32511 6.31236 8.28903C6.19254 8.05863 6.06943 7.82974 5.95289 7.59758C5.81843 7.32908 5.87519 7.1118 6.11938 6.94172C6.19153 6.8915 6.26721 6.84633 6.34087 6.79838C6.54242 6.66716 6.74348 6.53568 6.94478 6.40421C6.02049 6.4249 5.1121 6.50969 4.23751 6.79712C4.00669 6.87308 3.78041 6.99118 3.5834 7.13325C3.33543 7.31242 3.35838 7.57108 3.61317 7.74445C3.73375 7.82646 3.86442 7.89763 3.99862 7.95466C4.44916 8.14594 4.92593 8.24209 5.407 8.31426C5.72182 8.36145 6.03891 8.39098 6.38476 8.43211Z" fill="white"/>
</svg>
