<svg width="126" height="100" viewBox="0 0 126 100" fill="none" xmlns="http://www.w3.org/2000/svg">
<path d="M84.5361 96.0607C90.1782 96.0607 95.819 96.0607 101.461 96.0607C99.9691 95.6832 98.6311 95.0465 97.501 93.9953C95.8226 92.4351 94.9661 90.5035 94.9613 88.223C94.947 80.4581 94.9553 72.6944 94.9553 64.9296C94.9553 46.0562 94.9792 27.1816 94.935 8.30819C94.9267 4.6157 97.329 1.11912 101.203 0.323525C101.803 0.200482 102.425 0.140752 103.037 0.137168C106.441 0.119249 109.846 0.124028 113.251 0.130001C117.5 0.135974 120.698 2.88474 121.322 7.07537C121.387 7.50543 121.369 7.94982 121.369 8.38704C121.371 34.8855 121.355 61.3852 121.389 87.8837C121.394 91.575 119.172 94.5687 116.075 95.6522C115.685 95.7883 115.278 95.872 114.861 96.0667C115.053 96.0774 115.246 96.0966 115.438 96.0966C117.947 96.0989 120.455 96.0774 122.963 96.1157C123.474 96.124 124.041 96.253 124.479 96.5063C125.181 96.9125 125.432 97.7893 125.219 98.5431C124.995 99.3423 124.336 99.9013 123.507 99.9826C123.271 100.005 123.03 99.9993 122.792 99.9993C82.6952 100 42.5987 100 2.5021 99.9933C2.07204 99.9933 1.61451 99.967 1.21552 99.8237C0.361384 99.5191 -0.110481 98.641 0.0221185 97.7738C0.159497 96.885 0.835637 96.2303 1.73756 96.1312C1.99439 96.1025 2.25362 96.0989 2.51165 96.0989C4.88053 96.0965 7.24941 96.0978 9.61949 96.0978C9.82496 96.0978 10.0304 96.0978 10.2036 96.0978C9.23961 95.6378 8.20509 95.2998 7.34737 94.706C5.03105 93.1005 3.91889 90.8212 3.92008 87.9912C3.92486 72.5415 3.92247 57.093 3.92247 41.6434C3.92247 30.4548 3.90694 19.2662 3.93203 8.07644C3.93919 4.76622 5.51725 2.35792 8.46551 0.877817C9.54304 0.336665 10.7257 0.13239 11.9334 0.130001C15.338 0.125223 18.7426 0.162255 22.146 0.120444C26.824 0.0631036 30.3959 3.67675 30.3338 8.14095C30.3326 8.21979 30.3338 8.29864 30.3338 8.51725C30.4329 8.30581 30.4867 8.2186 30.5165 8.12303C31.4698 5.0816 33.546 3.26103 36.6173 2.5395C39.9395 1.75943 43.264 0.985331 46.591 0.225569C51.1137 -0.806561 55.2124 1.7869 56.2469 6.2953C57.684 12.561 59.1414 18.823 60.5845 25.0875C60.6418 25.3359 60.6753 25.5964 60.6753 25.852C60.68 37.7179 60.6788 49.5838 60.6788 61.4497C60.6788 61.6062 60.6788 61.7627 60.6788 62.0004C59.8247 61.476 59.004 61.6301 58.1559 61.8416C56.2696 62.311 54.3678 62.722 52.478 63.1783C51.2702 63.4698 50.6335 64.4577 50.8939 65.5723C51.1412 66.6343 52.1769 67.2519 53.3548 66.9867C55.523 66.4969 57.684 65.9796 59.845 65.4636C60.1102 65.4003 60.3611 65.2832 60.6777 65.1697C60.6777 66.4826 60.6896 67.7691 60.6585 69.0545C60.655 69.1776 60.3993 69.3627 60.2321 69.4033C58.2467 69.8872 56.2529 70.3387 54.2663 70.8189C53.0167 71.1212 52.3884 72.1115 52.6822 73.2535C52.9546 74.3119 53.9808 74.8555 55.1837 74.5795C56.9804 74.1686 58.7782 73.7564 60.6777 73.3216C60.6777 73.5928 60.6777 73.8186 60.6777 74.0431C60.6777 78.5229 60.7039 83.0026 60.6681 87.4811C60.6466 90.0949 61.2033 92.5235 62.6475 94.724C62.6786 94.7706 62.6858 94.8327 62.7228 94.9462C61.312 95.283 59.9155 95.6163 58.519 95.9496C58.5214 95.9795 58.5238 96.0105 58.5274 96.0404C62.7156 96.0404 66.9039 96.0404 71.1256 96.0404C70.4674 95.8075 69.8079 95.6438 69.2118 95.3523C66.2457 93.8997 64.6258 91.5057 64.6222 88.1979C64.5983 61.4605 64.6055 34.7231 64.6126 7.98446C64.6138 3.75082 67.936 0.260211 72.1768 0.157476C75.9374 0.0654925 79.704 0.066687 83.4645 0.157476C87.6647 0.259017 90.9212 3.66242 91.0168 7.87456C91.0204 8.05375 91.0227 8.23293 91.0227 8.41212C91.0227 34.8915 91.0168 61.3697 91.0311 87.8491C91.0323 90.6791 89.9751 92.9416 87.7065 94.626C86.7592 95.332 85.6757 95.7549 84.5361 96.0607ZM30.446 12.113C30.409 12.119 30.372 12.1261 30.3338 12.1321C30.3338 12.3507 30.3338 12.5693 30.3338 12.7867C30.3338 35.6393 30.3338 58.4919 30.3338 81.3433C30.3338 83.7325 30.3565 86.1217 30.3194 88.5097C30.2908 90.3673 29.6027 91.9955 28.3842 93.3908C27.1753 94.7741 25.6462 95.6211 23.8579 96.0165C33.8901 96.0165 43.9223 96.0165 53.9545 96.0165C53.8434 95.8994 53.7191 95.8517 53.5949 95.8051C51.0134 94.8327 49.335 93.0193 48.6146 90.3601C48.2467 89.0019 47.9624 87.6209 47.6434 86.2483C44.952 74.6536 42.2594 63.0588 39.5716 51.4629C36.8837 39.867 34.2019 28.2699 31.5164 16.6739C31.164 15.152 30.8032 13.6337 30.446 12.113ZM47.383 32.0233C50.3623 32.0304 52.7778 29.6604 52.7826 26.7276C52.7885 23.7101 50.3289 21.2588 47.3161 21.2791C44.4347 21.2982 42.0348 23.7328 42.0264 26.644C42.0169 29.6568 44.3679 32.0161 47.383 32.0233ZM17.2255 20.7415C14.2641 20.6555 11.8128 23.016 11.7506 26.0133C11.6897 28.9532 13.9953 31.3424 17.0009 31.4547C19.942 31.5634 22.4016 29.2196 22.5092 26.2068C22.6143 23.2717 20.2526 20.8299 17.2255 20.7415ZM108.305 20.7451C105.388 20.6328 102.935 22.9133 102.807 25.8544C102.676 28.8851 104.928 31.3137 107.999 31.4523C110.937 31.5849 113.454 29.2757 113.54 26.2474C113.632 22.9826 111.047 20.7845 108.305 20.7451ZM77.9264 20.7427C74.9865 20.6519 72.5495 22.9683 72.4516 25.9452C72.3536 28.9221 74.646 31.3352 77.6839 31.4547C80.6202 31.5693 83.0871 29.2303 83.2065 26.2164C83.3212 23.2932 80.9523 20.8359 77.9264 20.7427ZM77.8153 74.5413C78.9084 74.5413 80.0002 74.5413 81.0933 74.5413C81.1136 74.5413 81.1327 74.5413 81.153 74.5413C82.3058 74.5222 83.1575 73.7349 83.1993 72.6502C83.24 71.5656 82.3739 70.6385 81.2187 70.6254C78.9538 70.5979 76.6888 70.5979 74.4239 70.6254C73.2663 70.6397 72.4468 71.4951 72.4528 72.5834C72.4599 73.7254 73.2842 74.5293 74.4776 74.5401C75.5898 74.5485 76.7031 74.5413 77.8153 74.5413ZM108.098 74.5413C109.21 74.5413 110.324 74.5413 111.436 74.5413C111.475 74.5413 111.516 74.5413 111.555 74.5413C112.66 74.5138 113.506 73.7134 113.55 72.655C113.595 71.6002 112.746 70.6493 111.629 70.6314C109.325 70.5944 107.02 70.5944 104.716 70.6302C103.566 70.6481 102.776 71.5333 102.806 72.6371C102.836 73.7493 103.652 74.5281 104.82 74.5389C105.912 74.5485 107.005 74.5413 108.098 74.5413ZM17.0869 74.5413C18.1991 74.5413 19.3124 74.5473 20.4246 74.5401C21.6204 74.5329 22.4829 73.7337 22.5032 72.6264C22.5235 71.5249 21.6718 70.6362 20.5034 70.623C18.2588 70.5991 16.013 70.6003 13.7683 70.623C12.5845 70.635 11.7339 71.507 11.7566 72.606C11.7793 73.7397 12.6119 74.5317 13.8089 74.5401C14.902 74.5473 15.995 74.5413 17.0869 74.5413ZM108.154 54.9655C107.121 54.9655 106.088 54.9655 105.054 54.9655C105.034 54.9655 105.015 54.9655 104.995 54.9655C103.687 54.9786 102.811 55.7479 102.805 56.8888C102.798 58.081 103.665 58.8861 104.985 58.8897C107.112 58.8969 109.238 58.8969 111.364 58.8897C112.617 58.8849 113.554 58.0356 113.553 56.9294C113.552 55.81 112.634 54.9774 111.374 54.9679C110.301 54.9595 109.227 54.9655 108.154 54.9655ZM77.8093 58.8921C78.8821 58.8921 79.956 58.8993 81.0288 58.8897C82.2819 58.879 83.2137 58.0272 83.2041 56.9186C83.1946 55.7945 82.2843 54.9726 81.0168 54.9679C78.8904 54.9607 76.7641 54.9583 74.6377 54.9726C74.3068 54.975 73.9568 55.024 73.6498 55.1411C72.7705 55.4756 72.3297 56.3404 72.4922 57.314C72.6379 58.1921 73.461 58.8658 74.4704 58.8861C75.5826 58.9076 76.696 58.8909 77.8093 58.8921ZM17.1526 54.9655C16.0799 54.9655 15.0059 54.9595 13.9332 54.9667C12.6478 54.9762 11.7471 55.7862 11.7542 56.9115C11.7614 58.0642 12.6406 58.8837 13.9105 58.8885C16.0572 58.8981 18.2027 58.8981 20.3493 58.8885C21.6049 58.8825 22.5235 58.0236 22.5056 56.9055C22.4877 55.7933 21.6001 54.9798 20.372 54.9679C19.2993 54.9571 18.2265 54.9655 17.1526 54.9655ZM49.0781 57.4634C49.0662 58.7452 50.1497 59.6459 51.5163 59.3604C53.7669 58.8909 56.0056 58.3569 58.2371 57.8002C59.2919 57.5374 59.8462 56.4683 59.5786 55.4134C59.3278 54.4243 58.3028 53.7852 57.2647 54.0193C55.0404 54.5223 52.8196 55.0383 50.6024 55.5723C49.6754 55.7957 49.0865 56.5638 49.0781 57.4634ZM47.2946 49.8442C47.303 51.0544 48.3865 51.9861 49.5727 51.7496C50.778 51.5095 51.9726 51.2168 53.1708 50.9397C54.2722 50.6852 55.3796 50.4511 56.4703 50.156C57.4881 49.8801 58.0495 48.8898 57.8214 47.8923C57.592 46.8936 56.6017 46.1601 55.6472 46.368C53.3416 46.8721 51.0421 47.4025 48.7484 47.958C47.8549 48.1754 47.2886 48.971 47.2946 49.8442ZM77.8715 62.8211C76.7366 62.8211 75.6017 62.814 74.4669 62.8235C73.3081 62.8331 72.4994 63.5833 72.4587 64.6644C72.4157 65.8064 73.154 66.6677 74.3319 66.688C76.6601 66.7286 78.9908 66.7274 81.319 66.6856C82.4503 66.6653 83.2495 65.761 83.1982 64.711C83.1444 63.6096 82.3428 62.8355 81.2163 62.8235C80.1006 62.8116 78.986 62.8211 77.8715 62.8211ZM108.174 62.8223C107.018 62.8223 105.864 62.8104 104.709 62.8259C103.642 62.8402 102.849 63.6155 102.809 64.6477C102.764 65.7813 103.47 66.6546 104.603 66.6773C106.971 66.7239 109.341 66.7227 111.708 66.6797C112.799 66.6606 113.59 65.7479 113.548 64.7253C113.504 63.6275 112.695 62.8367 111.577 62.8235C110.443 62.8116 109.308 62.8211 108.174 62.8223ZM17.1574 62.8211C16.0022 62.8211 14.8482 62.8104 13.6931 62.8247C12.5976 62.8378 11.7948 63.6239 11.7602 64.6847C11.7244 65.7658 12.4495 66.6534 13.5425 66.6749C15.9305 66.7215 18.3197 66.7203 20.7077 66.6749C21.7745 66.6546 22.5235 65.7742 22.5032 64.7492C22.4817 63.6549 21.6718 62.839 20.5632 62.8247C19.4271 62.8104 18.2922 62.8211 17.1574 62.8211ZM17.0977 51.0173C18.3281 51.0173 19.5633 51.0783 20.7889 50.9982C21.827 50.9313 22.5343 50.0425 22.5032 49.0546C22.4709 48.0523 21.6825 47.1934 20.7029 47.1839C18.3185 47.1612 15.9329 47.1385 13.5509 47.209C13.085 47.2233 12.508 47.5518 12.1962 47.9174C11.2011 49.0857 11.9251 50.8561 13.4661 50.9946C14.6678 51.1033 15.8863 51.0173 17.0977 51.0173ZM77.7938 47.1719C77.7938 47.1731 77.7938 47.1743 77.7938 47.1755C76.6219 47.1755 75.4488 47.1576 74.2769 47.1815C73.2508 47.2018 72.454 48.0559 72.4552 49.0785C72.4564 50.2671 73.2997 51.046 74.6544 51.0568C76.7605 51.0735 78.8666 51.0627 80.9726 51.0591C81.1506 51.0591 81.3298 51.04 81.5054 51.0126C82.522 50.8537 83.2507 49.9972 83.1958 49.0307C83.136 47.9663 82.3333 47.1887 81.2486 47.1755C80.0982 47.1624 78.9466 47.1719 77.7938 47.1719ZM108.15 47.1731C108.15 47.1743 108.15 47.1755 108.15 47.1767C106.978 47.1767 105.805 47.1588 104.633 47.1815C103.601 47.2018 102.81 48.0416 102.805 49.0701C102.8 50.2612 103.64 51.0448 104.994 51.0568C107.02 51.0747 109.047 51.0639 111.074 51.0603C111.331 51.0603 111.591 51.0496 111.846 51.0126C112.867 50.8608 113.599 50.0055 113.549 49.0391C113.494 47.9759 112.688 47.1899 111.607 47.1767C110.454 47.1624 109.301 47.1731 108.15 47.1731Z" fill="#727D8B"/>
</svg>
