<svg width="16" height="16" viewBox="0 0 16 16" fill="none" xmlns="http://www.w3.org/2000/svg">
<path d="M3.77934 3.22017C3.77934 3.18227 3.77906 3.15392 3.77934 3.12556C3.78222 2.8581 3.78085 2.59049 3.78908 2.32316C3.80006 1.96384 3.89025 1.62477 4.05236 1.30884C4.36313 0.702737 4.83575 0.302187 5.45825 0.0973551C5.67349 0.0264741 5.89531 -0.000286992 6.12071 2.31807e-06C7.40416 0.00130421 8.68761 -0.0012996 9.97106 0.00405264C10.4275 0.00593316 10.8416 0.164475 11.2142 0.437729C11.7207 0.809203 12.0376 1.3194 12.1702 1.95227C12.2048 2.11775 12.2118 2.29119 12.2177 2.46145C12.2255 2.68538 12.2196 2.90974 12.2196 3.13395C12.2196 3.15985 12.2196 3.18589 12.2196 3.22031C12.2533 3.22031 12.2799 3.22017 12.3067 3.22031C12.5514 3.22133 12.7963 3.2193 13.0409 3.22422C13.6725 3.23666 14.2445 3.4425 14.7525 3.83524C15.3985 4.33445 15.7956 5.00507 15.9496 5.83221C16.0317 6.27282 16.0073 6.71272 15.9213 7.15189C15.7595 7.97816 15.6037 8.80574 15.4458 9.63273C15.288 10.4599 15.1315 11.2873 14.9728 12.1141C14.8764 12.6158 14.7828 13.1183 14.6767 13.6178C14.5912 14.0206 14.4122 14.3807 14.1773 14.7094C13.8189 15.2112 13.3601 15.5753 12.8025 15.7956C12.5213 15.9067 12.2291 15.977 11.9274 15.986C11.6211 15.9951 11.3146 15.9989 11.0081 15.999C8.77299 16 6.53773 16.0007 4.3026 15.9987C3.65483 15.9981 3.0558 15.816 2.52306 15.4223C1.96233 15.0078 1.56755 14.4573 1.36672 13.7652C1.28766 13.4926 1.23852 13.2096 1.1843 12.9296C1.02397 12.103 0.867894 11.2756 0.710036 10.4484C0.556709 9.64488 0.402557 8.84161 0.250053 8.03791C0.178537 7.66079 0.10153 7.28454 0.0416814 6.9054C-0.0649754 6.22856 0.0335825 5.58166 0.331316 4.97093C0.696584 4.22147 1.25869 3.70245 2.00612 3.40981C2.35162 3.27456 2.71208 3.21554 3.08161 3.22017C3.31057 3.22248 3.53926 3.22017 3.77934 3.22017ZM11.3743 3.21757C11.3767 3.19804 11.3802 3.18184 11.3802 3.16549C11.3805 2.92927 11.3897 2.69261 11.3772 2.45711C11.3684 2.29293 11.3507 2.12296 11.3012 1.96832C11.0859 1.29539 10.5318 0.884713 9.85891 0.884279C8.61939 0.883556 7.37986 0.883989 6.14034 0.884134C5.7855 0.884134 5.46374 0.99277 5.18743 1.22841C4.84288 1.52221 4.64934 1.90439 4.62902 2.37336C4.61777 2.63547 4.62394 2.8986 4.62271 3.16115C4.62257 3.17923 4.6271 3.19746 4.62957 3.21728C6.87842 3.21757 9.12151 3.21757 11.3743 3.21757ZM4.72387 9.36193C4.9203 9.36193 5.11687 9.36439 5.3133 9.36121C5.53004 9.35774 5.70863 9.16419 5.71398 8.93289C5.71934 8.70158 5.55036 8.48778 5.33513 8.48315C4.92868 8.47433 4.52182 8.47476 4.11537 8.48272C3.89972 8.48692 3.7269 8.69956 3.73198 8.92782C3.73719 9.16448 3.91413 9.35759 4.13458 9.36121C4.33088 9.36454 4.52744 9.36193 4.72387 9.36193ZM8.00155 9.36222C8.00155 9.36237 8.00155 9.36266 8.00155 9.3628C8.12509 9.3628 8.24863 9.36338 8.37217 9.36266C8.46592 9.36208 8.56146 9.37163 8.65302 9.356C8.85137 9.3223 9.00717 9.10662 8.99303 8.90265C8.97656 8.66788 8.80676 8.48807 8.59001 8.47997C8.4872 8.47621 8.38411 8.47867 8.2813 8.47867C7.99303 8.47867 7.70477 8.47578 7.41665 8.48026C7.19263 8.48373 7.00938 8.68451 7.00663 8.91871C7.00388 9.15363 7.1918 9.35803 7.41843 9.3615C7.61267 9.36454 7.80717 9.36222 8.00155 9.36222ZM7.99962 11.3972C7.99962 11.3943 7.99962 11.3913 7.99962 11.3884C7.81898 11.3884 7.63834 11.3884 7.45769 11.3884C7.45316 11.3884 7.44849 11.3884 7.44396 11.3886C7.20059 11.3956 7.03408 11.5494 7.01185 11.8085C6.99524 12.0007 7.10546 12.2051 7.33113 12.2579C7.41665 12.2779 7.50807 12.275 7.59674 12.275C7.93744 12.2749 8.27814 12.2777 8.61856 12.2672C8.82584 12.2608 8.99069 12.0593 8.99358 11.8352C8.99632 11.6217 8.83695 11.4137 8.63696 11.4006C8.42529 11.3864 8.21211 11.3972 7.99962 11.3972ZM11.2725 9.3628C11.4555 9.3628 11.6383 9.36309 11.8213 9.36251C11.86 9.36237 11.9001 9.36454 11.9373 9.35557C12.144 9.30523 12.292 9.09562 12.2695 8.88935C12.2428 8.64589 12.0723 8.48026 11.8422 8.47925C11.4671 8.47766 11.0921 8.47751 10.7172 8.47925C10.4784 8.48041 10.2884 8.67453 10.2873 8.91784C10.2862 9.18401 10.5048 9.36975 10.717 9.36396C10.902 9.35861 11.0873 9.3628 11.2725 9.3628ZM11.2822 11.3978C11.2822 11.3946 11.2822 11.3916 11.2822 11.3884C11.1016 11.3884 10.9209 11.3884 10.7404 11.3884C10.7359 11.3884 10.7312 11.3884 10.7267 11.3884C10.4777 11.3938 10.2934 11.5773 10.2872 11.8258C10.2813 12.0596 10.4534 12.2602 10.6942 12.2696C11.0115 12.2819 11.3296 12.275 11.6472 12.2751C11.7316 12.2751 11.8166 12.2756 11.9006 12.2682C12.1052 12.2501 12.2655 12.0625 12.2719 11.8387C12.278 11.628 12.1182 11.4149 11.9193 11.401C11.7078 11.3864 11.4946 11.3978 11.2822 11.3978ZM4.7247 12.272C4.7247 12.2711 4.7247 12.2701 4.7247 12.2692C4.93046 12.2692 5.13636 12.2767 5.34171 12.267C5.5472 12.2574 5.71014 12.0619 5.71398 11.8409C5.71769 11.6196 5.56285 11.4078 5.35805 11.4007C4.94474 11.3867 4.53046 11.3835 4.11729 11.3967C3.8875 11.404 3.728 11.608 3.73212 11.8379C3.73637 12.0761 3.89588 12.2558 4.13513 12.2695C4.33101 12.2811 4.52813 12.272 4.7247 12.272Z" fill="#367BF5"/>
</svg>
