<svg width="16" height="16" viewBox="0 0 16 16" fill="none" xmlns="http://www.w3.org/2000/svg">
<g clip-path="url(#clip0_1327_79859)">
<path d="M7.98616 11.9178C7.99165 12.0358 7.99714 12.1541 8.00305 12.2853C9.28178 12.2853 10.5529 12.2853 11.8114 12.2853C11.8312 12.3066 11.8443 12.3141 11.8443 12.3216C11.8456 12.8353 11.8667 13.3503 11.8405 13.8628C11.8063 14.5383 11.4032 14.9874 10.8324 15.3087C10.2768 15.6216 9.66637 15.7724 9.04284 15.8799C8.85371 15.9124 8.66373 15.9412 8.47418 15.9716C8.11619 15.9716 7.75777 15.9716 7.39978 15.9716C7.13044 15.9199 6.85983 15.8733 6.59176 15.8158C5.95345 15.6783 5.33582 15.4883 4.81656 15.0737C4.59999 14.9008 4.40833 14.7041 4.29688 14.4445C4.33318 14.4262 4.37244 14.4116 4.40495 14.3887C4.77983 14.1249 5.15302 13.8591 5.52748 13.5949C6.19112 13.1266 6.85392 12.6566 7.52094 12.1924C7.66827 12.0899 7.83081 12.0087 7.98616 11.9178ZM10.8771 13.9778C10.875 13.5812 10.5529 13.2599 10.1582 13.2612C9.73223 13.2624 9.41899 13.6128 9.42616 14.0799C9.43081 14.3791 9.82215 14.7183 10.1586 14.7149C10.5626 14.7108 10.8788 14.3862 10.8771 13.9778Z" fill="#FEDC52"/>
<path d="M6.86229 4.0841C7.23211 4.0841 7.60192 4.0841 7.98272 4.0841C7.98272 3.90869 7.98272 3.75744 7.98272 3.58494C7.86915 3.58494 7.76108 3.58494 7.65301 3.58494C7.67876 3.53494 7.69522 3.47785 7.73111 3.4366C8.05955 3.05577 8.39264 2.67869 8.72235 2.29827C9.29607 1.63619 9.8681 0.972853 10.441 0.309937C10.8441 0.442437 11.1527 0.698687 11.4271 1.01285C11.7699 1.40494 11.8548 1.86244 11.8523 2.35869C11.8459 3.48619 11.8616 4.61367 11.8472 5.74117C11.8366 6.567 11.4537 7.18996 10.6846 7.53329C10.4389 7.64287 10.1471 7.69367 9.87528 7.69742C8.61216 7.71408 7.3482 7.70621 6.08509 7.70329C5.56752 7.70204 5.10567 7.85867 4.68224 8.147C3.97724 8.62742 3.66779 9.30746 3.64837 10.1304C3.63655 10.6291 3.64668 11.1279 3.64668 11.6266C3.64668 11.6825 3.64668 11.7387 3.64668 11.8124C3.53734 11.8124 3.44404 11.8137 3.35075 11.8124C2.92478 11.8066 2.49713 11.8182 2.07286 11.7891C1.5671 11.7541 1.16141 11.5128 0.854492 11.1132C0.980719 10.9616 1.10441 10.8083 1.23317 10.6591C1.50167 10.3487 1.77439 10.0416 2.04204 9.73075C2.43127 9.27825 2.81586 8.82158 3.20594 8.36908C3.54199 7.9795 3.88436 7.59575 4.2204 7.20658C4.61765 6.747 5.00942 6.28283 5.40667 5.82283C5.79718 5.37075 6.19359 4.92371 6.58198 4.46996C6.68499 4.34912 6.76942 4.21287 6.86229 4.0841Z" fill="#303234"/>
<path d="M7.98614 11.9178C7.83036 12.0087 7.66783 12.0899 7.5205 12.1924C6.85348 12.6566 6.1911 13.1266 5.52704 13.5949C5.15258 13.8591 4.77939 14.1249 4.40451 14.3887C4.37158 14.4116 4.33274 14.4262 4.29643 14.4445C4.24535 14.2732 4.15161 14.1024 4.14992 13.9308C4.13768 12.6058 4.13219 11.2803 4.14824 9.95533C4.15795 9.12283 4.93812 8.30867 5.78414 8.207C5.92978 8.1895 6.07712 8.18033 6.22403 8.18033C7.42973 8.17825 8.63585 8.16325 9.84113 8.18325C10.9307 8.20158 11.9241 7.46033 12.2289 6.42158C12.2893 6.21575 12.3201 5.99533 12.326 5.78075C12.3399 5.277 12.3306 4.77283 12.3306 4.26867C12.3306 4.21283 12.3306 4.15699 12.3306 4.09574C12.3788 4.09074 12.4091 4.08449 12.4395 4.08449C12.9398 4.08491 13.4405 4.07158 13.9399 4.09116C14.433 4.11074 14.821 4.32992 15.1262 4.72742C15.5171 5.23575 15.6607 5.82825 15.7991 6.42783C15.7607 6.44325 15.7172 6.452 15.6843 6.47533C15.1325 6.86075 14.5816 7.24742 14.0315 7.63533C12.966 8.38742 11.9021 9.14158 10.8357 9.89283C10.0294 10.4608 9.2197 11.0237 8.41464 11.5933C8.33907 11.6466 8.28588 11.7312 8.22255 11.8012C8.14825 11.8495 7.99923 11.7495 7.98614 11.9178Z" fill="#FEDC52"/>
<path d="M6.86235 4.084C6.76948 4.21275 6.68505 4.349 6.58204 4.46942C6.19322 4.92317 5.79724 5.37025 5.40673 5.82233C5.00948 6.28233 4.61771 6.74608 4.22044 7.20608C3.8844 7.59525 3.5416 7.97942 3.20598 8.36858C2.8159 8.82067 2.43131 9.27733 2.04208 9.73025C1.77443 10.0415 1.50171 10.3482 1.23321 10.6586C1.10445 10.8077 0.980758 10.9615 0.854531 11.1127C0.540441 10.7586 0.386352 10.3298 0.274057 9.884C0.0946372 9.17108 -0.0332785 8.44942 0.00767142 7.7115C0.0511544 6.92608 0.146141 6.14233 0.488515 5.42358C0.892526 4.57525 1.60007 4.109 2.54994 4.09025C3.97136 4.06233 5.39365 4.079 6.81549 4.07691C6.83111 4.07733 6.84673 4.08191 6.86235 4.084Z" fill="#303234"/>
<path d="M8.22217 11.8016C8.28591 11.7316 8.33869 11.647 8.41425 11.5936C9.21932 11.0241 10.029 10.4611 10.8354 9.89322C11.9017 9.14197 12.9656 8.38781 14.0311 7.63572C14.5812 7.24781 15.1321 6.86114 15.6839 6.47572C15.7168 6.45239 15.7603 6.44364 15.7987 6.42822C15.9207 7.02114 16.0145 7.61656 15.9972 8.22447C15.982 8.75531 15.9178 9.27781 15.7223 9.77739C15.5792 10.1436 15.4597 10.5216 15.2867 10.8732C14.9785 11.4978 14.4592 11.8186 13.7449 11.8178C11.9347 11.8153 10.1244 11.8161 8.3142 11.8149C8.28423 11.8141 8.25299 11.8057 8.22217 11.8016Z" fill="#FEDC52"/>
<path d="M10.441 0.30989C9.8681 0.972804 9.29607 1.63614 8.72235 2.29822C8.39306 2.67822 8.05998 3.05572 7.73111 3.43655C7.69523 3.4778 7.67876 3.5353 7.65301 3.58489C6.5005 3.58614 5.34757 3.58697 4.19509 3.5878C4.18031 3.5878 4.16596 3.57989 4.13556 3.57072C4.13556 3.47572 4.13514 3.37822 4.13556 3.28114C4.13767 2.81364 4.1305 2.34572 4.14443 1.87864C4.16891 1.04947 4.5176 0.601138 5.31887 0.341556C5.86177 0.165723 6.42367 0.0878062 6.98937 0.0411394C7.96879 -0.0392773 8.94525 -0.00302727 9.91496 0.160723C10.0935 0.190723 10.2658 0.259056 10.441 0.30989ZM5.81744 2.62239C6.21681 2.62239 6.54736 2.2903 6.54356 1.89322C6.53976 1.49572 6.20583 1.15364 5.80984 1.17114C5.39317 1.18947 5.09174 1.4353 5.09301 1.90489C5.09428 2.3678 5.46789 2.61822 5.81744 2.62239Z" fill="#303234"/>
</g>
<defs>
<clipPath id="clip0_1327_79859">
<rect width="16" height="16" fill="white"/>
</clipPath>
</defs>
</svg>
