<svg width="17" height="17" viewBox="0 0 17 17" fill="none" xmlns="http://www.w3.org/2000/svg">
<mask id="path-1-outside-1_1192_76214" maskUnits="userSpaceOnUse" x="1.44659" y="2.26221" width="13" height="9" fill="black">
<rect fill="white" x="1.44659" y="2.26221" width="13" height="9"/>
<path d="M4.80395 10.7574C4.63459 10.747 4.46448 10.7427 4.29617 10.7236C4.19139 10.7117 4.08781 10.6815 3.98617 10.6515C3.89888 10.6257 3.81257 10.5937 3.73027 10.5549C3.63792 10.5114 3.54774 10.4616 3.46172 10.4066C3.2963 10.3009 3.15031 10.1715 3.02031 10.0243C2.91443 9.90447 2.82007 9.77619 2.74566 9.63443C2.69871 9.54499 2.65042 9.45533 2.61418 9.36135C2.57481 9.25918 2.54751 9.15218 2.51737 9.04659C2.46602 8.86644 2.45189 8.68093 2.44712 8.49505C2.44296 8.33224 2.46357 8.1704 2.5013 8.01227C2.54178 7.84276 2.60391 7.68055 2.68427 7.52481C2.82789 7.24651 3.02515 7.01315 3.26646 6.81664C3.38336 6.72146 3.5112 6.64169 3.64648 6.57346C3.77618 6.50805 3.91042 6.45463 4.05016 6.41846C4.16007 6.38996 4.2734 6.37404 4.38583 6.35677C4.44484 6.34777 4.44372 6.35194 4.4432 6.29025C4.44201 6.16874 4.43799 6.047 4.44439 5.92579C4.4528 5.76617 4.47609 5.6079 4.51947 5.4535C4.5502 5.34419 4.57692 5.23309 4.61725 5.12728C4.6619 5.01001 4.71785 4.89683 4.77284 4.7838C4.84383 4.63788 4.93387 4.50342 5.03194 4.37439C5.17556 4.18553 5.33926 4.01647 5.52469 3.8681C5.65238 3.76586 5.78744 3.67463 5.93105 3.59717C6.0199 3.54925 6.11202 3.50586 6.2063 3.46992C6.33295 3.42163 6.46123 3.37505 6.59227 3.34119C6.75166 3.29997 6.91521 3.2801 7.08026 3.26827C7.26204 3.25525 7.44264 3.2644 7.62227 3.28434C7.74341 3.29781 7.86343 3.32668 7.98204 3.35645C8.08719 3.38279 8.19255 3.41285 8.29271 3.45378C8.41571 3.504 8.53618 3.56227 8.65279 3.62611C8.80577 3.7099 8.94782 3.81117 9.07968 3.92591C9.25857 4.08151 9.42138 4.25206 9.55472 4.44895C9.60316 4.52038 9.64848 4.5939 9.69499 4.66668C9.70987 4.69004 9.72706 4.70128 9.75675 4.69108C9.82677 4.66712 9.89724 4.64413 9.96837 4.62359C10.0242 4.60752 10.0805 4.59041 10.1377 4.58304C10.3049 4.56161 10.4718 4.5439 10.6416 4.56577C10.7637 4.58155 10.8852 4.59904 11.0013 4.63766C11.1061 4.67255 11.2081 4.71795 11.3078 4.76579C11.4812 4.84891 11.6298 4.96678 11.7634 5.10459C11.8837 5.22878 11.989 5.36435 12.0643 5.5201C12.1221 5.63975 12.1767 5.76171 12.2209 5.88694C12.2535 5.97959 12.2711 6.07825 12.2878 6.17558C12.3038 6.26934 12.3088 6.36496 12.3215 6.45939C12.3236 6.47434 12.3378 6.49444 12.3512 6.49979C12.3981 6.51854 12.4469 6.53246 12.4954 6.54719C12.6247 6.58656 12.7459 6.64356 12.8632 6.71045C13.031 6.80622 13.1808 6.92453 13.3145 7.06323C13.4567 7.21087 13.5789 7.37383 13.6716 7.55725C13.7182 7.64959 13.7665 7.74231 13.8007 7.83956C13.8407 7.95334 13.8715 8.07113 13.8962 8.18937C13.918 8.29451 13.9305 8.40219 13.939 8.50941C13.9519 8.67088 13.936 8.83154 13.9029 8.98981C13.8831 9.08401 13.8636 9.17926 13.8317 9.26975C13.7966 9.36938 13.75 9.46537 13.7039 9.56069C13.6362 9.70051 13.5449 9.82508 13.444 9.94264C13.3259 10.0804 13.1928 10.2024 13.0411 10.3017C12.935 10.3711 12.8256 10.4373 12.7117 10.4926C12.6079 10.5431 12.4981 10.5841 12.3872 10.6164C12.2474 10.657 12.1051 10.692 11.9615 10.7155C11.8336 10.7364 11.7026 10.7411 11.5727 10.7475C11.4737 10.7523 11.3743 10.7496 11.2751 10.748C11.1982 10.7468 11.1345 10.6882 11.1313 10.6193C11.1276 10.5422 11.1918 10.4774 11.275 10.4762C11.4225 10.4743 11.5702 10.4772 11.7176 10.4713C11.8813 10.4649 12.0431 10.4407 12.2008 10.395C12.3026 10.3655 12.4059 10.3378 12.5038 10.2979C12.6039 10.257 12.7012 10.207 12.7946 10.1521C12.9574 10.0565 13.1023 9.93714 13.2274 9.79486C13.3248 9.68399 13.4129 9.56598 13.4743 9.43129C13.5227 9.32481 13.5712 9.21706 13.6045 9.10537C13.6461 8.96548 13.6684 8.82082 13.6709 8.67334C13.6735 8.52139 13.6664 8.37041 13.6339 8.22226C13.5991 8.06414 13.548 7.91115 13.4777 7.76404C13.3415 7.47845 13.1509 7.23758 12.8997 7.04582C12.7827 6.95645 12.6548 6.88524 12.518 6.82854C12.4051 6.78181 12.2877 6.75413 12.1696 6.72831C12.1072 6.71469 12.0695 6.64899 12.0671 6.594C12.0647 6.537 12.0636 6.47993 12.061 6.423C12.0544 6.27373 12.0238 6.12908 11.9824 5.98576C11.9316 5.80956 11.8545 5.64645 11.75 5.49643C11.6233 5.3145 11.4646 5.16672 11.275 5.05086C11.1378 4.967 10.9913 4.90554 10.8367 4.86595C10.6788 4.82554 10.5169 4.80813 10.3537 4.8216C10.254 4.82986 10.1532 4.83938 10.0563 4.86268C9.95982 4.88589 9.86747 4.92667 9.77364 4.96067C9.747 4.97035 9.72237 4.98597 9.69536 4.99394C9.63977 5.01031 9.57757 4.98144 9.54691 4.92845C9.50301 4.8527 9.46037 4.77621 9.41475 4.7015C9.3137 4.53594 9.18921 4.3892 9.05163 4.2528C8.90504 4.10748 8.74312 3.98165 8.56468 3.87896C8.46348 3.82077 8.35775 3.76824 8.24918 3.7256C8.11963 3.6747 7.9871 3.6282 7.85197 3.59583C7.63201 3.54314 7.40729 3.52484 7.18041 3.53057C7.01098 3.53488 6.84422 3.55803 6.68 3.59531C6.52351 3.63087 6.37223 3.68423 6.22512 3.7503C5.90464 3.89429 5.62797 4.09773 5.39112 4.35571C5.27646 4.48065 5.17087 4.61355 5.08782 4.762C5.02219 4.87919 4.95433 4.99632 4.90247 5.11977C4.8506 5.24329 4.81325 5.37343 4.77679 5.50276C4.70885 5.74326 4.68787 5.9897 4.69992 6.23883C4.70297 6.30178 4.71064 6.36489 4.72128 6.42709C4.74018 6.53744 4.65669 6.61052 4.56219 6.60613C4.40585 6.59883 4.25286 6.62741 4.10389 6.67005C3.87403 6.73582 3.66389 6.84283 3.47385 6.98964C3.31892 7.10929 3.18178 7.24636 3.07084 7.40664C3.00171 7.50658 2.94307 7.61477 2.88861 7.72371C2.84694 7.8072 2.81159 7.8956 2.78718 7.98548C2.75809 8.09256 2.7348 8.20284 2.7249 8.31312C2.70749 8.50748 2.71419 8.70303 2.75563 8.89427C2.78116 9.01213 2.81911 9.12769 2.85728 9.24236C2.91591 9.41842 3.00878 9.57736 3.11913 9.72559C3.24786 9.89859 3.40219 10.0452 3.5816 10.166C3.69172 10.2401 3.80714 10.3047 3.93081 10.3506C4.03573 10.3896 4.14519 10.4181 4.25427 10.444C4.46552 10.4941 4.68132 10.4712 4.89532 10.4755C4.97093 10.477 5.04668 10.4746 5.12228 10.4764C5.20063 10.4783 5.26366 10.548 5.25793 10.6234C5.25294 10.6897 5.18858 10.7469 5.11365 10.7478C5.01073 10.7493 4.90775 10.7482 4.80484 10.7482C4.80439 10.7515 4.80417 10.7545 4.80395 10.7574Z"/>
</mask>
<path d="M4.80395 10.7574C4.63459 10.747 4.46448 10.7427 4.29617 10.7236C4.19139 10.7117 4.08781 10.6815 3.98617 10.6515C3.89888 10.6257 3.81257 10.5937 3.73027 10.5549C3.63792 10.5114 3.54774 10.4616 3.46172 10.4066C3.2963 10.3009 3.15031 10.1715 3.02031 10.0243C2.91443 9.90447 2.82007 9.77619 2.74566 9.63443C2.69871 9.54499 2.65042 9.45533 2.61418 9.36135C2.57481 9.25918 2.54751 9.15218 2.51737 9.04659C2.46602 8.86644 2.45189 8.68093 2.44712 8.49505C2.44296 8.33224 2.46357 8.1704 2.5013 8.01227C2.54178 7.84276 2.60391 7.68055 2.68427 7.52481C2.82789 7.24651 3.02515 7.01315 3.26646 6.81664C3.38336 6.72146 3.5112 6.64169 3.64648 6.57346C3.77618 6.50805 3.91042 6.45463 4.05016 6.41846C4.16007 6.38996 4.2734 6.37404 4.38583 6.35677C4.44484 6.34777 4.44372 6.35194 4.4432 6.29025C4.44201 6.16874 4.43799 6.047 4.44439 5.92579C4.4528 5.76617 4.47609 5.6079 4.51947 5.4535C4.5502 5.34419 4.57692 5.23309 4.61725 5.12728C4.6619 5.01001 4.71785 4.89683 4.77284 4.7838C4.84383 4.63788 4.93387 4.50342 5.03194 4.37439C5.17556 4.18553 5.33926 4.01647 5.52469 3.8681C5.65238 3.76586 5.78744 3.67463 5.93105 3.59717C6.0199 3.54925 6.11202 3.50586 6.2063 3.46992C6.33295 3.42163 6.46123 3.37505 6.59227 3.34119C6.75166 3.29997 6.91521 3.2801 7.08026 3.26827C7.26204 3.25525 7.44264 3.2644 7.62227 3.28434C7.74341 3.29781 7.86343 3.32668 7.98204 3.35645C8.08719 3.38279 8.19255 3.41285 8.29271 3.45378C8.41571 3.504 8.53618 3.56227 8.65279 3.62611C8.80577 3.7099 8.94782 3.81117 9.07968 3.92591C9.25857 4.08151 9.42138 4.25206 9.55472 4.44895C9.60316 4.52038 9.64848 4.5939 9.69499 4.66668C9.70987 4.69004 9.72706 4.70128 9.75675 4.69108C9.82677 4.66712 9.89724 4.64413 9.96837 4.62359C10.0242 4.60752 10.0805 4.59041 10.1377 4.58304C10.3049 4.56161 10.4718 4.5439 10.6416 4.56577C10.7637 4.58155 10.8852 4.59904 11.0013 4.63766C11.1061 4.67255 11.2081 4.71795 11.3078 4.76579C11.4812 4.84891 11.6298 4.96678 11.7634 5.10459C11.8837 5.22878 11.989 5.36435 12.0643 5.5201C12.1221 5.63975 12.1767 5.76171 12.2209 5.88694C12.2535 5.97959 12.2711 6.07825 12.2878 6.17558C12.3038 6.26934 12.3088 6.36496 12.3215 6.45939C12.3236 6.47434 12.3378 6.49444 12.3512 6.49979C12.3981 6.51854 12.4469 6.53246 12.4954 6.54719C12.6247 6.58656 12.7459 6.64356 12.8632 6.71045C13.031 6.80622 13.1808 6.92453 13.3145 7.06323C13.4567 7.21087 13.5789 7.37383 13.6716 7.55725C13.7182 7.64959 13.7665 7.74231 13.8007 7.83956C13.8407 7.95334 13.8715 8.07113 13.8962 8.18937C13.918 8.29451 13.9305 8.40219 13.939 8.50941C13.9519 8.67088 13.936 8.83154 13.9029 8.98981C13.8831 9.08401 13.8636 9.17926 13.8317 9.26975C13.7966 9.36938 13.75 9.46537 13.7039 9.56069C13.6362 9.70051 13.5449 9.82508 13.444 9.94264C13.3259 10.0804 13.1928 10.2024 13.0411 10.3017C12.935 10.3711 12.8256 10.4373 12.7117 10.4926C12.6079 10.5431 12.4981 10.5841 12.3872 10.6164C12.2474 10.657 12.1051 10.692 11.9615 10.7155C11.8336 10.7364 11.7026 10.7411 11.5727 10.7475C11.4737 10.7523 11.3743 10.7496 11.2751 10.748C11.1982 10.7468 11.1345 10.6882 11.1313 10.6193C11.1276 10.5422 11.1918 10.4774 11.275 10.4762C11.4225 10.4743 11.5702 10.4772 11.7176 10.4713C11.8813 10.4649 12.0431 10.4407 12.2008 10.395C12.3026 10.3655 12.4059 10.3378 12.5038 10.2979C12.6039 10.257 12.7012 10.207 12.7946 10.1521C12.9574 10.0565 13.1023 9.93714 13.2274 9.79486C13.3248 9.68399 13.4129 9.56598 13.4743 9.43129C13.5227 9.32481 13.5712 9.21706 13.6045 9.10537C13.6461 8.96548 13.6684 8.82082 13.6709 8.67334C13.6735 8.52139 13.6664 8.37041 13.6339 8.22226C13.5991 8.06414 13.548 7.91115 13.4777 7.76404C13.3415 7.47845 13.1509 7.23758 12.8997 7.04582C12.7827 6.95645 12.6548 6.88524 12.518 6.82854C12.4051 6.78181 12.2877 6.75413 12.1696 6.72831C12.1072 6.71469 12.0695 6.64899 12.0671 6.594C12.0647 6.537 12.0636 6.47993 12.061 6.423C12.0544 6.27373 12.0238 6.12908 11.9824 5.98576C11.9316 5.80956 11.8545 5.64645 11.75 5.49643C11.6233 5.3145 11.4646 5.16672 11.275 5.05086C11.1378 4.967 10.9913 4.90554 10.8367 4.86595C10.6788 4.82554 10.5169 4.80813 10.3537 4.8216C10.254 4.82986 10.1532 4.83938 10.0563 4.86268C9.95982 4.88589 9.86747 4.92667 9.77364 4.96067C9.747 4.97035 9.72237 4.98597 9.69536 4.99394C9.63977 5.01031 9.57757 4.98144 9.54691 4.92845C9.50301 4.8527 9.46037 4.77621 9.41475 4.7015C9.3137 4.53594 9.18921 4.3892 9.05163 4.2528C8.90504 4.10748 8.74312 3.98165 8.56468 3.87896C8.46348 3.82077 8.35775 3.76824 8.24918 3.7256C8.11963 3.6747 7.9871 3.6282 7.85197 3.59583C7.63201 3.54314 7.40729 3.52484 7.18041 3.53057C7.01098 3.53488 6.84422 3.55803 6.68 3.59531C6.52351 3.63087 6.37223 3.68423 6.22512 3.7503C5.90464 3.89429 5.62797 4.09773 5.39112 4.35571C5.27646 4.48065 5.17087 4.61355 5.08782 4.762C5.02219 4.87919 4.95433 4.99632 4.90247 5.11977C4.8506 5.24329 4.81325 5.37343 4.77679 5.50276C4.70885 5.74326 4.68787 5.9897 4.69992 6.23883C4.70297 6.30178 4.71064 6.36489 4.72128 6.42709C4.74018 6.53744 4.65669 6.61052 4.56219 6.60613C4.40585 6.59883 4.25286 6.62741 4.10389 6.67005C3.87403 6.73582 3.66389 6.84283 3.47385 6.98964C3.31892 7.10929 3.18178 7.24636 3.07084 7.40664C3.00171 7.50658 2.94307 7.61477 2.88861 7.72371C2.84694 7.8072 2.81159 7.8956 2.78718 7.98548C2.75809 8.09256 2.7348 8.20284 2.7249 8.31312C2.70749 8.50748 2.71419 8.70303 2.75563 8.89427C2.78116 9.01213 2.81911 9.12769 2.85728 9.24236C2.91591 9.41842 3.00878 9.57736 3.11913 9.72559C3.24786 9.89859 3.40219 10.0452 3.5816 10.166C3.69172 10.2401 3.80714 10.3047 3.93081 10.3506C4.03573 10.3896 4.14519 10.4181 4.25427 10.444C4.46552 10.4941 4.68132 10.4712 4.89532 10.4755C4.97093 10.477 5.04668 10.4746 5.12228 10.4764C5.20063 10.4783 5.26366 10.548 5.25793 10.6234C5.25294 10.6897 5.18858 10.7469 5.11365 10.7478C5.01073 10.7493 4.90775 10.7482 4.80484 10.7482C4.80439 10.7515 4.80417 10.7545 4.80395 10.7574Z" fill="#615E83"/>
<path d="M4.80395 10.7574C4.63459 10.747 4.46448 10.7427 4.29617 10.7236C4.19139 10.7117 4.08781 10.6815 3.98617 10.6515C3.89888 10.6257 3.81257 10.5937 3.73027 10.5549C3.63792 10.5114 3.54774 10.4616 3.46172 10.4066C3.2963 10.3009 3.15031 10.1715 3.02031 10.0243C2.91443 9.90447 2.82007 9.77619 2.74566 9.63443C2.69871 9.54499 2.65042 9.45533 2.61418 9.36135C2.57481 9.25918 2.54751 9.15218 2.51737 9.04659C2.46602 8.86644 2.45189 8.68093 2.44712 8.49505C2.44296 8.33224 2.46357 8.1704 2.5013 8.01227C2.54178 7.84276 2.60391 7.68055 2.68427 7.52481C2.82789 7.24651 3.02515 7.01315 3.26646 6.81664C3.38336 6.72146 3.5112 6.64169 3.64648 6.57346C3.77618 6.50805 3.91042 6.45463 4.05016 6.41846C4.16007 6.38996 4.2734 6.37404 4.38583 6.35677C4.44484 6.34777 4.44372 6.35194 4.4432 6.29025C4.44201 6.16874 4.43799 6.047 4.44439 5.92579C4.4528 5.76617 4.47609 5.6079 4.51947 5.4535C4.5502 5.34419 4.57692 5.23309 4.61725 5.12728C4.6619 5.01001 4.71785 4.89683 4.77284 4.7838C4.84383 4.63788 4.93387 4.50342 5.03194 4.37439C5.17556 4.18553 5.33926 4.01647 5.52469 3.8681C5.65238 3.76586 5.78744 3.67463 5.93105 3.59717C6.0199 3.54925 6.11202 3.50586 6.2063 3.46992C6.33295 3.42163 6.46123 3.37505 6.59227 3.34119C6.75166 3.29997 6.91521 3.2801 7.08026 3.26827C7.26204 3.25525 7.44264 3.2644 7.62227 3.28434C7.74341 3.29781 7.86343 3.32668 7.98204 3.35645C8.08719 3.38279 8.19255 3.41285 8.29271 3.45378C8.41571 3.504 8.53618 3.56227 8.65279 3.62611C8.80577 3.7099 8.94782 3.81117 9.07968 3.92591C9.25857 4.08151 9.42138 4.25206 9.55472 4.44895C9.60316 4.52038 9.64848 4.5939 9.69499 4.66668C9.70987 4.69004 9.72706 4.70128 9.75675 4.69108C9.82677 4.66712 9.89724 4.64413 9.96837 4.62359C10.0242 4.60752 10.0805 4.59041 10.1377 4.58304C10.3049 4.56161 10.4718 4.5439 10.6416 4.56577C10.7637 4.58155 10.8852 4.59904 11.0013 4.63766C11.1061 4.67255 11.2081 4.71795 11.3078 4.76579C11.4812 4.84891 11.6298 4.96678 11.7634 5.10459C11.8837 5.22878 11.989 5.36435 12.0643 5.5201C12.1221 5.63975 12.1767 5.76171 12.2209 5.88694C12.2535 5.97959 12.2711 6.07825 12.2878 6.17558C12.3038 6.26934 12.3088 6.36496 12.3215 6.45939C12.3236 6.47434 12.3378 6.49444 12.3512 6.49979C12.3981 6.51854 12.4469 6.53246 12.4954 6.54719C12.6247 6.58656 12.7459 6.64356 12.8632 6.71045C13.031 6.80622 13.1808 6.92453 13.3145 7.06323C13.4567 7.21087 13.5789 7.37383 13.6716 7.55725C13.7182 7.64959 13.7665 7.74231 13.8007 7.83956C13.8407 7.95334 13.8715 8.07113 13.8962 8.18937C13.918 8.29451 13.9305 8.40219 13.939 8.50941C13.9519 8.67088 13.936 8.83154 13.9029 8.98981C13.8831 9.08401 13.8636 9.17926 13.8317 9.26975C13.7966 9.36938 13.75 9.46537 13.7039 9.56069C13.6362 9.70051 13.5449 9.82508 13.444 9.94264C13.3259 10.0804 13.1928 10.2024 13.0411 10.3017C12.935 10.3711 12.8256 10.4373 12.7117 10.4926C12.6079 10.5431 12.4981 10.5841 12.3872 10.6164C12.2474 10.657 12.1051 10.692 11.9615 10.7155C11.8336 10.7364 11.7026 10.7411 11.5727 10.7475C11.4737 10.7523 11.3743 10.7496 11.2751 10.748C11.1982 10.7468 11.1345 10.6882 11.1313 10.6193C11.1276 10.5422 11.1918 10.4774 11.275 10.4762C11.4225 10.4743 11.5702 10.4772 11.7176 10.4713C11.8813 10.4649 12.0431 10.4407 12.2008 10.395C12.3026 10.3655 12.4059 10.3378 12.5038 10.2979C12.6039 10.257 12.7012 10.207 12.7946 10.1521C12.9574 10.0565 13.1023 9.93714 13.2274 9.79486C13.3248 9.68399 13.4129 9.56598 13.4743 9.43129C13.5227 9.32481 13.5712 9.21706 13.6045 9.10537C13.6461 8.96548 13.6684 8.82082 13.6709 8.67334C13.6735 8.52139 13.6664 8.37041 13.6339 8.22226C13.5991 8.06414 13.548 7.91115 13.4777 7.76404C13.3415 7.47845 13.1509 7.23758 12.8997 7.04582C12.7827 6.95645 12.6548 6.88524 12.518 6.82854C12.4051 6.78181 12.2877 6.75413 12.1696 6.72831C12.1072 6.71469 12.0695 6.64899 12.0671 6.594C12.0647 6.537 12.0636 6.47993 12.061 6.423C12.0544 6.27373 12.0238 6.12908 11.9824 5.98576C11.9316 5.80956 11.8545 5.64645 11.75 5.49643C11.6233 5.3145 11.4646 5.16672 11.275 5.05086C11.1378 4.967 10.9913 4.90554 10.8367 4.86595C10.6788 4.82554 10.5169 4.80813 10.3537 4.8216C10.254 4.82986 10.1532 4.83938 10.0563 4.86268C9.95982 4.88589 9.86747 4.92667 9.77364 4.96067C9.747 4.97035 9.72237 4.98597 9.69536 4.99394C9.63977 5.01031 9.57757 4.98144 9.54691 4.92845C9.50301 4.8527 9.46037 4.77621 9.41475 4.7015C9.3137 4.53594 9.18921 4.3892 9.05163 4.2528C8.90504 4.10748 8.74312 3.98165 8.56468 3.87896C8.46348 3.82077 8.35775 3.76824 8.24918 3.7256C8.11963 3.6747 7.9871 3.6282 7.85197 3.59583C7.63201 3.54314 7.40729 3.52484 7.18041 3.53057C7.01098 3.53488 6.84422 3.55803 6.68 3.59531C6.52351 3.63087 6.37223 3.68423 6.22512 3.7503C5.90464 3.89429 5.62797 4.09773 5.39112 4.35571C5.27646 4.48065 5.17087 4.61355 5.08782 4.762C5.02219 4.87919 4.95433 4.99632 4.90247 5.11977C4.8506 5.24329 4.81325 5.37343 4.77679 5.50276C4.70885 5.74326 4.68787 5.9897 4.69992 6.23883C4.70297 6.30178 4.71064 6.36489 4.72128 6.42709C4.74018 6.53744 4.65669 6.61052 4.56219 6.60613C4.40585 6.59883 4.25286 6.62741 4.10389 6.67005C3.87403 6.73582 3.66389 6.84283 3.47385 6.98964C3.31892 7.10929 3.18178 7.24636 3.07084 7.40664C3.00171 7.50658 2.94307 7.61477 2.88861 7.72371C2.84694 7.8072 2.81159 7.8956 2.78718 7.98548C2.75809 8.09256 2.7348 8.20284 2.7249 8.31312C2.70749 8.50748 2.71419 8.70303 2.75563 8.89427C2.78116 9.01213 2.81911 9.12769 2.85728 9.24236C2.91591 9.41842 3.00878 9.57736 3.11913 9.72559C3.24786 9.89859 3.40219 10.0452 3.5816 10.166C3.69172 10.2401 3.80714 10.3047 3.93081 10.3506C4.03573 10.3896 4.14519 10.4181 4.25427 10.444C4.46552 10.4941 4.68132 10.4712 4.89532 10.4755C4.97093 10.477 5.04668 10.4746 5.12228 10.4764C5.20063 10.4783 5.26366 10.548 5.25793 10.6234C5.25294 10.6897 5.18858 10.7469 5.11365 10.7478C5.01073 10.7493 4.90775 10.7482 4.80484 10.7482C4.80439 10.7515 4.80417 10.7545 4.80395 10.7574Z" stroke="#615E83" stroke-width="0.489327" mask="url(#path-1-outside-1_1192_76214)"/>
<path d="M9.62738 10.0398C9.62675 10.0378 9.62611 10.0358 9.62546 10.0338L9.62545 10.0338C9.60148 9.95997 9.5775 9.89392 9.54551 9.83637L9.54549 9.83634C9.49128 9.73877 9.4324 9.64456 9.36736 9.55715L9.36735 9.55713C9.27879 9.43806 9.16811 9.33651 9.0421 9.24628M9.62738 10.0398L9.0421 9.24628M9.62738 10.0398C9.56135 9.98711 9.49515 9.93446 9.42876 9.88218L9.42874 9.88216C9.37714 9.84155 9.28456 9.79012 9.17296 9.839L9.17292 9.83902C9.0868 9.87677 9.02039 9.94916 9.00808 10.0446C8.99581 10.1396 9.04125 10.2265 9.11395 10.2855L9.11396 10.2855C9.1574 10.3208 9.20101 10.3559 9.24464 10.3908C9.28975 10.4269 9.33491 10.4631 9.38014 10.4994C9.50847 10.6024 9.63731 10.7057 9.76693 10.8078L9.62738 10.0398ZM9.0421 9.24628C8.93997 9.17316 8.83153 9.11386 8.71633 9.07088L9.0421 9.24628ZM7.11867 8.79478L7.11869 8.79477C7.20875 8.73935 7.30719 8.68188 7.41302 8.63829L7.41303 8.63828C7.52436 8.59244 7.63975 8.55925 7.7517 8.53201L7.75172 8.532C7.84386 8.5096 7.93895 8.49684 8.03244 8.49265L7.11867 8.79478ZM7.11867 8.79478C7.0105 8.86137 6.95889 9.01265 7.0446 9.14254L7.11867 8.79478ZM8.45572 8.49092L8.45577 8.49092C8.59278 8.49661 8.72178 8.53173 8.83969 8.57011L8.45572 8.49092ZM8.45572 8.49092C8.31433 8.48509 8.17274 8.48634 8.03245 8.49265L8.45572 8.49092ZM9.72737 9.1815L9.72738 9.18152C9.82606 9.29933 9.91815 9.42797 9.98796 9.57286C10.0395 9.6797 10.0816 9.79029 10.1181 9.89962L10.1181 9.89968C10.1236 9.91639 10.1288 9.93349 10.1338 9.9508C10.1805 9.89209 10.228 9.83247 10.2753 9.77502L10.2753 9.775C10.3649 9.66615 10.5249 9.65336 10.6307 9.73895L9.72737 9.1815ZM9.72737 9.1815C9.57689 9.00192 9.39996 8.85406 9.20102 8.73481M9.72737 9.1815L9.20102 8.73481M10.6702 10.0981L10.6702 10.0982C10.5031 10.308 10.3356 10.518 10.1668 10.7271L10.6702 10.0981ZM10.6702 10.0981C10.7155 10.0411 10.7285 9.97077 10.7216 9.91001M10.6702 10.0981L10.7216 9.91001M7.66881 9.08666C7.59782 9.10664 7.5385 9.14012 7.46593 9.18108C7.43782 9.19695 7.40771 9.21394 7.37416 9.2317L7.66881 9.08666ZM7.66881 9.08666C7.68781 9.08132 7.70619 9.07604 7.72411 9.07089M7.66881 9.08666L7.72411 9.07089M7.72411 9.07089C7.80017 9.04902 7.86772 9.02959 7.93738 9.01911L7.72411 9.07089ZM9.20102 8.73481C9.08726 8.66659 8.9668 8.61147 8.83971 8.57012L9.20102 8.73481ZM10.7216 9.91001C10.7148 9.8494 10.6866 9.78416 10.6307 9.73899L10.7216 9.91001ZM8.25451 8.99609C8.41245 8.98912 8.56681 9.01517 8.7163 9.07087L7.93738 9.01911C8.02622 9.00574 8.11671 9.00193 8.21462 8.9978C8.22776 8.99724 8.24105 8.99668 8.25448 8.9961L8.25451 8.99609ZM7.04461 9.14255C7.1114 9.24375 7.24421 9.30054 7.37414 9.23171L7.04461 9.14255ZM10.0559 10.8313C10.0996 10.8014 10.1368 10.7643 10.1668 10.7272L10.0559 10.8313Z" fill="#615E83" stroke="#615E83" stroke-width="0.244663"/>
<path d="M6.25717 11.0054C6.25414 11.0092 6.25111 11.013 6.24806 11.0168C6.20502 11.0709 6.1607 11.1266 6.11603 11.1798M6.25717 11.0054L6.11603 11.1798M6.25717 11.0054C6.26121 11.0199 6.26551 11.0342 6.27015 11.0481L6.25717 11.0054ZM6.11603 11.1798L6.02241 11.101L6.11605 11.1797C6.11605 11.1797 6.11604 11.1798 6.11603 11.1798ZM7.53364 11.8221L7.53364 11.8221C7.70508 11.9083 7.88004 11.9593 8.0661 11.9597C8.21927 11.9599 8.3605 11.9573 8.49566 11.9285L8.49568 11.9285C8.59563 11.9072 8.69599 11.8732 8.79718 11.8336L8.79718 11.8336C8.83898 11.8173 8.87308 11.7973 8.91481 11.7728C8.93832 11.759 8.96426 11.7438 8.99537 11.727L8.9954 11.727C9.07097 11.6862 9.17319 11.6686 9.26895 11.7311L9.26898 11.7311L7.53364 11.8221ZM7.53364 11.8221C7.42913 11.7696 7.33185 11.7021 7.2397 11.6232L7.53364 11.8221ZM7.14007 12.1889L7.14006 12.1889C6.98367 12.0904 6.8457 11.9719 6.72195 11.8387L7.14007 12.1889ZM7.14007 12.1889C7.2556 12.2616 7.38207 12.3317 7.52462 12.3749L7.14007 12.1889ZM6.02361 10.4774L6.02361 10.4774C6.03798 10.4594 6.05238 10.4414 6.06682 10.4233C6.13025 10.3439 6.19449 10.2634 6.26004 10.1843L6.02361 10.4774ZM6.02361 10.4774C6.00348 10.5026 5.98327 10.5278 5.96302 10.5531M6.02361 10.4774L5.96302 10.5531M6.61674 10.1462L6.61676 10.1462C6.81378 10.3022 7.01 10.459 7.20574 10.6162C7.21317 10.6222 7.22087 10.6279 7.23088 10.6353C7.23218 10.6362 7.23351 10.6372 7.23488 10.6382C7.246 10.6465 7.25979 10.6567 7.27353 10.6683C7.30163 10.692 7.3341 10.7248 7.35748 10.7721L6.61674 10.1462ZM6.61674 10.1462C6.56443 10.1048 6.49935 10.0814 6.4302 10.0889M6.61674 10.1462L6.4302 10.0889M8.91458 12.3413C9.04065 12.2939 9.16885 12.2345 9.28485 12.1468C9.34248 12.1032 9.37105 12.0341 9.38203 11.9873L7.82236 12.4524C8.18563 12.4913 8.55444 12.4771 8.91458 12.3413ZM8.91458 12.3413L8.87161 12.2273L8.91461 12.3413C8.9146 12.3413 8.91459 12.3413 8.91458 12.3413ZM5.96302 10.5531C5.88204 10.6541 5.8004 10.756 5.72034 10.8589L5.96302 10.5531ZM6.4302 10.0889C6.36114 10.0963 6.30254 10.1329 6.26006 10.1842L6.4302 10.0889ZM7.3092 11.0571C7.26666 11.1022 7.2102 11.1266 7.15665 11.1336C7.10391 11.1405 7.03949 11.1321 6.98621 11.0916L7.3092 11.0571ZM7.3092 11.0571C7.36578 10.9972 7.41534 10.8893 7.3575 10.7721L7.3092 11.0571ZM6.76205 10.9159C6.7667 10.9195 6.77135 10.9232 6.77601 10.9269C6.84499 10.9818 6.91521 11.0376 6.98617 11.0916L6.76205 10.9159ZM5.72031 10.859C5.63692 10.9661 5.65693 11.1279 5.75898 11.2106L5.72031 10.859ZM7.23966 11.6232C7.05638 11.4663 6.91518 11.2791 6.81595 11.0603L7.23966 11.6232ZM7.57695 12.3916C7.64863 12.4148 7.73611 12.4432 7.82231 12.4524L7.57695 12.3916ZM6.4012 11.3795C6.4849 11.5498 6.5948 11.702 6.72193 11.8387L6.27016 11.0481C6.30651 11.1572 6.3477 11.2706 6.4012 11.3795Z" fill="#615E83" stroke="#615E83" stroke-width="0.244663"/>
</svg>
