<svg width="27" height="28" viewBox="0 0 27 28" fill="none" xmlns="http://www.w3.org/2000/svg">
<path d="M13.5 9.33325H12.375V15.1666H16.875V13.9999H13.5V9.33325Z" fill="#516D83"/>
<path d="M13.5 4.66675C10.125 4.66675 7.2 6.53341 5.7375 9.45008L4.5 8.16675V12.8334H9L7.3125 11.0834C8.4375 8.75008 10.8 7.00008 13.5 7.00008C17.2125 7.00008 20.25 10.1501 20.25 14.0001C20.25 17.8501 17.2125 21.0001 13.5 21.0001C11.475 21.0001 9.675 20.0667 8.4375 18.5501L6.75 20.0667C8.325 22.0501 10.8 23.3334 13.5 23.3334C18.45 23.3334 22.5 19.1334 22.5 14.0001C22.5 8.86675 18.45 4.66675 13.5 4.66675Z" fill="#516D83"/>
</svg>
