<svg width="68" height="68" viewBox="0 0 68 68" fill="none" xmlns="http://www.w3.org/2000/svg">
<path d="M56.6713 36.836V31.1692L51.8545 29.4692C51.2878 27.7692 50.7213 26.0692 49.8713 24.3692L52.1378 19.836L48.1713 15.8693L43.6378 18.136C42.2213 17.2859 40.5213 16.4359 38.5378 16.1526L36.8378 11.3359H31.1713L29.4713 16.1526C27.7713 16.7193 26.0713 17.2859 24.6545 18.136L20.1213 15.8693L15.8712 20.1192L18.1378 24.6527C17.2879 26.0692 16.7212 27.7692 16.1545 29.4692L11.3379 31.1692V36.836L16.1545 38.536C16.7212 40.236 17.2879 41.936 18.1378 43.636L15.8712 48.1692L19.8378 52.136L24.3713 49.8692C25.7878 50.7192 27.4878 51.5692 29.4713 51.8527L31.1713 56.6692H36.8378L38.5378 51.8527C40.2378 51.286 41.9378 50.7192 43.6378 49.8692L48.1713 52.136L52.1378 48.1692L49.8713 43.636C50.7213 42.2192 51.5713 40.5192 51.8545 38.536L56.6713 36.836ZM34.0045 45.336C27.7713 45.336 22.6713 40.236 22.6713 34.0027C22.6713 27.7692 27.7713 22.6692 34.0045 22.6692C40.2378 22.6692 45.3378 27.7692 45.3378 34.0027C45.3378 40.236 40.2378 45.336 34.0045 45.336Z" fill="#1C2E45" fill-opacity="0.6"/>
<path d="M41.3718 33.7161C41.3718 37.629 38.2012 40.7995 34.2885 40.7995C30.3757 40.7995 27.2051 37.629 27.2051 33.7161C27.2051 29.8034 30.3757 26.6328 34.2885 26.6328C38.2012 26.6328 41.3718 29.8034 41.3718 33.7161Z" fill="#1C2E45" fill-opacity="0.6"/>
</svg>
