<svg width="20" height="10" viewBox="0 0 20 10" fill="none" xmlns="http://www.w3.org/2000/svg">
<path d="M12.2488 6.78706C12.4094 6.88445 12.5866 6.96425 12.7296 7.08454C13.028 7.3356 13.2125 7.67713 13.3528 8.0313C13.5098 8.42814 13.3012 8.81076 12.8775 8.97826C12.4279 9.15604 11.9402 8.98636 11.6821 8.5593C11.5001 8.25827 11.3141 7.95901 11.1444 7.65106C10.9996 7.38834 10.7786 7.27457 10.4922 7.26528C10.1072 7.25264 9.72179 7.24395 9.3453 7.15012C7.98135 6.81037 7.16417 5.94065 6.87835 4.57394C6.71894 3.81128 6.73988 3.04743 6.97454 2.30057C7.33128 1.16556 8.09217 0.439049 9.24159 0.136038C9.88673 -0.034035 10.5429 -0.0369979 11.1993 0.0846805C11.7808 0.192532 12.3019 0.428777 12.7493 0.817714C13.2439 1.24774 13.5596 1.79114 13.7206 2.42146C13.9444 3.2981 13.9392 4.17414 13.656 5.03833C13.4136 5.77848 12.9717 6.36573 12.2903 6.76059C12.276 6.76889 12.262 6.77758 12.2488 6.78706C12.244 6.79082 12.2413 6.79714 12.2488 6.78706ZM8.60021 3.62738C8.63952 3.92347 8.65868 4.22392 8.72169 4.51468C8.90421 5.35636 9.4812 5.83023 10.3104 5.84327C11.0466 5.85492 11.5987 5.49996 11.8498 4.80742C12.122 4.05661 12.1212 3.28684 11.8755 2.53069C11.6643 1.88121 11.2104 1.49564 10.5133 1.43243C9.7127 1.35993 9.07942 1.71252 8.79557 2.48882C8.66125 2.85543 8.62589 3.23745 8.60021 3.62738Z" fill="#333333"/>
<path d="M2.88345 7.25781C2.24721 7.25188 1.62183 7.1703 1.0245 6.94551C0.789438 6.85702 0.562279 6.73831 0.347959 6.60655C-0.140137 6.30651 -0.0506558 5.66848 0.225491 5.3953C0.412552 5.21002 0.665982 5.16794 0.936598 5.29456C1.13591 5.38779 1.32613 5.50177 1.52879 5.58631C2.16563 5.85199 2.82795 5.90809 3.50212 5.77673C3.64453 5.74888 3.78873 5.67303 3.90606 5.58453C4.18952 5.37061 4.17391 4.98957 3.87782 4.79698C3.75851 4.71935 3.62202 4.65693 3.48454 4.62019C3.07841 4.51155 2.66696 4.42306 2.25946 4.31916C1.79309 4.20044 1.34074 4.04637 0.928895 3.78642C0.420453 3.46524 0.181442 2.99847 0.159318 2.40984C0.124553 1.48362 0.58618 0.848955 1.3605 0.413006C1.9037 0.10723 2.49945 -0.00160857 3.11831 0.00411979C3.64078 0.00886051 4.15574 0.062391 4.64976 0.248662C4.94705 0.360661 5.22181 0.510586 5.48176 0.694091C5.9025 0.990979 5.84304 1.63809 5.50428 1.92055C5.31169 2.08134 5.09045 2.07897 4.87297 1.97784C4.69441 1.89468 4.5265 1.7892 4.34991 1.70189C3.80019 1.42989 3.22143 1.35246 2.62271 1.48006C2.47338 1.51186 2.32563 1.5889 2.19723 1.67483C1.90923 1.86801 1.84049 2.37546 2.26657 2.5809C2.59605 2.73971 2.94548 2.82564 3.30063 2.89714C3.88611 3.01526 4.45875 3.17151 4.98418 3.46642C5.75139 3.89704 6.03247 4.53743 5.87741 5.42276C5.7502 6.14868 5.28206 6.62216 4.63258 6.92596C4.07949 7.18492 3.48789 7.26117 2.88345 7.25781Z" fill="#333333"/>
<path d="M16.8172 5.67385C16.8737 5.67385 16.9128 5.67385 16.9517 5.67385C17.653 5.67385 18.3542 5.67049 19.0554 5.67641C19.215 5.6778 19.378 5.69538 19.5329 5.73271C19.7871 5.79395 19.9423 5.96836 19.982 6.22634C20.0022 6.3575 20.0063 6.49715 19.9852 6.62752C19.9372 6.92559 19.7385 7.09606 19.4068 7.14505C19.3031 7.16046 19.1972 7.16875 19.0924 7.16895C18.0158 7.17073 16.9393 7.17231 15.8627 7.16717C15.7203 7.16658 15.5704 7.14959 15.4373 7.10278C15.1416 6.99888 15.0086 6.76125 14.977 6.46041C14.9691 6.38535 14.9691 6.3091 14.9691 6.23345C14.9687 4.49203 14.9683 2.75041 14.9697 1.00898C14.9697 0.907453 14.9739 0.80375 14.9948 0.705182C15.0653 0.37432 15.2723 0.166518 15.5977 0.0835559C15.8153 0.02805 16.0356 0.0361488 16.2507 0.103704C16.5739 0.205037 16.7876 0.487504 16.8125 0.841873C16.8172 0.910811 16.817 0.980144 16.817 1.04908C16.8172 2.54359 16.8172 4.0383 16.8172 5.53281C16.8172 5.57488 16.8172 5.61696 16.8172 5.67385Z" fill="#333333"/>
</svg>
