<svg width="20" height="10" viewBox="0 0 20 10" fill="none" xmlns="http://www.w3.org/2000/svg">
<path d="M11.9891 7.50112C12.1463 7.60874 12.3197 7.69694 12.4597 7.82989C12.7518 8.10737 12.9324 8.48483 13.0697 8.87626C13.2234 9.31485 13.0192 9.73772 12.6045 9.92285C12.1645 10.1193 11.6871 9.9318 11.4344 9.45981C11.2563 9.1271 11.0742 8.79636 10.9081 8.45601C10.7664 8.16566 10.55 8.03991 10.2697 8.02965C9.89287 8.01568 9.51566 8.00607 9.14715 7.90237C7.81212 7.52688 7.01226 6.56565 6.73249 5.05515C6.57646 4.21225 6.59695 3.36804 6.82665 2.54261C7.17582 1.28819 7.92058 0.48524 9.04565 0.15035C9.6771 -0.0376157 10.3194 -0.0408904 10.9619 0.0935895C11.5311 0.212788 12.0411 0.473888 12.479 0.903744C12.9632 1.37901 13.2721 1.97958 13.4297 2.67621C13.6488 3.64508 13.6437 4.61329 13.3665 5.56841C13.1292 6.38642 12.6967 7.03546 12.0297 7.47186C12.0158 7.48103 12.0021 7.49064 11.9891 7.50112C11.9818 7.51225 11.9845 7.50526 11.9891 7.50112ZM8.41786 4.00901C8.45634 4.33626 8.47509 4.66831 8.53677 4.98966C8.71542 5.91989 9.28017 6.44362 10.0918 6.45802C10.8124 6.4709 11.3528 6.0786 11.5985 5.3132C11.865 4.4834 11.8642 3.63264 11.6237 2.79694C11.417 2.07913 10.9727 1.65299 10.2904 1.58313C9.50677 1.50301 8.88691 1.89269 8.60908 2.75066C8.4776 3.15585 8.443 3.57806 8.41786 4.00901Z" fill="#FEDC52"/>
<path d="M2.82234 8.02147C2.19958 8.01492 1.58745 7.92475 1.00278 7.67632C0.772706 7.57851 0.550362 7.44731 0.340584 7.30169C-0.137167 6.97008 -0.0495822 6.26493 0.220712 5.96301C0.403808 5.75823 0.651867 5.71173 0.916747 5.85167C1.11183 5.95471 1.29802 6.08068 1.49639 6.17411C2.11973 6.46774 2.76801 6.52974 3.42789 6.38457C3.56729 6.35378 3.70843 6.26995 3.82327 6.17215C4.10072 5.93572 4.08545 5.51459 3.79563 5.30174C3.67885 5.21594 3.54525 5.14696 3.41068 5.10635C3.01317 4.98628 2.61043 4.88848 2.21157 4.77365C1.75508 4.64244 1.31233 4.47216 0.909207 4.18486C0.411541 3.82988 0.177596 3.31401 0.155941 2.66345C0.121913 1.63978 0.573756 0.938349 1.33166 0.456535C1.86335 0.118589 2.44648 -0.00170049 3.05222 0.00463054C3.56361 0.00987002 4.06766 0.0690324 4.55121 0.2749C4.84219 0.398683 5.11113 0.564381 5.36557 0.767193C5.77739 1.09531 5.7192 1.8105 5.38761 2.12269C5.1991 2.30039 4.98256 2.29777 4.76969 2.186C4.59491 2.09409 4.43057 1.97751 4.25772 1.88102C3.71964 1.5804 3.15315 1.49482 2.56712 1.63585C2.42096 1.671 2.27634 1.75614 2.15066 1.85111C1.86877 2.06462 1.80149 2.62546 2.21853 2.8525C2.54102 3.02803 2.88305 3.12299 3.23068 3.20202C3.80375 3.33257 4.36425 3.50526 4.87854 3.83119C5.62949 4.30711 5.90461 5.01488 5.75284 5.99335C5.62833 6.79565 5.1701 7.31894 4.53439 7.6547C3.99303 7.94091 3.41397 8.02518 2.82234 8.02147Z" fill="#FEDC52"/>
<path d="M16.4646 6.27061C16.5199 6.27061 16.5581 6.27061 16.5962 6.27061C17.2826 6.27061 17.969 6.2669 18.6553 6.27345C18.8115 6.27498 18.9711 6.29441 19.1226 6.33567C19.3715 6.40334 19.5234 6.59611 19.5623 6.88123C19.582 7.02619 19.5861 7.18053 19.5654 7.32462C19.5184 7.65405 19.3239 7.84245 18.9993 7.89659C18.8978 7.91362 18.7941 7.92279 18.6915 7.92301C17.6378 7.92497 16.584 7.92672 15.5303 7.92105C15.3909 7.92039 15.2442 7.90162 15.1139 7.84988C14.8244 7.73504 14.6943 7.47242 14.6634 7.13993C14.6556 7.05697 14.6556 6.9727 14.6556 6.88909C14.6553 4.96445 14.6549 3.0396 14.6562 1.11497C14.6562 1.00275 14.6603 0.88814 14.6808 0.779202C14.7498 0.41353 14.9524 0.183867 15.2709 0.0921758C15.4839 0.0308302 15.6995 0.0397811 15.91 0.114444C16.2264 0.226437 16.4356 0.538623 16.4599 0.930274C16.4646 1.00646 16.4644 1.08309 16.4644 1.15928C16.4646 2.81103 16.4646 4.46299 16.4646 6.11474C16.4646 6.16124 16.4646 6.20774 16.4646 6.27061Z" fill="#FEDC52"/>
</svg>
