<svg width="70" height="36" viewBox="0 0 70 36" fill="none" xmlns="http://www.w3.org/2000/svg">
<path d="M42.8657 26.8195C43.4277 27.2043 44.0478 27.5196 44.5483 27.995C45.5928 28.987 46.2385 30.3366 46.7293 31.7361C47.2788 33.3043 46.5488 34.8162 45.066 35.4781C43.4927 36.1806 41.7859 35.5101 40.8824 33.8225C40.2458 32.633 39.5946 31.4505 39.0008 30.2336C38.4941 29.1954 37.7205 28.7458 36.7182 28.7092C35.3709 28.6592 34.0222 28.6249 32.7046 28.2541C27.9313 26.9116 25.0715 23.4748 24.0712 18.0742C23.5134 15.0605 23.5867 12.0421 24.4079 9.09083C25.6563 4.60579 28.3191 1.73493 32.3417 0.537562C34.5994 -0.134491 36.8958 -0.146199 39.1929 0.334619C41.2281 0.7608 43.0517 1.69434 44.6174 3.23124C46.3484 4.9305 47.453 7.07779 48.0164 9.56852C48.7996 13.0326 48.7817 16.4943 47.7904 19.9092C46.9422 22.834 45.3958 25.1545 43.0109 26.7149C42.9611 26.7476 42.912 26.782 42.8657 26.8195C42.8394 26.8593 42.8491 26.8343 42.8657 26.8195ZM30.0971 14.3338C30.2347 15.5038 30.3017 16.691 30.5223 17.84C31.161 21.1659 33.1802 23.0385 36.0822 23.09C38.6586 23.136 40.5907 21.7334 41.4693 18.9968C42.4219 16.0299 42.4191 12.9881 41.5592 10.0002C40.8202 7.43372 39.2317 5.91009 36.7921 5.66031C33.9904 5.37385 31.7742 6.76713 30.7808 9.83469C30.3107 11.2834 30.187 12.793 30.0971 14.3338Z" fill="#24B2CF"/>
<path d="M10.091 28.6798C7.86436 28.6564 5.67578 28.334 3.58535 27.4458C2.76273 27.0961 1.96776 26.627 1.21772 26.1063C-0.490425 24.9207 -0.177276 22.3995 0.789131 21.32C1.44377 20.5879 2.33068 20.4216 3.27773 20.9219C3.97523 21.2904 4.64093 21.7407 5.35018 22.0748C7.57886 23.1246 9.89672 23.3463 12.2561 22.8273C12.7545 22.7172 13.2591 22.4175 13.6697 22.0678C14.6617 21.2224 14.6071 19.7168 13.5709 18.9557C13.1533 18.649 12.6757 18.4023 12.1945 18.2571C10.7733 17.8278 9.33333 17.4781 7.90722 17.0676C6.27511 16.5985 4.69209 15.9896 3.25077 14.9624C1.47142 13.6933 0.634975 11.8488 0.557552 9.52278C0.435887 5.86279 2.0514 3.35488 4.76121 1.63221C6.66223 0.423916 8.74712 -0.00616711 10.9129 0.0164688C12.7413 0.035202 14.5435 0.246731 16.2724 0.982789C17.3127 1.42536 18.2743 2.0178 19.184 2.74293C20.6565 3.9161 20.4484 6.47318 19.2628 7.58936C18.5889 8.22473 17.8146 8.21536 17.0535 7.81572C16.4286 7.48711 15.841 7.0703 15.223 6.72529C13.2992 5.65048 11.2737 5.3445 9.17848 5.84874C8.65588 5.9744 8.1388 6.27882 7.68947 6.61836C6.68158 7.38174 6.44102 9.38697 7.93211 10.1987C9.08516 10.8263 10.308 11.1658 11.5509 11.4484C13.5999 11.9152 15.6039 12.5326 17.4427 13.6979C20.1276 15.3995 21.1113 17.9301 20.5687 21.4285C20.1235 24.297 18.4852 26.168 16.2122 27.3685C14.2767 28.3918 12.2063 28.6931 10.091 28.6798Z" fill="#24B2CF"/>
<path d="M58.8673 22.4208C59.065 22.4208 59.2019 22.4208 59.3381 22.4208C61.7921 22.4208 64.2462 22.4076 66.7002 22.431C67.2588 22.4364 67.8291 22.5059 68.371 22.6534C69.2607 22.8954 69.804 23.5846 69.943 24.604C70.0135 25.1223 70.028 25.6742 69.9541 26.1893C69.7861 27.3672 69.0906 28.0408 67.93 28.2344C67.5671 28.2953 67.1965 28.328 66.8295 28.3288C63.062 28.3358 59.2945 28.3421 55.5271 28.3218C55.0287 28.3195 54.504 28.2523 54.0381 28.0673C53.0032 27.6568 52.538 26.7178 52.4274 25.529C52.3997 25.2324 52.3997 24.9311 52.3997 24.6321C52.3984 17.7508 52.397 10.8687 52.4018 3.98737C52.4018 3.58617 52.4163 3.17638 52.4896 2.78688C52.7364 1.47946 53.4609 0.658324 54.5994 0.330493C55.3612 0.111159 56.132 0.143162 56.8848 0.41011C58.0157 0.810532 58.7636 1.92672 58.8507 3.32702C58.8673 3.59944 58.8666 3.87341 58.8666 4.14582C58.8673 10.0515 58.8673 15.9579 58.8673 21.8635C58.8673 22.0298 58.8673 22.196 58.8673 22.4208Z" fill="#24B2CF"/>
</svg>
