<svg width="28" height="27" viewBox="0 0 28 27" fill="none" xmlns="http://www.w3.org/2000/svg">
<path d="M27.583 13.5C27.583 16.4525 26.6151 19.3235 24.8276 21.6733C23.0401 24.0232 20.5315 25.7223 17.6862 26.5103C14.8408 27.2983 11.8156 27.1318 9.07391 26.0363C6.33222 24.9408 4.02525 22.9767 2.50639 20.4449C0.987537 17.9131 0.340549 14.9532 0.664536 12.0186C0.988523 9.08396 2.26562 6.33646 4.3002 4.19696C6.33477 2.05745 9.01464 0.643928 11.9293 0.172906C14.8439 -0.298116 17.8326 0.199341 20.4375 1.58907L18.2126 5.7594C16.5198 4.85625 14.5775 4.53296 12.6834 4.83907C10.7892 5.14517 9.04763 6.06379 7.72541 7.45419C6.40319 8.8446 5.57324 10.6301 5.36269 12.5373C5.15214 14.4444 5.5726 16.368 6.55967 18.0133C7.54673 19.6587 9.04597 20.9351 10.8277 21.647C12.6095 22.359 14.5755 22.4671 16.4246 21.955C18.2737 21.4429 19.904 20.3387 21.0656 18.8116C22.2273 17.2845 22.8563 15.4187 22.8563 13.5L27.583 13.5Z" fill="#0770E3"/>
<path d="M22.9872 13.5C22.9872 15.4473 22.3488 17.341 21.1698 18.8909C19.9908 20.4408 18.3362 21.5614 16.4595 22.0812C14.5828 22.601 12.5874 22.4911 10.7791 21.7686C8.97074 21.046 7.44913 19.7506 6.44733 18.0807C5.44553 16.4107 5.01879 14.4585 5.23248 12.5229C5.44618 10.5872 6.28852 8.77507 7.63047 7.36391C8.97243 5.95275 10.74 5.02042 12.6624 4.70975C14.5848 4.39907 16.5561 4.72718 18.2742 5.64382L14.083 13.5H22.9872Z" fill="#249EDC"/>
</svg>
