<svg width="16" height="22" viewBox="0 0 16 22" fill="none" xmlns="http://www.w3.org/2000/svg">
<path d="M0.475 13.6998C0.308333 13.2665 0.1875 12.829 0.1125 12.3873C0.0375 11.9456 0 11.4998 0 11.0498C0 8.81647 0.775 6.91647 2.325 5.3498C3.875 3.78314 5.76667 2.9998 8 2.9998H8.175L7.275 2.0998C7.09167 1.91647 7 1.68314 7 1.3998C7 1.11647 7.09167 0.883138 7.275 0.699805C7.45833 0.516471 7.69167 0.424805 7.975 0.424805C8.25833 0.424805 8.49167 0.516471 8.675 0.699805L11.275 3.2998C11.375 3.3998 11.4458 3.50814 11.4875 3.6248C11.5292 3.74147 11.55 3.86647 11.55 3.9998C11.55 4.13314 11.5292 4.25814 11.4875 4.3748C11.4458 4.49147 11.375 4.5998 11.275 4.6998L8.675 7.2998C8.49167 7.48314 8.25833 7.5748 7.975 7.5748C7.69167 7.5748 7.45833 7.48314 7.275 7.2998C7.09167 7.11647 7 6.88314 7 6.5998C7 6.31647 7.09167 6.08314 7.275 5.8998L8.175 4.9998H8C6.33333 4.9998 4.91667 5.5873 3.75 6.7623C2.58333 7.9373 2 9.36647 2 11.0498C2 11.3831 2.02917 11.7081 2.0875 12.0248C2.14583 12.3415 2.23333 12.6581 2.35 12.9748C2.41667 13.1415 2.43333 13.3206 2.4 13.5123C2.36667 13.704 2.28333 13.8665 2.15 13.9998C1.85 14.2998 1.52917 14.4206 1.1875 14.3623C0.845833 14.304 0.608333 14.0831 0.475 13.6998ZM7.325 21.2998L4.725 18.6998C4.625 18.5998 4.55417 18.4915 4.5125 18.3748C4.47083 18.2581 4.45 18.1331 4.45 17.9998C4.45 17.8665 4.47083 17.7415 4.5125 17.6248C4.55417 17.5081 4.625 17.3998 4.725 17.2998L7.325 14.6998C7.50833 14.5165 7.74167 14.4248 8.025 14.4248C8.30833 14.4248 8.54167 14.5165 8.725 14.6998C8.90833 14.8831 9 15.1165 9 15.3998C9 15.6831 8.90833 15.9165 8.725 16.0998L7.825 16.9998H8C9.66667 16.9998 11.0833 16.4123 12.25 15.2373C13.4167 14.0623 14 12.6331 14 10.9498C14 10.6165 13.9708 10.2915 13.9125 9.9748C13.8542 9.65814 13.7667 9.34147 13.65 9.02481C13.5833 8.85814 13.5667 8.67897 13.6 8.4873C13.6333 8.29564 13.7167 8.13314 13.85 7.9998C14.15 7.6998 14.4708 7.57897 14.8125 7.6373C15.1542 7.69564 15.3917 7.91647 15.525 8.2998C15.6917 8.73314 15.8125 9.17064 15.8875 9.6123C15.9625 10.054 16 10.4998 16 10.9498C16 13.1831 15.225 15.0831 13.675 16.6498C12.125 18.2165 10.2333 18.9998 8 18.9998H7.825L8.725 19.8998C8.90833 20.0831 9 20.3165 9 20.5998C9 20.8831 8.90833 21.1165 8.725 21.2998C8.54167 21.4831 8.30833 21.5748 8.025 21.5748C7.74167 21.5748 7.50833 21.4831 7.325 21.2998Z" fill="#9CA3AF"/>
</svg>
