<svg width="930" height="873" viewBox="0 0 930 873" fill="none" xmlns="http://www.w3.org/2000/svg">
<path d="M413.421 435.556C413.421 294.696 413.401 153.826 413.441 12.9663C413.441 -1.17366 411.661 0.056345 426.131 0.036345C453.451 -0.013655 480.781 -0.0136757 508.101 0.0463243C516.741 0.0663243 516.751 0.176335 516.881 9.02634C516.911 10.6863 516.881 12.3563 516.881 14.0263C516.881 295.756 516.891 577.486 516.851 859.216C516.851 874.496 518.671 872.346 503.561 872.406C476.571 872.516 449.581 872.456 422.591 872.426C413.491 872.416 413.421 872.346 413.421 863.156C413.401 770.576 413.411 677.996 413.411 585.426C413.411 535.456 413.421 485.506 413.421 435.556Z" fill="#FECD08"/>
<path d="M619.691 435.538C619.691 295.978 619.691 156.418 619.691 16.8483C619.691 14.5183 619.681 12.1882 619.691 9.85824C619.761 0.10824 619.771 0.0382532 629.561 0.0282532C657.561 -0.00174679 685.551 0.0182434 713.551 0.0182434C715.221 0.0182434 716.881 0.078252 718.551 0.058252C721.851 0.028252 723.401 1.63826 723.321 4.93826C723.261 7.26826 723.341 9.59825 723.341 11.9282C723.341 295.048 723.351 578.168 723.331 861.288C723.331 873.558 724.611 872.378 711.971 872.398C684.641 872.438 657.311 872.418 629.981 872.408C618.741 872.408 619.701 873.048 619.701 862.208C619.691 782.268 619.691 702.328 619.691 622.388C619.691 560.108 619.691 497.828 619.691 435.538Z" fill="#FECD08"/>
<path d="M207.011 436.615C207.011 295.405 207.001 154.195 207.031 12.9853C207.031 -1.43469 205.421 0.0753083 219.721 0.0453083C246.711 -0.0246917 273.711 -0.00469171 300.701 0.0453083C309.891 0.0653083 309.981 0.145314 309.991 9.39531C310.021 54.3553 310.011 99.3153 310.011 144.275C310.011 382.735 310.021 621.195 309.981 859.655C309.981 874.325 311.731 872.335 297.301 872.395C270.641 872.505 243.981 872.445 217.321 872.415C206.331 872.405 207.021 873.395 207.021 862.245C207.011 782.975 207.011 703.715 207.011 624.445C207.011 561.835 207.011 499.225 207.011 436.615Z" fill="#FECD08"/>
<path d="M0.550798 763.837C0.410798 760.187 0.150804 756.536 0.150804 752.876C0.130804 506.436 0.130804 259.986 0.150804 13.5465C0.150804 -1.34352 -1.40919 0.0464867 13.3908 0.0264867C40.0508 -0.0135133 66.7108 -0.00351326 93.3608 0.0264867C103.551 0.0364867 103.601 0.0864897 103.601 10.4365C103.611 139.316 103.611 268.206 103.611 397.086C103.611 516.646 103.611 636.206 103.601 755.766C103.601 758.426 103.401 761.076 103.301 763.736C100.971 765.286 98.3308 765.457 95.6708 765.457C66.5308 765.417 37.3808 765.487 8.2408 765.417C5.5708 765.407 2.9008 765.337 0.550798 763.837Z" fill="#FECD08"/>
<path d="M929.601 436.625C929.601 461.235 929.651 485.845 929.571 510.445C929.551 517.975 929.391 518.115 921.751 518.135C892.471 518.195 863.191 518.205 833.911 518.125C826.371 518.105 826.181 517.935 826.171 510.185C826.111 460.635 826.111 411.085 826.171 361.535C826.181 354.695 826.381 354.535 833.621 354.525C863.231 354.455 892.851 354.455 922.461 354.525C929.391 354.545 929.551 354.725 929.571 361.795C929.651 386.735 929.601 411.685 929.601 436.625Z" fill="#FECD08"/>
<path d="M0.550807 763.835C2.85081 763.525 5.14081 762.965 7.44081 762.955C36.7508 762.895 66.0608 762.895 95.3708 762.955C98.0108 762.965 100.651 763.465 103.301 763.735C103.421 797.965 103.461 832.205 103.771 866.435C103.811 871.385 102.031 872.575 97.4008 872.555C67.1308 872.395 36.8608 872.415 6.59082 872.535C2.19081 872.555 -0.0491811 871.695 0.000818948 866.535C0.330819 832.295 0.400807 798.065 0.550807 763.835Z" fill="#ED2024"/>
</svg>
