<svg width="18" height="18" viewBox="0 0 18 18" fill="none" xmlns="http://www.w3.org/2000/svg">
<path d="M9.4165 8.16669V2.33335H2.33317V13.3125L3.31234 12.3334H15.6665V2.33335H13.5832V8.16669L11.4998 6.91669L9.4165 8.16669ZM0.666504 17.3334V2.33335C0.666504 1.87502 0.829698 1.48266 1.15609 1.15627C1.48248 0.829881 1.87484 0.666687 2.33317 0.666687H15.6665C16.1248 0.666687 16.5172 0.829881 16.8436 1.15627C17.17 1.48266 17.3332 1.87502 17.3332 2.33335V12.3334C17.3332 12.7917 17.17 13.184 16.8436 13.5104C16.5172 13.8368 16.1248 14 15.6665 14H3.99984L0.666504 17.3334Z" fill="#0770E3"/>
</svg>
