<svg width="20" height="21" viewBox="0 0 20 21" fill="none" xmlns="http://www.w3.org/2000/svg">
<path d="M10.5 9.99805V2.99805H2V16.173L3.175 14.998H18V2.99805H15.5V9.99805L13 8.49805L10.5 9.99805ZM0 20.998V2.99805C0 2.44805 0.196 1.97705 0.588 1.58505C0.979333 1.19371 1.45 0.998047 2 0.998047H18C18.55 0.998047 19.021 1.19371 19.413 1.58505C19.8043 1.97705 20 2.44805 20 2.99805V14.998C20 15.548 19.8043 16.019 19.413 16.411C19.021 16.8024 18.55 16.998 18 16.998H4L0 20.998Z" fill="#0770E3"/>
</svg>
