<svg width="24" height="24" viewBox="0 0 24 24" fill="none" xmlns="http://www.w3.org/2000/svg">
<path d="M12 10.6667C8.66667 10.6667 5.83333 10.1444 3.5 9.1C1.16667 8.05556 0 6.8 0 5.33333C0 3.86667 1.16667 2.61111 3.5 1.56667C5.83333 0.522222 8.66667 0 12 0C15.3333 0 18.1667 0.522222 20.5 1.56667C22.8333 2.61111 24 3.86667 24 5.33333C24 6.8 22.8333 8.05556 20.5 9.1C18.1667 10.1444 15.3333 10.6667 12 10.6667ZM12 17.3333C8.66667 17.3333 5.83333 16.8111 3.5 15.7667C1.16667 14.7222 0 13.4667 0 12V8.66667C0 9.64444 0.455556 10.4724 1.36667 11.1507C2.27778 11.828 3.36667 12.3778 4.63333 12.8C5.9 13.2222 7.21689 13.5276 8.584 13.716C9.95022 13.9053 11.0889 14 12 14C12.9111 14 14.0498 13.9053 15.416 13.716C16.7831 13.5276 18.1 13.2222 19.3667 12.8C20.6333 12.3778 21.7222 11.828 22.6333 11.1507C23.5444 10.4724 24 9.64444 24 8.66667V12C24 13.4667 22.8333 14.7222 20.5 15.7667C18.1667 16.8111 15.3333 17.3333 12 17.3333ZM12 24C8.66667 24 5.83333 23.4778 3.5 22.4333C1.16667 21.3889 0 20.1333 0 18.6667V15.3333C0 16.3111 0.455556 17.1391 1.36667 17.8173C2.27778 18.4947 3.36667 19.0444 4.63333 19.4667C5.9 19.8889 7.21689 20.1947 8.584 20.384C9.95022 20.5724 11.0889 20.6667 12 20.6667C12.9111 20.6667 14.0498 20.5724 15.416 20.384C16.7831 20.1947 18.1 19.8889 19.3667 19.4667C20.6333 19.0444 21.7222 18.4947 22.6333 17.8173C23.5444 17.1391 24 16.3111 24 15.3333V18.6667C24 20.1333 22.8333 21.3889 20.5 22.4333C18.1667 23.4778 15.3333 24 12 24Z" fill="#9CA3AF"/>
</svg>
