<svg width="18" height="16" viewBox="0 0 18 16" fill="none" xmlns="http://www.w3.org/2000/svg">
<path d="M7.33329 15.9998L10.6666 12.6665H17.3333V15.9998H7.33329ZM2.33329 14.3332H3.49996L10.6875 7.14567L9.52079 5.979L2.33329 13.1665V14.3332ZM14.25 5.93734L10.7083 2.43734L11.875 1.27067C12.1944 0.951226 12.5869 0.791504 13.0525 0.791504C13.5175 0.791504 13.9097 0.951226 14.2291 1.27067L15.3958 2.43734C15.7152 2.75678 15.8819 3.14234 15.8958 3.594C15.9097 4.04511 15.7569 4.43039 15.4375 4.74984L14.25 5.93734ZM13.0416 7.1665L4.20829 15.9998H0.666626V12.4582L9.49996 3.62484L13.0416 7.1665Z" fill="#6B7280"/>
</svg>
