<svg width="17" height="18" viewBox="0 0 17 18" fill="none" xmlns="http://www.w3.org/2000/svg">
<path d="M0.0999999 6.99609C0.333333 5.27943 1.096 3.85043 2.388 2.70909C3.67933 1.56709 5.21667 0.996094 7 0.996094C7.98333 0.996094 8.90433 1.18343 9.763 1.55809C10.621 1.93343 11.3667 2.44609 12 3.09609V0.996094H14V6.99609H8V4.99609H11C10.5167 4.39609 9.93733 3.91276 9.262 3.54609C8.58733 3.17943 7.83333 2.99609 7 2.99609C5.8 2.99609 4.74167 3.37509 3.825 4.13309C2.90833 4.89176 2.33333 5.84609 2.1 6.99609H0.0999999ZM15.6 17.9961L11.2 13.5961C10.6 14.0461 9.946 14.3918 9.238 14.6331C8.52933 14.8751 7.78333 14.9961 7 14.9961C6.01667 14.9961 5.096 14.8088 4.238 14.4341C3.37933 14.0588 2.63333 13.5461 2 12.8961V14.9961H0V8.99609H6V10.9961H3C3.48333 11.5961 4.06267 12.0794 4.738 12.4461C5.41267 12.8128 6.16667 12.9961 7 12.9961C8.2 12.9961 9.25833 12.6171 10.175 11.8591C11.0917 11.1004 11.6667 10.1461 11.9 8.99609H13.9C13.8167 9.59609 13.6667 10.1588 13.45 10.6841C13.2333 11.2088 12.95 11.7128 12.6 12.1961L17 16.5961L15.6 17.9961Z" fill="#9CA3AF"/>
</svg>
