<svg width="14" height="15" viewBox="0 0 14 15" fill="none" xmlns="http://www.w3.org/2000/svg">
<path d="M7.46683 8.86665L11.2335 5.09998L10.3002 4.13331L7.46683 6.96665L6.0335 5.56665L5.10016 6.49998L7.46683 8.86665ZM4.3335 11.5C3.96683 11.5 3.65294 11.3694 3.39183 11.1083C3.13072 10.8472 3.00016 10.5333 3.00016 10.1666V2.16665C3.00016 1.79998 3.13072 1.48609 3.39183 1.22498C3.65294 0.963869 3.96683 0.833313 4.3335 0.833313H12.3335C12.7002 0.833313 13.0141 0.963869 13.2752 1.22498C13.5363 1.48609 13.6668 1.79998 13.6668 2.16665V10.1666C13.6668 10.5333 13.5363 10.8472 13.2752 11.1083C13.0141 11.3694 12.7002 11.5 12.3335 11.5H4.3335ZM4.3335 10.1666H12.3335V2.16665H4.3335V10.1666ZM1.66683 14.1666C1.30016 14.1666 0.986274 14.0361 0.725163 13.775C0.464052 13.5139 0.333496 13.2 0.333496 12.8333V3.49998H1.66683V12.8333H11.0002V14.1666H1.66683Z" fill="#9CA3AF"/>
</svg>
