<svg width="30" height="29" viewBox="0 0 30 29" fill="none" xmlns="http://www.w3.org/2000/svg">
<path d="M29.5179 0V16.5522C29.5179 19.8779 28.1871 23.0652 25.8223 25.4035V25.4035C23.4921 27.7077 20.3472 29 17.0701 29H9.83929V29C9.83929 25.3148 12.8267 22.3274 16.5119 22.3274H22.7857V0L29.5179 0Z" fill="#081935"/>
<path d="M1.57867e-05 29L1.72338e-05 12.4478C1.75245e-05 9.12212 1.33079 5.93476 3.69558 3.59645V3.59645C6.02583 1.29229 9.17071 -1.80418e-06 12.4478 -1.51769e-06L19.6786 -8.85555e-07V-8.85555e-07C19.6786 3.68516 16.6912 6.67257 13.006 6.67257L6.73216 6.67257L6.73216 29L1.57867e-05 29Z" fill="#081935"/>
</svg>
