<svg width="48" height="48" viewBox="0 0 48 48" fill="none" xmlns="http://www.w3.org/2000/svg">
<rect x="0.25" y="0.25" width="47.5" height="47.5" rx="23.75" fill="#081935"/>
<path d="M30.0086 11.875L36 18.5277V26.8622C36 28.7295 34.9595 30.4412 33.3019 31.3008L24 36.125V29.9015C27.3557 29.9015 30.0108 27.4014 30.0108 24.0408V11.875H30.0086Z" fill="white"/>
<path d="M17.9914 36.125L12 29.4723L12 21.1378C12 19.2705 13.0405 17.5588 14.6981 16.6992L24 11.875L24 18.0985C20.6443 18.0985 17.9892 20.5986 17.9892 23.9592L17.9892 36.125L17.9914 36.125Z" fill="white"/>
<circle cx="24" cy="24.125" r="2.5" fill="white"/>
<rect x="0.25" y="0.25" width="47.5" height="47.5" rx="23.75" stroke="#D1D5DB" stroke-width="0.5"/>
</svg>
