<svg width="22" height="22" viewBox="0 0 22 22" fill="none" xmlns="http://www.w3.org/2000/svg">
<path d="M3 21.5L1.4 20.3L4.25 16.5L5.025 12.05C5.075 11.65 5.23333 11.2957 5.5 10.987C5.76667 10.679 6.10833 10.475 6.525 10.375L16 7.5L18 3.5L21 0.5L22 1.5L19.5 4.4L18 9L13 12.5L7.15 14.35L6 17.5L3 21.5ZM2 13.5C1.45 13.5 0.979333 13.304 0.588 12.912C0.196 12.5207 0 12.05 0 11.5C0 10.95 0.196 10.479 0.588 10.087C0.979333 9.69567 1.45 9.5 2 9.5C2.55 9.5 3.02067 9.69567 3.412 10.087C3.804 10.479 4 10.95 4 11.5C4 12.05 3.804 12.5207 3.412 12.912C3.02067 13.304 2.55 13.5 2 13.5ZM7.9 8.6C7.5 8.71667 7.121 8.67067 6.763 8.462C6.40433 8.254 6.16667 7.95 6.05 7.55C5.93333 7.15 5.97933 6.76667 6.188 6.4C6.396 6.03333 6.7 5.8 7.1 5.7L11.65 4.5L12.425 7.4L7.9 8.6Z" fill="#0770E3"/>
</svg>
