<svg width="22" height="19" viewBox="0 0 22 19" fill="none" xmlns="http://www.w3.org/2000/svg">
<path d="M3 13C2.16667 13 1.45833 12.7083 0.875 12.125C0.291667 11.5417 0 10.8333 0 10C0 9.16667 0.291667 8.45833 0.875 7.875C1.45833 7.29167 2.16667 7 3 7V5C3 4.45 3.196 3.97933 3.588 3.588C3.97933 3.196 4.45 3 5 3H8C8 2.16667 8.29167 1.45833 8.875 0.875C9.45833 0.291667 10.1667 0 11 0C11.8333 0 12.5417 0.291667 13.125 0.875C13.7083 1.45833 14 2.16667 14 3H17C17.55 3 18.021 3.196 18.413 3.588C18.8043 3.97933 19 4.45 19 5V7C19.8333 7 20.5417 7.29167 21.125 7.875C21.7083 8.45833 22 9.16667 22 10C22 10.8333 21.7083 11.5417 21.125 12.125C20.5417 12.7083 19.8333 13 19 13V17C19 17.55 18.8043 18.021 18.413 18.413C18.021 18.8043 17.55 19 17 19H5C4.45 19 3.97933 18.8043 3.588 18.413C3.196 18.021 3 17.55 3 17V13ZM8 11C8.41667 11 8.77067 10.854 9.062 10.562C9.354 10.2707 9.5 9.91667 9.5 9.5C9.5 9.08333 9.354 8.72933 9.062 8.438C8.77067 8.146 8.41667 8 8 8C7.58333 8 7.22933 8.146 6.938 8.438C6.646 8.72933 6.5 9.08333 6.5 9.5C6.5 9.91667 6.646 10.2707 6.938 10.562C7.22933 10.854 7.58333 11 8 11ZM14 11C14.4167 11 14.7707 10.854 15.062 10.562C15.354 10.2707 15.5 9.91667 15.5 9.5C15.5 9.08333 15.354 8.72933 15.062 8.438C14.7707 8.146 14.4167 8 14 8C13.5833 8 13.2293 8.146 12.938 8.438C12.646 8.72933 12.5 9.08333 12.5 9.5C12.5 9.91667 12.646 10.2707 12.938 10.562C13.2293 10.854 13.5833 11 14 11ZM7 15H15V13H7V15ZM5 17H17V5H5V17Z" fill="#1F2937"/>
</svg>
