<svg width="640" height="640" viewBox="0 0 640 640" fill="none" xmlns="http://www.w3.org/2000/svg">
<path d="M205.707 128.505C205.707 98.5934 205.76 69.5088 205.685 40.4243C205.654 28.0186 210.224 17.6698 219.607 9.69624C231.176 -0.13292 244.567 -2.48683 258.723 2.62391C273.132 7.83008 281.647 18.4863 284.255 33.6807C284.944 37.6993 285.061 41.7285 285.05 45.7895C285.029 94.9883 285.093 144.187 284.997 193.386C284.966 210.701 277.639 224.061 261.946 232.035C249.413 238.407 236.594 238.004 224.464 231.059C179.464 205.293 134.58 179.326 89.6865 153.359C72.8911 143.636 65.6809 125.61 70.9719 107.214C75.9554 89.92 92.3267 78.4049 111.137 79.1047C117.594 79.3486 123.596 81.342 129.183 84.5654C152.415 97.9572 175.636 111.349 198.868 124.73C200.84 125.875 202.844 126.936 205.707 128.505Z" fill="#2CB5E8"/>
<path d="M285.028 521.916C285.028 547.311 285.081 572.705 285.007 598.089C284.964 613.676 278.931 626.252 265.327 634.427C239.519 649.939 206.002 631.224 205.759 601.111C205.536 573.426 205.706 545.742 205.695 518.057C205.695 512.193 205.631 512.161 200.457 515.141C176.462 528.957 152.573 542.963 128.44 556.546C114.868 564.191 100.882 563.82 87.7451 555.496C75.4242 547.682 68.8078 536.018 69.2107 521.322C69.6137 506.52 76.5375 495.016 89.4734 487.541C134.06 461.764 178.646 435.988 223.36 410.424C252.052 394.02 284.869 413.18 285.007 446.262C285.113 471.487 285.028 496.702 285.028 521.916Z" fill="#2CB5E8"/>
<path d="M543.036 320.413C564.433 332.755 584.738 344.471 605.043 356.188C610.387 359.273 615.837 362.2 621.043 365.508C636.111 375.104 642.812 393.278 637.733 410.243C632.76 426.837 617.12 438.681 599.72 438.649C592.966 438.638 586.435 437.069 580.476 433.634C535.55 407.741 490.815 381.508 445.635 356.071C418.056 340.548 417.833 300.214 445.932 284.447C489.924 259.773 533.408 234.209 577.136 209.079C595.32 198.624 613.844 200.3 627.257 213.437C646.162 231.95 642.653 262.445 619.835 275.953C601.629 286.737 583.19 297.139 564.857 307.721C557.88 311.771 550.925 315.832 543.036 320.413Z" fill="#2CB5E8"/>
<path d="M433.801 79.5719C433.801 94.2043 433.918 108.847 433.727 123.48C433.674 127.848 434.862 127.7 438.074 125.823C461.242 112.336 484.697 99.3256 507.631 85.4566C532.803 70.2411 563.033 84.0358 568.695 110.862C572.056 126.798 564.602 144.188 549.736 152.851C518.499 171.067 487.125 189.039 455.813 207.107C442.676 214.688 429.507 222.217 416.401 229.851C391.876 244.133 363.216 233.095 355.9 206.545C355.041 203.417 354.924 200.279 354.924 197.119C354.924 144.75 354.913 92.3805 355.03 40.0008C355.073 21.1165 366.439 6.42045 384.443 1.45816C408.438 -5.15824 433.123 12.9202 433.685 37.7635C434.003 51.6855 433.738 65.6181 433.738 79.5507C433.769 79.5719 433.78 79.5719 433.801 79.5719Z" fill="#2CB5E8"/>
<path d="M434.502 513.168C433.357 515.5 433.834 517.451 433.824 519.317C433.771 546.652 433.962 573.987 433.707 601.322C433.506 623.048 415.926 640.003 394.242 639.939C372.834 639.876 355.18 622.879 355.095 601.513C354.894 551.424 355 501.345 355.021 451.256C355.021 445.636 354.363 439.984 355.859 434.418C362.941 408.228 391.157 396.67 415.311 410.348C438.489 423.465 461.477 436.92 484.549 450.238C506.095 462.675 527.683 475.007 549.144 487.593C568.41 498.885 575.09 522.488 564.551 541.149C553.523 560.68 530.186 567.573 510.167 556.46C485.652 542.846 461.488 528.595 437.174 514.62C436.422 514.175 435.648 513.783 434.502 513.168Z" fill="#2CB5E8"/>
<path d="M213.235 320.453C212.514 335.415 206.417 346.972 193.651 354.437C168.988 368.846 144.198 383.034 119.46 397.305C99.4521 408.852 79.4014 420.325 59.425 431.914C43.5096 441.139 24.3496 439.018 11.6258 426.475C-1.16163 413.868 -3.55796 394.761 5.78346 378.856C9.34613 372.801 14.4781 368.274 20.5431 364.775C44.3791 351.054 68.2151 337.334 92.0404 323.581C93.5249 322.723 95.9954 322.15 96.0378 320.538C96.1014 318.449 93.4294 318.036 91.839 317.124C68.1832 303.446 44.4851 289.842 20.8082 276.185C5.55019 267.384 -2.49764 250.939 0.746941 235.363C4.55349 217.083 17.4788 205.091 35.9071 203.203C44.0186 202.366 51.7059 204.486 58.7358 208.537C103.513 234.303 148.248 260.132 192.993 285.961C206.438 293.68 212.62 305.62 213.235 320.453Z" fill="#2CB5E8"/>
<path d="M393.329 314.887C393.467 310.19 391.718 306.341 388.431 303.054C371.201 285.856 353.96 268.657 336.772 251.417C333.326 247.96 329.233 246.348 324.409 246.38C321.058 246.401 317.697 246.348 314.346 246.401C309.935 246.465 306.097 247.928 302.927 251.099C285.463 268.562 267.968 286.004 250.494 303.468C247.493 306.468 245.892 310.063 245.987 314.378C246.051 317.549 246.136 320.73 245.966 323.9C245.648 329.764 247.811 334.376 251.989 338.49C267.576 353.844 283.194 369.165 298.399 384.89C304.347 391.04 310.593 394.952 318.853 393.33C326.042 393.913 332.308 393.468 337.493 388.23C354.246 371.296 371.169 354.533 388.017 337.705C391.548 334.175 393.499 330.029 393.329 324.929C393.223 321.589 393.234 318.227 393.329 314.887ZM341.724 328.025C336.984 332.743 332.329 337.557 327.505 342.18C322.415 347.057 316.764 346.994 311.642 342.032C306.839 337.377 302.1 332.658 297.466 327.834C292.663 322.84 292.482 317.443 297.201 312.385C302.004 307.242 306.998 302.27 312.151 297.466C316.743 293.183 322.33 293.066 326.879 297.254C332.191 302.132 337.196 307.349 342.243 312.502C344.268 314.569 345.255 317.199 345.583 319.797C345.149 323.179 343.919 325.83 341.724 328.025Z" fill="#2CB5E8"/>
</svg>
