<svg width="16" height="15" viewBox="0 0 16 15" fill="none" xmlns="http://www.w3.org/2000/svg">
<path d="M4.00005 14.9998C3.71672 14.9998 3.47922 14.904 3.28755 14.7123C3.09588 14.5206 3.00005 14.2831 3.00005 13.9998C3.00005 13.7165 3.09588 13.479 3.28755 13.2873C3.47922 13.0956 3.71672 12.9998 4.00005 12.9998H10.1C11.15 12.9998 12.0625 12.6665 12.8375 11.9998C13.6125 11.3331 14 10.4998 14 9.4998C14 8.4998 13.6125 7.66647 12.8375 6.9998C12.0625 6.33314 11.15 5.9998 10.1 5.9998H3.80005L5.70005 7.8998C5.88338 8.08314 5.97505 8.31647 5.97505 8.5998C5.97505 8.88314 5.88338 9.11647 5.70005 9.2998C5.51672 9.48314 5.28338 9.57481 5.00005 9.57481C4.71672 9.57481 4.48338 9.48314 4.30005 9.2998L0.700049 5.6998C0.600049 5.5998 0.529215 5.49147 0.487549 5.3748C0.445882 5.25814 0.425049 5.13314 0.425049 4.9998C0.425049 4.86647 0.445882 4.74147 0.487549 4.6248C0.529215 4.50814 0.600049 4.3998 0.700049 4.2998L4.30005 0.699805C4.48338 0.516471 4.71672 0.424805 5.00005 0.424805C5.28338 0.424805 5.51672 0.516471 5.70005 0.699805C5.88338 0.883138 5.97505 1.11647 5.97505 1.3998C5.97505 1.68314 5.88338 1.91647 5.70005 2.0998L3.80005 3.9998H10.1C11.7167 3.9998 13.1042 4.5248 14.2625 5.5748C15.4209 6.6248 16 7.93314 16 9.4998C16 11.0665 15.4209 12.3748 14.2625 13.4248C13.1042 14.4748 11.7167 14.9998 10.1 14.9998H4.00005Z" fill="#9CA3AF"/>
</svg>
