<svg width="19" height="18" viewBox="0 0 19 18" fill="none" xmlns="http://www.w3.org/2000/svg">
<path d="M17.6354 7.8684H16.8661C16.6748 5.97726 15.0725 4.4914 13.1328 4.4914H10.3899L9.50057 2.11626C9.86833 1.93239 10.1197 1.54965 10.1197 1.1144C10.1197 0.499084 9.62063 0 9.00531 0C8.39 0 7.88708 0.499084 7.88708 1.1144C7.88708 1.54965 8.13846 1.92857 8.50623 2.11246L7.61695 4.4914H4.87788C2.93419 4.4914 1.33196 5.97726 1.14451 7.8684H0.375254C0.165112 7.8684 0 8.03717 0 8.24366V11.9958C0 12.2022 0.165094 12.3711 0.375254 12.3711H1.12573V14.6225C1.12573 14.8288 1.29082 14.9978 1.50098 14.9978H6.37718V15.7485H6.00193C5.79451 15.7485 5.62668 15.9165 5.62668 16.1238C5.62668 16.3311 5.79449 16.499 6.00193 16.499H6.37718V17.2495H6.00193C5.79451 17.2495 5.62668 17.4174 5.62668 17.6247C5.62668 17.832 5.79449 18 6.00193 18H12.0056C12.2131 18 12.3809 17.8321 12.3809 17.6247C12.3809 17.4175 12.2131 17.2495 12.0056 17.2495H11.6304V16.499H12.0056C12.2131 16.499 12.3809 16.3311 12.3809 16.1238C12.3809 15.9165 12.2131 15.7485 12.0056 15.7485H11.6304V14.9978H16.5097C16.7161 14.9978 16.885 14.8289 16.885 14.6225V12.3711H17.6354C17.8418 12.3711 18.0107 12.2022 18.0107 11.9958V8.24366C18.0107 8.03732 17.8419 7.8684 17.6354 7.8684H17.6354ZM3.00154 9.7446C3.00154 8.50254 4.01089 7.49319 5.25295 7.49319C6.49122 7.49319 7.50437 8.50254 7.50437 9.7446C7.50437 10.9866 6.49122 11.996 5.25295 11.996C4.01089 11.9959 3.00154 10.9865 3.00154 9.7446ZM10.8798 17.2493H7.12758V16.4988H10.8798V17.2493ZM10.8798 15.7484H7.12758V14.9976H10.8798V15.7484ZM12.7575 11.9958C11.5155 11.9958 10.506 10.9865 10.506 9.74443C10.506 8.50236 11.5154 7.49301 12.7575 7.49301C13.9957 7.49301 15.0089 8.50236 15.0089 9.74443C15.0089 10.9865 13.9957 11.9958 12.7575 11.9958Z" fill="#303234"/>
</svg>
