<svg width="13" height="13" viewBox="0 0 13 13" fill="none" xmlns="http://www.w3.org/2000/svg">
<path d="M9.78307 11.5395H3.63511C3.40218 11.5395 3.17879 11.447 3.01408 11.2823C2.84937 11.1176 2.75684 10.8942 2.75684 10.6612V2.75671H10.6613V10.6612C10.6613 10.8942 10.5688 11.1176 10.4041 11.2823C10.2394 11.447 10.016 11.5395 9.78307 11.5395Z" stroke="#615E83" stroke-width="1.06021" stroke-linecap="round" stroke-linejoin="round"/>
<path d="M5.39136 8.90435V5.39124" stroke="#615E83" stroke-width="1.06021" stroke-linecap="round" stroke-linejoin="round"/>
<path d="M8.02655 8.90435V5.39124" stroke="#615E83" stroke-width="1.06021" stroke-linecap="round" stroke-linejoin="round"/>
<path d="M1 2.75671H12.4176" stroke="#615E83" stroke-width="1.06021" stroke-linecap="round" stroke-linejoin="round"/>
<path d="M8.02612 1H5.39128C5.15835 1 4.93495 1.09253 4.77024 1.25724C4.60553 1.42195 4.513 1.64534 4.513 1.87828V2.75656H8.90439V1.87828C8.90439 1.64534 8.81186 1.42195 8.64715 1.25724C8.48244 1.09253 8.25905 1 8.02612 1Z" stroke="#615E83" stroke-width="1.06021" stroke-linecap="round" stroke-linejoin="round"/>
</svg>
