<svg width="12" height="14" viewBox="0 0 12 14" fill="none" xmlns="http://www.w3.org/2000/svg">
<g clip-path="url(#clip0_2905_79827)">
<path d="M5.8828 9.88442C5.03853 9.88442 4.19403 9.88465 3.34976 9.88442C3.14106 9.88442 3.08455 9.82783 3.08432 9.61785C3.08387 8.98498 3.08387 8.35233 3.08432 7.71946C3.08455 7.50521 3.15141 7.43806 3.368 7.43784C5.05677 7.43739 6.74531 7.43739 8.43408 7.43784C8.61667 7.43784 8.69659 7.51644 8.69682 7.69566C8.69772 8.33975 8.69772 8.98363 8.69682 9.62773C8.69659 9.81413 8.625 9.8842 8.43813 9.8842C7.58666 9.88465 6.73473 9.88442 5.8828 9.88442Z" fill="#5664D2"/>
<path d="M8.99296 4.28711C9.80684 4.28711 10.6207 4.28711 11.4346 4.28711C11.6433 4.28711 11.7135 4.35561 11.7138 4.5602C11.7142 5.19262 11.7142 5.82504 11.7138 6.45768C11.7135 6.68137 11.6417 6.75233 11.4166 6.75233C9.79243 6.75256 8.1685 6.75256 6.54435 6.75233C6.30886 6.75233 6.24424 6.68743 6.24424 6.45342C6.24424 5.82459 6.24402 5.19599 6.24424 4.56716C6.24424 4.35471 6.31268 4.28711 6.52882 4.28711C7.35012 4.28711 8.17143 4.28711 8.99296 4.28711Z" fill="#5664D2"/>
<path d="M2.79758 0.417969C3.60808 0.417969 4.41836 0.417969 5.22886 0.417969C5.46368 0.417969 5.52267 0.47636 5.52267 0.708352C5.52267 1.33718 5.52289 1.96623 5.52267 2.59506C5.52267 2.79246 5.44949 2.86747 5.25227 2.86747C3.60898 2.86792 1.96546 2.86792 0.32217 2.86747C0.131702 2.86747 0.0531284 2.78528 0.0529032 2.59191C0.0526781 1.96668 0.0526781 1.34145 0.0529032 0.716437C0.0529032 0.483996 0.119995 0.417969 0.35504 0.417969C1.16914 0.417969 1.98325 0.417969 2.79758 0.417969Z" fill="#5664D2"/>
<path d="M8.9685 13.0516C8.15056 13.0516 7.33286 13.0516 6.51493 13.0516C6.31118 13.0516 6.24431 12.9858 6.24431 12.7845C6.24408 12.1481 6.24408 11.5118 6.24431 10.8754C6.24431 10.6775 6.31658 10.6041 6.51538 10.6039C8.15867 10.6034 9.80174 10.6034 11.445 10.6039C11.6312 10.6039 11.7129 10.6829 11.7134 10.8693C11.715 11.5094 11.715 12.1494 11.7134 12.7897C11.7129 12.9801 11.6371 13.0513 11.4446 13.0516C10.6192 13.0516 9.79386 13.0516 8.9685 13.0516Z" fill="#5664D2"/>
<path d="M2.80968 13.052C1.98792 13.052 1.16616 13.0522 0.344403 13.052C0.141102 13.052 0.0724345 12.9846 0.0724345 12.7857C0.0722093 12.1492 0.0722093 11.5127 0.0724345 10.8763C0.0724345 10.6786 0.14583 10.6039 0.342827 10.6039C1.98634 10.6034 3.62986 10.6034 5.27338 10.6039C5.44944 10.6039 5.53837 10.689 5.53882 10.865C5.54062 11.5089 5.54062 12.153 5.53927 12.7969C5.53882 12.9792 5.46114 13.0518 5.27495 13.052C4.45319 13.0522 3.63144 13.052 2.80968 13.052Z" fill="#5664D2"/>
<path d="M9.38901 8.66798C9.38901 8.34975 9.38811 8.03152 9.38924 7.71329C9.38991 7.5069 9.45858 7.4384 9.66773 7.43817C10.2569 7.43728 10.8459 7.43728 11.4351 7.43817C11.6364 7.4384 11.7118 7.51476 11.712 7.718C11.7127 8.35446 11.7127 8.99093 11.712 9.62739C11.7118 9.82457 11.6305 9.90317 11.4306 9.90317C10.8452 9.9034 10.2599 9.9034 9.67449 9.90317C9.46083 9.90317 9.38946 9.83333 9.38901 9.6229C9.38856 9.30444 9.38901 8.98621 9.38901 8.66798Z" fill="#5664D2"/>
<path d="M2.37347 8.66986C2.37347 8.99573 2.37415 9.32137 2.37325 9.64724C2.37279 9.81567 2.30435 9.88417 2.13437 9.88462C1.52267 9.88552 0.910965 9.88552 0.299262 9.88462C0.126805 9.88439 0.0545355 9.8141 0.0540852 9.6387C0.0522841 8.99101 0.0522841 8.34309 0.0540852 7.6954C0.0545355 7.5227 0.137612 7.43938 0.310069 7.43893C0.914342 7.43691 1.51839 7.43714 2.12267 7.43893C2.30255 7.43938 2.37325 7.51417 2.37347 7.69293C2.37392 8.01835 2.37347 8.34399 2.37347 8.66986Z" fill="#5664D2"/>
<path d="M3.01056 5.57876C3.09004 5.49432 3.16613 5.40628 3.25011 5.32656C3.38114 5.20169 3.55112 5.20034 3.66099 5.31623C3.77176 5.43346 3.76658 5.60302 3.6423 5.72833C3.40793 5.96527 3.17221 6.20108 2.93424 6.43464C2.79623 6.57006 2.6348 6.57433 2.49544 6.43958C2.25297 6.20534 2.01477 5.96684 1.77927 5.72564C1.65972 5.60324 1.65882 5.41325 1.76577 5.31129C1.88644 5.1963 2.05462 5.20461 2.18565 5.33621C2.26197 5.4128 2.33267 5.49499 2.40584 5.57472C2.41619 5.56955 2.42632 5.56439 2.43668 5.55945C2.43668 4.90098 2.43668 4.24273 2.43668 3.57617C2.62197 3.57617 2.7924 3.57617 2.97589 3.57617C2.97589 4.23711 2.97589 4.90008 2.97589 5.56304C2.98715 5.56843 2.99885 5.5736 3.01056 5.57876Z" fill="#5664D2"/>
</g>
<defs>
<clipPath id="clip0_2905_79827">
<rect width="11.6618" height="12.6336" fill="white" transform="translate(0.0507812 0.419922)"/>
</clipPath>
</defs>
</svg>
