<svg width="18" height="26" viewBox="0 0 18 26" fill="none" xmlns="http://www.w3.org/2000/svg">
<path d="M14.0682 13.8871C14.6716 15.0223 14.1452 16.0596 13.3638 16.4952C12.5472 16.9505 11.4325 16.72 10.8513 15.7045C10.8362 15.8193 10.8201 15.9109 10.813 16.0031C10.7525 16.7769 10.1704 17.4413 9.36052 17.618C8.47585 17.8107 7.4519 17.2615 7.22139 16.2429C7.18401 16.0783 7.17244 15.9074 7.14485 15.7085C6.87785 16.1739 6.51339 16.4912 6.01276 16.6408C5.50012 16.7938 5.01284 16.7266 4.56249 16.4516C4.12862 16.1868 3.83402 15.8081 3.72233 15.3013C3.61286 14.8047 3.69118 14.3374 3.94305 13.884C3.40193 14.1772 2.84879 14.2484 2.27651 14.0304C1.86711 13.8746 1.55516 13.5956 1.34201 13.2147C1.09191 12.7674 1.04163 12.2966 1.18803 11.8009C1.334 11.3069 1.65395 10.9576 2.08383 10.6795C1.47907 10.6652 0.971763 10.453 0.590395 9.99507C0.290907 9.63551 0.151621 9.20875 0.172536 8.73927C0.194786 8.23553 0.396373 7.8101 0.770176 7.46923C1.1373 7.13459 1.57786 6.98952 2.10563 6.98017C2.00729 6.90764 1.94009 6.85557 1.87067 6.80707C1.03228 6.21744 0.831586 4.99768 1.54582 4.14595C2.09317 3.49357 3.04325 3.3218 3.7606 3.6956C3.81622 3.72453 3.87363 3.75034 3.94439 3.7668C3.63555 3.2288 3.5826 2.67343 3.79709 2.10294C3.95996 1.67039 4.26256 1.35845 4.67241 1.13906C5.41779 0.740337 6.52407 0.889413 7.15464 1.95876C7.16754 1.25387 7.41586 0.695837 7.98413 0.311799C8.33212 0.0763923 8.72328 -0.0321885 9.14202 0.00830678C10.133 0.104427 10.8553 0.894309 10.8273 2.00148C11.1267 1.45056 11.5473 1.09723 12.1409 0.973074C12.622 0.872503 13.0674 0.967289 13.479 1.22584C14.1941 1.67573 14.6383 2.6761 14.0326 3.78104C14.1087 3.75123 14.159 3.73565 14.2053 3.71251C14.8665 3.3841 15.5118 3.41703 16.1143 3.8389C16.6176 4.19178 16.8886 4.69864 16.8882 5.31453C16.8878 5.89882 16.6546 6.39232 16.1833 6.75767C16.0961 6.82531 16.0049 6.8885 15.9007 6.96504C16.0289 6.98373 16.1459 7.00598 16.2639 7.01711C16.8873 7.07496 17.5535 7.61252 17.7497 8.31162C17.9927 9.17849 17.6006 10.0053 16.9274 10.4005C16.6621 10.5562 16.3724 10.6394 16.0649 10.6586C16.0151 10.6617 15.9644 10.659 15.9034 10.6768C16.4183 10.9825 16.7449 11.4142 16.8548 11.998C16.9407 12.4542 16.8553 12.8867 16.6181 13.2779C16.3537 13.7131 15.9657 13.9983 15.4611 14.1082C14.9707 14.2155 14.5092 14.134 14.0682 13.8871ZM4.71068 8.78155C4.71691 11.2219 6.62909 13.123 9.00986 13.1101C11.4075 13.0967 13.2703 11.1881 13.2761 8.88479C13.2823 6.37452 11.3265 4.53711 8.9885 4.54512C6.50983 4.55357 4.72537 6.56276 4.71068 8.78155Z" fill="#DCC600"/>
<path d="M9.89536 19.4419C10.5028 19.2399 10.9896 18.9039 11.3848 18.4318C12.6633 18.8701 13.7753 18.6022 14.7432 17.6624C14.777 17.7126 14.8109 17.758 14.8393 17.8061C15.8597 19.5398 16.8797 21.2736 17.8992 23.0077C17.929 23.0585 17.953 23.1123 17.9788 23.1657C18.0287 23.2694 17.9833 23.3548 17.9165 23.4278C17.8542 23.4959 17.7746 23.5368 17.6771 23.5039C17.6144 23.4826 17.5512 23.4603 17.4907 23.4336C16.5459 23.0126 15.6021 22.5908 14.6573 22.1693C14.3151 22.0167 14.1527 22.1213 14.142 22.4933C14.126 23.0487 14.1073 23.604 14.0882 24.1594C14.0753 24.5296 14.061 24.8994 14.0441 25.2697C14.0401 25.3582 14.025 25.4464 14.0156 25.5345C14.0027 25.6542 13.9213 25.7178 13.8185 25.7503C13.7162 25.7832 13.6294 25.7396 13.5635 25.6582C13.531 25.6181 13.5012 25.5754 13.4754 25.5309C12.3037 23.5431 11.1325 21.5552 9.96167 19.567C9.94298 19.5349 9.9274 19.502 9.89536 19.4419Z" fill="#DCC600"/>
<path d="M8.10877 19.4438C7.69536 20.146 7.30153 20.8149 6.90771 21.4837C6.1423 22.784 5.37689 24.0839 4.61104 25.3842C4.55853 25.4732 4.50558 25.5626 4.4455 25.6467C4.38543 25.7308 4.29954 25.7789 4.19497 25.754C4.08861 25.7286 4.00851 25.6627 3.98359 25.5497C3.96935 25.4852 3.96045 25.4184 3.95822 25.3526C3.9382 24.7603 3.92129 24.1675 3.90126 23.5752C3.88836 23.1979 3.87278 22.8201 3.85676 22.4427C3.85454 22.3915 3.84742 22.339 3.83229 22.291C3.78601 22.1468 3.69745 22.0849 3.54704 22.1063C3.46872 22.1174 3.39129 22.1499 3.31786 22.1824C2.38603 22.5958 1.45508 23.0114 0.523688 23.4262C0.489868 23.4413 0.456048 23.456 0.422227 23.4711C0.262471 23.5414 0.184151 23.5285 0.078685 23.4239C-0.0187708 23.3274 -0.0263358 23.2321 0.0595498 23.0808C0.227316 22.7849 0.401757 22.493 0.574419 22.1997C1.41814 20.7655 2.26232 19.3312 3.10649 17.8974C3.15099 17.8213 3.19816 17.747 3.25156 17.6594C4.2141 18.5997 5.32527 18.8698 6.60644 18.4346C7.0065 18.9009 7.49555 19.2454 8.10877 19.4438Z" fill="#DCC600"/>
<path d="M10.6317 10.9091C10.5106 10.9665 10.4523 10.9122 10.3896 10.8748C10.002 10.6439 9.61485 10.4125 9.22725 10.1815C9.1516 10.1366 9.07372 10.0943 8.98784 10.0454C8.78803 10.1637 8.59089 10.2794 8.39465 10.3965C8.14055 10.5478 7.8869 10.7 7.6328 10.8517C7.60121 10.8708 7.56739 10.8869 7.53668 10.9069C7.48328 10.942 7.42098 10.9661 7.37692 10.9118C7.35022 10.8789 7.344 10.817 7.35156 10.772C7.37159 10.6483 7.40185 10.5264 7.43077 10.4045C7.51354 10.0525 7.59809 9.70137 7.68086 9.34937C7.73248 9.12954 7.72625 9.11975 7.55315 8.96934C7.20115 8.66318 6.85049 8.35479 6.49982 8.04729C6.46689 8.01837 6.4264 7.99122 6.40726 7.95384C6.377 7.89555 6.38768 7.83547 6.45488 7.80521C6.48736 7.79053 6.52563 7.78608 6.56212 7.78296C7.04095 7.73935 7.51888 7.68462 7.99859 7.65925C8.17348 7.64991 8.24513 7.57203 8.30387 7.43007C8.4792 7.00732 8.6612 6.58724 8.84143 6.16627C8.87214 6.09418 8.88059 5.99316 8.98116 5.98604C9.09953 5.97758 9.11199 6.09195 9.14448 6.16716C9.33004 6.59391 9.51383 7.02112 9.68961 7.45188C9.74256 7.58182 9.8062 7.64679 9.96061 7.65658C10.4474 7.68684 10.9334 7.73802 11.4193 7.78341C11.4621 7.78741 11.5079 7.79765 11.5448 7.81856C11.6062 7.85327 11.6245 7.91068 11.572 7.96586C11.5057 8.03528 11.4322 8.09802 11.3601 8.16166C11.0322 8.45047 10.7055 8.74061 10.3736 9.02541C10.2832 9.10284 10.2619 9.1776 10.2917 9.29597C10.4065 9.75388 10.5097 10.2149 10.613 10.6755C10.6303 10.7511 10.6263 10.8317 10.6317 10.9091Z" fill="#DCC600"/>
</svg>
