<svg fill="none" xmlns="http://www.w3.org/2000/svg">
<path d="M30.5818 30.1876C31.8935 32.6553 30.7492 34.9101 29.0505 35.8572C27.2754 36.8468 24.8522 36.3457 23.5889 34.1382C23.556 34.3878 23.5212 34.587 23.5057 34.7873C23.3741 36.4695 22.1089 37.9137 20.3483 38.2978C18.4252 38.7166 16.1994 37.5229 15.6983 35.3087C15.617 34.9508 15.5919 34.5793 15.5319 34.1469C14.9515 35.1587 14.1592 35.8485 13.071 36.1735C11.9566 36.5063 10.8973 36.3602 9.91839 35.7624C8.97523 35.1868 8.33485 34.3636 8.09205 33.2618C7.85408 32.1822 8.02433 31.1665 8.57185 30.1808C7.39556 30.8183 6.19315 30.973 4.94915 30.4991C4.05919 30.1605 3.38108 29.554 2.91773 28.7259C2.37408 27.7537 2.26477 26.7303 2.58302 25.6527C2.90031 24.5789 3.59583 23.8195 4.53029 23.215C3.21567 23.184 2.1129 22.7226 1.28388 21.7272C0.63286 20.9456 0.33008 20.0179 0.375546 18.9973C0.423913 17.9023 0.862119 16.9775 1.67469 16.2365C2.47275 15.5091 3.43042 15.1937 4.57769 15.1734C4.3639 15.0157 4.21783 14.9026 4.06693 14.7971C2.24445 13.5154 1.80818 10.8639 3.36077 9.01242C4.5506 7.59429 6.61588 7.2209 8.17524 8.03347C8.29616 8.09634 8.42094 8.15245 8.57475 8.18824C7.90341 7.01872 7.7883 5.81148 8.25456 4.57134C8.60861 3.63109 9.2664 2.95298 10.1573 2.47608C11.7776 1.60934 14.1824 1.9334 15.5532 4.25792C15.5812 2.72565 16.121 1.5126 17.3563 0.677785C18.1128 0.166061 18.9631 -0.0699711 19.8733 0.0180572C22.0276 0.227003 23.5976 1.94404 23.5367 4.35079C24.1877 3.15322 25.1018 2.38515 26.3923 2.11526C27.438 1.89664 28.4063 2.10268 29.3011 2.66471C30.8556 3.64269 31.821 5.81728 30.5044 8.2192C30.6698 8.15438 30.7792 8.12053 30.8798 8.07023C32.3172 7.35633 33.7199 7.42791 35.0297 8.34495C36.1237 9.11205 36.7128 10.2139 36.7119 11.5527C36.7109 12.8228 36.204 13.8956 35.1796 14.6898C34.99 14.8368 34.7917 14.9742 34.5653 15.1405C34.8439 15.1812 35.0983 15.2295 35.3547 15.2537C36.7099 15.3795 38.1581 16.548 38.5846 18.0677C39.1128 19.9521 38.2606 21.7494 36.797 22.6084C36.2205 22.947 35.5907 23.1279 34.9223 23.1695C34.8139 23.1763 34.7037 23.1705 34.5711 23.2092C35.6904 23.8737 36.4004 24.812 36.6393 26.0812C36.826 27.0727 36.6403 28.013 36.1247 28.8633C35.5501 29.8093 34.7066 30.4294 33.6096 30.6683C32.5436 30.9015 31.5405 30.7244 30.5818 30.1876ZM10.2405 19.0892C10.2541 24.3941 14.4107 28.5266 19.586 28.4986C24.7981 28.4696 28.8474 24.3206 28.8599 19.3137C28.8735 13.8569 24.622 9.86271 19.5396 9.88012C14.1515 9.8985 10.2724 14.2661 10.2405 19.0892Z" fill="#DCC600"/>
<path d="M21.5098 42.2629C22.8302 41.8238 23.8885 41.0934 24.7475 40.0671C27.5266 41.0199 29.944 40.4376 32.048 38.3945C32.1215 38.5038 32.195 38.6025 32.257 38.707C34.4751 42.4758 36.6922 46.2445 38.9084 50.0143C38.9732 50.1245 39.0255 50.2416 39.0816 50.3577C39.1899 50.5831 39.0912 50.7688 38.9461 50.9274C38.8107 51.0754 38.6376 51.1644 38.4257 51.0929C38.2893 51.0464 38.1519 50.9981 38.0204 50.94C35.9667 50.0249 33.915 49.1079 31.8613 48.1918C31.1174 47.86 30.7643 48.0873 30.7411 48.896C30.7063 50.1033 30.6657 51.3105 30.6241 52.5177C30.596 53.3226 30.5651 54.1264 30.5283 54.9313C30.5196 55.1238 30.4867 55.3153 30.4664 55.5068C30.4383 55.7671 30.2613 55.9054 30.0379 55.976C29.8154 56.0476 29.6267 55.9528 29.4836 55.7758C29.413 55.6887 29.3482 55.5958 29.292 55.4991C26.745 51.178 24.199 46.8569 21.6539 42.5348C21.6133 42.4651 21.5794 42.3935 21.5098 42.2629Z" fill="#DCC600"/>
<path d="M17.6268 42.2667C16.7281 43.7932 15.872 45.2471 15.0159 46.701C13.3521 49.5276 11.6882 52.3532 10.0234 55.1798C9.90929 55.3733 9.79418 55.5677 9.66359 55.7505C9.533 55.9334 9.3463 56.0378 9.11897 55.9837C8.88778 55.9285 8.71366 55.7854 8.65948 55.5397C8.62853 55.3994 8.60918 55.2543 8.60435 55.1111C8.56082 53.8236 8.52406 52.5351 8.48053 51.2476C8.45247 50.4273 8.41862 49.606 8.38379 48.7857C8.37895 48.6744 8.36348 48.5603 8.33059 48.4558C8.22998 48.1424 8.03748 48.0079 7.71052 48.0544C7.54027 48.0785 7.37195 48.1492 7.21234 48.2198C5.18672 49.1184 3.16304 50.0219 1.13839 50.9235C1.06487 50.9564 0.991351 50.9883 0.917833 51.0212C0.570557 51.174 0.400305 51.146 0.171045 50.9187C-0.0408037 50.7088 -0.0572486 50.5017 0.129449 50.1728C0.494137 49.5296 0.873336 48.895 1.24867 48.2575C3.08275 45.1398 4.9178 42.022 6.75285 38.9052C6.84959 38.7398 6.95212 38.5783 7.0682 38.3877C9.16057 40.4317 11.576 41.0189 14.361 40.0728C15.2306 41.0866 16.2938 41.8353 17.6268 42.2667Z" fill="#DCC600"/>
<path d="M23.1105 23.7144C22.8474 23.8392 22.7206 23.7212 22.5843 23.6399C21.7417 23.1379 20.9001 22.6348 20.0575 22.1328C19.8931 22.0351 19.7238 21.9432 19.5371 21.8368C19.1028 22.0941 18.6742 22.3456 18.2476 22.6C17.6953 22.9289 17.1439 23.2598 16.5916 23.5896C16.5229 23.6312 16.4494 23.666 16.3826 23.7096C16.2665 23.786 16.1311 23.8382 16.0353 23.7202C15.9773 23.6486 15.9638 23.5142 15.9802 23.4165C16.0237 23.1475 16.0895 22.8825 16.1524 22.6174C16.3323 21.8523 16.5161 21.089 16.696 20.3239C16.8082 19.846 16.7947 19.8247 16.4184 19.4978C15.6532 18.8322 14.891 18.1619 14.1287 17.4934C14.0571 17.4305 13.9691 17.3715 13.9275 17.2903C13.8617 17.1636 13.8849 17.033 14.031 16.9672C14.1016 16.9353 14.1848 16.9256 14.2641 16.9188C15.305 16.824 16.3439 16.705 17.3867 16.6499C17.7669 16.6296 17.9226 16.4603 18.0503 16.1517C18.4314 15.2327 18.8271 14.3196 19.2189 13.4045C19.2856 13.2477 19.304 13.0282 19.5226 13.0127C19.7799 12.9943 19.807 13.2429 19.8776 13.4064C20.281 14.3341 20.6805 15.2627 21.0626 16.1991C21.1777 16.4816 21.3161 16.6228 21.6517 16.6441C22.71 16.7099 23.7663 16.8211 24.8227 16.9198C24.9155 16.9285 25.0152 16.9507 25.0955 16.9962C25.229 17.0717 25.2686 17.1964 25.1545 17.3164C25.0103 17.4673 24.8507 17.6037 24.694 17.742C23.9811 18.3698 23.2711 19.0005 22.5494 19.6196C22.3531 19.788 22.3066 19.9505 22.3714 20.2078C22.621 21.2032 22.8454 22.2053 23.0699 23.2065C23.1076 23.371 23.0989 23.5461 23.1105 23.7144Z" fill="#DCC600"/>
</svg>
