<svg width="62" height="39" viewBox="0 0 62 39" fill="none" xmlns="http://www.w3.org/2000/svg">
<g filter="url(#filter0_d_5088_158540)">
<rect x="16.2422" y="1.4043" width="29.5" height="29.5" rx="14.75" fill="#5664D2"/>
<path d="M31.9733 22.5039C31.81 22.4172 31.6674 22.3419 31.525 22.2661C31.1568 22.0696 30.7902 21.87 30.4192 21.6784C30.342 21.6385 30.3191 21.5926 30.3196 21.5093C30.3227 20.8512 30.3169 20.1931 30.3239 19.5351C30.3261 19.3355 30.2652 19.1766 30.1336 19.0284C29.1974 17.9747 28.2661 16.9167 27.3307 15.8626C27.2666 15.7902 27.241 15.7193 27.2422 15.6235C27.2473 15.2701 27.2442 14.9166 27.2442 14.5632C27.2442 14.5191 27.2442 14.475 27.2442 14.4238C29.8487 14.4238 32.4427 14.4238 35.0503 14.4238C35.0503 14.4728 35.0503 14.5162 35.0503 14.5596C35.0503 14.921 35.0542 15.2827 35.0469 15.6442C35.0455 15.7129 35.0155 15.7955 34.9704 15.847C34.0362 16.913 33.099 17.9769 32.159 19.0376C32.0305 19.1824 31.9691 19.3357 31.9706 19.5324C31.9772 20.4708 31.9735 21.4091 31.9735 22.3475C31.9733 22.3918 31.9733 22.4362 31.9733 22.5039Z" fill="white"/>
<path d="M28.7387 13.8145C28.2391 13.8145 27.7489 13.8145 27.252 13.8145C27.252 12.1773 27.252 10.5461 27.252 8.9043C27.7431 8.9043 28.2361 8.9043 28.7387 8.9043C28.7387 10.5363 28.7387 12.1705 28.7387 13.8145Z" fill="white"/>
<path d="M29.3496 10.207C29.8524 10.207 30.346 10.207 30.8456 10.207C30.8456 11.4098 30.8456 12.6058 30.8456 13.8108C30.3479 13.8108 29.8519 13.8108 29.3496 13.8108C29.3496 12.6119 29.3496 11.4157 29.3496 10.207Z" fill="white"/>
<path d="M32.944 13.8177C32.4434 13.8177 31.9533 13.8177 31.4531 13.8177C31.4531 13.0597 31.4531 12.3036 31.4531 11.5371C31.9457 11.5371 32.4412 11.5371 32.944 11.5371C32.944 12.2932 32.944 13.0495 32.944 13.8177Z" fill="white"/>
<path d="M35.0453 12.8223C35.0453 13.1579 35.0453 13.4813 35.0453 13.8121C34.5474 13.8121 34.0543 13.8121 33.5547 13.8121C33.5547 13.4816 33.5547 13.1545 33.5547 12.8223C34.0521 12.8223 34.5423 12.8223 35.0453 12.8223Z" fill="white"/>
<rect x="16.2422" y="0.904297" width="29.5" height="29.5" rx="14.75" fill="#5664D2"/>
<path d="M23 23H39V24H23V23Z" fill="white"/>
<path d="M23 8H24V24H23V8Z" fill="white"/>
<path d="M32 16.0004L29.1 13.0004L25 17.0004V22.0004H39V8.90039L32 16.0004Z" fill="white"/>
</g>
<defs>
<filter id="filter0_d_5088_158540" x="0.242188" y="0.904297" width="61" height="38" filterUnits="userSpaceOnUse" color-interpolation-filters="sRGB">
<feFlood flood-opacity="0" result="BackgroundImageFix"/>
<feColorMatrix in="SourceAlpha" type="matrix" values="0 0 0 0 0 0 0 0 0 0 0 0 0 0 0 0 0 0 127 0" result="hardAlpha"/>
<feOffset dy="4"/>
<feGaussianBlur stdDeviation="2"/>
<feComposite in2="hardAlpha" operator="out"/>
<feColorMatrix type="matrix" values="0 0 0 0 0 0 0 0 0 0 0 0 0 0 0 0 0 0 0.25 0"/>
<feBlend mode="normal" in2="BackgroundImageFix" result="effect1_dropShadow_5088_158540"/>
<feBlend mode="normal" in="SourceGraphic" in2="effect1_dropShadow_5088_158540" result="shape"/>
</filter>
</defs>
</svg>
