<svg width="24" height="24" viewBox="0 0 24 24" fill="none" xmlns="http://www.w3.org/2000/svg">
<path d="M16.729 21.0737C16.716 21.2333 16.8239 21.514 16.8883 21.8022C16.9312 21.994 16.8903 22.0778 16.7152 22.1573C15.7483 22.5971 14.7424 22.9053 13.6891 23.0526C13.4857 23.0809 13.2824 23.1104 13.078 23.1289C12.9003 23.1448 12.8285 23.0926 12.7718 22.9194C12.7176 22.7535 12.6819 22.5807 12.619 22.4182C12.3193 21.6443 11.7501 21.1959 10.9358 21.0654C10.1953 20.9466 9.55503 21.1578 9.03637 21.7014C8.91273 21.8311 8.8247 21.995 8.72251 22.1448C8.68851 22.1948 8.6616 22.2494 8.63064 22.3016C8.48918 22.5396 8.41836 22.562 8.16196 22.4647C7.04836 22.0426 6.02319 21.4658 5.09717 20.7151C5.06318 20.6876 5.03019 20.6586 4.9962 20.6309C4.81751 20.4852 4.80375 20.4059 4.90776 20.1968C5.02574 19.9597 5.17063 19.7296 5.24692 19.479C5.46568 18.7603 5.2959 18.1084 4.8335 17.5291C4.5083 17.1217 4.08617 16.8659 3.57379 16.7652C3.20832 16.6933 2.85014 16.738 2.49661 16.8431C2.43549 16.8613 2.37317 16.876 2.31084 16.8898C2.14794 16.9258 2.05748 16.8805 1.98564 16.7273C1.72763 16.1783 1.52324 15.6095 1.36074 15.0252C1.18003 14.375 1.06509 13.7129 1.00135 13.0415C0.99042 12.9263 1.04627 12.8272 1.15798 12.7867C1.26503 12.7478 1.37572 12.7173 1.48621 12.689C2.44784 12.4421 3.0956 11.6168 3.10026 10.623C3.1043 9.7814 2.73722 9.15044 2.01073 8.72729C1.92938 8.67994 1.84702 8.6336 1.76871 8.58139C1.61107 8.47616 1.58415 8.38813 1.64952 8.21167C1.94112 7.42246 2.31003 6.67129 2.78194 5.97475C3.01607 5.62932 3.27368 5.29967 3.52603 4.96698C3.64097 4.81562 3.74377 4.80287 3.91457 4.88948C4.14506 5.00645 4.36685 5.15275 4.61029 5.22985C5.37279 5.47107 6.05901 5.29562 6.66104 4.78061C7.11595 4.39146 7.36162 3.89264 7.40553 3.29628C7.42658 3.00993 7.36303 2.73371 7.28472 2.46092C7.18637 2.11832 7.22361 2.0566 7.54395 1.91535C8.47299 1.50597 9.43867 1.22772 10.4408 1.07392C10.6502 1.04175 10.8621 1.02394 11.0732 1.00249C11.2229 0.987314 11.3123 1.04074 11.3597 1.18361C11.421 1.36836 11.4591 1.56182 11.5309 1.74213C11.8355 2.50666 12.4128 2.93769 13.2146 3.06963C14.1118 3.21735 14.9385 2.81728 15.3958 2.03029C15.4499 1.93721 15.5015 1.84209 15.5614 1.75285C15.6583 1.60857 15.7538 1.58024 15.9171 1.64135C16.8676 1.99731 17.7621 2.4593 18.582 3.05992C18.7884 3.21128 18.9878 3.37236 19.1883 3.53162C19.3018 3.62188 19.3298 3.73318 19.2648 3.86431C19.1976 3.99989 19.1173 4.1288 19.0461 4.26236C18.651 5.00483 18.748 5.92295 19.2822 6.57415C19.626 6.99304 20.0504 7.27352 20.5887 7.37166C20.9418 7.43602 21.2858 7.38947 21.6266 7.29335C21.7041 7.27149 21.7824 7.25004 21.8617 7.2377C22.0074 7.21504 22.0898 7.26138 22.1523 7.39696C22.4727 8.09228 22.7319 8.81026 22.8893 9.55961C22.9909 10.0429 23.0561 10.534 23.1322 11.0225C23.1625 11.2174 23.1073 11.3028 22.9193 11.3665C22.7954 11.4084 22.6655 11.4325 22.5413 11.4734C21.7098 11.7482 21.2188 12.3207 21.0713 13.1819C20.9578 13.8449 21.112 14.4436 21.561 14.9473C21.7085 15.1129 21.9022 15.2389 22.0815 15.3741C22.1776 15.4466 22.291 15.4959 22.3915 15.5633C22.5275 15.6542 22.5536 15.7475 22.4961 15.9029C22.1361 16.8781 21.6553 17.7887 21.0349 18.6239C20.8963 18.8104 20.753 18.9936 20.6067 19.1743C20.5006 19.3052 20.4027 19.3252 20.2505 19.2518C20.1599 19.2079 20.073 19.1555 19.9862 19.1039C19.1529 18.6077 18.1834 18.7283 17.4589 19.3665C16.99 19.78 16.746 20.3023 16.729 21.0737ZM8.25465 21.9786C8.32466 21.8645 8.38375 21.7502 8.45923 21.6478C9.0384 20.8602 9.82053 20.5042 10.7937 20.5591C10.8791 20.5639 10.958 20.5682 10.9475 20.6869C10.9515 20.6546 10.9556 20.6222 10.9621 20.571C12.1473 20.7912 12.891 21.4709 13.1905 22.6282C13.1994 22.6313 13.2026 22.6335 13.2057 22.6331C13.2992 22.6226 13.393 22.6141 13.4863 22.6009C14.4332 22.4665 15.3503 22.2231 16.2304 21.8455C16.3858 21.7789 16.3846 21.7795 16.3437 21.6194C16.1324 20.792 16.2883 20.0382 16.8051 19.3603C16.9419 19.181 17.0999 19.0211 17.2855 18.891C17.3231 18.9213 17.3537 18.946 17.3843 18.9705C17.38 18.9456 17.3658 18.931 17.3555 18.9142C17.3438 18.8954 17.3355 18.8748 17.3215 18.8465C18.3091 18.1809 19.3089 18.1358 20.3363 18.7483C21.0349 17.8779 21.5904 16.9285 21.9902 15.8802C21.4894 15.6252 21.1075 15.2606 20.8503 14.7711C20.5937 14.283 20.5114 13.7643 20.5786 13.2163C20.6314 13.2133 20.6747 13.2108 20.7378 13.2072C20.6751 13.192 20.6316 13.1815 20.5844 13.1702C20.5941 13.1006 20.5976 13.0399 20.6115 12.9816C20.8538 11.972 21.4546 11.2949 22.4597 10.9954C22.6372 10.9426 22.6362 10.9458 22.6141 10.7594C22.5081 9.86255 22.2814 8.99623 21.9532 8.15602C21.8998 8.01943 21.8401 7.88526 21.7844 7.75271C20.6158 8.07913 19.6602 7.76546 18.8846 6.85746C18.9082 6.8265 18.9242 6.80545 18.9574 6.76235C18.9082 6.78967 18.8864 6.80201 18.8542 6.81982C18.1812 5.83148 18.1336 4.82958 18.7494 3.80158C18.7334 3.78721 18.7219 3.77567 18.7091 3.76556C17.8847 3.10848 16.9846 2.58193 16.0045 2.19117C15.9076 2.15252 15.8688 2.16851 15.82 2.25633C15.4727 2.88204 14.9506 3.29101 14.2638 3.48913C13.9228 3.58748 13.576 3.60265 13.2198 3.55712C13.2172 3.50633 13.215 3.46383 13.2117 3.40373C13.1951 3.46383 13.1836 3.50532 13.1686 3.55935C11.9848 3.3414 11.2425 2.65863 10.9463 1.49423C9.83247 1.61525 8.77128 1.90058 7.75764 2.35367C8.06119 3.43408 7.83859 4.3773 7.00343 5.11208C6.02157 5.97576 4.93407 6.03506 3.80185 5.3883C3.10066 6.25341 2.55185 7.20451 2.153 8.24405C3.20083 8.83536 3.66384 9.72656 3.56893 10.9169C3.51247 10.9225 3.47524 10.9264 3.438 10.93C3.438 10.9331 3.438 10.9361 3.438 10.9389C3.47341 10.9438 3.50883 10.9488 3.55416 10.9551C3.50883 11.3558 3.37486 11.7178 3.16036 12.0491C2.76737 12.656 2.20561 13.0218 1.50179 13.1821C1.62139 14.2975 1.9051 15.3601 2.35718 16.377C3.54626 16.0543 4.5425 16.3471 5.2789 17.3308C5.99486 18.2873 5.99061 19.3038 5.39505 20.3286C5.86089 20.8029 7.5227 21.7633 8.25465 21.9786Z" fill="#516D83" stroke="#516D83"/>
<path d="M5.14065 12.0621C5.13033 8.34045 8.15626 5.05529 12.2414 5.13927C15.8934 5.21435 19.0669 8.20892 18.9904 12.2291C18.9214 15.857 15.9841 19.0149 12.0032 18.9914C8.236 18.9692 5.15158 15.9268 5.14065 12.0621ZM7.87842 7.19649C4.60054 9.98344 5.10119 14.9057 8.08422 17.1163C8.37219 16.6137 8.66561 16.1148 8.94184 15.6067C8.98919 15.5195 8.99142 15.3865 8.96774 15.2856C8.87931 14.9061 8.78339 14.5273 8.66764 14.1554C8.55087 13.7798 8.5873 13.4412 8.79857 13.1051C9.04019 12.7206 9.25591 12.3197 9.48478 11.9273C9.51554 11.8747 9.5212 11.8413 9.47365 11.7893C9.2379 11.5315 9.14036 11.2286 9.18508 10.8785C9.25874 10.302 9.81807 9.86424 10.3968 9.93588C11.0233 10.0134 11.4724 10.5976 11.3688 11.1998C11.2579 11.8448 10.6613 12.2521 10.0291 12.1099C9.96337 12.0951 9.93362 12.106 9.90144 12.1627C9.65274 12.5982 9.40161 13.0324 9.15047 13.4665C9.07418 13.5985 9.05658 13.7344 9.09746 13.8834C9.2124 14.3015 9.32046 14.7214 9.43378 15.1398C9.50825 15.4147 9.47203 15.6723 9.32997 15.9177C9.06164 16.3809 8.79432 16.8446 8.52699 17.3084C8.50757 17.342 8.49118 17.377 8.46993 17.4181C8.62332 17.5122 8.76821 17.601 8.91978 17.6941C9.06912 17.4355 9.21199 17.1882 9.35486 16.9407C10.5075 14.9438 11.6598 12.9464 12.8147 10.9507C12.8535 10.8835 12.8426 10.8518 12.7906 10.8004C12.566 10.5778 12.4462 10.3018 12.43 9.9885C12.3881 9.17884 13.1067 8.54484 13.9042 8.68062C14.6011 8.79921 15.0615 9.49008 14.913 10.1947C14.7687 10.8797 14.0471 11.3217 13.3681 11.1363C13.2961 11.1167 13.2643 11.128 13.2273 11.1926C11.9536 13.4034 10.6777 15.6132 9.40242 17.8232C9.38643 17.8511 9.37267 17.8802 9.3498 17.925C9.61409 18.0235 9.86684 18.1146 10.1166 18.2129C10.1904 18.2421 10.2224 18.2198 10.258 18.1573C10.498 17.7362 10.7445 17.3187 10.9827 16.8966C11.1322 16.6315 11.3518 16.4669 11.644 16.3907C12.0505 16.2844 12.4573 16.1792 12.8606 16.0622C12.9594 16.0335 13.0757 15.9821 13.1316 15.9038C13.2843 15.6893 13.4094 15.4549 13.5494 15.2218C13.5201 15.1981 13.4995 15.1854 13.4835 15.1684C13.1504 14.8116 13.0917 14.2677 13.341 13.8488C13.5917 13.4273 14.0954 13.2219 14.5698 13.3479C15.1558 13.5035 15.5035 14.0884 15.3604 14.6785C15.2191 15.2617 14.6299 15.6251 14.0412 15.4877C13.9756 15.4723 13.9455 15.4855 13.9139 15.5428C13.8129 15.7253 13.7083 15.906 13.6006 16.0847C13.4719 16.2984 13.288 16.4451 13.0466 16.5115C12.6222 16.6282 12.1973 16.743 11.7713 16.8545C11.6128 16.896 11.4914 16.9777 11.4093 17.1216C11.1854 17.5132 10.9586 17.9029 10.7334 18.2939C10.721 18.3153 10.7135 18.3396 10.6931 18.3874C13.27 18.8024 15.4508 18.1158 17.0955 16.0784C18.5102 14.3261 18.8333 12.3163 18.2315 10.1583C18.2214 10.1552 18.2111 10.1522 18.201 10.1494C17.8804 10.7045 17.5601 11.2595 17.2395 11.8146C17.2575 11.8357 17.2705 11.851 17.2836 11.8662C17.5372 12.1542 17.5817 12.5834 17.3931 12.9215C17.2017 13.2646 16.8049 13.457 16.4287 13.3894C15.9145 13.2971 15.5812 12.8216 15.667 12.3033C15.7491 11.8077 16.2457 11.4664 16.7555 11.5605C16.8123 11.571 16.8336 11.5556 16.8581 11.5131C17.226 10.8742 17.5955 10.2362 17.9614 9.59632C17.9792 9.56515 17.983 9.5093 17.967 9.47854C17.8074 9.17115 17.6613 8.85466 17.4753 8.56386C16.8221 7.54253 15.9361 6.77902 14.8456 6.25227C14.2288 5.95439 13.5802 5.76154 12.9011 5.67432C12.8758 5.67108 12.8337 5.68727 12.8217 5.70771C12.6006 6.08471 12.3826 6.46374 12.1657 6.83952C12.1738 6.85106 12.1772 6.85713 12.1817 6.86199C12.4577 7.1716 12.5105 7.57006 12.328 7.93026C12.1705 8.24109 11.7972 8.46996 11.3856 8.41958C10.8831 8.35785 10.5128 7.87623 10.5864 7.36203C10.6587 6.85673 11.1636 6.48883 11.659 6.58536C11.7286 6.59892 11.7616 6.58111 11.7946 6.52242C11.9378 6.26704 12.0855 6.01409 12.2317 5.76032C12.2559 5.71803 12.2794 5.67533 12.3195 5.60369C11.9819 5.62353 11.6721 5.63081 11.3647 5.66218C10.4934 5.75081 9.67662 6.01773 8.91229 6.44471C8.88153 6.46192 8.84835 6.486 8.83135 6.51534C8.48328 7.11514 8.13704 7.71576 7.79161 8.31698C7.72665 8.4301 7.7143 8.55071 7.74871 8.67779C7.86162 9.09648 7.96908 9.51659 8.08544 9.93426C8.16598 10.2232 8.1338 10.493 7.98001 10.7496C7.92456 10.8419 7.87498 10.9376 7.81731 11.0284C7.78554 11.0786 7.78655 11.1108 7.82864 11.1584C8.02635 11.3818 8.09313 11.6489 8.04942 11.9387C7.98142 12.3893 7.59653 12.7168 7.12705 12.737C6.69925 12.7556 6.30039 12.4569 6.18242 12.0301C6.06383 11.6007 6.26478 11.143 6.66323 10.9354C6.88441 10.82 7.11733 10.7977 7.363 10.8562C7.44658 10.7083 7.54047 10.5703 7.60341 10.4195C7.63963 10.3325 7.65157 10.2184 7.62951 10.1271C7.52651 9.69912 7.41137 9.27395 7.29339 8.8498C7.21305 8.56103 7.2432 8.29107 7.39578 8.03367C7.47309 7.90335 7.54837 7.77201 7.62405 7.64068C7.70924 7.49235 7.79383 7.34442 7.87842 7.19649ZM12.912 9.9203C12.912 10.3495 13.2613 10.7 13.6875 10.6984C14.109 10.6968 14.4574 10.3483 14.4599 9.92597C14.4623 9.49776 14.1144 9.14484 13.6889 9.14343C13.2613 9.14201 12.912 9.49129 12.912 9.9203ZM10.2762 11.655C10.6212 11.6548 10.9003 11.3751 10.8977 11.0323C10.8948 10.6844 10.621 10.4153 10.2712 10.4161C9.93099 10.4169 9.65476 10.6927 9.65375 11.0327C9.65254 11.3759 9.9318 11.6552 10.2762 11.655ZM14.2897 13.7956C13.9449 13.7968 13.6587 14.0805 13.6644 14.416C13.6701 14.76 13.9513 15.0352 14.2954 15.0336C14.6333 15.032 14.9132 14.7519 14.9132 14.4152C14.9132 14.0687 14.6371 13.7945 14.2897 13.7956ZM6.63591 11.7826C6.63773 12.0494 6.84799 12.2606 7.10823 12.2572C7.37069 12.2537 7.57973 12.0411 7.57872 11.7778C7.57771 11.5119 7.36988 11.3057 7.10418 11.3067C6.83848 11.3079 6.63409 11.5157 6.63591 11.7826ZM17.0277 12.4685C17.0252 12.2234 16.8259 12.0229 16.5837 12.0216C16.3421 12.0204 16.13 12.2335 16.1332 12.4745C16.1367 12.7232 16.3402 12.9209 16.5893 12.9175C16.834 12.9139 17.0301 12.7131 17.0277 12.4685ZM11.5074 7.05443C11.2593 7.05443 11.0624 7.24769 11.0612 7.49255C11.06 7.74368 11.2587 7.94625 11.506 7.94605C11.7508 7.94584 11.9492 7.74854 11.9502 7.50388C11.9514 7.24627 11.7624 7.05443 11.5074 7.05443Z" fill="#516D83" stroke="#516D83" stroke-width="0.1"/>
</svg>
