<svg width="98" height="93" viewBox="0 0 98 93" fill="none" xmlns="http://www.w3.org/2000/svg">
<path d="M57.2829 15.5002C45.2732 15.5002 35.5548 18.9102 35.5548 23.2502V31.0002C23.7032 31.3877 15.8021 34.6427 15.8021 38.7502V46.5002V54.2502V62.0002C15.8021 66.224 25.5204 69.7502 37.5301 69.7502C37.6091 69.7502 37.7 69.7502 37.7948 69.7502C40.6866 69.7502 43.5231 69.5371 46.3004 69.1302C49.0579 74.1871 54.5728 77.4925 60.8779 77.4925C68.8462 77.4925 75.5542 72.2109 77.5651 65.0266C78.3907 64.2555 78.9241 63.3139 79.0149 62.2482V54.2502V23.2502C79.0149 18.9102 69.2966 15.5002 57.2869 15.5002L57.2829 15.5002ZM37.5301 34.8752C47.4065 34.8752 55.3076 36.619 55.3076 38.7502C55.3076 40.8815 47.4065 42.6252 37.5301 42.6252C27.6537 42.6252 19.7526 40.8815 19.7526 38.7502C19.7526 36.619 27.6537 34.8752 37.5301 34.8752ZM37.5301 65.8752C26.8241 65.8752 20.7403 63.124 19.7526 62.0002V58.9002C24.4893 60.8842 30.0043 62.0351 35.7919 62.0351C36.4042 62.0351 37.0126 62.0235 37.617 61.9964C39.6239 61.9925 41.6861 61.8801 43.7167 61.667C43.5468 63.1046 43.8036 64.426 44.2026 65.6854C42.417 65.7667 40.3824 65.883 38.3242 65.883C38.0477 65.883 37.7672 65.8791 37.4906 65.8752H37.5301ZM43.7325 57.7765C41.8876 57.9974 39.7503 58.1252 37.5854 58.1252C37.5657 58.1252 37.5459 58.1252 37.5301 58.1252C26.8281 58.1252 20.7442 55.374 19.7566 54.2502V50.9952C24.5881 53.0684 30.2216 54.2735 36.1395 54.2735C36.6294 54.2735 37.1193 54.2657 37.6052 54.2502C40.1019 54.2464 42.6263 54.0797 45.0994 53.7542C44.3211 54.94 43.9498 56.2885 43.7483 57.6874L43.7325 57.7765ZM37.5301 50.3752C26.8241 50.3752 20.7403 47.624 19.7526 46.5002V43.0127C24.5842 45.0859 30.2176 46.291 36.1356 46.291C36.6255 46.291 37.1153 46.2832 37.6012 46.2677C37.9489 46.2832 38.4388 46.291 38.9326 46.291C44.8505 46.291 50.4801 45.0859 55.5802 42.912L55.3116 44.3302C52.242 45.3571 49.6544 47.1086 47.6673 49.3832C44.6964 50.0226 41.3029 50.3752 37.8264 50.3752C37.7237 50.3752 37.621 50.3752 37.5222 50.3752H37.5301ZM60.8779 73.6252C53.439 73.6252 47.4065 67.7081 47.4065 60.4115C47.4065 53.1149 53.439 47.1977 60.8779 47.1977C68.3168 47.1977 74.3493 53.1149 74.3493 60.4115C74.3493 67.7081 68.3168 73.6252 60.8779 73.6252ZM75.0604 46.5002C74.3691 47.1474 73.5395 47.6627 72.6229 47.996C71.4852 47.0505 70.2526 46.2135 68.9173 45.5392C71.1889 44.9464 73.2669 44.1752 75.2105 43.1755L75.0604 46.5002ZM75.0604 38.7502C74.1123 39.9515 68.7 42.3927 59.2582 42.6252V38.7502C59.27 38.7502 59.2858 38.7502 59.3016 38.7502C65.0023 38.7502 70.4185 37.5684 75.3133 35.4371L75.0604 38.7502ZM75.0604 31.0002C74.0728 32.279 67.9889 34.8752 57.2829 34.8752H56.3743C51.5823 32.434 45.9132 31.0002 39.9044 31.0002C39.8491 31.0002 39.7898 31.0002 39.7345 31.0002H39.5054V27.5127C44.3369 29.5859 49.9704 30.791 55.8884 30.791C56.3782 30.791 56.8681 30.7832 57.354 30.7677C57.7017 30.7832 58.1915 30.791 58.6854 30.791C64.6033 30.791 70.2328 29.5859 75.333 27.412L75.0644 31.0002H75.0604ZM57.2829 27.1252C47.4065 27.1252 39.5054 25.3815 39.5054 23.2502C39.5054 21.119 47.4065 19.3752 57.2829 19.3752C67.1593 19.3752 75.0604 21.119 75.0604 23.2502C75.0604 25.3815 67.1593 27.1252 57.2829 27.1252Z" fill="#66748A"/>
<path d="M59.2573 62.001L71.109 62.001L71.109 58.126L51.3562 58.126L51.3562 62.001L59.2573 62.001Z" fill="#66748A"/>
<path d="M59.2576 58.126L59.2576 69.751H63.2081V50.376L59.2576 50.376L59.2576 58.126Z" fill="#66748A"/>
<rect x="3.68382" y="0.683824" width="93.4457" height="91.6324" rx="6.44461" stroke="#C2C2C2" stroke-width="1.36765"/>
</svg>
