<svg width="35" height="35" viewBox="0 0 35 35" fill="none" xmlns="http://www.w3.org/2000/svg">
<path d="M25.9891 9.38437C25.9891 10.5798 22.1111 11.55 17.3266 11.55C12.542 11.55 8.66406 10.5798 8.66406 9.38437C8.66406 8.18895 12.542 7.21875 17.3266 7.21875C22.1111 7.21875 25.9891 8.18895 25.9891 9.38437Z" fill="#1C2E45" fill-opacity="0.6"/>
<path d="M17.3266 12.9938C12.5622 12.9938 8.66406 11.9831 8.66406 10.8281V15.1594C8.66406 16.3144 12.5622 17.325 17.3266 17.325C22.0909 17.325 25.9891 16.3144 25.9891 15.1594V10.8281C25.9891 11.9831 22.0909 12.9938 17.3266 12.9938Z" fill="#1C2E45" fill-opacity="0.6"/>
<path d="M17.3266 18.7691C12.5622 18.7691 8.66406 17.7585 8.66406 16.6035V20.9348C8.66406 22.0898 12.5622 23.1004 17.3266 23.1004C22.0909 23.1004 25.9891 22.0898 25.9891 20.9348V16.6035C25.9891 17.7585 22.0909 18.7691 17.3266 18.7691Z" fill="#1C2E45" fill-opacity="0.6"/>
<path d="M17.3266 24.5445C12.5622 24.5445 8.66406 23.5339 8.66406 22.3789V26.7102C8.66406 27.8652 12.5622 28.8758 17.3266 28.8758C22.0909 28.8758 25.9891 27.8652 25.9891 26.7102V22.3789C25.9891 23.5339 22.0909 24.5445 17.3266 24.5445Z" fill="#1C2E45" fill-opacity="0.6"/>
</svg>
