<svg width="641" height="686" viewBox="0 0 641 686" fill="none" xmlns="http://www.w3.org/2000/svg">
<path d="M605.903 216.272C590.125 225.019 575.899 232.826 561.767 240.797C484.9 284.11 407.987 327.399 331.237 370.946C323.854 375.132 318.258 376.072 310.122 371.464C210.306 314.748 110.231 258.503 10.1088 202.328C3.80712 198.778 0.585721 195.274 0.468151 187.209C0.350582 178.932 4.15983 175.711 10.2969 172.278C110.372 116.033 210.4 59.7169 310.31 3.14254C317.529 -0.948869 322.89 -1.13698 330.344 3.11903C404.295 45.2559 478.528 86.9224 552.691 128.73C561.579 133.738 565.647 142.885 561.908 149.234C558.193 155.536 541.969 159.862 535.502 156.218C466.724 117.561 397.97 78.9277 329.262 40.2004C323.995 37.2376 319.88 35.1684 313.39 38.8601C227.447 87.5573 141.293 135.902 55.2084 184.364C53.8681 185.116 52.6689 186.174 50.6702 187.609C84.3656 206.631 117.614 225.443 150.933 244.183C203.675 273.881 256.51 303.391 309.087 333.348C316.965 337.839 322.867 338.45 331.261 333.677C425.293 280.23 519.654 227.347 613.827 174.135C620.387 170.42 625.631 168.68 632.944 173.453C638.399 177.004 640.021 180.319 639.998 186.386C639.763 221.586 639.716 256.786 640.021 291.963C640.068 298.171 638.422 301.604 632.756 304.778C530.917 361.87 429.173 419.15 327.593 476.665C321.268 480.239 317.059 478.593 311.627 475.536C223.521 425.898 135.344 376.425 47.1667 326.928C34.7278 319.945 34.7043 320.015 34.6808 334.147C34.6808 348.608 34.9865 363.093 34.5397 377.554C34.3281 383.949 36.7735 387.265 42.2288 390.322C132.169 440.712 222.016 491.22 311.697 542.01C318.587 545.913 323.407 545.019 329.78 541.422C424.635 487.834 519.607 434.481 614.556 381.057C631.016 371.793 639.833 377.13 639.833 396.318C639.833 429.942 639.622 463.591 639.998 497.216C640.068 504.623 638.328 508.973 631.345 512.876C530.47 569.286 429.784 626.001 329.192 682.928C322.49 686.714 317.576 686.385 311.086 682.693C210.47 625.789 109.737 569.168 9.02719 512.429C2.04358 508.502 -2.33 494.088 1.31465 487.316C4.67713 481.062 16.5046 479.275 24.758 483.93C118.343 536.578 212.022 589.061 305.349 642.155C315.977 648.198 323.431 648.974 334.623 642.555C421.39 592.94 508.649 544.149 595.909 495.405C603.316 491.267 606.585 486.846 606.067 478.122C605.268 464.085 605.456 449.953 605.997 435.915C606.373 426.204 605.103 423.265 595.086 429.096C559.275 449.859 523.04 469.869 486.97 490.185C434.557 519.671 382.074 549.04 329.85 578.832C322.843 582.83 317.764 582.783 310.71 578.762C210.517 522.046 110.137 465.566 9.61504 409.321C2.79602 405.512 0.632748 401.42 0.726804 393.825C1.15005 359.025 0.891401 324.224 0.938428 289.4C0.961942 274.586 10.9318 268.92 23.982 276.279C119.284 329.868 214.632 383.362 309.746 437.279C317.623 441.746 323.149 441.699 330.932 437.279C419.25 387.218 507.756 337.486 596.38 287.966C603.387 284.039 606.444 279.948 606.114 271.671C605.433 253.847 605.903 235.953 605.903 216.272Z" fill="#EE3E2C"/>
</svg>
