<svg width="25" height="25" viewBox="0 0 25 25" fill="none" xmlns="http://www.w3.org/2000/svg">
<rect x="0.414062" y="0.414062" width="23.1875" height="23.1875" rx="11.5938" fill="#007DFA"/>
<path d="M15.2751 6.58816C15.2733 7.26308 14.7266 7.80837 14.0552 7.80837C13.6907 7.80837 13.3619 7.64638 13.1392 7.39326H13.4058C13.7018 7.39326 13.9608 7.21806 14.0811 6.96676L14.0811 6.96676L14.0814 6.96613L14.2556 6.59233C14.2572 6.58967 14.2586 6.58849 14.259 6.58818C14.2591 6.58817 14.2592 6.58816 14.2594 6.58816H15.2751Z" fill="white" stroke="white" stroke-width="0.135793"/>
<path d="M14.0551 5.0679C14.7296 5.0679 15.3043 5.50985 15.4997 6.12154H14.2594C14.0734 6.12154 13.9081 6.23206 13.8363 6.39263C13.8363 6.39267 13.8363 6.39271 13.8362 6.39275L13.6664 6.76865C13.6202 6.86336 13.5198 6.93022 13.4057 6.93022H12.5772C12.5523 6.82111 12.5384 6.70468 12.5384 6.58467C12.5384 5.74758 13.2158 5.0679 14.0551 5.0679Z" fill="white" stroke="white" stroke-width="0.135793"/>
<path d="M11.0281 6.86398L11.0277 6.86349L10.3321 6.00748C10.3321 6.00745 10.3321 6.00742 10.3321 6.00739C10.2254 5.8769 10.0375 5.85892 9.91146 5.9643L9.91073 5.96492L9.91072 5.96491L6.93661 8.3809C6.93653 8.38097 6.93645 8.38103 6.93637 8.3811C6.80893 8.48683 6.78772 8.67652 6.8936 8.80621L6.8937 8.80634L7.58768 9.66072C7.58775 9.6608 7.58782 9.66089 7.58789 9.66097C7.69381 9.78841 7.88249 9.8072 8.01493 9.70449L10.9839 7.28491L11.0281 6.86398ZM11.0281 6.86398C11.1325 6.99009 11.1145 7.17811 10.9839 7.28485L11.0281 6.86398Z" fill="white" stroke="white" stroke-width="0.135793"/>
<path d="M8.13259 10.8111L8.13261 10.8111L8.13421 10.8098L10.9495 8.5084C11.4222 8.18967 12.0585 8.1472 12.5889 8.44846C12.9017 8.62629 13.1273 8.89578 13.2546 9.20382L14.0894 11.6535L14.096 11.6731L14.1124 11.6856L15.9144 13.0625C15.9195 13.0671 15.9247 13.0713 15.928 13.0741L15.929 13.0748L15.9349 13.0797L15.9366 13.0812C15.9368 13.0814 15.937 13.0815 15.9371 13.0816L15.9372 13.0817L15.9371 13.0817L15.9388 13.0833C16.196 13.324 16.2104 13.7286 15.9697 13.987C15.7617 14.2093 15.4256 14.2503 15.1759 14.0988L13.1206 12.5389C13.0507 12.4816 12.9933 12.4083 12.9554 12.3279L12.4591 10.9506L12.4265 10.8602L12.3522 10.9211L10.1971 12.6882L10.1388 12.7361L10.1925 12.789L12.0646 14.6386C12.2115 14.8007 12.2884 15.0103 12.2805 15.2239L12.2805 15.2263L12.2769 18.4759H12.2768L12.277 18.479C12.2837 18.6289 12.2492 18.7807 12.1712 18.9257C11.9428 19.3218 11.4375 19.4587 11.0409 19.2343C10.7742 19.0788 10.6227 18.801 10.6227 18.5137C10.6227 18.5137 10.6227 18.5136 10.6227 18.5136L10.6263 15.5914L10.6263 15.5631L10.6063 15.5432L8.86847 13.8102L8.78166 13.7236L8.75434 13.8431L8.22554 16.1568C8.20923 16.2218 8.18183 16.2838 8.14513 16.3481L8.14503 16.3483C8.11745 16.3969 8.08642 16.4414 8.05184 16.4841L5.45668 18.9932C5.19913 19.2277 4.80598 19.2833 4.48743 19.1006L4.48728 19.1005C4.08694 18.8722 3.95005 18.3666 4.17814 17.9699L4.17818 17.97L4.17943 17.9676C4.21652 17.8967 4.26844 17.8333 4.32888 17.7762L4.32934 17.7758L6.66682 15.526L6.68132 15.512L6.68587 15.4924L7.53347 11.8403L7.53365 11.8404L7.53443 11.8353C7.56363 11.6459 7.62553 11.4557 7.72807 11.2776L7.72831 11.2772C7.83321 11.0918 7.97192 10.9345 8.13259 10.8111Z" fill="white" stroke="white" stroke-width="0.135793"/>
<path d="M16.1276 6.15568L16.1277 6.15565L16.1259 6.15402C16.0824 6.11424 16.0531 6.05193 16.0531 5.98757C16.0531 5.85793 16.157 5.75503 16.2819 5.75503L20.7432 5.75861C20.7433 5.75861 20.7434 5.75861 20.7435 5.75861C20.8214 5.75959 20.9057 5.81596 20.9859 5.94462C21.0648 6.07129 21.1303 6.25405 21.1733 6.47199C21.2594 6.9075 21.2531 7.46617 21.1046 7.95609C20.9641 8.41312 20.6849 8.93819 20.3931 9.29694C20.2466 9.47706 20.1016 9.60935 19.9744 9.67284C19.9113 9.70431 19.8567 9.71685 19.8105 9.71364C19.7661 9.71054 19.7245 9.69255 19.6856 9.65284L19.6857 9.65283L19.6847 9.65192L16.1276 6.15568Z" fill="white" stroke="white" stroke-width="0.135793"/>
<path d="M7.10311 8.70332L7.74144 9.48308C7.76965 9.51755 7.81374 9.53666 7.864 9.53622C7.91425 9.53579 7.96656 9.51584 8.00943 9.48074L8.24029 9.29175C8.28372 9.25613 8.31376 9.20795 8.32366 9.15809C8.37449 9.15824 8.42765 9.1383 8.47115 9.10277L8.70201 8.91378C8.74544 8.87815 8.77549 8.82997 8.78538 8.78011C8.83621 8.78026 8.88938 8.76032 8.93288 8.72479L9.16374 8.5358C9.2066 8.50071 9.2365 8.45337 9.24685 8.40419C9.25721 8.35501 9.24718 8.30802 9.21896 8.27355L8.58063 7.49379C8.55241 7.45932 8.50833 7.4402 8.45807 7.44065C8.40782 7.44108 8.35551 7.46103 8.31264 7.49612L8.08178 7.68511C8.03835 7.72073 8.0083 7.76892 7.99841 7.81878C7.94758 7.81863 7.89441 7.83856 7.85091 7.8741L7.62005 8.06309C7.57662 8.09871 7.54658 8.14689 7.53669 8.19676C7.48585 8.19661 7.43269 8.21654 7.38919 8.25208L7.15833 8.44107C7.11546 8.47616 7.08557 8.5235 7.07522 8.57268C7.06486 8.62186 7.07489 8.66885 7.10311 8.70332ZM8.14257 7.75937L8.37343 7.57039C8.3918 7.55535 8.41423 7.54679 8.43576 7.54661C8.45729 7.54642 8.47619 7.55462 8.48828 7.56939L9.12661 8.34914C9.1387 8.36391 9.14301 8.38406 9.13857 8.40513C9.13413 8.4262 9.12131 8.4465 9.10295 8.46153L8.87208 8.65052C8.85372 8.66556 8.83129 8.67412 8.80976 8.6743C8.78822 8.67449 8.76932 8.66629 8.75723 8.65152L8.11891 7.87177C8.10682 7.857 8.10251 7.83685 8.10695 7.81578C8.11139 7.79471 8.12421 7.77441 8.14257 7.75937ZM7.68084 8.13735L7.91171 7.94836C7.93007 7.93333 7.9525 7.92477 7.97403 7.92458C7.99557 7.9244 8.01447 7.9326 8.02656 7.94736L8.66488 8.72712C8.67697 8.74189 8.68128 8.76204 8.67684 8.78311C8.6724 8.80418 8.65958 8.82448 8.64122 8.83951L8.41036 9.0285C8.39199 9.04354 8.36956 9.0521 8.34803 9.05228C8.3265 9.05247 8.3076 9.04427 8.29551 9.0295L7.65718 8.24975C7.64509 8.23498 7.64078 8.21483 7.64522 8.19376C7.64966 8.17268 7.66248 8.15239 7.68084 8.13735ZM8.20316 9.1051C8.21525 9.11987 8.21956 9.14002 8.21512 9.16109C8.21068 9.18216 8.19786 9.20246 8.1795 9.21749L7.94863 9.40648C7.93027 9.42151 7.90784 9.43007 7.88631 9.43026C7.86477 9.43045 7.84587 9.42225 7.83378 9.40748L7.19546 8.62772C7.18337 8.61295 7.17906 8.59281 7.1835 8.57174C7.18794 8.55066 7.20076 8.53037 7.21912 8.51533L7.44998 8.32634C7.46835 8.31131 7.49078 8.30275 7.51231 8.30256C7.53384 8.30238 7.55275 8.31058 7.56483 8.32534L8.20316 9.1051ZM8.65489 7.8671L8.50291 7.68145C8.49082 7.66668 8.47192 7.65848 8.45038 7.65867C8.42885 7.65885 8.40642 7.66741 8.38805 7.68245L8.24954 7.79584C8.23117 7.81087 8.21835 7.83117 8.21392 7.85224C8.20948 7.87331 8.21378 7.89346 8.22587 7.90823L8.37786 8.09389C8.38995 8.10866 8.40885 8.11686 8.43038 8.11667C8.45191 8.11648 8.47434 8.10792 8.49271 8.09289L8.63122 7.97949C8.64959 7.96446 8.66241 7.94416 8.66685 7.92309C8.67128 7.90202 8.66698 7.88187 8.65489 7.8671ZM8.455 7.99973L8.33341 7.8512L8.42576 7.77561L8.54735 7.92413L8.455 7.99973ZM8.19316 8.24508L8.04118 8.05942C8.02909 8.04466 8.01019 8.03645 7.98866 8.03664C7.96712 8.03683 7.94469 8.04539 7.92633 8.06042L7.78781 8.17382C7.76945 8.18885 7.75662 8.20915 7.75219 8.23022C7.74776 8.25129 7.75206 8.27144 7.76415 8.28621L7.91613 8.47187C7.92822 8.48664 7.94712 8.49484 7.96865 8.49465C7.99019 8.49446 8.01262 8.4859 8.03098 8.47087L8.1695 8.35747C8.18787 8.34244 8.20069 8.32214 8.20512 8.30107C8.20956 8.28 8.20525 8.25985 8.19316 8.24508ZM7.99327 8.37771L7.87169 8.22918L7.96403 8.15359L8.08562 8.30211L7.99327 8.37771ZM7.30242 8.66419L7.4544 8.84985C7.46649 8.86462 7.48539 8.87282 7.50693 8.87263C7.52846 8.87244 7.55089 8.86388 7.56925 8.84885L7.70777 8.73545C7.72614 8.72042 7.73896 8.70012 7.74339 8.67905C7.74783 8.65798 7.74352 8.63783 7.73143 8.62306L7.57945 8.43741C7.56736 8.42264 7.54846 8.41444 7.52693 8.41463C7.5054 8.41481 7.48296 8.42337 7.4646 8.43841L7.32608 8.5518C7.30772 8.56683 7.2949 8.58713 7.29046 8.6082C7.28603 8.62927 7.29033 8.64942 7.30242 8.66419ZM7.50231 8.53156L7.62389 8.68009L7.53155 8.75569L7.40996 8.60716L7.50231 8.53156Z" fill="#007DFA"/>
<path d="M8.69308 7.40175L9.3314 8.1815C9.35962 8.21597 9.4037 8.23509 9.45396 8.23464C9.50422 8.23422 9.55653 8.21426 9.59939 8.17917L9.83026 7.99018C9.87368 7.95456 9.90373 7.90638 9.91362 7.85652C9.96445 7.85666 10.0176 7.83673 10.0611 7.80119L10.292 7.6122C10.3354 7.57658 10.3655 7.5284 10.3753 7.47854C10.4262 7.47869 10.4793 7.45875 10.5228 7.42321L10.7537 7.23422C10.7966 7.19913 10.8265 7.15179 10.8368 7.10261C10.8472 7.05343 10.8371 7.00644 10.8089 6.97197L10.1706 6.19222C10.1424 6.15774 10.0983 6.13863 10.048 6.13907C9.99778 6.1395 9.94547 6.15946 9.90261 6.19455L9.67174 6.38354C9.62831 6.41916 9.59827 6.46734 9.58838 6.5172C9.53754 6.51705 9.48438 6.53699 9.44088 6.57253L9.21002 6.76152C9.16659 6.79714 9.13654 6.84532 9.12665 6.89518C9.07582 6.89503 9.02265 6.91497 8.97915 6.95051L8.74829 7.1395C8.70543 7.17458 8.67553 7.22192 8.66519 7.2711C8.65482 7.32028 8.66486 7.36727 8.69308 7.40175ZM9.73254 6.4578L9.9634 6.26881C9.98176 6.25378 10.0042 6.24522 10.0257 6.24503C10.0473 6.24484 10.0662 6.25304 10.0782 6.26781L10.7166 7.04757C10.7287 7.06234 10.733 7.08248 10.7285 7.10356C10.7241 7.12463 10.7113 7.14493 10.6929 7.15996L10.462 7.34895C10.4437 7.36398 10.4213 7.37254 10.3997 7.37273C10.3782 7.37291 10.3593 7.36471 10.3472 7.34995L9.70887 6.57019C9.69678 6.55542 9.69247 6.53528 9.69691 6.5142C9.70135 6.49313 9.71417 6.47283 9.73254 6.4578ZM9.27081 6.83578L9.50167 6.64679C9.52004 6.63175 9.54247 6.62319 9.564 6.62301C9.58553 6.62282 9.60443 6.63102 9.61652 6.64579L10.2548 7.42555C10.2669 7.44031 10.2712 7.46046 10.2668 7.48153C10.2624 7.50261 10.2495 7.5229 10.2312 7.53794L10.0003 7.72693C9.98196 7.74196 9.95953 7.75052 9.938 7.75071C9.91646 7.75089 9.89756 7.74269 9.88547 7.72793L9.24715 6.94817C9.23506 6.9334 9.23075 6.91325 9.23519 6.89218C9.23963 6.87111 9.25245 6.85081 9.27081 6.83578ZM9.79313 7.80352C9.80522 7.81829 9.80952 7.83844 9.80508 7.85951C9.80065 7.88058 9.78783 7.90088 9.76946 7.91592L9.5386 8.1049C9.52023 8.11994 9.49781 8.1285 9.47627 8.12869C9.45474 8.12887 9.43584 8.12067 9.42375 8.1059L8.78542 7.32615C8.77333 7.31138 8.76903 7.29123 8.77346 7.27016C8.7779 7.24909 8.79072 7.22879 8.80909 7.21376L9.03995 7.02477C9.05832 7.00973 9.08074 7.00117 9.10228 7.00099C9.12381 7.0008 9.14271 7.009 9.1548 7.02377L9.79313 7.80352ZM10.2449 6.56553L10.0929 6.37987C10.0808 6.3651 10.0619 6.3569 10.0403 6.35709C10.0188 6.35728 9.99638 6.36584 9.97802 6.38087L9.8395 6.49426C9.82114 6.5093 9.80832 6.5296 9.80388 6.55067C9.79945 6.57174 9.80375 6.59189 9.81584 6.60666L9.96782 6.79231C9.97991 6.80708 9.99881 6.81528 10.0203 6.81509C10.0419 6.8149 10.0643 6.80635 10.0827 6.79131L10.2212 6.67792C10.2396 6.66288 10.2524 6.64259 10.2568 6.62152C10.2612 6.60044 10.2569 6.58029 10.2449 6.56553ZM10.045 6.69815L9.92338 6.54963L10.0157 6.47403L10.1373 6.62256L10.045 6.69815ZM9.78313 6.94351L9.63115 6.75785C9.61906 6.74308 9.60016 6.73488 9.57862 6.73507C9.55709 6.73526 9.53466 6.74382 9.5163 6.75885L9.37778 6.87224C9.35941 6.88728 9.34659 6.90757 9.34216 6.92865C9.33772 6.94972 9.34202 6.96987 9.35411 6.98464L9.5061 7.17029C9.51819 7.18506 9.53709 7.19326 9.55862 7.19307C9.58015 7.19288 9.60258 7.18432 9.62095 7.16929L9.75947 7.0559C9.77783 7.04086 9.79065 7.02057 9.79509 6.99949C9.79952 6.97842 9.79522 6.95827 9.78313 6.94351ZM9.58324 7.07613L9.46165 6.92761L9.554 6.85201L9.67559 7.00054L9.58324 7.07613ZM8.89239 7.36262L9.04437 7.54827C9.05646 7.56304 9.07536 7.57124 9.09689 7.57105C9.11843 7.57086 9.14086 7.5623 9.15922 7.54727L9.29774 7.43388C9.3161 7.41884 9.32892 7.39855 9.33336 7.37748C9.33779 7.3564 9.33349 7.33625 9.3214 7.32149L9.16942 7.13583C9.15733 7.12106 9.13843 7.11286 9.11689 7.11305C9.09536 7.11324 9.07293 7.1218 9.05457 7.13683L8.91605 7.25022C8.89768 7.26526 8.88486 7.28556 8.88043 7.30663C8.87599 7.3277 8.8803 7.34785 8.89239 7.36262ZM9.09227 7.22999L9.21386 7.37851L9.12152 7.45411L8.99993 7.30559L9.09227 7.22999Z" fill="#007DFA"/>
<rect x="0.414062" y="0.414062" width="23.1875" height="23.1875" rx="11.5938" stroke="#007DFA" stroke-width="0.828125"/>
</svg>
