<svg width="16" height="17" viewBox="0 0 16 17" fill="none" xmlns="http://www.w3.org/2000/svg">
<path d="M9.12717 13.2411H9.92477C10.0305 13.2411 10.132 13.2023 10.2068 13.1334C10.2815 13.0644 10.3236 12.9708 10.3236 12.8733V6.25251C10.3236 6.15496 10.2815 6.0614 10.2068 5.99242C10.132 5.92344 10.0305 5.88469 9.92477 5.88469H9.12717C9.02141 5.88469 8.91997 5.92344 8.84518 5.99242C8.77039 6.0614 8.72838 6.15496 8.72838 6.25251V12.8733C8.72838 12.9708 8.77039 13.0644 8.84518 13.1334C8.91997 13.2023 9.02141 13.2411 9.12717 13.2411ZM14.5774 2.94213H11.8387L10.7087 1.20417C10.5669 0.986246 10.3663 0.805915 10.1265 0.680753C9.88666 0.555592 9.61576 0.489869 9.3402 0.48999H5.98964C5.71418 0.489975 5.44342 0.555748 5.20371 0.680904C4.96399 0.806061 4.76351 0.986335 4.62176 1.20417L3.49117 2.94213H0.752433C0.611409 2.94213 0.476162 2.9938 0.376443 3.08577C0.276724 3.17774 0.220703 3.30248 0.220703 3.43255L0.220703 3.92298C0.220703 4.05305 0.276724 4.17779 0.376443 4.26976C0.476162 4.36174 0.611409 4.41341 0.752433 4.41341H1.28416V14.7124C1.28416 15.1026 1.45223 15.4768 1.75138 15.7527C2.05054 16.0286 2.45628 16.1837 2.87935 16.1837H12.4505C12.8736 16.1837 13.2793 16.0286 13.5785 15.7527C13.8776 15.4768 14.0457 15.1026 14.0457 14.7124V4.41341H14.5774C14.7184 4.41341 14.8537 4.36174 14.9534 4.26976C15.0531 4.17779 15.1091 4.05305 15.1091 3.92298V3.43255C15.1091 3.30248 15.0531 3.17774 14.9534 3.08577C14.8537 2.9938 14.7184 2.94213 14.5774 2.94213ZM5.93148 2.05047C5.94925 2.02319 5.97439 2.00062 6.00445 1.98499C6.03451 1.96935 6.06845 1.96118 6.10296 1.96127H9.22687C9.26132 1.96124 9.2952 1.96943 9.32519 1.98506C9.35519 2.0007 9.38028 2.02323 9.39802 2.05047L9.97827 2.94213H5.35156L5.93148 2.05047ZM12.4505 14.7124H2.87935V4.41341H12.4505V14.7124ZM5.40507 13.2411H6.20266C6.30843 13.2411 6.40986 13.2023 6.48465 13.1334C6.55944 13.0644 6.60146 12.9708 6.60146 12.8733V6.25251C6.60146 6.15496 6.55944 6.0614 6.48465 5.99242C6.40986 5.92344 6.30843 5.88469 6.20266 5.88469H5.40507C5.2993 5.88469 5.19786 5.92344 5.12307 5.99242C5.04829 6.0614 5.00627 6.15496 5.00627 6.25251V12.8733C5.00627 12.9708 5.04829 13.0644 5.12307 13.1334C5.19786 13.2023 5.2993 13.2411 5.40507 13.2411Z" fill="#5664D2"/>
</svg>
