<svg width="99" height="103" viewBox="0 0 99 103" fill="none" xmlns="http://www.w3.org/2000/svg">
<g filter="url(#filter0_dd_486_198)">
<circle cx="46" cy="48" r="39" fill="#26282A"/>
</g>
<g clip-path="url(#clip0_486_198)">
<path d="M65.2754 63.6583C61.8116 67.6391 57.4017 70.0495 52.241 70.9957C50.8124 71.2572 49.3374 71.3469 47.8812 71.3697C44.4976 71.4227 41.1128 71.3886 37.7292 71.3886C36.8921 71.3886 36.867 71.3646 36.867 70.5611C36.867 65.1048 36.867 59.6498 36.8683 54.1934C36.8683 53.3281 36.8708 53.3268 37.7467 53.3281C42.4061 53.3293 47.0642 53.3306 51.7235 53.3319H52.5606C52.4654 53.6174 52.4328 53.798 52.3501 53.9496C51.5656 55.386 50.7648 56.8161 49.9853 58.2563C49.7823 58.6303 49.4866 58.7035 49.1018 58.701C47.1794 58.6896 45.2571 58.7124 43.3359 58.6858C42.7895 58.6783 42.6116 58.8539 42.6204 59.411C42.6504 61.2643 42.6417 63.1189 42.6241 64.9722C42.6204 65.3929 42.7306 65.5962 43.1805 65.5874C45.4776 65.5445 47.7923 65.6872 50.068 65.4497C54.498 64.9861 58.2275 62.9786 61.18 59.6106C64.313 56.0354 65.7692 51.8108 65.5072 47.062C65.11 39.8117 60.4532 33.8488 53.993 31.5003C51.9829 30.7701 49.9214 30.434 47.7935 30.4353C41.4424 30.4403 35.0912 30.4391 28.7414 30.4403C27.6398 30.4403 27.6411 30.4403 27.6411 31.5824C27.6423 35.2726 27.6411 38.9628 27.6411 42.6529V42.6807H27.6336C27.6336 43.4589 27.6336 44.2372 27.6361 45.0154C27.6398 46.2231 27.6486 47.4296 27.6524 48.6373C27.6536 48.9683 27.6536 49.2993 27.6398 49.629C27.6373 49.6985 27.5897 49.7844 27.5346 49.8312C27.4205 49.9272 27.2777 49.9916 27.1661 50.0902C27.1047 50.1445 27.0546 50.243 27.0521 50.3239C27.0408 50.7231 27.0433 51.1223 27.0521 51.5215C27.0533 51.5948 27.0959 51.6807 27.1461 51.735C27.314 51.9144 27.324 52.1671 27.1548 52.3376C27.0132 52.4804 26.7801 52.4829 26.641 52.3439C26.4681 52.1696 26.4744 51.9258 26.641 51.7413C26.6962 51.6794 26.74 51.5847 26.7438 51.5026C26.7576 51.2259 26.7501 50.948 26.7488 50.67C26.7488 50.6208 26.735 50.5702 26.7212 50.4868C26.5809 50.5955 26.4706 50.689 26.3516 50.7698C26.2388 50.8469 26.1974 50.9454 26.1987 51.0793C26.2037 51.5518 26.2099 52.0243 26.1974 52.4955C26.1911 52.6951 26.2638 52.8227 26.423 52.9326C26.7413 53.1512 27.0546 53.3761 27.3591 53.611C27.4318 53.6666 27.5095 53.7702 27.512 53.8549C27.5308 54.6179 27.5371 55.3822 27.5383 56.1466C27.5408 56.614 27.5308 57.0801 27.5208 57.5476C27.5183 57.6802 27.5609 57.7586 27.6887 57.8167C27.9431 57.9342 28.0434 58.1704 27.9807 58.4509C27.923 58.701 27.6975 58.8817 27.428 58.8943C27.2 58.9044 26.9819 58.7465 26.908 58.5203C26.814 58.2273 26.8992 57.9392 27.101 57.7977C27.1586 57.7573 27.21 57.6714 27.215 57.6019C27.2288 57.3846 27.2213 57.1648 27.22 56.945C27.2188 56.9109 27.205 56.8768 27.1937 56.8313C27.1561 56.8528 27.1335 56.8616 27.116 56.8768C26.7701 57.156 26.423 57.4326 26.0846 57.7207C26.0232 57.7737 25.9781 57.876 25.9731 57.9582C25.9581 58.2058 25.9581 58.4547 25.9718 58.7023C25.9769 58.7844 26.0232 58.8829 26.0821 58.941C26.24 59.1002 26.4155 59.2404 26.5846 59.3895C26.7162 59.5045 26.8315 59.6548 26.9832 59.7293C27.1749 59.8228 27.1899 59.9567 27.1887 60.1311C27.1849 60.8765 27.1912 61.6206 27.1862 62.3659C27.1849 62.5301 27.215 62.6577 27.3466 62.7778C27.5734 62.9837 27.5834 63.2566 27.4055 63.4549C27.1962 63.6861 26.8365 63.7341 26.611 63.5598C26.3077 63.3248 26.2977 62.9521 26.5934 62.659C26.6799 62.5744 26.7463 62.4923 26.7463 62.3596C26.7425 61.6104 26.7488 60.86 26.74 60.1109C26.7388 60.0212 26.6836 59.9138 26.6185 59.8494C26.4631 59.6952 26.2876 59.5613 26.1185 59.4211C26.0871 59.3946 26.0495 59.3781 25.9906 59.3415C25.9806 59.4261 25.9668 59.4817 25.9681 59.5361C25.9706 59.7597 25.9844 59.9845 25.9781 60.2081C25.9743 60.3332 26.0094 60.4166 26.116 60.4886C26.1861 60.5341 26.2475 60.6086 26.2851 60.6832C26.4142 60.9409 26.2889 61.2971 26.0307 61.4424C25.7613 61.594 25.4718 61.5321 25.3077 61.2858C25.1172 61.0015 25.156 60.6693 25.4117 60.4798C25.5094 60.4078 25.5483 60.3256 25.547 60.2081C25.5445 59.7016 25.547 59.1962 25.5458 58.6896C25.5458 58.6353 25.532 58.581 25.5182 58.49C25.3239 58.6555 25.1685 58.8096 24.9906 58.9335C24.8039 59.0648 24.7475 59.2366 24.7901 59.4388C24.8126 59.5462 24.8791 59.6485 24.9417 59.7432C25.0495 59.905 25.0407 60.1159 24.9066 60.2359C24.7725 60.356 24.4968 60.3635 24.3602 60.2498C24.2287 60.1412 24.1798 59.9075 24.3026 59.7748C24.4655 59.5992 24.4793 59.4034 24.4643 59.1924C24.453 59.0434 24.5094 58.9335 24.6234 58.8374C24.854 58.6416 25.0733 58.4332 25.3064 58.2399C25.4718 58.1047 25.5721 57.9531 25.5533 57.7282C25.5483 57.6651 25.5934 57.5754 25.646 57.5349C26.1322 57.161 26.6273 56.7972 27.1135 56.422C27.1686 56.379 27.2112 56.2817 27.2125 56.2085C27.2213 55.4782 27.2213 54.748 27.2175 54.0178C27.2175 53.9521 27.1887 53.8612 27.1411 53.8258C26.7501 53.5327 26.3591 53.2422 25.953 52.9718C25.8327 52.8922 25.7776 52.8202 25.7826 52.685C25.7876 52.5966 25.7751 52.5082 25.7676 52.378C25.6122 52.4816 25.5019 52.5688 25.3791 52.6345C25.1911 52.7343 25.1322 52.8821 25.136 53.0893C25.146 53.7273 25.141 54.3653 25.1385 55.0032C25.1372 55.218 25.1372 55.4176 25.2989 55.6008C25.4468 55.7701 25.3578 56.0392 25.166 56.1175C24.9919 56.1895 24.7625 56.1428 24.6673 56.0164C24.5683 55.8863 24.5821 55.6892 24.7149 55.5338C24.8076 55.4277 24.8415 55.3102 24.8402 55.1725C24.8377 54.5889 24.8402 54.0039 24.839 53.4203C24.839 53.2106 24.8377 53.0021 24.8352 52.7937C24.8327 52.6737 24.8941 52.5979 24.9893 52.5322C25.1986 52.3869 25.4016 52.2365 25.6047 52.0837C25.6623 52.0407 25.7513 51.9864 25.755 51.9333C25.7713 51.7009 25.7626 51.4672 25.7626 51.2082C25.6999 51.2461 25.6585 51.2688 25.6197 51.2966C25.1924 51.6036 24.7675 51.9157 24.3364 52.2189C24.2149 52.3048 24.1698 52.4033 24.1698 52.5499C24.1748 53.8789 24.1748 55.2079 24.1698 56.5382C24.1698 56.6999 24.2023 56.7997 24.364 56.8805C24.6472 57.0195 24.7312 57.3278 24.5933 57.6044C24.453 57.8874 24.1272 58.0239 23.8552 57.9026C23.6497 57.8104 23.5532 57.6297 23.5294 57.4149C23.5056 57.1926 23.5369 56.9816 23.7525 56.8528C23.8389 56.801 23.8753 56.7403 23.8753 56.6418C23.8715 56.2426 23.8753 55.8434 23.8728 55.4441C23.8715 55.3999 23.8477 55.3557 23.8339 55.3102C23.7913 55.3279 23.7412 55.3355 23.7061 55.362C23.3138 55.6614 22.9266 55.9659 22.5331 56.2615C22.4241 56.3436 22.3802 56.4396 22.3827 56.5723C22.389 56.9336 22.3802 57.2937 22.3852 57.6537C22.3978 58.3953 22.2825 58.1653 22.8527 58.6303C23.072 58.8084 23.2838 59.0017 23.5256 59.1444C23.671 59.2303 23.7073 59.3162 23.7061 59.4653C23.6998 59.9176 23.7086 60.3711 23.7023 60.8234C23.6998 60.9851 23.7362 61.1038 23.8677 61.2163C24.0971 61.4108 24.1134 61.7065 23.9354 61.9035C23.7274 62.136 23.3627 62.1827 23.1409 62.0059C22.8389 61.7633 22.8464 61.359 23.1522 61.0773C23.2048 61.0293 23.2675 60.9548 23.2687 60.8916C23.28 60.433 23.2775 59.9757 23.2788 59.5184C23.28 59.4021 23.2311 59.3175 23.1346 59.248C22.9354 59.1078 22.7424 58.9587 22.5456 58.8134C22.5055 58.7844 22.4617 58.7604 22.3928 58.7174C22.394 58.9587 22.3301 59.1621 22.5557 59.3263C22.7637 59.4754 22.7975 59.8481 22.6672 60.0616C22.5394 60.2701 22.3364 60.3623 22.092 60.3219C21.8639 60.284 21.6596 60.1058 21.622 59.9125C21.5744 59.6637 21.6609 59.4388 21.889 59.315C22.0456 59.2291 22.0895 59.1192 22.0882 58.9499C22.0807 58.2247 22.0857 57.4996 22.0845 56.7744C22.0845 56.7176 22.0769 56.662 22.0707 56.5761C22.0005 56.6165 21.9541 56.638 21.9128 56.6683C21.7586 56.7807 21.617 56.9109 21.4529 57.0056C21.2072 57.1471 21.1508 57.353 21.1884 57.6095C21.1909 57.6284 21.1872 57.6512 21.196 57.6676C21.2123 57.7017 21.226 57.7472 21.2549 57.7623C21.419 57.8419 21.4265 57.9847 21.4178 58.1363C21.4065 58.3384 21.2824 58.4925 21.1057 58.5304C20.9804 58.557 20.7849 58.4344 20.6959 58.274C20.617 58.1325 20.6395 57.9531 20.7724 57.8331C20.8626 57.7522 20.8927 57.6625 20.8864 57.5501C20.8827 57.4629 20.8927 57.3732 20.8839 57.2873C20.8664 57.113 20.9391 56.9905 21.0769 56.8894C21.4303 56.6279 21.7799 56.3626 22.1321 56.0998C22.6446 55.7183 23.1547 55.3342 23.6723 54.9578C23.8201 54.8504 23.8815 54.7291 23.879 54.5421C23.869 53.8852 23.8878 53.227 23.869 52.5701C23.8615 52.2921 23.9354 52.1203 24.1773 51.9472C25.1548 51.2499 26.1047 50.5159 27.0684 49.7983C27.1812 49.7137 27.225 49.6164 27.225 49.4762C27.2288 48.1914 27.2376 46.9066 27.2426 45.6205C27.2438 45.5131 27.23 45.407 27.23 45.2996C27.2288 44.716 27.2275 44.1323 27.2288 43.5486C27.23 43.2593 27.2413 42.97 27.2401 42.6807H27.0433C27.0421 42.7148 27.0433 42.7489 27.0433 42.7831C27.0433 44.2346 27.0446 45.6849 27.0446 47.1365C27.0446 47.1946 27.0508 47.2552 27.0358 47.3096C27.027 47.3411 26.9794 47.3828 26.9506 47.3828C26.8152 47.379 26.636 47.1883 26.6348 47.0506C26.6323 46.7575 26.631 46.4657 26.6348 46.1738C26.6373 46.0538 26.5972 45.9616 26.5145 45.8732C26.4618 45.8163 26.4054 45.7342 26.4054 45.6622C26.3942 44.908 26.3929 44.1538 26.3917 43.3996C26.3917 43.1608 26.3954 42.9208 26.3929 42.6807H26.1924C26.1937 42.7047 26.1949 42.7287 26.1962 42.7515C26.2024 43.2037 26.2162 43.656 26.2162 44.1096C26.2162 44.7172 26.2024 45.3261 26.2024 45.9338C26.2024 46.0008 26.2488 46.0816 26.2989 46.1309C26.418 46.2484 26.4543 46.3873 26.4293 46.544C26.3979 46.731 26.2977 46.8244 26.1222 46.8459C25.9418 46.8687 25.7839 46.7916 25.7174 46.6488C25.6385 46.477 25.651 46.2143 25.7726 46.146C25.9267 46.0614 25.9255 45.9389 25.9255 45.7999C25.9255 44.7728 25.9267 43.7445 25.9267 42.7174C25.9267 42.706 25.928 42.6934 25.9292 42.6807H25.6059C25.6059 43.6762 25.6059 44.6717 25.6072 45.6672C25.6072 45.7266 25.6072 45.7847 25.6034 45.8428C25.5959 45.9477 25.547 45.9907 25.438 45.9641C25.235 45.9149 25.1986 45.8744 25.1986 45.6634C25.1974 44.6692 25.1986 43.6762 25.1974 42.6833C25.1974 42.682 25.1974 42.682 25.1974 42.6807H25.1147C25.1147 42.6845 25.1134 42.6883 25.1134 42.6908C25.1197 43.1873 25.1322 43.6838 25.1347 44.1803C25.1385 45.0229 25.1397 45.8656 25.1335 46.7082C25.1322 46.8725 25.1861 46.9647 25.3402 47.0316C25.7212 47.1959 26.0934 47.3791 26.4731 47.5458C26.6122 47.6064 26.6774 47.6886 26.6711 47.8452C26.6611 48.137 26.6724 48.4289 26.6674 48.7207C26.6648 48.8647 26.705 48.9784 26.7964 49.0947C26.8616 49.178 26.9105 49.3069 26.9004 49.408C26.8842 49.5798 26.6674 49.7036 26.448 49.7086C26.2876 49.7124 26.1059 49.5899 26.0608 49.4459C26.0107 49.293 26.0746 49.1806 26.2601 49.0315C26.3202 48.9822 26.3829 48.895 26.3866 48.823C26.4017 48.5603 26.4004 48.2975 26.3879 48.0347C26.3854 47.9728 26.3252 47.8882 26.2688 47.8591C26.0245 47.7378 25.7726 47.6305 25.5207 47.5218C25.3966 47.47 25.3666 47.4953 25.3678 47.633C25.3691 48.1004 25.3603 48.5678 25.3741 49.0353C25.3816 49.2791 25.329 49.4345 25.0971 49.5886C24.4091 50.0497 23.7512 50.5576 23.0858 51.0541C23.0319 51.0945 22.9817 51.1791 22.9805 51.2448C22.9717 51.7805 22.973 52.3161 22.9792 52.8518C22.9805 52.9048 23.0181 52.9756 23.062 53.0059C23.4003 53.2409 23.4429 53.7336 23.1259 53.9964C23.0369 54.0696 22.8965 54.1176 22.7812 54.1164C22.582 54.1126 22.3965 53.9079 22.3526 53.6919C22.3025 53.4456 22.3113 53.2131 22.5406 53.0476C22.6872 52.9427 22.7161 52.8442 22.6296 52.6332C22.3188 52.8429 22.018 53.04 21.7261 53.2485C21.6822 53.2801 21.6634 53.3672 21.6596 53.4304C21.6521 53.6148 21.6609 53.8006 21.6559 53.985C21.6521 54.0987 21.691 54.172 21.7925 54.2339C21.998 54.3589 22.0769 54.6482 21.9817 54.8668C21.8927 55.0715 21.6947 55.1965 21.4704 55.1915C21.2198 55.1864 20.9955 55.0449 20.9215 54.8453C20.8488 54.652 20.914 54.4411 21.1145 54.2768C21.2085 54.1998 21.2411 54.1151 21.2398 53.9989C21.2361 53.7273 21.2348 53.4544 21.2436 53.1815C21.2461 53.1221 21.2762 53.0388 21.3213 53.0097C21.7248 52.7558 22.1346 52.5107 22.5444 52.2656C22.6384 52.2088 22.6797 52.1342 22.6785 52.0256C22.6747 51.7527 22.6835 51.4798 22.676 51.2082C22.671 51.049 22.7324 50.9454 22.8639 50.8583C23.1534 50.6675 23.4354 50.4666 23.7174 50.2658C23.8414 50.1773 23.8402 50.1495 23.7161 50.0662C23.478 49.9044 23.2399 49.7415 22.9955 49.5899C22.8652 49.5078 22.8126 49.4092 22.8138 49.2538C22.8201 48.5148 22.8151 47.7745 22.8188 47.0342C22.8188 46.88 22.8088 46.7486 22.6747 46.6299C22.5206 46.4922 22.5369 46.2054 22.6735 46.0702C22.7925 45.9528 23.077 45.9426 23.2048 46.0513C23.3477 46.1726 23.3627 46.4227 23.2349 46.5983C23.2161 46.6261 23.186 46.6476 23.171 46.6766C23.1409 46.736 23.0958 46.7979 23.0958 46.8598C23.0908 47.6342 23.0908 48.4087 23.0983 49.1818C23.0983 49.2437 23.1434 49.3296 23.1948 49.3599C23.4667 49.5229 23.7437 49.6783 24.0282 49.8185C24.0908 49.8501 24.2074 49.8388 24.2663 49.7983C24.5044 49.6366 24.7349 49.4623 24.9568 49.2804C25.0169 49.2311 25.0683 49.1363 25.0695 49.0618C25.0796 48.5312 25.0783 48.0006 25.0721 47.47C25.0721 47.4056 25.037 47.3159 24.9881 47.283C24.8678 47.2047 24.8415 47.1024 24.8427 46.9723C24.8452 46.3204 24.8452 45.6672 24.8452 45.0154C24.8452 44.961 24.8527 44.9029 24.834 44.8562C24.8214 44.8221 24.7688 44.7791 24.7375 44.7816C24.5319 44.7993 24.4066 44.9421 24.4066 45.148C24.4066 45.9035 24.4104 46.6577 24.4054 47.4132C24.4054 47.5698 24.4417 47.6949 24.5695 47.7959C24.6786 47.8819 24.76 47.9905 24.7575 48.1421C24.755 48.3556 24.5896 48.5603 24.369 48.6171C24.171 48.6689 23.9329 48.5489 23.8214 48.3417C23.7161 48.1446 23.7525 47.9008 23.9467 47.7656C24.1071 47.6545 24.1384 47.5205 24.1372 47.3437C24.1309 46.5591 24.1384 45.7759 24.1347 44.9914C24.1334 44.8435 24.1798 44.7425 24.3101 44.6679C24.453 44.5846 24.5933 44.4936 24.7237 44.3913C24.7788 44.3483 24.8365 44.2687 24.8377 44.2043C24.8465 43.6964 24.8452 43.1886 24.8415 42.6807H24.4066C24.4054 43.0837 24.4016 43.4855 24.4079 43.8885C24.4104 44.0363 24.3577 44.1373 24.2299 44.2119C24.1121 44.2814 24.0056 44.3685 23.8878 44.4368C23.7449 44.5201 23.6885 44.6326 23.6961 44.7981C23.7073 45.0507 23.7048 45.3047 23.6948 45.5573C23.6923 45.6255 23.6522 45.738 23.6096 45.7481C23.5394 45.7658 23.4367 45.7367 23.3765 45.69C23.2499 45.594 23.1133 45.5207 22.9592 45.5472C22.79 45.5763 22.6283 45.6458 22.4604 45.6925C22.3627 45.719 22.2499 45.7683 22.1647 45.7418C22.1171 45.7266 22.097 45.5763 22.0932 45.4853C22.0845 45.2377 22.0907 44.9888 22.0907 44.7412V42.6807C22.092 37.0993 22.0895 31.5167 22.0907 25.9353C22.0907 25.6826 22.1033 25.4287 22.0907 25.1773C22.0669 24.6821 22.3364 24.5962 22.7637 24.6C24.9781 24.6202 27.1924 24.6202 29.4068 24.6214C35.5687 24.6227 41.7319 24.6227 47.895 24.6214C57.8327 24.6189 66.6652 30.693 69.9022 40.1692C72.8534 48.8066 71.2857 56.7492 65.2754 63.6583Z" fill="#FA9705"/>
<path d="M58.5368 39.6589C58.4253 39.9028 58.3651 40.0695 58.2761 40.2198C57.3751 41.7598 56.459 43.2897 55.5755 44.8386C55.3625 45.2125 55.1256 45.378 54.6895 45.3767C49.0076 45.3654 43.3257 45.3616 37.6438 45.3843C36.9984 45.3869 36.8204 45.1746 36.8392 44.5455C36.8818 43.1571 36.8718 41.7649 36.843 40.3752C36.8317 39.8131 37.0021 39.5857 37.5899 39.5869C44.3583 39.5996 51.1267 39.5932 57.8952 39.5945C58.0744 39.5958 58.2536 39.6299 58.5368 39.6589Z" fill="#FA9705"/>
</g>
<defs>
<filter id="filter0_dd_486_198" x="0" y="0" width="99" height="103" filterUnits="userSpaceOnUse" color-interpolation-filters="sRGB">
<feFlood flood-opacity="0" result="BackgroundImageFix"/>
<feColorMatrix in="SourceAlpha" type="matrix" values="0 0 0 0 0 0 0 0 0 0 0 0 0 0 0 0 0 0 127 0" result="hardAlpha"/>
<feOffset dx="4" dy="6"/>
<feGaussianBlur stdDeviation="5"/>
<feColorMatrix type="matrix" values="0 0 0 0 0 0 0 0 0 0 0 0 0 0 0 0 0 0 0.5 0"/>
<feBlend mode="normal" in2="BackgroundImageFix" result="effect1_dropShadow_486_198"/>
<feColorMatrix in="SourceAlpha" type="matrix" values="0 0 0 0 0 0 0 0 0 0 0 0 0 0 0 0 0 0 127 0" result="hardAlpha"/>
<feOffset dx="-1" dy="-3"/>
<feGaussianBlur stdDeviation="3"/>
<feColorMatrix type="matrix" values="0 0 0 0 0.380392 0 0 0 0 0.4 0 0 0 0 0.419608 0 0 0 0.5 0"/>
<feBlend mode="normal" in2="effect1_dropShadow_486_198" result="effect2_dropShadow_486_198"/>
<feBlend mode="normal" in="SourceGraphic" in2="effect2_dropShadow_486_198" result="shape"/>
</filter>
<clipPath id="clip0_486_198">
<rect width="50.7" height="46.8" fill="white" transform="translate(20.6504 24.6001)"/>
</clipPath>
</defs>
</svg>
