<svg width="26" height="27" viewBox="0 0 26 27" fill="none" xmlns="http://www.w3.org/2000/svg">
<path d="M22.9503 3.60435C22.0707 3.60435 21.1909 3.60725 20.3113 3.60145C20.1677 3.60058 20.1199 3.6377 20.1207 3.78793C20.1271 4.75945 20.1274 5.73096 20.1205 6.70248C20.1193 6.85474 20.17 6.88751 20.3116 6.88722C22.0371 6.88316 23.7626 6.89186 25.4882 6.8791C25.884 6.8762 26.134 7.06847 25.8971 7.53016C25.1845 8.91929 24.0944 9.85195 22.5988 10.2904C21.7059 10.5523 20.7979 10.561 19.8937 10.3247C19.7951 10.2988 19.7423 10.3374 19.6814 10.4006C18.9201 11.1964 18.1577 11.991 17.395 12.7854C16.7863 13.4193 16.1784 14.0541 15.5656 14.6846C15.4685 14.7844 15.4209 14.8928 15.4035 15.028C15.2017 16.5928 14.5173 17.9103 13.3569 18.977C12.6334 19.6423 11.7877 20.0932 10.8414 20.3519C10.6144 20.414 10.376 20.434 10.1463 20.4888C10.0491 20.512 9.9398 20.5549 9.87281 20.6242C8.40016 22.1496 6.93679 23.6844 5.4624 25.2083C4.59702 26.1024 3.53937 26.4206 2.3402 26.0934C1.05721 25.7434 0.282894 24.8725 0.0520494 23.5637C-0.147185 22.435 0.233593 21.4852 1.05634 20.7005C2.06991 19.7336 3.07826 18.7615 4.09299 17.7961C4.1855 17.7079 4.15708 17.643 4.10575 17.5597C3.77775 17.0264 3.53734 16.456 3.37842 15.8496C3.16787 15.0454 3.11596 14.2328 3.21166 13.4074C3.33347 12.3564 3.68785 11.3919 4.28526 10.521C5.08713 9.35198 6.15406 8.51299 7.51303 8.10089C9.4842 7.5029 11.3101 7.84105 12.9669 9.06748C13.0568 9.13389 13.109 9.14056 13.1951 9.05733C14.1086 8.17455 15.0259 7.29613 15.9444 6.41857C16.0143 6.35158 16.0378 6.28807 16.0212 6.18946C15.7718 4.71275 16.0653 3.35582 16.9533 2.14417C17.6743 1.16047 18.6327 0.50912 19.8104 0.185763C20.6622 -0.0482717 21.5218 -0.0604522 22.377 0.145162C23.6617 0.454308 24.6956 1.15061 25.4569 2.23378C25.6306 2.48116 25.7558 2.76188 25.9177 3.01825C26.1213 3.34045 25.9284 3.61711 25.5465 3.60928C24.6808 3.59217 23.8154 3.60435 22.9503 3.60435ZM14.9351 14.1374C14.9061 13.8665 14.8908 13.4976 14.8241 13.138C14.6321 12.1018 14.193 11.1784 13.5031 10.3774C11.9316 8.55185 9.41373 7.92544 7.21403 8.88681C5.22256 9.75712 4.11039 11.3397 3.7969 13.4741C3.64087 14.5364 3.78529 15.5787 4.2261 16.5627C5.07582 18.4596 6.51628 19.6318 8.58054 19.9543C10.0007 20.1762 11.3243 19.8421 12.4898 18.9979C14.104 17.8288 14.8725 16.2095 14.9351 14.1374Z" fill="#6E7887"/>
<path d="M11.1288 16.3919C11.1862 16.3145 11.232 16.2487 11.2822 16.1863C11.7706 15.5758 12.2569 14.9639 12.7505 14.3575C12.836 14.2525 12.8398 14.1858 12.7543 14.0751C12.2294 13.3956 11.7131 12.7088 11.1946 12.0244C11.1746 11.998 11.1595 11.9682 11.1314 11.9226C11.192 11.9163 11.2378 11.9073 11.2839 11.907C11.569 11.9058 11.8544 11.8997 12.1389 11.911C12.2088 11.9136 12.2992 11.9566 12.3413 12.0108C12.8793 12.7051 13.4091 13.4051 13.9436 14.102C13.999 14.1742 14.008 14.2247 13.9456 14.3024C13.4074 14.9718 12.8749 15.646 12.3367 16.3154C12.2992 16.362 12.2296 16.4087 12.1737 16.4105C11.8552 16.4189 11.5362 16.4145 11.2172 16.4134C11.1952 16.4131 11.1729 16.4029 11.1288 16.3919Z" fill="#6E7887"/>
<path d="M7.58713 11.9355C7.54508 11.9927 7.51115 12.0423 7.47374 12.0893C6.97377 12.7148 6.47583 13.3424 5.97006 13.9633C5.88567 14.0671 5.88973 14.1341 5.96803 14.2359C6.4767 14.8974 6.97986 15.5632 7.48418 16.2282C7.52043 16.2764 7.5503 16.3291 7.60598 16.415C7.49056 16.415 7.41081 16.415 7.33106 16.415C7.08484 16.415 6.83805 16.4222 6.59241 16.4103C6.52252 16.4069 6.43262 16.3648 6.39057 16.3103C5.85 15.6125 5.31726 14.9084 4.7793 14.2083C4.72071 14.1321 4.72477 14.0799 4.78307 14.0071C5.32045 13.3371 5.85406 12.664 6.39173 11.9944C6.42421 11.9541 6.48337 11.9115 6.53093 11.9103C6.85922 11.9034 7.18779 11.9071 7.51608 11.9086C7.53319 11.9086 7.55059 11.921 7.58713 11.9355Z" fill="#6E7887"/>
<path d="M10.5737 11.9107C10.4824 12.2202 10.4015 12.4965 10.3194 12.7726C10.0857 13.5574 9.85104 14.3416 9.6173 15.1263C9.50188 15.5141 9.38704 15.9018 9.2719 16.2898C9.2458 16.3777 9.1994 16.4221 9.09587 16.4189C8.82703 16.4107 8.55791 16.4163 8.25195 16.4163C8.31314 16.2017 8.36447 16.0143 8.41987 15.8278C8.6713 14.9831 8.92361 14.1386 9.17591 13.2943C9.30409 12.8651 9.4317 12.4359 9.56423 12.0079C9.57583 11.9702 9.62136 11.9159 9.65239 11.9151C9.94936 11.9078 10.2472 11.9107 10.5737 11.9107Z" fill="#6E7887"/>
</svg>
