<svg width="13" height="14" viewBox="0 0 13 14" fill="none" xmlns="http://www.w3.org/2000/svg">
<path d="M12.8351 3.83317C12.8351 3.83317 12.8351 3.0415 12.0435 2.24984C11.2518 1.45817 10.5393 1.45817 10.5393 1.45817L9.66846 2.329V0.666504H0.168457V13.3332H9.66846V6.99984L12.8351 3.83317ZM5.15596 9.6915L4.68096 9.2165L4.91846 8.34567L6.10596 9.53317L5.15596 9.6915ZM5.86846 8.18734L5.39346 7.71234L9.51012 3.59567C9.66846 3.67484 9.82679 3.83317 9.98512 3.9915L5.86846 8.18734ZM11.331 2.64567L10.6185 3.43734C10.4601 3.279 10.3018 3.19984 10.1435 3.0415L10.856 2.329C10.9351 2.40817 11.0935 2.48734 11.331 2.64567ZM8.87679 12.5415H0.960124V1.45817H8.87679V3.12067L4.20596 7.7915L3.33512 11.0373L6.58096 10.1665L8.87679 7.7915V12.5415Z" fill="#65676B"/>
</svg>
