<svg width="24" height="24" viewBox="0 0 24 24" fill="none" xmlns="http://www.w3.org/2000/svg">
<path fill-rule="evenodd" clip-rule="evenodd" d="M5.99979 0H22.8001C23.4628 0 24 0.537175 24 1.19994V22.8001C24 23.4628 23.4628 24 22.8001 24H1.19994C0.537175 24 0 23.4628 0 22.8001V1.19994C0 0.537175 0.537175 0 1.19994 0H5.99979ZM4.79986 1.19994H1.19984V22.8001H4.79986V1.19994ZM5.99979 22.8001V1.19994H22.8001V22.8001H5.99979Z" fill="#6D7884"/>
<rect x="1.42969" y="2.28613" width="2.85714" height="0.857143" rx="0.428571" fill="#6D7884"/>
<rect x="1.42969" y="4" width="2.85714" height="0.857143" rx="0.428571" fill="#6D7884"/>
<rect x="1.42969" y="5.71387" width="2.85714" height="0.857143" rx="0.428571" fill="#6D7884"/>
<rect x="1.42969" y="7.42871" width="2.85714" height="0.857143" rx="0.428571" fill="#6D7884"/>
<rect x="1.42969" y="9.14258" width="2.85714" height="0.857143" rx="0.428571" fill="#6D7884"/>
<rect x="1.42969" y="10.8574" width="2.85714" height="0.857143" rx="0.428571" fill="#6D7884"/>
<rect x="7" y="2" width="15" height="20" rx="0.5" fill="#6D7884"/>
<path d="M19.9535 12.5886L15.1535 15.6496C14.8572 15.8009 14.4968 15.6783 14.3485 15.376C14.2005 15.0734 14.3206 14.7057 14.6169 14.5546L19.4167 11.4934C19.7132 11.3423 20.0736 11.4649 20.2216 11.7673C20.3699 12.0696 20.2498 12.4374 19.9535 12.5886Z" fill="white"/>
<path d="M19.4167 12.5108L14.6169 9.65394C14.3206 9.51275 14.2005 9.16954 14.3485 8.88737C14.4968 8.60499 14.8572 8.49059 15.1535 8.63177L19.9535 11.4886C20.2498 11.6298 20.3699 11.973 20.2216 12.2552C20.0736 12.5376 19.7132 12.652 19.4167 12.5108Z" fill="white"/>
</svg>
