<svg width="20" height="20" viewBox="0 0 20 20" fill="none" xmlns="http://www.w3.org/2000/svg">
<path d="M10.0007 5.83398C4.41732 5.83398 3.33398 10.084 3.33398 10.084C3.33398 10.084 5.16732 13.5007 9.91732 13.5007C14.6673 13.5007 16.6673 10.1673 16.6673 10.1673C16.6673 10.1673 15.584 5.83398 10.0007 5.83398V5.83398ZM7.75065 7.08398C8.16732 6.83398 8.83398 6.83398 8.83398 6.83398C8.83398 6.83398 8.41732 7.58398 8.41732 8.16732C8.41732 8.75065 8.58398 9.08398 8.58398 9.08398L7.66732 9.25065C7.66732 9.25065 7.41732 8.83398 7.41732 8.25065C7.41732 7.58398 7.75065 7.08398 7.75065 7.08398ZM9.91732 12.6673C6.50065 12.6673 4.75065 10.7507 4.25065 10.0007C4.50065 9.41732 5.16732 8.16732 6.83398 7.33398C6.75065 7.66732 6.66732 8.00065 6.66732 8.41732C6.66732 10.2507 8.16732 11.7507 10.0007 11.7507C11.834 11.7507 13.334 10.2507 13.334 8.41732C13.334 8.00065 13.2507 7.66732 13.1673 7.33398C14.834 8.08398 15.5006 9.41732 15.7506 10.0007C15.1673 10.7507 13.4173 12.6673 9.91732 12.6673V12.6673Z" fill="#5664D2"/>
</svg>
