<svg width="55" height="31" viewBox="0 0 55 31" fill="none" xmlns="http://www.w3.org/2000/svg">
<rect x="12" y="1.5" width="29.5" height="29.5" rx="14.75" fill="#5664D2"/>
<path d="M21.4399 10.9414C20.9705 10.9414 20.5203 11.1279 20.1883 11.4598C19.8564 11.7918 19.6699 12.242 19.6699 12.7114V13.5964H33.8299V12.7114C33.8299 12.242 33.6434 11.7918 33.3115 11.4598C32.9796 11.1279 32.5294 10.9414 32.0599 10.9414H21.4399Z" fill="white"/>
<path fill-rule="evenodd" clip-rule="evenodd" d="M33.8299 15.3652H19.6699V19.7902C19.6699 20.2597 19.8564 20.7099 20.1883 21.0418C20.5203 21.3738 20.9705 21.5602 21.4399 21.5602H32.0599C32.5294 21.5602 32.9796 21.3738 33.3115 21.0418C33.6434 20.7099 33.8299 20.2597 33.8299 19.7902V15.3652ZM21.4399 18.9052C21.4399 18.6705 21.5332 18.4454 21.6991 18.2794C21.8651 18.1135 22.0902 18.0202 22.3249 18.0202H23.2099C23.4446 18.0202 23.6697 18.1135 23.8357 18.2794C24.0017 18.4454 24.0949 18.6705 24.0949 18.9052C24.0949 19.14 24.0017 19.3651 23.8357 19.531C23.6697 19.697 23.4446 19.7902 23.2099 19.7902H22.3249C22.0902 19.7902 21.8651 19.697 21.6991 19.531C21.5332 19.3651 21.4399 19.14 21.4399 18.9052ZM25.8649 18.0202C25.6302 18.0202 25.4051 18.1135 25.2391 18.2794C25.0732 18.4454 24.9799 18.6705 24.9799 18.9052C24.9799 19.14 25.0732 19.3651 25.2391 19.531C25.4051 19.697 25.6302 19.7902 25.8649 19.7902H26.7499C26.9846 19.7902 27.2097 19.697 27.3757 19.531C27.5417 19.3651 27.6349 19.14 27.6349 18.9052C27.6349 18.6705 27.5417 18.4454 27.3757 18.2794C27.2097 18.1135 26.9846 18.0202 26.7499 18.0202H25.8649Z" fill="white"/>
<rect x="12.2422" y="1.4043" width="29.5" height="29.5" rx="14.75" fill="#5664D2"/>
<path d="M27.9733 22.5039C27.81 22.4172 27.6674 22.3419 27.525 22.2661C27.1568 22.0696 26.7902 21.87 26.4192 21.6784C26.342 21.6385 26.3191 21.5926 26.3196 21.5093C26.3227 20.8512 26.3169 20.1931 26.3239 19.5351C26.3261 19.3355 26.2652 19.1766 26.1336 19.0284C25.1974 17.9747 24.2661 16.9167 23.3307 15.8626C23.2666 15.7902 23.241 15.7193 23.2422 15.6235C23.2473 15.2701 23.2442 14.9166 23.2442 14.5632C23.2442 14.5191 23.2442 14.475 23.2442 14.4238C25.8487 14.4238 28.4427 14.4238 31.0503 14.4238C31.0503 14.4728 31.0503 14.5162 31.0503 14.5596C31.0503 14.921 31.0542 15.2827 31.0469 15.6442C31.0455 15.7129 31.0155 15.7955 30.9704 15.847C30.0362 16.913 29.099 17.9769 28.159 19.0376C28.0305 19.1824 27.9691 19.3357 27.9706 19.5324C27.9772 20.4708 27.9735 21.4091 27.9735 22.3475C27.9733 22.3918 27.9733 22.4362 27.9733 22.5039Z" fill="white"/>
<path d="M24.7387 13.8145C24.2391 13.8145 23.7489 13.8145 23.252 13.8145C23.252 12.1773 23.252 10.5461 23.252 8.9043C23.7431 8.9043 24.2361 8.9043 24.7387 8.9043C24.7387 10.5363 24.7387 12.1705 24.7387 13.8145Z" fill="white"/>
<path d="M25.3496 10.207C25.8524 10.207 26.346 10.207 26.8456 10.207C26.8456 11.4098 26.8456 12.6058 26.8456 13.8108C26.3479 13.8108 25.8519 13.8108 25.3496 13.8108C25.3496 12.6119 25.3496 11.4157 25.3496 10.207Z" fill="white"/>
<path d="M28.944 13.8177C28.4434 13.8177 27.9533 13.8177 27.4531 13.8177C27.4531 13.0597 27.4531 12.3036 27.4531 11.5371C27.9457 11.5371 28.4412 11.5371 28.944 11.5371C28.944 12.2932 28.944 13.0495 28.944 13.8177Z" fill="white"/>
<path d="M31.0453 12.8223C31.0453 13.1579 31.0453 13.4813 31.0453 13.8121C30.5474 13.8121 30.0543 13.8121 29.5547 13.8121C29.5547 13.4816 29.5547 13.1545 29.5547 12.8223C30.0521 12.8223 30.5423 12.8223 31.0453 12.8223Z" fill="white"/>
<rect x="12.2422" y="0.904297" width="29.5" height="29.5" rx="14.75" fill="#5664D2"/>
<path d="M20 13H34V15L28 20V27L26 25V20L20 15V13Z" fill="white"/>
<path d="M20 11H34V12H20V11Z" fill="white"/>
</svg>
