<svg width="47" height="47" viewBox="0 0 47 47" fill="none" xmlns="http://www.w3.org/2000/svg">
<path d="M18.3836 21.0762C19.8555 22.5481 21.3226 24.0152 22.8009 25.4935C22.7576 25.5389 22.6936 25.6092 22.6265 25.6757C19.4952 28.8076 16.3633 31.9395 13.2314 35.0714C12.7638 35.539 12.4838 35.5363 12.012 35.064C10.9168 33.9678 9.82054 32.872 8.72586 31.7752C8.37082 31.4197 8.36026 31.0942 8.70684 30.7471C11.9116 27.5391 15.1191 24.3333 18.3255 21.1269C18.3492 21.1021 18.3778 21.0809 18.3836 21.0762Z" fill="#1c2e45" fill-opacity="0.6"/>
<path d="M23.7632 24.5397C22.2802 23.0567 20.8188 21.5953 19.3438 20.1192C19.6993 19.7647 20.0723 19.3927 20.4448 19.0203C21.0613 18.4043 21.6763 17.7866 22.2939 17.1717C22.6923 16.7749 23.0082 16.7723 23.4065 17.1712C24.5329 18.2981 25.6567 19.4276 26.7794 20.5582C27.0646 20.8451 27.0958 21.2001 26.8274 21.4722C25.8072 22.5056 24.7754 23.5279 23.7632 24.5397Z" fill="#1c2e45" fill-opacity="0.6"/>
<path d="M29.7287 14.1479C30.7505 14.1479 31.7353 14.1411 32.7195 14.1543C32.8939 14.1569 33.0883 14.2098 33.2352 14.3012C33.4613 14.4422 33.5231 14.7301 33.437 14.9806C33.3445 15.249 33.1263 15.4048 32.8062 15.4064C31.9086 15.4106 31.0104 15.408 30.1128 15.408C29.9992 15.408 29.8851 15.408 29.7292 15.408C29.7292 15.5121 29.7292 15.6045 29.7292 15.6964C29.7292 16.5592 29.7292 17.4219 29.7292 18.2847C29.7292 18.3729 29.7319 18.4612 29.7234 18.5483C29.6864 18.9229 29.4054 19.1791 29.0604 19.158C28.7265 19.1374 28.4729 18.8643 28.4713 18.5024C28.4671 17.5783 28.4697 16.6538 28.4697 15.7297C28.4697 15.6341 28.4697 15.539 28.4697 15.408C28.3593 15.408 28.2658 15.408 28.1728 15.408C27.2398 15.408 26.3068 15.4112 25.3737 15.4059C25.0525 15.4043 24.8264 15.2289 24.7429 14.9431C24.6716 14.6985 24.7593 14.4073 24.9902 14.2753C25.1275 14.1971 25.3035 14.1553 25.463 14.1532C26.3606 14.1421 27.2588 14.1479 28.1564 14.1479C28.2515 14.1479 28.3461 14.1479 28.4697 14.1479C28.4697 14.0296 28.4697 13.9356 28.4697 13.8415C28.4697 12.9349 28.4687 12.0283 28.4702 11.1217C28.4708 10.6938 28.7328 10.3984 29.1037 10.3984C29.4703 10.3984 29.7282 10.6964 29.7292 11.1312C29.7313 12.0288 29.7298 12.927 29.7298 13.8246C29.7287 13.9202 29.7287 14.0159 29.7287 14.1479Z" fill="#1c2e45" fill-opacity="0.6"/>
<path d="M30.9661 27.9251C30.9661 28.6298 30.9693 29.2966 30.9651 29.9633C30.9624 30.3406 30.7469 30.5963 30.423 30.6243C30.0315 30.6575 29.7378 30.4034 29.732 30.0056C29.7235 29.4165 29.7293 28.8269 29.7288 28.2373C29.7288 28.1427 29.7288 28.0482 29.7288 27.9251C29.2015 27.9251 28.7028 27.9251 28.2041 27.9251C28.09 27.9251 27.9748 27.9298 27.8612 27.9219C27.4856 27.8965 27.2177 27.6281 27.2188 27.2842C27.2198 26.9413 27.494 26.6724 27.8733 26.6661C28.3832 26.6571 28.8935 26.6634 29.4039 26.6634C29.4995 26.6634 29.5951 26.6634 29.7283 26.6634C29.7283 26.3068 29.7283 25.9671 29.7283 25.6274C29.7283 25.4161 29.723 25.2047 29.7315 24.9939C29.7457 24.6289 30.002 24.3827 30.3543 24.3848C30.6967 24.3869 30.9498 24.6236 30.9593 24.9791C30.9714 25.4361 30.9646 25.8937 30.9656 26.3512C30.9656 26.4458 30.9656 26.5409 30.9656 26.6629C31.5901 26.6629 32.1855 26.665 32.7809 26.6618C33.0382 26.6603 33.248 26.7485 33.3816 26.972C33.6437 27.41 33.3468 27.9018 32.7984 27.9203C32.3239 27.9362 31.8484 27.924 31.3735 27.9245C31.252 27.9251 31.1299 27.9251 30.9661 27.9251Z" fill="#1c2e45" fill-opacity="0.6"/>
<path d="M19.0691 15.4066C18.6734 15.4066 18.2777 15.4092 17.8819 15.4055C17.4868 15.4018 17.2152 15.1456 17.211 14.7816C17.2073 14.4223 17.4783 14.1518 17.8751 14.1481C18.6839 14.1407 19.4933 14.1407 20.3022 14.1481C20.6931 14.1513 20.9658 14.4271 20.961 14.7879C20.9562 15.1461 20.6794 15.4024 20.2826 15.4061C19.8785 15.4098 19.4738 15.4066 19.0691 15.4066Z" fill="#1c2e45" fill-opacity="0.6"/>
<path d="M24.0855 30.4134C23.6813 30.4134 23.2771 30.4166 22.8725 30.4129C22.4968 30.4092 22.2432 30.1751 22.2274 29.8264C22.2115 29.4688 22.4292 29.1824 22.8017 29.1729C23.6623 29.1507 24.524 29.1512 25.3846 29.1713C25.7444 29.1798 25.9943 29.4915 25.9763 29.8217C25.9579 30.1566 25.6847 30.4081 25.3239 30.4123C24.9112 30.4171 24.4981 30.4134 24.0855 30.4134Z" fill="#1c2e45" fill-opacity="0.6"/>
</svg>
