<svg width="150" height="150" viewBox="0 0 150 150" fill="none" xmlns="http://www.w3.org/2000/svg">
<path d="M96.5361 121.061C102.178 121.061 107.819 121.061 113.461 121.061C111.969 120.683 110.631 120.047 109.501 118.995C107.823 117.435 106.966 115.503 106.961 113.223C106.947 105.458 106.955 97.6944 106.955 89.9296C106.955 71.0562 106.979 52.1816 106.935 33.3082C106.927 29.6157 109.329 26.1191 113.203 25.3235C113.803 25.2005 114.425 25.1408 115.037 25.1372C118.441 25.1192 121.846 25.124 125.251 25.13C129.5 25.136 132.698 27.8847 133.322 32.0754C133.387 32.5054 133.369 32.9498 133.369 33.387C133.371 59.8855 133.355 86.3852 133.389 112.884C133.394 116.575 131.172 119.569 128.075 120.652C127.685 120.788 127.278 120.872 126.861 121.067C127.053 121.077 127.246 121.097 127.438 121.097C129.947 121.099 132.455 121.077 134.963 121.116C135.474 121.124 136.041 121.253 136.479 121.506C137.181 121.912 137.432 122.789 137.219 123.543C136.995 124.342 136.336 124.901 135.507 124.983C135.271 125.005 135.03 124.999 134.792 124.999C94.6952 125 54.5987 125 14.5021 124.993C14.072 124.993 13.6145 124.967 13.2155 124.824C12.3614 124.519 11.8895 123.641 12.0221 122.774C12.1595 121.885 12.8356 121.23 13.7376 121.131C13.9944 121.103 14.2536 121.099 14.5117 121.099C16.8805 121.097 19.2494 121.098 21.6195 121.098C21.825 121.098 22.0304 121.098 22.2036 121.098C21.2396 120.638 20.2051 120.3 19.3474 119.706C17.0311 118.101 15.9189 115.821 15.9201 112.991C15.9249 97.5415 15.9225 82.093 15.9225 66.6434C15.9225 55.4548 15.9069 44.2662 15.932 33.0764C15.9392 29.7662 17.5173 27.3579 20.4655 25.8778C21.543 25.3367 22.7257 25.1324 23.9334 25.13C27.338 25.1252 30.7426 25.1623 34.146 25.1204C38.824 25.0631 42.3959 28.6768 42.3338 33.141C42.3326 33.2198 42.3338 33.2986 42.3338 33.5172C42.4329 33.3058 42.4867 33.2186 42.5165 33.123C43.4698 30.0816 45.546 28.261 48.6173 27.5395C51.9395 26.7594 55.264 25.9853 58.591 25.2256C63.1137 24.1934 67.2124 26.7869 68.2469 31.2953C69.684 37.561 71.1414 43.823 72.5845 50.0875C72.6418 50.3359 72.6753 50.5964 72.6753 50.852C72.68 62.7179 72.6788 74.5838 72.6788 86.4497C72.6788 86.6062 72.6788 86.7627 72.6788 87.0004C71.8247 86.476 71.004 86.6301 70.1559 86.8416C68.2696 87.311 66.3678 87.722 64.478 88.1783C63.2702 88.4698 62.6335 89.4577 62.8939 90.5723C63.1412 91.6343 64.1769 92.2519 65.3548 91.9867C67.523 91.4969 69.684 90.9796 71.845 90.4636C72.1102 90.4003 72.3611 90.2832 72.6777 90.1697C72.6777 91.4826 72.6896 92.7691 72.6585 94.0545C72.655 94.1776 72.3993 94.3627 72.2321 94.4033C70.2467 94.8872 68.2529 95.3387 66.2663 95.8189C65.0167 96.1212 64.3884 97.1115 64.6822 98.2535C64.9546 99.3119 65.9808 99.8555 67.1837 99.5795C68.9804 99.1686 70.7782 98.7564 72.6777 98.3216C72.6777 98.5928 72.6777 98.8186 72.6777 99.0431C72.6777 103.523 72.7039 108.003 72.6681 112.481C72.6466 115.095 73.2033 117.524 74.6475 119.724C74.6786 119.771 74.6858 119.833 74.7228 119.946C73.312 120.283 71.9155 120.616 70.519 120.95C70.5214 120.979 70.5238 121.011 70.5274 121.04C74.7156 121.04 78.9039 121.04 83.1256 121.04C82.4674 120.807 81.8079 120.644 81.2118 120.352C78.2457 118.9 76.6258 116.506 76.6222 113.198C76.5983 86.4605 76.6055 59.7231 76.6126 32.9845C76.6138 28.7508 79.936 25.2602 84.1768 25.1575C87.9374 25.0655 91.704 25.0667 95.4645 25.1575C99.6647 25.259 102.921 28.6624 103.017 32.8746C103.02 33.0537 103.023 33.2329 103.023 33.4121C103.023 59.8915 103.017 86.3697 103.031 112.849C103.032 115.679 101.975 117.942 99.7065 119.626C98.7592 120.332 97.6757 120.755 96.5361 121.061ZM42.446 37.113C42.409 37.119 42.372 37.1261 42.3338 37.1321C42.3338 37.3507 42.3338 37.5693 42.3338 37.7867C42.3338 60.6393 42.3338 83.4919 42.3338 106.343C42.3338 108.733 42.3565 111.122 42.3194 113.51C42.2908 115.367 41.6027 116.996 40.3842 118.391C39.1753 119.774 37.6462 120.621 35.8579 121.017C45.8901 121.017 55.9223 121.017 65.9545 121.017C65.8434 120.899 65.7191 120.852 65.5949 120.805C63.0134 119.833 61.335 118.019 60.6146 115.36C60.2467 114.002 59.9624 112.621 59.6434 111.248C56.952 99.6536 54.2594 88.0588 51.5716 76.4629C48.8837 64.867 46.2019 53.2699 43.5164 41.6739C43.164 40.152 42.8032 38.6337 42.446 37.113ZM59.383 57.0233C62.3623 57.0304 64.7778 54.6604 64.7826 51.7276C64.7885 48.7101 62.3289 46.2588 59.3161 46.2791C56.4347 46.2982 54.0348 48.7328 54.0264 51.644C54.0169 54.6568 56.3679 57.0161 59.383 57.0233ZM29.2255 45.7415C26.2641 45.6555 23.8128 48.016 23.7506 51.0133C23.6897 53.9532 25.9953 56.3424 29.0009 56.4547C31.942 56.5634 34.4016 54.2196 34.5092 51.2068C34.6143 48.2717 32.2526 45.8299 29.2255 45.7415ZM120.305 45.7451C117.388 45.6328 114.935 47.9133 114.807 50.8544C114.676 53.8851 116.928 56.3137 119.999 56.4523C122.937 56.5849 125.454 54.2757 125.54 51.2474C125.632 47.9826 123.047 45.7845 120.305 45.7451ZM89.9264 45.7427C86.9865 45.6519 84.5495 47.9683 84.4516 50.9452C84.3536 53.9221 86.646 56.3352 89.6839 56.4547C92.6202 56.5693 95.0871 54.2303 95.2065 51.2164C95.3212 48.2932 92.9523 45.8359 89.9264 45.7427ZM89.8153 99.5413C90.9084 99.5413 92.0002 99.5413 93.0933 99.5413C93.1136 99.5413 93.1327 99.5413 93.153 99.5413C94.3058 99.5222 95.1575 98.7349 95.1993 97.6502C95.24 96.5656 94.3739 95.6385 93.2187 95.6254C90.9538 95.5979 88.6888 95.5979 86.4239 95.6254C85.2663 95.6397 84.4468 96.4951 84.4528 97.5834C84.4599 98.7254 85.2842 99.5293 86.4776 99.5401C87.5898 99.5485 88.7031 99.5413 89.8153 99.5413ZM120.098 99.5413C121.21 99.5413 122.324 99.5413 123.436 99.5413C123.475 99.5413 123.516 99.5413 123.555 99.5413C124.66 99.5138 125.506 98.7134 125.55 97.655C125.595 96.6002 124.746 95.6493 123.629 95.6314C121.325 95.5944 119.02 95.5944 116.716 95.6302C115.566 95.6481 114.776 96.5333 114.806 97.6371C114.836 98.7493 115.652 99.5281 116.82 99.5389C117.912 99.5485 119.005 99.5413 120.098 99.5413ZM29.0869 99.5413C30.1991 99.5413 31.3124 99.5473 32.4246 99.5401C33.6204 99.5329 34.4829 98.7337 34.5032 97.6264C34.5235 96.5249 33.6718 95.6362 32.5034 95.623C30.2588 95.5991 28.013 95.6003 25.7683 95.623C24.5845 95.635 23.7339 96.507 23.7566 97.606C23.7793 98.7397 24.6119 99.5317 25.8089 99.5401C26.902 99.5473 27.995 99.5413 29.0869 99.5413ZM120.154 79.9655C119.121 79.9655 118.088 79.9655 117.054 79.9655C117.034 79.9655 117.015 79.9655 116.995 79.9655C115.687 79.9786 114.811 80.7479 114.805 81.8888C114.798 83.081 115.665 83.8861 116.985 83.8897C119.112 83.8969 121.238 83.8969 123.364 83.8897C124.617 83.8849 125.554 83.0356 125.553 81.9294C125.552 80.81 124.634 79.9774 123.374 79.9679C122.301 79.9595 121.227 79.9655 120.154 79.9655ZM89.8093 83.8921C90.8821 83.8921 91.956 83.8993 93.0288 83.8897C94.2819 83.879 95.2137 83.0272 95.2041 81.9186C95.1946 80.7945 94.2843 79.9726 93.0168 79.9679C90.8904 79.9607 88.7641 79.9583 86.6377 79.9726C86.3068 79.975 85.9568 80.024 85.6498 80.1411C84.7705 80.4756 84.3297 81.3404 84.4922 82.314C84.6379 83.1921 85.461 83.8658 86.4704 83.8861C87.5826 83.9076 88.696 83.8909 89.8093 83.8921ZM29.1526 79.9655C28.0799 79.9655 27.0059 79.9595 25.9332 79.9667C24.6478 79.9762 23.7471 80.7862 23.7542 81.9115C23.7614 83.0642 24.6406 83.8837 25.9105 83.8885C28.0572 83.8981 30.2027 83.8981 32.3493 83.8885C33.6049 83.8825 34.5235 83.0236 34.5056 81.9055C34.4877 80.7933 33.6001 79.9798 32.372 79.9679C31.2993 79.9571 30.2265 79.9655 29.1526 79.9655ZM61.0781 82.4634C61.0662 83.7452 62.1497 84.6459 63.5163 84.3604C65.7669 83.8909 68.0056 83.3569 70.2371 82.8002C71.2919 82.5374 71.8462 81.4683 71.5786 80.4134C71.3278 79.4243 70.3028 78.7852 69.2647 79.0193C67.0404 79.5223 64.8196 80.0383 62.6024 80.5723C61.6754 80.7957 61.0865 81.5638 61.0781 82.4634ZM59.2946 74.8442C59.303 76.0544 60.3865 76.9861 61.5727 76.7496C62.778 76.5095 63.9726 76.2168 65.1708 75.9397C66.2722 75.6852 67.3796 75.4511 68.4703 75.156C69.4881 74.8801 70.0495 73.8898 69.8214 72.8923C69.592 71.8936 68.6017 71.1601 67.6472 71.368C65.3416 71.8721 63.0421 72.4025 60.7484 72.958C59.8549 73.1754 59.2886 73.971 59.2946 74.8442ZM89.8715 87.8211C88.7366 87.8211 87.6017 87.814 86.4669 87.8235C85.3081 87.8331 84.4994 88.5833 84.4587 89.6644C84.4157 90.8064 85.154 91.6677 86.3319 91.688C88.6601 91.7286 90.9908 91.7274 93.319 91.6856C94.4503 91.6653 95.2495 90.761 95.1982 89.711C95.1444 88.6096 94.3428 87.8355 93.2163 87.8235C92.1006 87.8116 90.986 87.8211 89.8715 87.8211ZM120.174 87.8223C119.018 87.8223 117.864 87.8104 116.709 87.8259C115.642 87.8402 114.849 88.6155 114.809 89.6477C114.764 90.7813 115.47 91.6546 116.603 91.6773C118.971 91.7239 121.341 91.7227 123.708 91.6797C124.799 91.6606 125.59 90.7479 125.548 89.7253C125.504 88.6275 124.695 87.8367 123.577 87.8235C122.443 87.8116 121.308 87.8211 120.174 87.8223ZM29.1574 87.8211C28.0022 87.8211 26.8482 87.8104 25.6931 87.8247C24.5976 87.8378 23.7948 88.6239 23.7602 89.6847C23.7244 90.7658 24.4495 91.6534 25.5425 91.6749C27.9305 91.7215 30.3197 91.7203 32.7077 91.6749C33.7745 91.6546 34.5235 90.7742 34.5032 89.7492C34.4817 88.6549 33.6718 87.839 32.5632 87.8247C31.4271 87.8104 30.2922 87.8211 29.1574 87.8211ZM29.0977 76.0173C30.3281 76.0173 31.5633 76.0783 32.7889 75.9982C33.827 75.9313 34.5343 75.0425 34.5032 74.0546C34.4709 73.0523 33.6825 72.1934 32.7029 72.1839C30.3185 72.1612 27.9329 72.1385 25.5509 72.209C25.085 72.2233 24.508 72.5518 24.1962 72.9174C23.2011 74.0857 23.9251 75.8561 25.4661 75.9946C26.6678 76.1033 27.8863 76.0173 29.0977 76.0173ZM89.7938 72.1719C89.7938 72.1731 89.7938 72.1743 89.7938 72.1755C88.6219 72.1755 87.4488 72.1576 86.2769 72.1815C85.2508 72.2018 84.454 73.0559 84.4552 74.0785C84.4564 75.2671 85.2997 76.046 86.6544 76.0568C88.7605 76.0735 90.8666 76.0627 92.9726 76.0591C93.1506 76.0591 93.3298 76.04 93.5054 76.0126C94.522 75.8537 95.2507 74.9972 95.1958 74.0307C95.136 72.9663 94.3333 72.1887 93.2486 72.1755C92.0982 72.1624 90.9466 72.1719 89.7938 72.1719ZM120.15 72.1731C120.15 72.1743 120.15 72.1755 120.15 72.1767C118.978 72.1767 117.805 72.1588 116.633 72.1815C115.601 72.2018 114.81 73.0416 114.805 74.0701C114.8 75.2612 115.64 76.0448 116.994 76.0568C119.02 76.0747 121.047 76.0639 123.074 76.0603C123.331 76.0603 123.591 76.0496 123.846 76.0126C124.867 75.8608 125.599 75.0055 125.549 74.0391C125.494 72.9759 124.688 72.1899 123.607 72.1767C122.454 72.1624 121.301 72.1731 120.15 72.1731Z" fill="#727D8B"/>
</svg>
