<svg width="16" height="18" viewBox="0 0 16 18" fill="none" xmlns="http://www.w3.org/2000/svg">
<path d="M7.79508 9.75C8.15384 9.75 8.44466 9.41421 8.44466 9C8.44466 8.58579 8.15384 8.25 7.79508 8.25C7.43633 8.25 7.14551 8.58579 7.14551 9C7.14551 9.41421 7.43633 9.75 7.79508 9.75Z" fill="#364A63" stroke="#364A63" stroke-linecap="round" stroke-linejoin="round"/>
<path d="M12.342 9.75C12.7007 9.75 12.9915 9.41421 12.9915 9C12.9915 8.58579 12.7007 8.25 12.342 8.25C11.9832 8.25 11.6924 8.58579 11.6924 9C11.6924 9.41421 11.9832 9.75 12.342 9.75Z" fill="#364A63" stroke="#364A63" stroke-linecap="round" stroke-linejoin="round"/>
<path d="M3.24821 9.75C3.60696 9.75 3.89779 9.41421 3.89779 9C3.89779 8.58579 3.60696 8.25 3.24821 8.25C2.88946 8.25 2.59863 8.58579 2.59863 9C2.59863 9.41421 2.88946 9.75 3.24821 9.75Z" fill="#364A63" stroke="#364A63" stroke-linecap="round" stroke-linejoin="round"/>
</svg>
