<svg width="35" height="32" viewBox="0 0 35 32" fill="none" xmlns="http://www.w3.org/2000/svg">
<g filter="url(#filter0_d_3311_80216)">
<path d="M7.15571 13.3187C8.35159 13.6435 9.51484 13.9585 10.6781 14.275C11.7922 14.5783 12.9077 14.8773 14.0188 15.1919C14.1902 15.2406 14.2784 15.2099 14.3831 15.0731C15.0521 14.1956 15.7294 13.325 16.4043 12.4525C16.4573 12.3838 16.5133 12.3181 16.5976 12.2148C16.5976 16.1662 16.5976 20.0718 16.5976 23.9992C15.9933 23.8634 15.3944 23.7305 14.796 23.5941C12.3224 23.0308 9.84984 22.4645 7.37531 21.907C7.20295 21.868 7.13721 21.8125 7.1377 21.6255C7.14403 18.9314 7.14208 16.2373 7.14257 13.5432C7.14257 13.4789 7.14987 13.4156 7.15571 13.3187Z" fill="#6E7887"/>
<path d="M26.9658 13.3231C26.9658 13.439 26.9658 13.5267 26.9658 13.6138C26.9658 16.2515 26.9624 18.8891 26.9716 21.5267C26.9726 21.7707 26.918 21.869 26.6634 21.926C23.6649 22.5941 20.6699 23.2767 17.6739 23.956C17.6354 23.9647 17.597 23.9725 17.5273 23.9881C17.5273 20.0684 17.5273 16.1663 17.5273 12.2383C17.5921 12.3172 17.6486 12.3814 17.7007 12.4491C18.376 13.3217 19.0533 14.1928 19.7229 15.0697C19.8251 15.2036 19.9103 15.2426 20.0851 15.1939C22.3308 14.5735 24.5794 13.9644 26.8275 13.3528C26.8577 13.3441 26.8893 13.3392 26.9658 13.3231Z" fill="#6E7887"/>
<path d="M30.1052 11.5206C28.9254 11.8434 27.7641 12.1633 26.6019 12.4793C24.5349 13.0413 22.4669 13.6002 20.401 14.1651C20.2826 14.1972 20.2013 14.2176 20.1098 14.0984C19.3059 13.049 18.4947 12.0051 17.6859 10.9592C17.6664 10.9343 17.6542 10.9042 17.6348 10.8701C17.8972 10.5263 18.1538 10.1821 18.4216 9.84608C18.4713 9.78376 18.5594 9.73653 18.6388 9.71461C21.3509 8.96963 24.064 8.22854 26.7767 7.48598C26.8891 7.45531 26.9709 7.43583 27.0644 7.55805C28.0548 8.85277 29.054 10.1402 30.0502 11.43C30.0648 11.448 30.0751 11.47 30.1052 11.5206Z" fill="#6E7887"/>
<path d="M16.4807 10.881C15.9466 11.5719 15.4163 12.2575 14.886 12.9431C14.5934 13.3214 14.3056 13.7041 14.0028 14.0742C13.9526 14.1351 13.8241 14.1862 13.752 14.1672C10.5447 13.3015 7.33929 12.4274 4.1339 11.5539C4.09495 11.5432 4.05843 11.5252 4 11.5028C4.42459 10.9531 4.8448 10.4092 5.26502 9.86528C5.85516 9.10179 6.44725 8.33976 7.03253 7.57287C7.11336 7.46721 7.18055 7.44237 7.31202 7.47841C10.0319 8.22631 12.7538 8.96789 15.4742 9.71385C15.5468 9.73381 15.6296 9.77277 15.6739 9.82876C15.9451 10.1716 16.2071 10.5221 16.4807 10.881Z" fill="#6E7887"/>
<path d="M14.3496 3.83523C14.9709 3.83523 15.5421 3.83523 16.1429 3.83523C16.1429 1.88269 16.1429 1.95011 16.1429 0C16.7584 0 17.3442 0 17.9504 0C17.9504 1.93599 17.9504 1.8637 17.9504 3.81818C18.5478 3.81818 19.1263 3.81818 19.769 3.81818C18.8507 5.19519 17.9645 6.52399 17.0544 7.88882C16.1473 6.52935 15.2606 5.20103 14.3496 3.83523Z" fill="#6E7887"/>
<path d="M8.80028 6.91219C10.5839 6.34298 12.367 5.77377 14.1788 5.19531C15.0416 6.48906 15.9073 7.78718 16.8111 9.14179C14.1009 8.40313 11.4486 7.68006 8.79688 6.95747C8.79785 6.94238 8.79882 6.92728 8.80028 6.91219Z" fill="#6E7887"/>
<path d="M25.3028 6.95845C22.6534 7.68055 20.0036 8.40314 17.2949 9.14131C18.1894 7.79985 19.0503 6.50805 19.9243 5.19727C21.7171 5.7694 23.5065 6.34006 25.2955 6.91122C25.2979 6.9268 25.3003 6.94287 25.3028 6.95845Z" fill="#6E7887"/>
</g>
<defs>
<filter id="filter0_d_3311_80216" x="0" y="0" width="34.1055" height="32" filterUnits="userSpaceOnUse" color-interpolation-filters="sRGB">
<feFlood flood-opacity="0" result="BackgroundImageFix"/>
<feColorMatrix in="SourceAlpha" type="matrix" values="0 0 0 0 0 0 0 0 0 0 0 0 0 0 0 0 0 0 127 0" result="hardAlpha"/>
<feOffset dy="4"/>
<feGaussianBlur stdDeviation="2"/>
<feComposite in2="hardAlpha" operator="out"/>
<feColorMatrix type="matrix" values="0 0 0 0 0 0 0 0 0 0 0 0 0 0 0 0 0 0 0.25 0"/>
<feBlend mode="normal" in2="BackgroundImageFix" result="effect1_dropShadow_3311_80216"/>
<feBlend mode="normal" in="SourceGraphic" in2="effect1_dropShadow_3311_80216" result="shape"/>
</filter>
</defs>
</svg>
