<svg width="67" height="39" viewBox="0 0 67 39" fill="none" xmlns="http://www.w3.org/2000/svg">
<rect x="15.4648" y="0.941406" width="36.8183" height="36.8183" rx="18.4091" fill="#DB8C28"/>
<path d="M31.9643 31.2495C31.9643 29.1763 31.9643 27.1163 31.9643 25.0401C31.9181 25.0401 31.8731 25.0401 31.8282 25.0401C30.2342 25.0401 28.6403 25.0394 27.0463 25.0407C26.7838 25.0409 26.5664 24.9564 26.4485 24.7099C26.404 24.6171 26.3809 24.505 26.3807 24.4016C26.3768 22.4369 26.379 20.4719 26.3768 18.5071C26.3764 18.1133 26.6682 17.8678 27.0247 17.8693C28.6223 17.876 30.2197 17.8721 31.8173 17.8721C31.8629 17.8721 31.9087 17.8721 31.9619 17.8721C31.9619 17.1582 31.9619 16.4547 31.9619 15.7386C31.9121 15.7386 31.8665 15.7386 31.8211 15.7386C30.3626 15.7386 28.9043 15.7358 27.4457 15.7413C27.2115 15.7422 27.0296 15.6662 26.8655 15.5021C25.9078 14.5436 24.9452 13.5896 23.985 12.6336C23.6823 12.3324 23.682 11.9885 23.9846 11.6869C24.9591 10.7149 25.9352 9.74436 26.9089 8.7715C27.0433 8.63735 27.1993 8.5768 27.3882 8.57702C28.8609 8.57894 30.3337 8.57809 31.8064 8.57809C31.8554 8.57809 31.9046 8.57809 31.9698 8.57809C31.9698 8.52567 31.9698 8.48437 31.9698 8.44308C31.9698 7.92595 31.9679 7.40903 31.9707 6.8919C31.9724 6.55385 32.1374 6.33733 32.4399 6.26629C32.4776 6.25752 32.5176 6.25474 32.5563 6.25474C33.4192 6.2541 34.2823 6.25324 35.1452 6.25474C35.4565 6.25538 35.6908 6.42098 35.7562 6.6895C35.7761 6.77144 35.7783 6.85895 35.7787 6.94389C35.7806 7.43963 35.7798 7.93515 35.7798 8.43089C35.7798 8.47325 35.7798 8.51583 35.7798 8.57787C35.8352 8.57787 35.8831 8.57787 35.9312 8.57787C37.5109 8.57787 39.0907 8.57745 40.6704 8.57873C40.7553 8.57873 40.8435 8.58023 40.9243 8.60205C41.2151 8.68057 41.3706 8.90073 41.3713 9.22509C41.3726 9.83487 41.3717 10.4446 41.3717 11.0544C41.3717 12.3916 41.3741 13.7289 41.3681 15.0661C41.3674 15.193 41.3366 15.3301 41.2812 15.4437C41.1907 15.629 41.0185 15.7174 40.8131 15.7349C40.7634 15.7392 40.7134 15.7381 40.6635 15.7381C39.0873 15.7383 37.5113 15.7383 35.9351 15.7383C35.8893 15.7383 35.8435 15.7383 35.789 15.7383C35.789 16.4508 35.789 17.1543 35.789 17.8719C35.8352 17.8719 35.8805 17.8719 35.9257 17.8719C37.3876 17.8719 38.8498 17.8743 40.3118 17.8696C40.5341 17.8689 40.7087 17.9414 40.8644 18.0968C41.8339 19.0639 42.8069 20.0273 43.7781 20.9925C44.0113 21.2242 44.0567 21.5096 43.9005 21.7676C43.8677 21.8218 43.8243 21.871 43.7792 21.9159C42.8057 22.884 41.8307 23.8505 40.8578 24.8191C40.705 24.9712 40.5292 25.042 40.3124 25.0416C38.8505 25.0384 37.3883 25.0399 35.9263 25.0399C35.881 25.0399 35.8358 25.0399 35.7853 25.0399C35.7853 27.1131 35.7853 29.1731 35.7853 31.2493C35.8281 31.2493 35.8694 31.2493 35.9107 31.2493C36.6595 31.2493 37.4084 31.2484 38.1572 31.2497C38.4698 31.2502 38.6883 31.3961 38.7803 31.6597C38.9174 32.0529 38.6224 32.4372 38.1737 32.4415C37.703 32.446 37.2323 32.4425 36.7616 32.4425C36.2659 32.4425 35.7701 32.435 35.2746 32.4449C34.8574 32.453 34.5872 32.1794 34.5885 31.7654C34.5957 29.5687 34.5919 27.3722 34.5919 25.1755C34.5919 25.1336 34.5919 25.0916 34.5919 25.045C34.1115 25.045 33.6423 25.045 33.1579 25.045C33.1579 25.0908 33.1579 25.1357 33.1579 25.1804C33.1579 27.3773 33.1545 29.574 33.1612 31.7709C33.1624 32.1779 32.8939 32.4468 32.491 32.4445C31.5282 32.4387 30.5654 32.443 29.6026 32.4423C29.2967 32.4421 29.0842 32.3129 28.9856 32.0709C28.8176 31.659 29.114 31.2517 29.5879 31.2499C30.3331 31.2472 31.0785 31.2493 31.8237 31.2491C31.8657 31.2495 31.908 31.2495 31.9643 31.2495ZM42.5433 21.4452C42.5194 21.4234 42.4894 21.3981 42.4616 21.3705C41.7119 20.6227 40.962 19.8754 40.2142 19.1257C40.162 19.0733 40.1107 19.0532 40.0373 19.0532C35.9231 19.0549 31.809 19.0547 27.6948 19.0547C27.6567 19.0547 27.6188 19.0547 27.5797 19.0547C27.5797 20.6593 27.5797 22.2503 27.5797 23.8466C27.6306 23.8466 27.6732 23.8466 27.7158 23.8466C31.8192 23.8466 35.9227 23.8466 40.0261 23.8466C40.0475 23.8466 40.0704 23.8516 40.0899 23.8456C40.1284 23.8338 40.1746 23.8257 40.2012 23.7993C40.9793 23.0197 41.7553 22.2381 42.5433 21.4452ZM25.1881 12.1514C25.2118 12.1773 25.2253 12.1935 25.2403 12.2083C26.0067 12.9697 26.7724 13.7319 27.542 14.4901C27.5786 14.5263 27.6484 14.5449 27.7027 14.5449C31.8173 14.5475 35.9321 14.5472 40.0467 14.547C40.0878 14.547 40.1291 14.5436 40.1723 14.5417C40.1723 12.9456 40.1723 11.3606 40.1723 9.76576C40.1353 9.76576 40.104 9.76576 40.073 9.76576C35.9441 9.76576 31.8152 9.76554 27.6862 9.76854C27.6338 9.76854 27.5683 9.79699 27.5307 9.83401C26.8047 10.5501 26.082 11.2694 25.3584 11.9881C25.3049 12.0408 25.2501 12.0917 25.1881 12.1514ZM34.5872 15.7473C34.1051 15.7473 33.6338 15.7473 33.1669 15.7473C33.1669 16.46 33.1669 17.1635 33.1669 17.8646C33.6453 17.8646 34.1141 17.8646 34.5872 17.8646C34.5872 17.1564 34.5872 16.4553 34.5872 15.7473ZM34.5861 8.57145C34.5861 8.19553 34.5861 7.82689 34.5861 7.45204C34.1098 7.45204 33.6387 7.45204 33.1629 7.45204C33.1629 7.82753 33.1629 8.19618 33.1629 8.57145C33.6368 8.57145 34.1053 8.57145 34.5861 8.57145Z" fill="white"/>
</svg>
