<svg width="379" height="384" viewBox="0 0 379 384" fill="none" xmlns="http://www.w3.org/2000/svg">
<path d="M189.171 286.027C189.301 288.857 189.431 291.697 189.571 294.847C219.861 294.847 249.971 294.847 279.781 294.847C280.251 295.357 280.561 295.537 280.561 295.717C280.591 308.047 281.091 320.407 280.471 332.707C279.661 348.917 270.111 359.697 256.591 367.407C243.431 374.917 228.971 378.537 214.201 381.117C209.721 381.897 205.221 382.587 200.731 383.317C192.251 383.317 183.761 383.317 175.281 383.317C168.901 382.077 162.491 380.957 156.141 379.577C141.021 376.277 126.391 371.717 114.091 361.767C108.961 357.617 104.421 352.897 101.781 346.667C102.641 346.227 103.571 345.877 104.341 345.327C113.221 338.997 122.061 332.617 130.931 326.277C146.651 315.037 162.351 303.757 178.151 292.617C181.641 290.157 185.491 288.207 189.171 286.027ZM257.651 335.467C257.601 325.947 249.971 318.237 240.621 318.267C230.531 318.297 223.111 326.707 223.281 337.917C223.391 345.097 232.661 353.237 240.631 353.157C250.201 353.057 257.691 345.267 257.651 335.467Z" fill="#FEDC52"/>
<path d="M162.552 98.0175C171.312 98.0175 180.072 98.0175 189.092 98.0175C189.092 93.8075 189.092 90.1775 189.092 86.0375C186.402 86.0375 183.842 86.0375 181.282 86.0375C181.892 84.8375 182.282 83.4675 183.132 82.4775C190.912 73.3375 198.802 64.2875 206.612 55.1575C220.202 39.2675 233.752 23.3475 247.322 7.4375C256.872 10.6175 264.182 16.7675 270.682 24.3075C278.802 33.7175 280.812 44.6975 280.752 56.6075C280.602 83.6675 280.972 110.727 280.632 137.787C280.382 157.607 271.312 172.558 253.092 180.798C247.272 183.428 240.362 184.647 233.922 184.737C204.002 185.137 174.062 184.948 144.142 184.878C131.882 184.848 120.942 188.607 110.912 195.527C94.2122 207.057 86.8822 223.378 86.4222 243.128C86.1422 255.098 86.3822 267.068 86.3822 279.038C86.3822 280.378 86.3822 281.727 86.3822 283.497C83.7922 283.497 81.5822 283.527 79.3722 283.497C69.2822 283.357 59.1522 283.637 49.1022 282.938C37.1222 282.098 27.5122 276.307 20.2422 266.717C23.2322 263.077 26.1622 259.398 29.2122 255.818C35.5722 248.368 42.0322 240.997 48.3722 233.537C57.5922 222.677 66.7022 211.717 75.9422 200.857C83.9022 191.507 92.0122 182.297 99.9722 172.957C109.382 161.927 118.662 150.787 128.072 139.747C137.322 128.897 146.712 118.168 155.912 107.278C158.352 104.378 160.352 101.108 162.552 98.0175Z" fill="#427FB1"/>
<path d="M189.173 286.027C185.483 288.207 181.633 290.157 178.143 292.617C162.343 303.757 146.653 315.037 130.923 326.277C122.053 332.617 113.213 338.997 104.333 345.327C103.553 345.877 102.633 346.227 101.773 346.667C100.563 342.557 98.3426 338.457 98.3026 334.337C98.0126 302.537 97.8826 270.727 98.2626 238.927C98.4926 218.947 116.973 199.407 137.013 196.967C140.463 196.547 143.953 196.327 147.433 196.327C175.993 196.277 204.563 195.917 233.113 196.397C258.923 196.837 282.453 179.047 289.673 154.117C291.103 149.177 291.833 143.887 291.973 138.737C292.303 126.647 292.083 114.547 292.083 102.447C292.083 101.107 292.083 99.7668 292.083 98.2968C293.223 98.1768 293.943 98.0268 294.663 98.0268C306.513 98.0368 318.373 97.7168 330.203 98.1868C341.883 98.6568 351.073 103.917 358.303 113.457C367.563 125.657 370.963 139.877 374.243 154.267C373.333 154.637 372.303 154.847 371.523 155.407C358.453 164.657 345.403 173.937 332.373 183.247C307.133 201.297 281.933 219.397 256.673 237.427C237.573 251.057 218.393 264.567 199.323 278.237C197.533 279.517 196.273 281.547 194.773 283.227C193.013 284.387 189.483 281.987 189.173 286.027Z" fill="#FEDC52"/>
<path d="M162.552 98.0169C160.352 101.107 158.352 104.377 155.912 107.267C146.702 118.157 137.322 128.887 128.072 139.737C118.662 150.777 109.382 161.907 99.9717 172.947C92.0117 182.287 83.8917 191.507 75.9417 200.847C66.7017 211.697 57.5917 222.657 48.3717 233.527C42.0317 240.997 35.5717 248.357 29.2117 255.807C26.1617 259.387 23.2317 263.077 20.2417 266.707C12.8017 258.207 9.15172 247.917 6.49172 237.217C2.24172 220.107 -0.788283 202.787 0.181717 185.077C1.21172 166.227 3.46172 147.417 11.5717 130.167C21.1417 109.807 37.9017 98.6169 60.4017 98.1669C94.0717 97.4969 127.762 97.8969 161.442 97.8469C161.812 97.8569 162.182 97.9669 162.552 98.0169Z" fill="#427FB1"/>
<path d="M194.762 283.237C196.272 281.557 197.522 279.527 199.312 278.247C218.382 264.577 237.562 251.067 256.662 237.437C281.922 219.407 307.122 201.307 332.362 183.257C345.392 173.947 358.442 164.667 371.512 155.417C372.292 154.857 373.322 154.647 374.232 154.277C377.122 168.507 379.342 182.797 378.932 197.387C378.572 210.127 377.052 222.667 372.422 234.657C369.032 243.447 366.202 252.517 362.102 260.957C354.802 275.947 342.502 283.647 325.582 283.627C282.702 283.567 239.822 283.587 196.942 283.557C196.232 283.537 195.492 283.337 194.762 283.237Z" fill="#FEDC52"/>
<path d="M247.321 7.43735C233.751 23.3473 220.201 39.2673 206.611 55.1573C198.811 64.2773 190.921 73.3373 183.131 82.4773C182.281 83.4673 181.891 84.8473 181.281 86.0373C153.981 86.0673 126.671 86.0873 99.3715 86.1073C99.0215 86.1073 98.6815 85.9173 97.9615 85.6973C97.9615 83.4173 97.9515 81.0773 97.9615 78.7473C98.0115 67.5273 97.8415 56.2973 98.1715 45.0873C98.7515 25.1873 107.011 14.4273 125.991 8.19735C138.851 3.97735 152.161 2.10735 165.561 0.987345C188.761 -0.942655 211.891 -0.0726547 234.861 3.85735C239.091 4.57735 243.171 6.21735 247.321 7.43735ZM137.801 62.9373C147.261 62.9373 155.091 54.9673 155.001 45.4373C154.911 35.8973 147.001 27.6873 137.621 28.1073C127.751 28.5473 120.611 34.4473 120.641 45.7173C120.671 56.8273 129.521 62.8373 137.801 62.9373Z" fill="#427FB1"/>
</svg>
