<svg width="25" height="22" viewBox="0 0 25 22" fill="none" xmlns="http://www.w3.org/2000/svg">
<path d="M4.57354 15.4233C4.41083 15.1287 4.23969 14.8617 4.11288 14.5785C3.93332 14.1776 3.78235 13.7656 3.62895 13.3557C3.59947 13.2768 3.56621 13.2537 3.47754 13.2543C2.87168 13.2579 2.26582 13.2563 1.65996 13.2561C1.3179 13.2561 1.21548 13.1673 1.15696 12.8588C1.02905 12.1835 0.972738 11.503 1.01264 10.8203C1.04079 10.3374 1.11506 9.85653 1.18134 9.37608C1.20706 9.18948 1.36046 9.08825 1.56973 9.08805C2.20153 9.08725 2.83311 9.08765 3.4649 9.08765C3.50525 9.08765 3.5456 9.08765 3.59592 9.08765C3.80785 8.328 4.13683 7.61395 4.58507 6.92802C4.50482 6.86033 4.42457 6.79625 4.3492 6.72816C3.9566 6.37365 3.5651 6.01853 3.17383 5.66301C2.98673 5.49308 2.97033 5.34103 3.12218 5.14519C3.88122 4.16621 4.80631 3.33807 5.88613 2.65073C6.0637 2.53765 6.2457 2.55512 6.40553 2.69934C6.85045 3.10085 7.29382 3.50398 7.73741 3.9069C7.76601 3.93281 7.78928 3.96374 7.81877 3.99648C8.57448 3.59296 9.36412 3.29649 10.2032 3.10065C10.2032 2.88252 10.2032 2.67182 10.2032 2.46132C10.2032 2.06965 10.2025 1.67797 10.2034 1.2865C10.2039 1.06194 10.3078 0.940018 10.5499 0.904466C11.3828 0.782344 12.2205 0.713449 13.0645 0.770091C13.5129 0.80022 13.9598 0.849631 14.4065 0.896029C14.6819 0.924551 14.7976 1.05049 14.7978 1.30618C14.7985 1.86517 14.798 2.42416 14.798 2.98315C14.798 3.01971 14.798 3.05626 14.798 3.10025C15.634 3.29609 16.4212 3.59055 17.1647 3.99146C17.1978 3.96314 17.2275 3.93924 17.2554 3.91373C17.6968 3.51382 18.1379 3.11331 18.5795 2.7134C18.7624 2.54789 18.9322 2.53443 19.1417 2.66821C20.2118 3.35072 21.1209 4.17967 21.8786 5.1456C22.0267 5.3342 22.0143 5.49208 21.834 5.65618C21.3936 6.05709 20.9522 6.4572 20.5099 6.85651C20.4815 6.88222 20.4439 6.89949 20.4106 6.92038C20.8624 7.61254 21.1896 8.32438 21.4029 9.08745C21.4456 9.08745 21.4856 9.08745 21.5255 9.08745C22.1497 9.08745 22.7742 9.08725 23.3985 9.08745C23.6545 9.08745 23.7957 9.19953 23.8367 9.42569C23.9626 10.1209 24.0291 10.8209 23.9877 11.5241C23.9598 11.9971 23.8921 12.4687 23.8287 12.9393C23.7995 13.1568 23.6507 13.2545 23.3942 13.2551C22.7735 13.2567 22.153 13.2577 21.5323 13.2537C21.4337 13.2531 21.396 13.2794 21.3698 13.3675C21.1575 14.08 20.8458 14.7555 20.4239 15.3956C20.4518 15.4227 20.478 15.4496 20.5057 15.475C20.9469 15.8753 21.3882 16.2752 21.8294 16.6755C22.0134 16.8424 22.0293 16.9999 21.8775 17.1943C21.2792 17.961 20.5811 18.6437 19.773 19.2326C19.5691 19.3813 19.3594 19.5241 19.1477 19.6635C18.9333 19.8047 18.7626 19.7892 18.5764 19.6205C18.1372 19.223 17.6988 18.8251 17.2609 18.4266C17.2326 18.4009 17.2126 18.3673 17.2009 18.3527C16.8346 18.5149 16.5021 18.6831 16.1518 18.8122C15.7437 18.9629 15.3212 19.0824 14.9024 19.2079C14.8209 19.2324 14.7949 19.2603 14.7956 19.3377C14.7994 19.8967 14.7978 20.4556 14.7976 21.0146C14.7976 21.2924 14.6903 21.3945 14.3915 21.4435C13.5952 21.5742 12.7918 21.6096 11.9869 21.5752C11.5018 21.5545 11.0185 21.4885 10.5359 21.4324C10.3178 21.4071 10.2036 21.2711 10.2032 21.0689C10.2016 20.4998 10.2025 19.9308 10.2025 19.3618C10.2025 19.322 10.2025 19.2822 10.2025 19.2378C9.36368 19.0424 8.57692 18.7479 7.83229 18.3484C7.80125 18.3749 7.77177 18.3993 7.74362 18.4248C7.30224 18.8247 6.86109 19.2252 6.4195 19.6249C6.24016 19.7874 6.05683 19.8022 5.85487 19.6719C4.80232 18.9922 3.89408 18.1813 3.14634 17.2246C2.96057 16.987 2.97387 16.8536 3.20376 16.6454C3.63205 16.2571 4.06012 15.8686 4.4893 15.4812C4.51834 15.4555 4.55426 15.4364 4.57354 15.4233ZM21.0918 5.34726C20.4713 4.59544 19.7553 3.94326 18.9091 3.37302C18.8863 3.40214 18.867 3.43629 18.8387 3.462C18.413 3.84805 17.9865 4.23309 17.5598 4.61814C17.3485 4.80876 17.1982 4.82161 16.9404 4.68161C16.7413 4.57335 16.5427 4.46368 16.3363 4.36787C15.7074 4.07643 15.0492 3.85568 14.3573 3.72131C14.203 3.69138 14.0962 3.61385 14.0523 3.47606C14.0363 3.42584 14.0374 3.37021 14.0374 3.31718C14.0365 2.75819 14.0368 2.1992 14.037 1.64021C14.037 1.5898 14.0465 1.54119 13.9607 1.53456C13.7661 1.51949 13.5726 1.49057 13.3779 1.47792C12.6136 1.4279 11.851 1.43614 11.0899 1.52994C10.9893 1.54239 10.9629 1.5683 10.9636 1.65708C10.9676 2.21949 10.9667 2.78169 10.9649 3.34409C10.9642 3.55942 10.8616 3.67611 10.6355 3.72231C9.70707 3.91212 8.83807 4.23129 8.03402 4.69427C7.80569 4.82583 7.64364 4.80675 7.45077 4.6322C7.0196 4.24173 6.58887 3.85106 6.15769 3.46039C6.12998 3.43528 6.10072 3.41138 6.07124 3.38607C5.24281 3.94587 4.52455 4.59544 3.89674 5.36031C3.93775 5.38944 3.98231 5.41475 4.01867 5.44769C4.44519 5.83273 4.87149 6.21838 5.29601 6.60524C5.47579 6.76894 5.49442 6.92581 5.35919 7.11963C4.85242 7.84594 4.49573 8.62828 4.28535 9.46606C4.23082 9.68339 4.10202 9.77659 3.85595 9.78061C3.7378 9.78262 3.61942 9.78101 3.50126 9.78101C2.99516 9.78101 2.48905 9.78081 1.98295 9.78141C1.9344 9.78141 1.87721 9.76675 1.86945 9.84127C1.85083 10.0176 1.82112 10.193 1.80605 10.3693C1.74575 11.0685 1.75905 11.7661 1.86501 12.4621C1.87831 12.55 1.91423 12.5611 1.99647 12.5607C2.60965 12.5583 3.22305 12.5591 3.83622 12.5595C4.10424 12.5597 4.22639 12.6469 4.28691 12.8845C4.49817 13.7148 4.84932 14.4919 5.35187 15.213C5.49818 15.4229 5.47845 15.5677 5.28648 15.7419C4.85575 16.1326 4.42435 16.523 3.99362 16.9137C3.96569 16.939 3.93886 16.9655 3.90982 16.9932C4.52788 17.7422 5.24413 18.3938 6.07101 18.9518C6.10028 18.9265 6.12732 18.9042 6.15326 18.8809C6.58532 18.4912 7.01649 18.101 7.44944 17.7123C7.65782 17.5253 7.80081 17.5088 8.04887 17.649C8.8343 18.0927 9.67603 18.4117 10.577 18.6049C10.8917 18.6724 10.9687 18.7664 10.9687 19.0615C10.9689 19.597 10.9687 20.1327 10.9687 20.6682C10.9687 20.7077 10.9687 20.7471 10.9687 20.7909C11.9977 20.9269 13.0137 20.9281 14.0381 20.7899C14.0381 20.7445 14.0381 20.7083 14.0381 20.672C14.0381 20.1196 14.0379 19.5674 14.0383 19.0151C14.0385 18.7827 14.133 18.6636 14.3793 18.6132C15.3123 18.4224 16.1791 18.0895 16.9894 17.6312C17.1958 17.5145 17.3625 17.5358 17.5376 17.6936C17.8389 17.9652 18.1386 18.238 18.439 18.5101C18.6008 18.6568 18.7622 18.8036 18.9278 18.9538C19.756 18.3924 20.476 17.7414 21.0947 16.9902C20.6378 16.5767 20.1856 16.1677 19.7336 15.7586C19.5163 15.5619 19.4975 15.4318 19.658 15.1996C20.1552 14.4801 20.5081 13.7072 20.7154 12.8793C20.7731 12.6493 20.8985 12.5603 21.1597 12.5601C21.7693 12.5597 22.3787 12.5599 22.9883 12.5599C23.0314 12.5599 23.0744 12.5599 23.1245 12.5599C23.1437 12.3942 23.1619 12.2419 23.1792 12.0895C23.2626 11.3539 23.2446 10.6202 23.1378 9.88706C23.1251 9.79989 23.0954 9.779 23.0034 9.77961C22.3938 9.78302 21.7844 9.78181 21.1748 9.78121C20.897 9.78081 20.7833 9.69364 20.7117 9.45422C20.6252 9.16478 20.5392 8.87434 20.4323 8.59072C20.2399 8.08034 19.9752 7.59969 19.6607 7.14153C19.6168 7.07765 19.5791 7.00535 19.5622 6.93243C19.5303 6.79444 19.6097 6.6896 19.7136 6.59559C20.1712 6.18203 20.6279 5.76745 21.0918 5.34726Z" fill="#6A7583" stroke="#6A7583" stroke-width="0.5"/>
<path d="M15.0448 16.3781C15.0887 16.3781 15.1177 16.3779 15.1465 16.3781C15.411 16.3803 15.5675 16.5189 15.5695 16.7569C15.5715 16.9879 15.5715 17.2189 15.5682 17.4497C15.5677 17.4806 15.5509 17.53 15.5269 17.539C15.2935 17.6278 15.0568 17.7098 14.8023 17.8006C14.8023 17.5489 14.8023 17.3175 14.8023 17.0787C13.266 17.0787 11.7428 17.0787 10.2079 17.0787C10.2079 17.3129 10.2079 17.5455 10.2079 17.7989C10.0019 17.7278 9.81306 17.6648 9.62574 17.5977C9.43354 17.5286 9.4342 17.5268 9.4342 17.3358C9.4342 17.155 9.43398 16.9742 9.4342 16.7936C9.43464 16.5128 9.57719 16.3817 9.88577 16.3781C9.90395 16.3779 9.92235 16.3781 9.95848 16.3781C9.93764 16.3371 9.92279 16.3056 9.90572 16.2748C9.26506 15.1125 8.62572 13.9495 7.98084 12.7889C7.8771 12.6023 7.89372 12.4473 8.03427 12.2804C8.83078 11.3343 9.52731 10.3298 10.154 9.28475C10.9259 7.99764 11.5641 6.65993 12.011 5.2499C12.0558 5.10869 12.0889 4.96428 12.1367 4.82408C12.2037 4.62864 12.3997 4.53283 12.616 4.58746C12.7752 4.62764 12.8475 4.73851 12.892 4.87489C13.0414 5.33265 13.1767 5.79523 13.3507 6.24535C13.851 7.53949 14.5072 8.76894 15.2696 9.9526C15.7874 10.7564 16.3427 11.538 16.9692 12.2763C17.1131 12.4459 17.1282 12.6023 17.0215 12.7937C16.3773 13.9507 15.7404 15.1111 15.1013 16.2704C15.0836 16.3023 15.0674 16.3349 15.0448 16.3781ZM12.1168 7.18376C12.1095 7.18336 12.1022 7.18296 12.0948 7.18256C12.0827 7.20686 12.07 7.23097 12.0583 7.25527C11.8375 7.7076 11.6284 8.16496 11.3941 8.61127C10.6708 9.98956 9.80131 11.2893 8.80085 12.517C8.75186 12.577 8.74964 12.6196 8.786 12.6853C9.45016 13.885 10.1119 15.0861 10.7714 16.2879C10.8071 16.353 10.8443 16.3801 10.9283 16.3799C11.9776 16.3769 13.0268 16.3769 14.076 16.3799C14.1598 16.3801 14.1973 16.353 14.233 16.2881C14.8938 15.0866 15.5567 13.8862 16.2219 12.6867C16.2581 12.6216 16.2583 12.578 16.2088 12.5174C14.924 10.9422 13.8645 9.251 13.0332 7.44247C12.9929 7.35449 12.9505 7.26732 12.9091 7.17975C12.8907 7.19762 12.8876 7.21249 12.8876 7.22735C12.8874 8.65345 12.888 10.0793 12.8856 11.5054C12.8856 11.5693 12.9171 11.5914 12.9723 11.6141C13.4988 11.8304 13.7674 12.3539 13.6072 12.8468C13.4414 13.3564 12.9078 13.6661 12.3294 13.5885C11.8284 13.5213 11.4373 13.1631 11.3642 12.7042C11.2939 12.2635 11.5621 11.8061 12.0088 11.6239C12.0953 11.5888 12.1183 11.5486 12.1183 11.4683C12.1159 10.0723 12.1166 8.67655 12.1166 7.28058C12.1168 7.24824 12.1168 7.2161 12.1168 7.18376ZM12.5041 12.2131C12.3012 12.2125 12.1221 12.3657 12.1192 12.5425C12.1159 12.7401 12.2901 12.9022 12.5056 12.9024C12.7091 12.9026 12.8854 12.7421 12.8854 12.5569C12.8851 12.3723 12.7094 12.2139 12.5041 12.2131Z" fill="#6A7583" stroke="#6A7583" stroke-width="0.5"/>
<path d="M8.66644 15.9195C6.76949 14.7023 5.65332 12.4944 6.07208 10.2056C6.54182 7.63827 8.71854 5.84098 11.1595 5.39648C11.1198 5.50876 11.0841 5.61482 11.0449 5.71987C10.999 5.84339 10.9458 5.96471 10.9048 6.08965C10.8831 6.15573 10.8416 6.18646 10.772 6.20615C10.1023 6.39515 9.49243 6.6878 8.94332 7.08289C8.28913 7.5533 7.76818 8.12354 7.38666 8.79762C7.11 9.28611 6.92334 9.80232 6.8258 10.3426C6.73668 10.8365 6.73713 11.3329 6.80518 11.8312C6.89341 12.4769 7.1151 13.0809 7.45959 13.6486C7.56423 13.8211 7.67285 13.995 7.80742 14.1485C8.06812 14.446 8.22396 14.7935 8.41571 15.1241C8.46715 15.2126 8.50616 15.3085 8.5669 15.391C8.68595 15.5529 8.68573 15.7286 8.66644 15.9195Z" fill="#6A7583" stroke="#6A7583" stroke-width="0.5"/>
<path d="M16.3397 15.9174C16.3415 15.7507 16.3111 15.5918 16.4124 15.438C16.5159 15.2807 16.5982 15.112 16.6862 14.9465C16.8465 14.645 17.0333 14.3598 17.2473 14.0854C17.776 13.4069 18.091 12.6469 18.2036 11.8247C18.3712 10.6009 18.1023 9.45521 17.3776 8.40834C16.6332 7.33254 15.5837 6.60443 14.2505 6.21356C14.1652 6.18845 14.116 6.15189 14.0887 6.07215C14.0127 5.8494 13.9271 5.62946 13.8438 5.4043C15.9894 5.76524 18.2617 7.35524 18.8695 9.91277C19.4834 12.4964 18.1298 14.7902 16.3397 15.9174Z" fill="#6A7583" stroke="#6A7583" stroke-width="0.5"/>
</svg>
