<svg width="25" height="25" viewBox="0 0 25 25" fill="none" xmlns="http://www.w3.org/2000/svg">
<path d="M6.98427 5.797H15.4574C15.5606 5.797 15.6538 5.84057 15.7192 5.91048L18.1134 8.30446C18.1834 8.37447 18.2185 8.46622 18.2185 8.55818L18.2187 18.3619C18.2187 18.5601 18.058 18.721 17.8597 18.721H6.9841C6.78587 18.721 6.625 18.5602 6.625 18.3619V6.15597C6.625 5.95774 6.78577 5.79688 6.9841 5.79688L6.98427 5.797ZM13.5475 12.8844C13.913 12.8844 14.245 13.0333 14.4855 13.2736C14.7357 13.5238 14.8761 13.8589 14.8761 14.2131C14.8761 14.5786 14.7271 14.9105 14.4868 15.151C14.2366 15.4013 13.9019 15.5417 13.5476 15.5417C13.1821 15.5417 12.8503 15.3927 12.6096 15.1524C12.3594 14.9022 12.219 14.5675 12.219 14.2132C12.219 13.8474 12.3679 13.5157 12.6082 13.2751C12.8585 13.0249 13.1934 12.8845 13.5475 12.8845V12.8844ZM13.98 13.7803C13.8697 13.6705 13.7166 13.6024 13.5475 13.6024C13.3782 13.6024 13.2253 13.6705 13.115 13.7803C13.0051 13.8906 12.9371 14.0438 12.9371 14.213C12.9371 14.382 13.0051 14.5352 13.115 14.6455C13.2253 14.7554 13.3782 14.8234 13.5475 14.8234C13.7166 14.8234 13.8697 14.7554 13.98 14.6455C14.0899 14.5352 14.1579 14.382 14.1579 14.213C14.1579 14.0437 14.0899 13.8905 13.98 13.7803ZM9.90745 6.51501V9.70521H14.158V6.51501H9.90745ZM14.8762 6.51501V10.0642C14.8762 10.2624 14.7155 10.4233 14.5171 10.4233H9.54835C9.35012 10.4233 9.18925 10.2625 9.18925 10.0642V6.51501H7.34339V18.0029H17.5007V8.70669L15.309 6.51525H14.8758L14.8762 6.51501Z" fill="#516D83"/>
<rect x="0.414062" y="0.414062" width="23.1875" height="23.1875" rx="11.5938" stroke="#56D280" stroke-width="0.828125"/>
</svg>
