<svg width="24" height="21" viewBox="0 0 24 21" fill="none" xmlns="http://www.w3.org/2000/svg">
<path d="M6.98631 11.9659C7.31288 11.571 7.04685 10.9544 6.54986 10.9544H5.06186C5.05216 10.7992 5.04674 10.6428 5.04674 10.4851C5.04674 6.57713 8.06289 3.39781 11.7703 3.39781C13.5519 3.39781 15.1736 4.13228 16.378 5.32875L18.4762 2.74129C16.6394 0.970144 14.2757 0 11.7703 0C9.11334 0 6.61546 1.09067 4.73671 3.071C2.85801 5.05138 1.82332 7.68441 1.82332 10.4851C1.82332 10.6421 1.82704 10.7985 1.83352 10.9544H0.580166C0.0831701 10.9544 -0.182899 11.5709 0.143716 11.9658L2.97111 15.3845L3.56499 16.1025L5.69722 13.5244L6.98631 11.9659Z" fill="#FA9705"/>
<path d="M23.3969 9.97141L21.2881 7.42157L19.9756 5.83472L18.1018 8.10036L16.5544 9.97141C16.2278 10.3663 16.4938 10.9829 16.9908 10.9829H18.4771C18.2339 14.6595 15.319 17.5725 11.7704 17.5725C10.2213 17.5725 8.79311 17.0171 7.65501 16.0858L5.55664 18.6734C7.31453 20.1615 9.48332 20.9703 11.7704 20.9703C14.4273 20.9703 16.9252 19.8797 18.804 17.8993C20.571 16.0367 21.5911 13.5967 21.7061 10.9829H22.9605C23.4575 10.9829 23.7235 10.3663 23.3969 9.97141Z" fill="#FA9705"/>
</svg>
