<svg width="35" height="36" viewBox="0 0 35 36" fill="none" xmlns="http://www.w3.org/2000/svg">
<path d="M5.77344 6.44727V28.0973H28.8668V6.44727H5.77344ZM12.9901 26.6539H7.21677V23.7673H12.9901V26.6539ZM12.9901 22.3239H7.21677V19.4373H12.9901V22.3239ZM12.9901 17.9939H7.21677V15.1073H12.9901V17.9939ZM12.9901 13.6639H7.21677V10.7773H12.9901V13.6639ZM20.2068 26.6539H14.4334V23.7673H20.2068V26.6539ZM20.2068 22.3239H14.4334V19.4373H20.2068V22.3239ZM20.2068 17.9939H14.4334V15.1073H20.2068V17.9939ZM20.2068 13.6639H14.4334V10.7773H20.2068V13.6639ZM27.4234 26.6539H21.6501V23.7673H27.4234V26.6539ZM27.4234 22.3239H21.6501V19.4373H27.4234V22.3239ZM27.4234 17.9939H21.6501V15.1073H27.4234V17.9939ZM27.4234 13.6639H21.6501V10.7773H27.4234V13.6639Z" fill="#1C2E45" fill-opacity="0.6"/>
</svg>
