<svg width="34" height="30" viewBox="0 0 34 30" fill="none" xmlns="http://www.w3.org/2000/svg">
<path d="M5.64453 5V23.75H28.2236V5H5.64453ZM12.7005 22.5H7.05573V20H12.7005V22.5ZM12.7005 18.75H7.05573V16.25H12.7005V18.75ZM12.7005 15H7.05573V12.5H12.7005V15ZM12.7005 11.25H7.05573V8.75H12.7005V11.25ZM19.7565 22.5H14.1117V20H19.7565V22.5ZM19.7565 18.75H14.1117V16.25H19.7565V18.75ZM19.7565 15H14.1117V12.5H19.7565V15ZM19.7565 11.25H14.1117V8.75H19.7565V11.25ZM26.8124 22.5H21.1677V20H26.8124V22.5ZM26.8124 18.75H21.1677V16.25H26.8124V18.75ZM26.8124 15H21.1677V12.5H26.8124V15ZM26.8124 11.25H21.1677V8.75H26.8124V11.25Z" fill="#1C2E45" fill-opacity="0.6"/>
</svg>
