<svg width="22" height="22" viewBox="0 0 22 22" fill="none" xmlns="http://www.w3.org/2000/svg">
<mask id="path-1-outside-1_3931_125882" maskUnits="userSpaceOnUse" x="-0.65625" y="-0.19165" width="23" height="23" fill="black">
<rect fill="white" x="-0.65625" y="-0.19165" width="23" height="23"/>
<path d="M5.91593 19.5464C6.96503 20.0829 8.07133 20.4146 9.2495 20.549C9.30067 20.2282 9.42974 19.9503 9.69503 19.7516C9.89183 19.604 10.1157 19.5313 10.3603 19.529C10.9048 19.5241 11.2649 19.8483 11.4809 20.5452C12.6463 20.4198 13.7484 20.0799 14.813 19.543C14.7336 19.328 14.7652 19.1273 14.9202 18.9474C14.7896 18.7207 14.6617 18.4997 14.5296 18.2708C13.9705 18.4511 13.5027 18.3337 13.1313 17.8397C11.4869 18.4609 9.81281 18.5411 8.1225 18.0133C6.43446 17.4862 5.10313 16.4741 4.09128 15.0122C3.93136 15.0472 3.77445 15.034 3.63371 14.9305C3.53813 14.8601 3.48094 14.7656 3.44895 14.6549C3.3895 14.4505 3.48884 14.2163 3.67887 14.1071C3.86852 13.9979 4.11198 14.0292 4.26927 14.1824C4.45516 14.3635 4.46457 14.5913 4.29824 14.8846C6.13041 17.7523 9.96069 18.8905 13.0241 17.6213C12.8976 17.1266 13.0094 16.6974 13.426 16.3563C12.8119 15.2919 12.2026 14.2366 11.5915 13.1775C10.7675 13.5661 9.95843 13.5702 9.13021 13.1771C8.93304 13.5167 8.73699 13.8552 8.53266 14.2072C8.83068 14.4561 8.99851 14.7656 8.98233 15.1556C8.97142 15.4214 8.87697 15.6553 8.69484 15.8525C8.33172 16.2464 7.73492 16.325 7.28902 16.037C6.83784 15.7452 6.66061 15.1745 6.86794 14.6828C7.10275 14.1263 7.61376 13.9173 8.34301 14.0883C8.5368 13.7521 8.73285 13.4125 8.93341 13.0646C8.18422 12.5495 7.77105 11.847 7.70482 10.9374C6.48413 10.9374 5.27021 10.9374 4.0386 10.9374C3.96861 11.3116 3.78498 11.6173 3.43164 11.8014C3.19872 11.9227 2.94811 11.9467 2.69976 11.8933C2.17859 11.7818 1.81848 11.3319 1.8324 10.792C1.8467 10.2363 2.25121 9.76871 2.90182 9.71035C3.02412 8.95547 3.23936 8.2213 3.57953 7.52365C3.42939 7.37192 3.37859 7.19309 3.42562 6.98375C3.10427 6.78986 2.78856 6.59935 2.45742 6.39905C2.19741 6.67465 1.88057 6.77781 1.48697 6.66298C0.302398 9.33724 0.264016 12.0156 1.37521 14.7336C1.72102 14.5819 2.05404 14.5811 2.37953 14.7494C2.62374 14.8759 2.79646 15.0724 2.89279 15.3269C3.08847 15.8439 2.8879 16.3936 2.43221 16.6673C1.96034 16.9508 1.37972 16.8469 1.03353 16.4455C0.626009 15.973 0.677185 15.4282 1.1769 14.8398C0.0314673 12.0729 0.0657101 9.31465 1.28828 6.55568C1.06702 6.36479 0.922904 6.12873 0.939461 5.81322C0.94962 5.61594 1.01811 5.44614 1.14002 5.2978C1.37746 5.00902 1.82939 4.92092 2.16881 5.08997C2.56467 5.28726 2.7054 5.66187 2.58122 6.21118C2.89731 6.40169 3.21753 6.59483 3.53324 6.78534C3.85911 6.56321 4.05554 6.63474 4.21396 6.76012C4.38329 6.89377 4.43898 7.12306 4.36259 7.32034C4.27868 7.53645 4.08827 7.63999 3.7816 7.62719C3.45196 8.28606 3.24463 8.9871 3.12986 9.72729C3.63597 9.86095 3.93738 10.178 4.03145 10.6941C5.25553 10.6941 6.47472 10.6941 7.70519 10.6941C7.75863 9.94265 8.05364 9.31164 8.6177 8.81768C9.03953 8.44833 9.53209 8.23034 10.0916 8.17989C11.4391 8.05828 12.4536 8.87076 12.8318 9.86321C13.2521 10.9667 12.9379 12.272 11.7842 13.0653C12.3919 14.1191 13.0008 15.1741 13.616 16.2407C14.1074 16.0668 14.5413 16.1549 14.9217 16.5408C16.5639 15.1786 17.4749 13.4445 17.6589 11.3154C17.4963 11.2288 17.3503 11.1328 17.3044 10.9359C16.6847 10.9359 16.066 10.9359 15.4222 10.9359C15.3928 11.6184 15.257 12.2807 14.9729 12.897C15.1727 13.1945 15.1859 13.4177 15.0229 13.6131C14.8792 13.7859 14.6324 13.8368 14.4261 13.7366C14.232 13.6421 14.121 13.4215 14.1582 13.2039C14.2019 12.9505 14.3821 12.8285 14.7659 12.7927C15.7044 10.7755 15.0737 8.2341 13.1829 6.89641C12.9996 7.02028 12.7972 7.07298 12.5906 6.95326C12.3919 6.83805 12.3144 6.65357 12.3543 6.40395C11.02 5.83732 9.69766 5.83958 8.37462 6.39567C8.34301 6.85913 8.01564 7.11967 7.5385 6.88925C7.213 7.11101 6.93041 7.38322 6.66061 7.69496C6.84988 7.91032 6.9639 8.15579 6.92138 8.4472C6.89052 8.65766 6.79871 8.84328 6.63126 8.97995C6.30426 9.24688 5.88356 9.25893 5.55732 9.00743C5.22167 8.74915 5.12947 8.29171 5.32816 7.92688C5.54754 7.52403 5.94452 7.39489 6.45402 7.55603C6.76296 7.26763 7.06888 6.98187 7.39174 6.68067C7.33906 6.4977 7.35675 6.29966 7.51743 6.11856C6.98271 5.19162 6.44838 4.26582 5.91028 3.33323C5.69354 3.39837 5.48507 3.44543 5.26193 3.40401C4.7449 3.30801 4.35808 2.87127 4.35394 2.33476C4.34904 1.71881 4.79533 1.328 5.23371 1.24291C5.61451 1.16874 5.94189 1.26889 6.21658 1.53282C6.30087 1.61377 6.36334 1.63673 6.4751 1.58779C7.21752 1.26249 7.99381 1.04601 8.79381 0.925903C9.50688 0.818978 10.2241 0.782081 10.9473 0.827261C11.9215 0.888254 12.8691 1.07349 13.7974 1.36716C13.9817 1.42552 14.1631 1.49291 14.3622 1.56181C14.597 1.22974 14.9063 1.02116 15.33 1.0204C15.5987 1.02003 15.8335 1.11001 16.0382 1.27831C16.4295 1.60059 16.5394 2.19508 16.2944 2.64499C16.0386 3.11449 15.4858 3.3321 14.9733 3.16531C14.4273 2.98723 14.1748 2.49966 14.2621 1.76851C14.1097 1.71316 13.9547 1.65104 13.7959 1.60059C13.0192 1.35398 12.229 1.17778 11.4166 1.09194C9.88355 0.929668 8.39532 1.11114 6.94734 1.63372C6.78403 1.69245 6.62599 1.76587 6.46832 1.83138C6.6211 2.55124 6.56992 2.74778 6.10783 3.22856C6.63765 4.14684 7.1686 5.06738 7.70595 5.99846C7.92194 5.97135 8.11611 6.01954 8.26963 6.19687C9.66267 5.60878 11.0549 5.60916 12.4408 6.19386C12.6892 6.03686 12.6892 6.03686 12.9865 6.02783C13.2833 5.50336 13.5851 4.97062 13.899 4.41642C13.05 3.97102 12.1485 3.72404 11.2002 3.58699C11.1088 3.8607 10.9582 4.08133 10.6813 4.19353C10.4879 4.27184 10.2933 4.2869 10.095 4.22064C9.69578 4.0866 9.47603 3.73684 9.50387 3.35808C9.53774 2.898 9.85721 2.59379 10.3027 2.5584C10.755 2.52263 11.067 2.78994 11.222 3.35657C11.4181 3.39347 11.6201 3.43037 11.8218 3.46952C12.9883 3.69429 14.063 4.12877 14.9992 4.87386C15.4267 5.21421 15.8226 5.58845 16.1657 6.01578C16.1928 6.04966 16.2248 6.07978 16.2662 6.12421C16.8107 5.88024 17.2852 5.98905 17.6879 6.45327C17.937 6.3102 18.1853 6.16751 18.4438 6.01917C18.4438 5.9657 18.4427 5.91036 18.4442 5.85501C18.4495 5.64418 18.5812 5.4548 18.7731 5.39757C18.9763 5.33695 19.1588 5.3795 19.3048 5.538C19.4399 5.68446 19.4655 5.92052 19.3684 6.09898C19.3417 6.14831 19.3067 6.19311 19.2709 6.24657C19.8274 7.33691 20.1736 8.49313 20.3121 9.71713C20.641 9.7849 20.9063 9.93889 21.0877 10.2156C21.2145 10.4091 21.2739 10.623 21.2683 10.856C21.2559 11.3636 20.959 11.7024 20.3193 11.9279C20.2858 12.1346 20.253 12.3443 20.218 12.5537C20.063 13.4855 19.7725 14.374 19.3514 15.2189C19.2897 15.3428 19.2649 15.4463 19.3213 15.5867C19.4169 15.8247 19.2589 16.1131 19.0169 16.1918C18.7509 16.2784 18.463 16.1342 18.3821 15.8736C18.3016 15.6138 18.4416 15.3281 18.7012 15.2596C18.8167 15.2291 18.9439 15.2426 19.0978 15.2347C19.6163 14.2178 19.9528 13.1146 20.0837 11.9302C19.5189 11.8289 19.1693 11.5111 19.0662 10.9366C18.8036 10.9366 18.5424 10.9366 18.2816 10.9366C18.1624 11.1734 18.1458 11.1896 17.8869 11.3191C17.701 13.51 16.7599 15.3123 15.0534 16.726C15.1483 16.97 15.2115 17.22 15.1475 17.4888C15.0835 17.7565 14.9428 17.9696 14.7215 18.1496C14.8499 18.3736 14.9767 18.5949 15.1106 18.8284C15.1671 18.8284 15.2288 18.8265 15.2901 18.8288C15.4929 18.8355 15.6352 18.9376 15.7127 19.1202C15.7925 19.3084 15.7691 19.4895 15.6277 19.6439C15.4884 19.7956 15.3112 19.8626 15.1185 19.7817C14.9853 19.7256 14.8864 19.7523 14.7682 19.8103C13.7616 20.308 12.7012 20.6265 11.5855 20.7576C11.5486 20.7621 11.5121 20.7722 11.4606 20.7832C11.3917 21.1005 11.2412 21.3739 10.9567 21.5561C10.7558 21.6849 10.5357 21.7413 10.2967 21.7323C9.80566 21.7135 9.47151 21.4149 9.2495 20.7768C8.04612 20.639 6.89015 20.296 5.80492 19.7421C5.52007 19.9364 5.28526 19.9458 5.09561 19.7756C4.92515 19.6228 4.87849 19.3754 4.98272 19.1751C5.08169 18.9846 5.3195 18.8724 5.52157 18.9202C5.78498 18.9831 5.91254 19.1778 5.91593 19.5464ZM15.426 10.6968C16.0574 10.6968 16.676 10.6968 17.2961 10.6968C17.391 10.4777 17.5339 10.3252 17.7876 10.3259C18.0412 10.3267 18.1823 10.4825 18.276 10.6949C18.5413 10.6949 18.802 10.6949 19.0658 10.6949C19.1738 10.1207 19.52 9.80033 20.0845 9.70809C19.9494 8.51949 19.6122 7.40317 19.0666 6.34183C18.8709 6.39717 18.7159 6.32112 18.5639 6.20892C18.3084 6.35689 18.0555 6.50334 17.8068 6.64754C17.9926 7.29211 17.8139 7.7985 17.3146 8.07108C16.8525 8.32371 16.288 8.21453 15.9407 7.8C15.7834 7.61213 15.7033 7.39226 15.6943 7.14527C15.6815 6.79061 15.8211 6.50146 16.0784 6.25711C15.5155 5.56059 14.8645 4.98417 14.0943 4.52786C13.7861 5.07227 13.4813 5.61067 13.1787 6.14492C13.3372 6.39679 13.3398 6.40696 13.3199 6.70251C14.638 7.70211 15.3432 9.03303 15.426 10.6968ZM12.6523 10.8169C12.6576 9.58649 11.6739 8.52438 10.3626 8.52137C9.08732 8.51874 8.05929 9.53302 8.0638 10.8274C8.06869 12.1489 9.13661 13.112 10.3449 13.1113C11.6314 13.1105 12.6534 12.0947 12.6523 10.8169ZM17.663 7.0952C17.6758 6.64754 17.3033 6.22172 16.793 6.22361C16.2173 6.22586 15.9016 6.71908 15.9163 7.11026C15.9343 7.59443 16.3087 7.99202 16.7889 7.98336C17.3123 7.97394 17.6803 7.55528 17.663 7.0952ZM6.3306 2.32309C6.33135 1.83891 5.94678 1.44472 5.46851 1.43907C4.98159 1.43342 4.58573 1.82799 4.58084 2.31669C4.57632 2.75982 4.91085 3.20409 5.46212 3.19732C6.05139 3.19091 6.34264 2.70711 6.3306 2.32309ZM0.985368 15.726C0.98725 16.1997 1.3865 16.6116 1.85837 16.6044C2.36975 16.5965 2.74529 16.2192 2.74341 15.7226C2.74152 15.185 2.31368 14.8435 1.85423 14.8443C1.37897 14.845 0.983487 15.2524 0.985368 15.726ZM7.88882 15.9851C8.35091 15.9768 8.74226 15.6485 8.76333 15.1123C8.78214 14.6308 8.36935 14.234 7.87754 14.2362C7.38459 14.2385 7.0004 14.6293 7.00567 15.1236C7.01056 15.5992 7.40905 15.9881 7.88882 15.9851ZM2.93795 9.94416C2.44726 9.94265 2.06646 10.3154 2.06006 10.8037C2.05366 11.3011 2.43409 11.6919 2.92779 11.6952C3.40718 11.6986 3.80342 11.3101 3.80756 10.8327C3.81208 10.3365 3.42939 9.94566 2.93795 9.94416ZM20.162 9.94416C19.6739 9.94566 19.295 10.3252 19.2942 10.8135C19.2939 11.3116 19.6807 11.7009 20.1706 11.6956C20.6538 11.6904 21.0406 11.3029 21.0417 10.8229C21.0432 10.3297 20.656 9.94265 20.162 9.94416ZM9.48543 20.628C9.48431 21.1145 9.86473 21.503 10.3464 21.5072C10.8378 21.5113 11.2318 21.1243 11.2356 20.6337C11.2397 20.1424 10.8506 19.7568 10.3524 19.7583C9.86473 19.7598 9.48656 20.139 9.48543 20.628ZM15.3236 1.24706C14.8359 1.24781 14.4547 1.62732 14.4525 2.113C14.4502 2.60621 14.8427 3.00154 15.3296 2.99664C15.815 2.99175 16.2041 2.60659 16.2026 2.12618C16.2007 1.55315 15.7202 1.22221 15.3236 1.24706ZM14.0679 18.1224C14.445 18.1608 14.942 17.8265 14.9458 17.2633C14.9492 16.7731 14.5714 16.3849 14.0879 16.3823C13.5863 16.3796 13.196 16.7622 13.1987 17.2535C13.2021 17.8295 13.6943 18.1526 14.0679 18.1224ZM10.3494 2.78016C9.9716 2.78957 9.72701 3.06931 9.72438 3.41681C9.72212 3.76056 10.0292 4.04481 10.3701 4.03691C10.7031 4.029 10.9978 3.73684 10.9861 3.40552C10.9729 3.04182 10.7144 2.78317 10.3494 2.78016ZM1.16524 5.84899C1.16223 6.20365 1.43504 6.48301 1.78574 6.48489C2.13682 6.48678 2.41528 6.20855 2.41528 5.8569C2.41528 5.51315 2.14548 5.23756 1.8023 5.23078C1.44934 5.22363 1.16825 5.49621 1.16524 5.84899ZM5.45158 8.32823C5.44819 8.67724 5.72853 8.96187 6.07735 8.96413C6.40812 8.96639 6.69899 8.67988 6.70539 8.34592C6.71178 8.00218 6.42956 7.69797 6.08526 7.70211C5.70896 7.70625 5.45685 7.97884 5.45158 8.32823Z"/>
</mask>
<path d="M5.91593 19.5464C6.96503 20.0829 8.07133 20.4146 9.2495 20.549C9.30067 20.2282 9.42974 19.9503 9.69503 19.7516C9.89183 19.604 10.1157 19.5313 10.3603 19.529C10.9048 19.5241 11.2649 19.8483 11.4809 20.5452C12.6463 20.4198 13.7484 20.0799 14.813 19.543C14.7336 19.328 14.7652 19.1273 14.9202 18.9474C14.7896 18.7207 14.6617 18.4997 14.5296 18.2708C13.9705 18.4511 13.5027 18.3337 13.1313 17.8397C11.4869 18.4609 9.81281 18.5411 8.1225 18.0133C6.43446 17.4862 5.10313 16.4741 4.09128 15.0122C3.93136 15.0472 3.77445 15.034 3.63371 14.9305C3.53813 14.8601 3.48094 14.7656 3.44895 14.6549C3.3895 14.4505 3.48884 14.2163 3.67887 14.1071C3.86852 13.9979 4.11198 14.0292 4.26927 14.1824C4.45516 14.3635 4.46457 14.5913 4.29824 14.8846C6.13041 17.7523 9.96069 18.8905 13.0241 17.6213C12.8976 17.1266 13.0094 16.6974 13.426 16.3563C12.8119 15.2919 12.2026 14.2366 11.5915 13.1775C10.7675 13.5661 9.95843 13.5702 9.13021 13.1771C8.93304 13.5167 8.73699 13.8552 8.53266 14.2072C8.83068 14.4561 8.99851 14.7656 8.98233 15.1556C8.97142 15.4214 8.87697 15.6553 8.69484 15.8525C8.33172 16.2464 7.73492 16.325 7.28902 16.037C6.83784 15.7452 6.66061 15.1745 6.86794 14.6828C7.10275 14.1263 7.61376 13.9173 8.34301 14.0883C8.5368 13.7521 8.73285 13.4125 8.93341 13.0646C8.18422 12.5495 7.77105 11.847 7.70482 10.9374C6.48413 10.9374 5.27021 10.9374 4.0386 10.9374C3.96861 11.3116 3.78498 11.6173 3.43164 11.8014C3.19872 11.9227 2.94811 11.9467 2.69976 11.8933C2.17859 11.7818 1.81848 11.3319 1.8324 10.792C1.8467 10.2363 2.25121 9.76871 2.90182 9.71035C3.02412 8.95547 3.23936 8.2213 3.57953 7.52365C3.42939 7.37192 3.37859 7.19309 3.42562 6.98375C3.10427 6.78986 2.78856 6.59935 2.45742 6.39905C2.19741 6.67465 1.88057 6.77781 1.48697 6.66298C0.302398 9.33724 0.264016 12.0156 1.37521 14.7336C1.72102 14.5819 2.05404 14.5811 2.37953 14.7494C2.62374 14.8759 2.79646 15.0724 2.89279 15.3269C3.08847 15.8439 2.8879 16.3936 2.43221 16.6673C1.96034 16.9508 1.37972 16.8469 1.03353 16.4455C0.626009 15.973 0.677185 15.4282 1.1769 14.8398C0.0314673 12.0729 0.0657101 9.31465 1.28828 6.55568C1.06702 6.36479 0.922904 6.12873 0.939461 5.81322C0.94962 5.61594 1.01811 5.44614 1.14002 5.2978C1.37746 5.00902 1.82939 4.92092 2.16881 5.08997C2.56467 5.28726 2.7054 5.66187 2.58122 6.21118C2.89731 6.40169 3.21753 6.59483 3.53324 6.78534C3.85911 6.56321 4.05554 6.63474 4.21396 6.76012C4.38329 6.89377 4.43898 7.12306 4.36259 7.32034C4.27868 7.53645 4.08827 7.63999 3.7816 7.62719C3.45196 8.28606 3.24463 8.9871 3.12986 9.72729C3.63597 9.86095 3.93738 10.178 4.03145 10.6941C5.25553 10.6941 6.47472 10.6941 7.70519 10.6941C7.75863 9.94265 8.05364 9.31164 8.6177 8.81768C9.03953 8.44833 9.53209 8.23034 10.0916 8.17989C11.4391 8.05828 12.4536 8.87076 12.8318 9.86321C13.2521 10.9667 12.9379 12.272 11.7842 13.0653C12.3919 14.1191 13.0008 15.1741 13.616 16.2407C14.1074 16.0668 14.5413 16.1549 14.9217 16.5408C16.5639 15.1786 17.4749 13.4445 17.6589 11.3154C17.4963 11.2288 17.3503 11.1328 17.3044 10.9359C16.6847 10.9359 16.066 10.9359 15.4222 10.9359C15.3928 11.6184 15.257 12.2807 14.9729 12.897C15.1727 13.1945 15.1859 13.4177 15.0229 13.6131C14.8792 13.7859 14.6324 13.8368 14.4261 13.7366C14.232 13.6421 14.121 13.4215 14.1582 13.2039C14.2019 12.9505 14.3821 12.8285 14.7659 12.7927C15.7044 10.7755 15.0737 8.2341 13.1829 6.89641C12.9996 7.02028 12.7972 7.07298 12.5906 6.95326C12.3919 6.83805 12.3144 6.65357 12.3543 6.40395C11.02 5.83732 9.69766 5.83958 8.37462 6.39567C8.34301 6.85913 8.01564 7.11967 7.5385 6.88925C7.213 7.11101 6.93041 7.38322 6.66061 7.69496C6.84988 7.91032 6.9639 8.15579 6.92138 8.4472C6.89052 8.65766 6.79871 8.84328 6.63126 8.97995C6.30426 9.24688 5.88356 9.25893 5.55732 9.00743C5.22167 8.74915 5.12947 8.29171 5.32816 7.92688C5.54754 7.52403 5.94452 7.39489 6.45402 7.55603C6.76296 7.26763 7.06888 6.98187 7.39174 6.68067C7.33906 6.4977 7.35675 6.29966 7.51743 6.11856C6.98271 5.19162 6.44838 4.26582 5.91028 3.33323C5.69354 3.39837 5.48507 3.44543 5.26193 3.40401C4.7449 3.30801 4.35808 2.87127 4.35394 2.33476C4.34904 1.71881 4.79533 1.328 5.23371 1.24291C5.61451 1.16874 5.94189 1.26889 6.21658 1.53282C6.30087 1.61377 6.36334 1.63673 6.4751 1.58779C7.21752 1.26249 7.99381 1.04601 8.79381 0.925903C9.50688 0.818978 10.2241 0.782081 10.9473 0.827261C11.9215 0.888254 12.8691 1.07349 13.7974 1.36716C13.9817 1.42552 14.1631 1.49291 14.3622 1.56181C14.597 1.22974 14.9063 1.02116 15.33 1.0204C15.5987 1.02003 15.8335 1.11001 16.0382 1.27831C16.4295 1.60059 16.5394 2.19508 16.2944 2.64499C16.0386 3.11449 15.4858 3.3321 14.9733 3.16531C14.4273 2.98723 14.1748 2.49966 14.2621 1.76851C14.1097 1.71316 13.9547 1.65104 13.7959 1.60059C13.0192 1.35398 12.229 1.17778 11.4166 1.09194C9.88355 0.929668 8.39532 1.11114 6.94734 1.63372C6.78403 1.69245 6.62599 1.76587 6.46832 1.83138C6.6211 2.55124 6.56992 2.74778 6.10783 3.22856C6.63765 4.14684 7.1686 5.06738 7.70595 5.99846C7.92194 5.97135 8.11611 6.01954 8.26963 6.19687C9.66267 5.60878 11.0549 5.60916 12.4408 6.19386C12.6892 6.03686 12.6892 6.03686 12.9865 6.02783C13.2833 5.50336 13.5851 4.97062 13.899 4.41642C13.05 3.97102 12.1485 3.72404 11.2002 3.58699C11.1088 3.8607 10.9582 4.08133 10.6813 4.19353C10.4879 4.27184 10.2933 4.2869 10.095 4.22064C9.69578 4.0866 9.47603 3.73684 9.50387 3.35808C9.53774 2.898 9.85721 2.59379 10.3027 2.5584C10.755 2.52263 11.067 2.78994 11.222 3.35657C11.4181 3.39347 11.6201 3.43037 11.8218 3.46952C12.9883 3.69429 14.063 4.12877 14.9992 4.87386C15.4267 5.21421 15.8226 5.58845 16.1657 6.01578C16.1928 6.04966 16.2248 6.07978 16.2662 6.12421C16.8107 5.88024 17.2852 5.98905 17.6879 6.45327C17.937 6.3102 18.1853 6.16751 18.4438 6.01917C18.4438 5.9657 18.4427 5.91036 18.4442 5.85501C18.4495 5.64418 18.5812 5.4548 18.7731 5.39757C18.9763 5.33695 19.1588 5.3795 19.3048 5.538C19.4399 5.68446 19.4655 5.92052 19.3684 6.09898C19.3417 6.14831 19.3067 6.19311 19.2709 6.24657C19.8274 7.33691 20.1736 8.49313 20.3121 9.71713C20.641 9.7849 20.9063 9.93889 21.0877 10.2156C21.2145 10.4091 21.2739 10.623 21.2683 10.856C21.2559 11.3636 20.959 11.7024 20.3193 11.9279C20.2858 12.1346 20.253 12.3443 20.218 12.5537C20.063 13.4855 19.7725 14.374 19.3514 15.2189C19.2897 15.3428 19.2649 15.4463 19.3213 15.5867C19.4169 15.8247 19.2589 16.1131 19.0169 16.1918C18.7509 16.2784 18.463 16.1342 18.3821 15.8736C18.3016 15.6138 18.4416 15.3281 18.7012 15.2596C18.8167 15.2291 18.9439 15.2426 19.0978 15.2347C19.6163 14.2178 19.9528 13.1146 20.0837 11.9302C19.5189 11.8289 19.1693 11.5111 19.0662 10.9366C18.8036 10.9366 18.5424 10.9366 18.2816 10.9366C18.1624 11.1734 18.1458 11.1896 17.8869 11.3191C17.701 13.51 16.7599 15.3123 15.0534 16.726C15.1483 16.97 15.2115 17.22 15.1475 17.4888C15.0835 17.7565 14.9428 17.9696 14.7215 18.1496C14.8499 18.3736 14.9767 18.5949 15.1106 18.8284C15.1671 18.8284 15.2288 18.8265 15.2901 18.8288C15.4929 18.8355 15.6352 18.9376 15.7127 19.1202C15.7925 19.3084 15.7691 19.4895 15.6277 19.6439C15.4884 19.7956 15.3112 19.8626 15.1185 19.7817C14.9853 19.7256 14.8864 19.7523 14.7682 19.8103C13.7616 20.308 12.7012 20.6265 11.5855 20.7576C11.5486 20.7621 11.5121 20.7722 11.4606 20.7832C11.3917 21.1005 11.2412 21.3739 10.9567 21.5561C10.7558 21.6849 10.5357 21.7413 10.2967 21.7323C9.80566 21.7135 9.47151 21.4149 9.2495 20.7768C8.04612 20.639 6.89015 20.296 5.80492 19.7421C5.52007 19.9364 5.28526 19.9458 5.09561 19.7756C4.92515 19.6228 4.87849 19.3754 4.98272 19.1751C5.08169 18.9846 5.3195 18.8724 5.52157 18.9202C5.78498 18.9831 5.91254 19.1778 5.91593 19.5464ZM15.426 10.6968C16.0574 10.6968 16.676 10.6968 17.2961 10.6968C17.391 10.4777 17.5339 10.3252 17.7876 10.3259C18.0412 10.3267 18.1823 10.4825 18.276 10.6949C18.5413 10.6949 18.802 10.6949 19.0658 10.6949C19.1738 10.1207 19.52 9.80033 20.0845 9.70809C19.9494 8.51949 19.6122 7.40317 19.0666 6.34183C18.8709 6.39717 18.7159 6.32112 18.5639 6.20892C18.3084 6.35689 18.0555 6.50334 17.8068 6.64754C17.9926 7.29211 17.8139 7.7985 17.3146 8.07108C16.8525 8.32371 16.288 8.21453 15.9407 7.8C15.7834 7.61213 15.7033 7.39226 15.6943 7.14527C15.6815 6.79061 15.8211 6.50146 16.0784 6.25711C15.5155 5.56059 14.8645 4.98417 14.0943 4.52786C13.7861 5.07227 13.4813 5.61067 13.1787 6.14492C13.3372 6.39679 13.3398 6.40696 13.3199 6.70251C14.638 7.70211 15.3432 9.03303 15.426 10.6968ZM12.6523 10.8169C12.6576 9.58649 11.6739 8.52438 10.3626 8.52137C9.08732 8.51874 8.05929 9.53302 8.0638 10.8274C8.06869 12.1489 9.13661 13.112 10.3449 13.1113C11.6314 13.1105 12.6534 12.0947 12.6523 10.8169ZM17.663 7.0952C17.6758 6.64754 17.3033 6.22172 16.793 6.22361C16.2173 6.22586 15.9016 6.71908 15.9163 7.11026C15.9343 7.59443 16.3087 7.99202 16.7889 7.98336C17.3123 7.97394 17.6803 7.55528 17.663 7.0952ZM6.3306 2.32309C6.33135 1.83891 5.94678 1.44472 5.46851 1.43907C4.98159 1.43342 4.58573 1.82799 4.58084 2.31669C4.57632 2.75982 4.91085 3.20409 5.46212 3.19732C6.05139 3.19091 6.34264 2.70711 6.3306 2.32309ZM0.985368 15.726C0.98725 16.1997 1.3865 16.6116 1.85837 16.6044C2.36975 16.5965 2.74529 16.2192 2.74341 15.7226C2.74152 15.185 2.31368 14.8435 1.85423 14.8443C1.37897 14.845 0.983487 15.2524 0.985368 15.726ZM7.88882 15.9851C8.35091 15.9768 8.74226 15.6485 8.76333 15.1123C8.78214 14.6308 8.36935 14.234 7.87754 14.2362C7.38459 14.2385 7.0004 14.6293 7.00567 15.1236C7.01056 15.5992 7.40905 15.9881 7.88882 15.9851ZM2.93795 9.94416C2.44726 9.94265 2.06646 10.3154 2.06006 10.8037C2.05366 11.3011 2.43409 11.6919 2.92779 11.6952C3.40718 11.6986 3.80342 11.3101 3.80756 10.8327C3.81208 10.3365 3.42939 9.94566 2.93795 9.94416ZM20.162 9.94416C19.6739 9.94566 19.295 10.3252 19.2942 10.8135C19.2939 11.3116 19.6807 11.7009 20.1706 11.6956C20.6538 11.6904 21.0406 11.3029 21.0417 10.8229C21.0432 10.3297 20.656 9.94265 20.162 9.94416ZM9.48543 20.628C9.48431 21.1145 9.86473 21.503 10.3464 21.5072C10.8378 21.5113 11.2318 21.1243 11.2356 20.6337C11.2397 20.1424 10.8506 19.7568 10.3524 19.7583C9.86473 19.7598 9.48656 20.139 9.48543 20.628ZM15.3236 1.24706C14.8359 1.24781 14.4547 1.62732 14.4525 2.113C14.4502 2.60621 14.8427 3.00154 15.3296 2.99664C15.815 2.99175 16.2041 2.60659 16.2026 2.12618C16.2007 1.55315 15.7202 1.22221 15.3236 1.24706ZM14.0679 18.1224C14.445 18.1608 14.942 17.8265 14.9458 17.2633C14.9492 16.7731 14.5714 16.3849 14.0879 16.3823C13.5863 16.3796 13.196 16.7622 13.1987 17.2535C13.2021 17.8295 13.6943 18.1526 14.0679 18.1224ZM10.3494 2.78016C9.9716 2.78957 9.72701 3.06931 9.72438 3.41681C9.72212 3.76056 10.0292 4.04481 10.3701 4.03691C10.7031 4.029 10.9978 3.73684 10.9861 3.40552C10.9729 3.04182 10.7144 2.78317 10.3494 2.78016ZM1.16524 5.84899C1.16223 6.20365 1.43504 6.48301 1.78574 6.48489C2.13682 6.48678 2.41528 6.20855 2.41528 5.8569C2.41528 5.51315 2.14548 5.23756 1.8023 5.23078C1.44934 5.22363 1.16825 5.49621 1.16524 5.84899ZM5.45158 8.32823C5.44819 8.67724 5.72853 8.96187 6.07735 8.96413C6.40812 8.96639 6.69899 8.67988 6.70539 8.34592C6.71178 8.00218 6.42956 7.69797 6.08526 7.70211C5.70896 7.70625 5.45685 7.97884 5.45158 8.32823Z" fill="black"/>
<path d="M5.91593 19.5464C6.96503 20.0829 8.07133 20.4146 9.2495 20.549C9.30067 20.2282 9.42974 19.9503 9.69503 19.7516C9.89183 19.604 10.1157 19.5313 10.3603 19.529C10.9048 19.5241 11.2649 19.8483 11.4809 20.5452C12.6463 20.4198 13.7484 20.0799 14.813 19.543C14.7336 19.328 14.7652 19.1273 14.9202 18.9474C14.7896 18.7207 14.6617 18.4997 14.5296 18.2708C13.9705 18.4511 13.5027 18.3337 13.1313 17.8397C11.4869 18.4609 9.81281 18.5411 8.1225 18.0133C6.43446 17.4862 5.10313 16.4741 4.09128 15.0122C3.93136 15.0472 3.77445 15.034 3.63371 14.9305C3.53813 14.8601 3.48094 14.7656 3.44895 14.6549C3.3895 14.4505 3.48884 14.2163 3.67887 14.1071C3.86852 13.9979 4.11198 14.0292 4.26927 14.1824C4.45516 14.3635 4.46457 14.5913 4.29824 14.8846C6.13041 17.7523 9.96069 18.8905 13.0241 17.6213C12.8976 17.1266 13.0094 16.6974 13.426 16.3563C12.8119 15.2919 12.2026 14.2366 11.5915 13.1775C10.7675 13.5661 9.95843 13.5702 9.13021 13.1771C8.93304 13.5167 8.73699 13.8552 8.53266 14.2072C8.83068 14.4561 8.99851 14.7656 8.98233 15.1556C8.97142 15.4214 8.87697 15.6553 8.69484 15.8525C8.33172 16.2464 7.73492 16.325 7.28902 16.037C6.83784 15.7452 6.66061 15.1745 6.86794 14.6828C7.10275 14.1263 7.61376 13.9173 8.34301 14.0883C8.5368 13.7521 8.73285 13.4125 8.93341 13.0646C8.18422 12.5495 7.77105 11.847 7.70482 10.9374C6.48413 10.9374 5.27021 10.9374 4.0386 10.9374C3.96861 11.3116 3.78498 11.6173 3.43164 11.8014C3.19872 11.9227 2.94811 11.9467 2.69976 11.8933C2.17859 11.7818 1.81848 11.3319 1.8324 10.792C1.8467 10.2363 2.25121 9.76871 2.90182 9.71035C3.02412 8.95547 3.23936 8.2213 3.57953 7.52365C3.42939 7.37192 3.37859 7.19309 3.42562 6.98375C3.10427 6.78986 2.78856 6.59935 2.45742 6.39905C2.19741 6.67465 1.88057 6.77781 1.48697 6.66298C0.302398 9.33724 0.264016 12.0156 1.37521 14.7336C1.72102 14.5819 2.05404 14.5811 2.37953 14.7494C2.62374 14.8759 2.79646 15.0724 2.89279 15.3269C3.08847 15.8439 2.8879 16.3936 2.43221 16.6673C1.96034 16.9508 1.37972 16.8469 1.03353 16.4455C0.626009 15.973 0.677185 15.4282 1.1769 14.8398C0.0314673 12.0729 0.0657101 9.31465 1.28828 6.55568C1.06702 6.36479 0.922904 6.12873 0.939461 5.81322C0.94962 5.61594 1.01811 5.44614 1.14002 5.2978C1.37746 5.00902 1.82939 4.92092 2.16881 5.08997C2.56467 5.28726 2.7054 5.66187 2.58122 6.21118C2.89731 6.40169 3.21753 6.59483 3.53324 6.78534C3.85911 6.56321 4.05554 6.63474 4.21396 6.76012C4.38329 6.89377 4.43898 7.12306 4.36259 7.32034C4.27868 7.53645 4.08827 7.63999 3.7816 7.62719C3.45196 8.28606 3.24463 8.9871 3.12986 9.72729C3.63597 9.86095 3.93738 10.178 4.03145 10.6941C5.25553 10.6941 6.47472 10.6941 7.70519 10.6941C7.75863 9.94265 8.05364 9.31164 8.6177 8.81768C9.03953 8.44833 9.53209 8.23034 10.0916 8.17989C11.4391 8.05828 12.4536 8.87076 12.8318 9.86321C13.2521 10.9667 12.9379 12.272 11.7842 13.0653C12.3919 14.1191 13.0008 15.1741 13.616 16.2407C14.1074 16.0668 14.5413 16.1549 14.9217 16.5408C16.5639 15.1786 17.4749 13.4445 17.6589 11.3154C17.4963 11.2288 17.3503 11.1328 17.3044 10.9359C16.6847 10.9359 16.066 10.9359 15.4222 10.9359C15.3928 11.6184 15.257 12.2807 14.9729 12.897C15.1727 13.1945 15.1859 13.4177 15.0229 13.6131C14.8792 13.7859 14.6324 13.8368 14.4261 13.7366C14.232 13.6421 14.121 13.4215 14.1582 13.2039C14.2019 12.9505 14.3821 12.8285 14.7659 12.7927C15.7044 10.7755 15.0737 8.2341 13.1829 6.89641C12.9996 7.02028 12.7972 7.07298 12.5906 6.95326C12.3919 6.83805 12.3144 6.65357 12.3543 6.40395C11.02 5.83732 9.69766 5.83958 8.37462 6.39567C8.34301 6.85913 8.01564 7.11967 7.5385 6.88925C7.213 7.11101 6.93041 7.38322 6.66061 7.69496C6.84988 7.91032 6.9639 8.15579 6.92138 8.4472C6.89052 8.65766 6.79871 8.84328 6.63126 8.97995C6.30426 9.24688 5.88356 9.25893 5.55732 9.00743C5.22167 8.74915 5.12947 8.29171 5.32816 7.92688C5.54754 7.52403 5.94452 7.39489 6.45402 7.55603C6.76296 7.26763 7.06888 6.98187 7.39174 6.68067C7.33906 6.4977 7.35675 6.29966 7.51743 6.11856C6.98271 5.19162 6.44838 4.26582 5.91028 3.33323C5.69354 3.39837 5.48507 3.44543 5.26193 3.40401C4.7449 3.30801 4.35808 2.87127 4.35394 2.33476C4.34904 1.71881 4.79533 1.328 5.23371 1.24291C5.61451 1.16874 5.94189 1.26889 6.21658 1.53282C6.30087 1.61377 6.36334 1.63673 6.4751 1.58779C7.21752 1.26249 7.99381 1.04601 8.79381 0.925903C9.50688 0.818978 10.2241 0.782081 10.9473 0.827261C11.9215 0.888254 12.8691 1.07349 13.7974 1.36716C13.9817 1.42552 14.1631 1.49291 14.3622 1.56181C14.597 1.22974 14.9063 1.02116 15.33 1.0204C15.5987 1.02003 15.8335 1.11001 16.0382 1.27831C16.4295 1.60059 16.5394 2.19508 16.2944 2.64499C16.0386 3.11449 15.4858 3.3321 14.9733 3.16531C14.4273 2.98723 14.1748 2.49966 14.2621 1.76851C14.1097 1.71316 13.9547 1.65104 13.7959 1.60059C13.0192 1.35398 12.229 1.17778 11.4166 1.09194C9.88355 0.929668 8.39532 1.11114 6.94734 1.63372C6.78403 1.69245 6.62599 1.76587 6.46832 1.83138C6.6211 2.55124 6.56992 2.74778 6.10783 3.22856C6.63765 4.14684 7.1686 5.06738 7.70595 5.99846C7.92194 5.97135 8.11611 6.01954 8.26963 6.19687C9.66267 5.60878 11.0549 5.60916 12.4408 6.19386C12.6892 6.03686 12.6892 6.03686 12.9865 6.02783C13.2833 5.50336 13.5851 4.97062 13.899 4.41642C13.05 3.97102 12.1485 3.72404 11.2002 3.58699C11.1088 3.8607 10.9582 4.08133 10.6813 4.19353C10.4879 4.27184 10.2933 4.2869 10.095 4.22064C9.69578 4.0866 9.47603 3.73684 9.50387 3.35808C9.53774 2.898 9.85721 2.59379 10.3027 2.5584C10.755 2.52263 11.067 2.78994 11.222 3.35657C11.4181 3.39347 11.6201 3.43037 11.8218 3.46952C12.9883 3.69429 14.063 4.12877 14.9992 4.87386C15.4267 5.21421 15.8226 5.58845 16.1657 6.01578C16.1928 6.04966 16.2248 6.07978 16.2662 6.12421C16.8107 5.88024 17.2852 5.98905 17.6879 6.45327C17.937 6.3102 18.1853 6.16751 18.4438 6.01917C18.4438 5.9657 18.4427 5.91036 18.4442 5.85501C18.4495 5.64418 18.5812 5.4548 18.7731 5.39757C18.9763 5.33695 19.1588 5.3795 19.3048 5.538C19.4399 5.68446 19.4655 5.92052 19.3684 6.09898C19.3417 6.14831 19.3067 6.19311 19.2709 6.24657C19.8274 7.33691 20.1736 8.49313 20.3121 9.71713C20.641 9.7849 20.9063 9.93889 21.0877 10.2156C21.2145 10.4091 21.2739 10.623 21.2683 10.856C21.2559 11.3636 20.959 11.7024 20.3193 11.9279C20.2858 12.1346 20.253 12.3443 20.218 12.5537C20.063 13.4855 19.7725 14.374 19.3514 15.2189C19.2897 15.3428 19.2649 15.4463 19.3213 15.5867C19.4169 15.8247 19.2589 16.1131 19.0169 16.1918C18.7509 16.2784 18.463 16.1342 18.3821 15.8736C18.3016 15.6138 18.4416 15.3281 18.7012 15.2596C18.8167 15.2291 18.9439 15.2426 19.0978 15.2347C19.6163 14.2178 19.9528 13.1146 20.0837 11.9302C19.5189 11.8289 19.1693 11.5111 19.0662 10.9366C18.8036 10.9366 18.5424 10.9366 18.2816 10.9366C18.1624 11.1734 18.1458 11.1896 17.8869 11.3191C17.701 13.51 16.7599 15.3123 15.0534 16.726C15.1483 16.97 15.2115 17.22 15.1475 17.4888C15.0835 17.7565 14.9428 17.9696 14.7215 18.1496C14.8499 18.3736 14.9767 18.5949 15.1106 18.8284C15.1671 18.8284 15.2288 18.8265 15.2901 18.8288C15.4929 18.8355 15.6352 18.9376 15.7127 19.1202C15.7925 19.3084 15.7691 19.4895 15.6277 19.6439C15.4884 19.7956 15.3112 19.8626 15.1185 19.7817C14.9853 19.7256 14.8864 19.7523 14.7682 19.8103C13.7616 20.308 12.7012 20.6265 11.5855 20.7576C11.5486 20.7621 11.5121 20.7722 11.4606 20.7832C11.3917 21.1005 11.2412 21.3739 10.9567 21.5561C10.7558 21.6849 10.5357 21.7413 10.2967 21.7323C9.80566 21.7135 9.47151 21.4149 9.2495 20.7768C8.04612 20.639 6.89015 20.296 5.80492 19.7421C5.52007 19.9364 5.28526 19.9458 5.09561 19.7756C4.92515 19.6228 4.87849 19.3754 4.98272 19.1751C5.08169 18.9846 5.3195 18.8724 5.52157 18.9202C5.78498 18.9831 5.91254 19.1778 5.91593 19.5464ZM15.426 10.6968C16.0574 10.6968 16.676 10.6968 17.2961 10.6968C17.391 10.4777 17.5339 10.3252 17.7876 10.3259C18.0412 10.3267 18.1823 10.4825 18.276 10.6949C18.5413 10.6949 18.802 10.6949 19.0658 10.6949C19.1738 10.1207 19.52 9.80033 20.0845 9.70809C19.9494 8.51949 19.6122 7.40317 19.0666 6.34183C18.8709 6.39717 18.7159 6.32112 18.5639 6.20892C18.3084 6.35689 18.0555 6.50334 17.8068 6.64754C17.9926 7.29211 17.8139 7.7985 17.3146 8.07108C16.8525 8.32371 16.288 8.21453 15.9407 7.8C15.7834 7.61213 15.7033 7.39226 15.6943 7.14527C15.6815 6.79061 15.8211 6.50146 16.0784 6.25711C15.5155 5.56059 14.8645 4.98417 14.0943 4.52786C13.7861 5.07227 13.4813 5.61067 13.1787 6.14492C13.3372 6.39679 13.3398 6.40696 13.3199 6.70251C14.638 7.70211 15.3432 9.03303 15.426 10.6968ZM12.6523 10.8169C12.6576 9.58649 11.6739 8.52438 10.3626 8.52137C9.08732 8.51874 8.05929 9.53302 8.0638 10.8274C8.06869 12.1489 9.13661 13.112 10.3449 13.1113C11.6314 13.1105 12.6534 12.0947 12.6523 10.8169ZM17.663 7.0952C17.6758 6.64754 17.3033 6.22172 16.793 6.22361C16.2173 6.22586 15.9016 6.71908 15.9163 7.11026C15.9343 7.59443 16.3087 7.99202 16.7889 7.98336C17.3123 7.97394 17.6803 7.55528 17.663 7.0952ZM6.3306 2.32309C6.33135 1.83891 5.94678 1.44472 5.46851 1.43907C4.98159 1.43342 4.58573 1.82799 4.58084 2.31669C4.57632 2.75982 4.91085 3.20409 5.46212 3.19732C6.05139 3.19091 6.34264 2.70711 6.3306 2.32309ZM0.985368 15.726C0.98725 16.1997 1.3865 16.6116 1.85837 16.6044C2.36975 16.5965 2.74529 16.2192 2.74341 15.7226C2.74152 15.185 2.31368 14.8435 1.85423 14.8443C1.37897 14.845 0.983487 15.2524 0.985368 15.726ZM7.88882 15.9851C8.35091 15.9768 8.74226 15.6485 8.76333 15.1123C8.78214 14.6308 8.36935 14.234 7.87754 14.2362C7.38459 14.2385 7.0004 14.6293 7.00567 15.1236C7.01056 15.5992 7.40905 15.9881 7.88882 15.9851ZM2.93795 9.94416C2.44726 9.94265 2.06646 10.3154 2.06006 10.8037C2.05366 11.3011 2.43409 11.6919 2.92779 11.6952C3.40718 11.6986 3.80342 11.3101 3.80756 10.8327C3.81208 10.3365 3.42939 9.94566 2.93795 9.94416ZM20.162 9.94416C19.6739 9.94566 19.295 10.3252 19.2942 10.8135C19.2939 11.3116 19.6807 11.7009 20.1706 11.6956C20.6538 11.6904 21.0406 11.3029 21.0417 10.8229C21.0432 10.3297 20.656 9.94265 20.162 9.94416ZM9.48543 20.628C9.48431 21.1145 9.86473 21.503 10.3464 21.5072C10.8378 21.5113 11.2318 21.1243 11.2356 20.6337C11.2397 20.1424 10.8506 19.7568 10.3524 19.7583C9.86473 19.7598 9.48656 20.139 9.48543 20.628ZM15.3236 1.24706C14.8359 1.24781 14.4547 1.62732 14.4525 2.113C14.4502 2.60621 14.8427 3.00154 15.3296 2.99664C15.815 2.99175 16.2041 2.60659 16.2026 2.12618C16.2007 1.55315 15.7202 1.22221 15.3236 1.24706ZM14.0679 18.1224C14.445 18.1608 14.942 17.8265 14.9458 17.2633C14.9492 16.7731 14.5714 16.3849 14.0879 16.3823C13.5863 16.3796 13.196 16.7622 13.1987 17.2535C13.2021 17.8295 13.6943 18.1526 14.0679 18.1224ZM10.3494 2.78016C9.9716 2.78957 9.72701 3.06931 9.72438 3.41681C9.72212 3.76056 10.0292 4.04481 10.3701 4.03691C10.7031 4.029 10.9978 3.73684 10.9861 3.40552C10.9729 3.04182 10.7144 2.78317 10.3494 2.78016ZM1.16524 5.84899C1.16223 6.20365 1.43504 6.48301 1.78574 6.48489C2.13682 6.48678 2.41528 6.20855 2.41528 5.8569C2.41528 5.51315 2.14548 5.23756 1.8023 5.23078C1.44934 5.22363 1.16825 5.49621 1.16524 5.84899ZM5.45158 8.32823C5.44819 8.67724 5.72853 8.96187 6.07735 8.96413C6.40812 8.96639 6.69899 8.67988 6.70539 8.34592C6.71178 8.00218 6.42956 7.69797 6.08526 7.70211C5.70896 7.70625 5.45685 7.97884 5.45158 8.32823Z" stroke="black" stroke-width="0.523122" mask="url(#path-1-outside-1_3931_125882)"/>
</svg>
