<svg width="617" height="68" viewBox="0 0 617 68" fill="none" xmlns="http://www.w3.org/2000/svg">
<path d="M298.985 66.5056C314.433 66.5056 326.955 53.9609 326.955 38.4862C326.955 23.0115 314.433 10.4668 298.985 10.4668C283.538 10.4668 271.016 23.0115 271.016 38.4862C271.016 53.9609 283.538 66.5056 298.985 66.5056Z" fill="#154954"/>
<path d="M312.808 49.7352C310.324 52.5952 307.162 54.3269 303.461 55.0067C302.436 55.1946 301.378 55.2591 300.334 55.2754C297.907 55.3135 295.48 55.289 293.053 55.289C292.453 55.289 292.435 55.2718 292.435 54.6945C292.435 50.7744 292.435 46.8553 292.436 42.9352C292.436 42.3135 292.438 42.3126 293.066 42.3135C296.407 42.3144 299.748 42.3153 303.089 42.3162H303.69C303.622 42.5214 303.598 42.6511 303.539 42.76C302.976 43.792 302.402 44.8195 301.843 45.8542C301.697 46.1229 301.485 46.1755 301.209 46.1737C299.831 46.1655 298.452 46.1818 297.074 46.1627C296.682 46.1573 296.555 46.2835 296.561 46.6838C296.582 48.0152 296.576 49.3477 296.564 50.6792C296.561 50.9814 296.64 51.1275 296.963 51.1212C298.61 51.0903 300.27 51.1929 301.902 51.0222C305.079 50.6892 307.754 49.2469 309.871 46.8272C312.118 44.2586 313.163 41.2234 312.975 37.8117C312.69 32.6027 309.35 28.3187 304.717 26.6314C303.275 26.1068 301.797 25.8653 300.271 25.8663C295.716 25.8699 291.161 25.869 286.607 25.8699C285.817 25.8699 285.818 25.8699 285.818 26.6904C285.819 29.3416 285.818 31.9928 285.818 34.644V34.6639H285.813C285.813 35.223 285.813 35.7822 285.815 36.3413C285.817 37.209 285.824 38.0758 285.826 38.9434C285.827 39.1812 285.827 39.419 285.817 39.6559C285.816 39.7058 285.781 39.7676 285.742 39.8012C285.66 39.8702 285.558 39.9164 285.478 39.9873C285.434 40.0263 285.398 40.097 285.396 40.1552C285.388 40.442 285.39 40.7288 285.396 41.0156C285.397 41.0682 285.427 41.1299 285.463 41.169C285.584 41.2978 285.591 41.4794 285.469 41.6019C285.368 41.7045 285.201 41.7063 285.101 41.6064C284.977 41.4812 284.982 41.306 285.101 41.1735C285.141 41.129 285.172 41.061 285.175 41.002C285.185 40.8032 285.179 40.6035 285.178 40.4038C285.178 40.3685 285.168 40.3321 285.159 40.2722C285.058 40.3503 284.979 40.4175 284.893 40.4755C284.813 40.5309 284.783 40.6017 284.784 40.6979C284.787 41.0373 284.792 41.3768 284.783 41.7153C284.778 41.8587 284.83 41.9504 284.945 42.0294C285.173 42.1864 285.398 42.348 285.616 42.5168C285.668 42.5567 285.724 42.6311 285.726 42.692C285.739 43.2402 285.744 43.7893 285.745 44.3385C285.746 44.6743 285.739 45.0091 285.732 45.345C285.73 45.4403 285.761 45.4966 285.852 45.5383C286.035 45.6228 286.107 45.7924 286.062 45.994C286.02 46.1737 285.859 46.3035 285.665 46.3125C285.502 46.3198 285.345 46.2063 285.292 46.0438C285.225 45.8333 285.286 45.6263 285.431 45.5247C285.472 45.4957 285.509 45.4339 285.513 45.384C285.523 45.2279 285.517 45.07 285.516 44.9121C285.515 44.8876 285.505 44.8631 285.497 44.8304C285.47 44.8458 285.454 44.8521 285.442 44.8631C285.194 45.0637 284.945 45.2624 284.702 45.4694C284.658 45.5074 284.626 45.5809 284.622 45.64C284.611 45.8179 284.611 45.9967 284.621 46.1746C284.625 46.2336 284.658 46.3043 284.7 46.3461C284.813 46.4605 284.939 46.5612 285.061 46.6683C285.155 46.7509 285.238 46.8589 285.346 46.9124C285.484 46.9796 285.495 47.0758 285.494 47.2011C285.491 47.7366 285.496 48.2712 285.492 48.8067C285.491 48.9247 285.513 49.0163 285.607 49.1026C285.77 49.2505 285.777 49.4466 285.649 49.5891C285.499 49.7552 285.241 49.7897 285.079 49.6644C284.862 49.4956 284.855 49.2278 285.067 49.0173C285.129 48.9565 285.177 48.8975 285.177 48.8022C285.174 48.2639 285.178 47.7248 285.172 47.1866C285.171 47.1221 285.132 47.045 285.085 46.9987C284.973 46.8879 284.848 46.7917 284.726 46.691C284.704 46.672 284.677 46.6601 284.635 46.6338C284.627 46.6946 284.617 46.7345 284.618 46.7736C284.62 46.9343 284.63 47.0958 284.626 47.2564C284.623 47.3463 284.648 47.4062 284.724 47.458C284.775 47.4906 284.819 47.5442 284.846 47.5978C284.938 47.7829 284.848 48.0388 284.663 48.1432C284.47 48.2521 284.262 48.2076 284.145 48.0307C284.008 47.8264 284.036 47.5878 284.219 47.4516C284.289 47.3999 284.317 47.3408 284.316 47.2564C284.315 46.8925 284.316 46.5294 284.316 46.1655C284.316 46.1265 284.306 46.0874 284.296 46.0221C284.156 46.141 284.045 46.2517 283.917 46.3407C283.783 46.435 283.743 46.5585 283.774 46.7037C283.79 46.7809 283.837 46.8544 283.882 46.9224C283.96 47.0387 283.953 47.1902 283.857 47.2764C283.761 47.3627 283.563 47.3681 283.465 47.2864C283.371 47.2084 283.336 47.0405 283.424 46.9451C283.541 46.819 283.551 46.6783 283.54 46.5267C283.532 46.4197 283.572 46.3407 283.654 46.2717C283.819 46.131 283.977 45.9813 284.144 45.8424C284.262 45.7452 284.334 45.6363 284.321 45.4748C284.317 45.4294 284.35 45.365 284.387 45.3359C284.736 45.0672 285.091 44.8059 285.44 44.5363C285.479 44.5054 285.51 44.4355 285.511 44.3829C285.517 43.8582 285.517 43.3336 285.514 42.809C285.514 42.7618 285.494 42.6965 285.46 42.6711C285.179 42.4605 284.899 42.2518 284.608 42.0575C284.521 42.0003 284.482 41.9486 284.485 41.8515C284.489 41.788 284.48 41.7245 284.475 41.6309C284.363 41.7053 284.284 41.768 284.196 41.8152C284.061 41.8869 284.019 41.9931 284.022 42.1419C284.029 42.6003 284.025 43.0587 284.023 43.517C284.023 43.6713 284.023 43.8147 284.138 43.9463C284.245 44.068 284.181 44.2613 284.043 44.3176C283.918 44.3693 283.754 44.3357 283.686 44.2449C283.615 44.1514 283.624 44.0098 283.72 43.8982C283.786 43.822 283.81 43.7375 283.81 43.6386C283.808 43.2193 283.81 42.799 283.809 42.3798C283.809 42.2291 283.808 42.0793 283.806 41.9296C283.804 41.8434 283.848 41.7889 283.916 41.7417C284.067 41.6373 284.212 41.5293 284.358 41.4195C284.399 41.3886 284.463 41.3496 284.466 41.3114C284.477 41.1445 284.471 40.9766 284.471 40.7905C284.426 40.8177 284.396 40.834 284.369 40.854C284.062 41.0746 283.757 41.2988 283.448 41.5166C283.361 41.5783 283.329 41.6491 283.329 41.7544C283.332 42.7092 283.332 43.6641 283.329 44.6198C283.329 44.736 283.352 44.8077 283.468 44.8657C283.671 44.9656 283.731 45.1871 283.632 45.3858C283.532 45.5891 283.298 45.6872 283.103 45.6C282.956 45.5338 282.887 45.404 282.869 45.2497C282.852 45.09 282.875 44.9384 283.029 44.8458C283.091 44.8086 283.118 44.765 283.118 44.6942C283.115 44.4074 283.118 44.1206 283.116 43.8337C283.115 43.802 283.098 43.7702 283.088 43.7375C283.057 43.7503 283.021 43.7557 282.996 43.7748C282.715 43.9899 282.437 44.2086 282.155 44.421C282.077 44.48 282.045 44.549 282.047 44.6443C282.052 44.9039 282.045 45.1626 282.049 45.4212C282.058 45.954 281.975 45.7888 282.384 46.1229C282.541 46.2508 282.693 46.3897 282.867 46.4922C282.971 46.5539 282.997 46.6156 282.996 46.7228C282.992 47.0477 282.998 47.3735 282.993 47.6985C282.992 47.8147 283.018 47.8999 283.112 47.9808C283.277 48.1205 283.288 48.3329 283.161 48.4745C283.011 48.6415 282.75 48.6751 282.591 48.548C282.374 48.3738 282.38 48.0833 282.599 47.8809C282.637 47.8464 282.682 47.7929 282.682 47.7475C282.691 47.418 282.689 47.0895 282.69 46.7609C282.691 46.6774 282.656 46.6166 282.586 46.5666C282.443 46.4659 282.305 46.3588 282.164 46.2544C282.135 46.2336 282.104 46.2163 282.054 46.1854C282.055 46.3588 282.009 46.5049 282.171 46.6229C282.32 46.73 282.345 46.9978 282.251 47.1512C282.159 47.301 282.014 47.3672 281.839 47.3382C281.675 47.311 281.528 47.1829 281.502 47.0441C281.467 46.8653 281.529 46.7037 281.693 46.6148C281.805 46.5531 281.837 46.4741 281.836 46.3525C281.83 45.8315 281.834 45.3105 281.833 44.7895C281.833 44.7487 281.828 44.7087 281.823 44.647C281.773 44.6761 281.74 44.6915 281.71 44.7133C281.599 44.794 281.498 44.8876 281.38 44.9556C281.204 45.0573 281.164 45.2052 281.191 45.3895C281.192 45.403 281.19 45.4194 281.196 45.4312C281.208 45.4557 281.218 45.4884 281.238 45.4992C281.356 45.5564 281.361 45.659 281.355 45.7679C281.347 45.9131 281.258 46.0239 281.131 46.0511C281.041 46.0702 280.901 45.9821 280.837 45.8669C280.781 45.7652 280.797 45.6363 280.892 45.5501C280.957 45.492 280.978 45.4275 280.974 45.3468C280.971 45.2841 280.978 45.2197 280.972 45.158C280.96 45.0328 281.012 44.9448 281.111 44.8721C281.364 44.6842 281.615 44.4936 281.867 44.3048C282.235 44.0307 282.601 43.7548 282.972 43.4844C283.078 43.4072 283.122 43.3201 283.12 43.1857C283.113 42.7138 283.126 42.2409 283.113 41.7689C283.108 41.5692 283.161 41.4458 283.334 41.3214C284.035 40.8204 284.716 40.2931 285.408 39.7775C285.488 39.7168 285.52 39.6469 285.52 39.5461C285.523 38.6231 285.529 37.7 285.532 36.776C285.533 36.6989 285.523 36.6226 285.523 36.5455C285.523 36.1262 285.522 35.7068 285.523 35.2875C285.523 35.0796 285.532 34.8718 285.531 34.6639H285.39C285.389 34.6884 285.39 34.7129 285.39 34.7375C285.39 35.7803 285.39 36.8223 285.39 37.8652C285.39 37.9069 285.395 37.9505 285.384 37.9895C285.378 38.0122 285.344 38.0421 285.323 38.0421C285.226 38.0394 285.097 37.9024 285.097 37.8035C285.095 37.5929 285.094 37.3832 285.097 37.1735C285.098 37.0873 285.07 37.0211 285.01 36.9576C284.972 36.9167 284.932 36.8577 284.932 36.806C284.924 36.2641 284.923 35.7223 284.922 35.1804C284.922 35.0089 284.925 34.8364 284.923 34.6639H284.779C284.78 34.6812 284.781 34.6984 284.782 34.7148C284.786 35.0397 284.796 35.3646 284.796 35.6905C284.796 36.127 284.786 36.5645 284.786 37.0011C284.786 37.0492 284.82 37.1073 284.856 37.1427C284.941 37.2271 284.967 37.3269 284.949 37.4395C284.927 37.5739 284.855 37.641 284.729 37.6564C284.6 37.6728 284.486 37.6174 284.439 37.5148C284.382 37.3914 284.391 37.2026 284.478 37.1536C284.589 37.0928 284.588 37.0048 284.588 36.9049C284.588 36.167 284.589 35.4282 284.589 34.6903C284.589 34.6821 284.59 34.6731 284.591 34.6639H284.359C284.359 35.3791 284.359 36.0944 284.36 36.8096C284.36 36.8522 284.36 36.894 284.357 36.9357C284.351 37.0111 284.316 37.042 284.238 37.0229C284.093 36.9875 284.067 36.9584 284.067 36.8068C284.066 36.0926 284.067 35.3791 284.066 34.6658C284.066 34.6649 284.066 34.6649 284.066 34.6639H284.006C284.006 34.6667 284.005 34.6694 284.005 34.6712C284.01 35.0279 284.019 35.3846 284.021 35.7413C284.023 36.3467 284.024 36.9521 284.02 37.5575C284.019 37.6755 284.058 37.7418 284.168 37.7898C284.441 37.9079 284.708 38.0395 284.981 38.1592C285.08 38.2028 285.127 38.2618 285.123 38.3743C285.115 38.584 285.124 38.7937 285.12 39.0033C285.118 39.1068 285.147 39.1885 285.212 39.272C285.259 39.3319 285.294 39.4245 285.287 39.4971C285.275 39.6206 285.12 39.7095 284.963 39.7131C284.848 39.7158 284.717 39.6278 284.685 39.5244C284.649 39.4145 284.695 39.3338 284.828 39.2266C284.871 39.1912 284.916 39.1286 284.919 39.0768C284.929 38.8881 284.928 38.6993 284.919 38.5105C284.918 38.466 284.875 38.4052 284.834 38.3843C284.659 38.2972 284.478 38.2201 284.298 38.142C284.209 38.1048 284.187 38.123 284.188 38.2219C284.189 38.5577 284.183 38.8935 284.192 39.2294C284.198 39.4045 284.16 39.5162 283.994 39.6269C283.5 39.9582 283.029 40.3231 282.551 40.6798C282.513 40.7088 282.477 40.7696 282.476 40.8168C282.469 41.2016 282.47 41.5864 282.475 41.9713C282.476 42.0094 282.503 42.0603 282.534 42.082C282.777 42.2509 282.807 42.6048 282.58 42.7937C282.516 42.8462 282.416 42.8807 282.333 42.8799C282.19 42.8771 282.057 42.7301 282.025 42.5749C281.99 42.3979 281.996 42.2309 282.16 42.112C282.265 42.0366 282.286 41.9659 282.224 41.8143C282.001 41.9649 281.786 42.1065 281.576 42.2563C281.545 42.279 281.531 42.3416 281.528 42.387C281.523 42.5195 281.529 42.653 281.526 42.7855C281.523 42.8672 281.551 42.9198 281.624 42.9643C281.771 43.0541 281.828 43.2619 281.759 43.419C281.696 43.5661 281.554 43.6559 281.393 43.6523C281.213 43.6486 281.052 43.5469 280.999 43.4035C280.947 43.2647 280.994 43.1131 281.138 42.9951C281.205 42.9398 281.228 42.8789 281.227 42.7955C281.225 42.6003 281.224 42.4043 281.23 42.2082C281.232 42.1655 281.254 42.1057 281.286 42.0848C281.575 41.9023 281.869 41.7263 282.163 41.5502C282.23 41.5094 282.26 41.4558 282.259 41.3777C282.256 41.1817 282.263 40.9856 282.257 40.7905C282.254 40.6761 282.298 40.6017 282.392 40.5391C282.6 40.402 282.802 40.2577 283.004 40.1134C283.093 40.0498 283.092 40.0299 283.003 39.97C282.833 39.8538 282.662 39.7367 282.487 39.6278C282.393 39.5688 282.355 39.498 282.356 39.3863C282.361 38.8554 282.357 38.3235 282.36 37.7917C282.36 37.6809 282.353 37.5865 282.256 37.5012C282.146 37.4023 282.158 37.1962 282.256 37.0991C282.341 37.0148 282.545 37.0074 282.637 37.0855C282.739 37.1727 282.75 37.3524 282.658 37.4785C282.645 37.4985 282.623 37.5139 282.612 37.5348C282.591 37.5774 282.558 37.6219 282.558 37.6664C282.555 38.2228 282.555 38.7792 282.56 39.3346C282.56 39.3791 282.593 39.4408 282.629 39.4626C282.824 39.5797 283.023 39.6913 283.227 39.7921C283.272 39.8148 283.356 39.8066 283.398 39.7775C283.569 39.6614 283.734 39.5361 283.893 39.4055C283.936 39.37 283.973 39.3019 283.974 39.2484C283.981 38.8672 283.98 38.486 283.976 38.1048C283.976 38.0585 283.951 37.9941 283.916 37.9704C283.829 37.9142 283.81 37.8407 283.811 37.7472C283.813 37.2789 283.813 36.8096 283.813 36.3413C283.813 36.3022 283.818 36.2605 283.805 36.2269C283.796 36.2024 283.758 36.1715 283.736 36.1733C283.588 36.186 283.499 36.2886 283.499 36.4366C283.499 36.9793 283.501 37.5212 283.498 38.064C283.498 38.1765 283.524 38.2664 283.615 38.3389C283.694 38.4007 283.752 38.4787 283.75 38.5877C283.748 38.741 283.63 38.8881 283.472 38.9289C283.33 38.9661 283.159 38.8799 283.079 38.7311C283.003 38.5894 283.029 38.4143 283.169 38.3172C283.284 38.2373 283.306 38.1411 283.305 38.014C283.301 37.4504 283.306 36.8877 283.304 36.324C283.303 36.2178 283.336 36.1452 283.429 36.0916C283.532 36.0318 283.632 35.9664 283.726 35.8929C283.765 35.862 283.807 35.8048 283.808 35.7586C283.814 35.3937 283.813 35.0288 283.81 34.6639H283.499C283.498 34.9535 283.495 35.2421 283.499 35.5317C283.501 35.6379 283.463 35.7104 283.372 35.764C283.287 35.8139 283.211 35.8765 283.126 35.9256C283.024 35.9854 282.984 36.0663 282.989 36.1852C282.997 36.3666 282.995 36.5491 282.988 36.7306C282.986 36.7796 282.958 36.8604 282.927 36.8677C282.877 36.8804 282.803 36.8595 282.76 36.8259C282.669 36.757 282.571 36.7043 282.461 36.7234C282.339 36.7443 282.223 36.7942 282.103 36.8277C282.033 36.8468 281.952 36.8822 281.891 36.8632C281.857 36.8522 281.842 36.7443 281.839 36.6789C281.833 36.501 281.838 36.3222 281.838 36.1443V34.6639C281.839 30.654 281.837 26.6432 281.838 22.6333C281.838 22.4517 281.847 22.2693 281.838 22.0887C281.821 21.7329 282.014 21.6712 282.32 21.6739C283.908 21.6884 285.496 21.6884 287.085 21.6893C291.504 21.6902 295.924 21.6902 300.344 21.6893C307.471 21.6875 313.805 26.0514 316.127 32.8596C318.243 39.0651 317.119 44.7714 312.808 49.7352Z" fill="white"/>
<path d="M307.976 32.4931C307.896 32.6684 307.853 32.7881 307.789 32.8961C307.143 34.0025 306.486 35.1017 305.852 36.2145C305.699 36.4831 305.529 36.602 305.217 36.6011C301.142 36.593 297.067 36.5902 292.992 36.6065C292.529 36.6084 292.402 36.4559 292.415 36.0039C292.446 35.0064 292.438 34.0062 292.418 33.0078C292.41 32.6039 292.532 32.4405 292.953 32.4414C297.807 32.4505 302.662 32.4459 307.516 32.4469C307.644 32.4478 307.773 32.4723 307.976 32.4931Z" fill="white"/>
<g clip-path="url(#clip0_27_9982)">
<path d="M348.174 54.0759C356.498 54.0759 364.62 48.7594 364.62 36.3543C364.62 23.9493 356.498 18.6328 348.174 18.6328H337.125V54.0759H348.174ZM343.684 47.9999V24.7088H346.105C351.756 24.7088 357.961 26.9366 357.961 36.3543C357.961 45.7721 351.756 47.9999 346.105 47.9999H343.684Z" fill="#202226"/>
<path d="M375.443 36.4561C376.251 34.0764 378.067 33.5194 379.833 33.5194C382.153 33.5194 384.272 34.4308 384.272 37.2663V38.3802H380.034C373.627 38.3802 369.188 41.6713 369.188 46.7346C369.188 51.7979 372.568 54.4815 376.906 54.4815C380.539 54.4815 382.96 53.0131 384.726 50.8359L385.382 54.0764H390.528V38.8359C390.528 30.684 385.887 28.1523 379.833 28.1523C374.636 28.1523 370.953 31.0384 370.146 35.241L375.443 36.4561ZM375.746 46.6334C375.746 44.3549 377.411 43.3422 380.085 43.3422H384.272V43.8485C384.272 47.1397 381.245 49.1144 378.369 49.1144C376.604 49.1144 375.746 47.8486 375.746 46.6334Z" fill="#202226"/>
<path d="M410.333 48.507C409.476 48.9627 408.769 49.1146 407.912 49.1146C405.793 49.1146 404.582 48.1019 404.582 44.9627V33.9247H411.292V28.5576H404.582V18.2285L398.326 22.1779V28.5576H394.391V33.9247H398.326V45.064C398.326 51.3931 401.908 54.4817 407.659 54.4817C409.022 54.4817 410.384 54.2285 411.796 53.5703L410.333 48.507Z" fill="#202226"/>
<path d="M421.709 36.4561C422.516 34.0764 424.332 33.5194 426.098 33.5194C428.419 33.5194 430.538 34.4308 430.538 37.2663V38.3802H426.3C419.893 38.3802 415.453 41.6713 415.453 46.7346C415.453 51.7979 418.833 54.4815 423.172 54.4815C426.804 54.4815 429.226 53.0131 430.992 50.8359L431.648 54.0764H436.794V38.8359C436.794 30.684 432.152 28.1523 426.098 28.1523C420.902 28.1523 417.219 31.0384 416.412 35.241L421.709 36.4561ZM422.012 46.6334C422.012 44.3549 423.677 43.3422 426.35 43.3422H430.538V43.8485C430.538 47.1397 427.511 49.1144 424.635 49.1144C422.869 49.1144 422.012 47.8486 422.012 46.6334Z" fill="#202226"/>
<path d="M456.5 18.6328V54.0759H463.059V38.886H475.772V32.81H463.059V24.7088H478.85V18.6328H456.5Z" fill="#202226"/>
<path d="M487.725 36.4561C488.532 34.0764 490.348 33.5194 492.114 33.5194C494.434 33.5194 496.553 34.4308 496.553 37.2663V38.3802H492.316C485.908 38.3802 481.469 41.6713 481.469 46.7346C481.469 51.7979 484.849 54.4815 489.188 54.4815C492.82 54.4815 495.242 53.0131 497.007 50.8359L497.663 54.0764H502.809V38.8359C502.809 30.684 498.168 28.1523 492.114 28.1523C486.917 28.1523 483.235 31.0384 482.427 35.241L487.725 36.4561ZM488.027 46.6334C488.027 44.3549 489.692 43.3422 492.366 43.3422H496.553V43.8485C496.553 47.1397 493.526 49.1144 490.651 49.1144C488.885 49.1144 488.027 47.8486 488.027 46.6334Z" fill="#202226"/>
<path d="M526.591 44.9118C525.279 47.5954 523.463 49.1144 520.637 49.1144C516.702 49.1144 514.785 45.8232 514.785 41.3169C514.785 36.8106 516.702 33.5194 520.637 33.5194C523.463 33.5194 525.279 35.0384 526.591 37.722L532.191 35.4435C530.273 30.6334 526.288 28.1523 520.637 28.1523C512.363 28.1523 508.227 34.127 508.227 41.3169C508.227 48.5068 512.363 54.4815 520.637 54.4815C526.288 54.4815 530.273 52.0004 532.191 47.1903L526.591 44.9118ZM524.875 57.1144H520.335L513.221 64.203L520.688 67.5448L524.875 57.1144Z" fill="#202226"/>
<path d="M542.264 36.4561C543.071 34.0764 544.887 33.5194 546.653 33.5194C548.974 33.5194 551.092 34.4308 551.092 37.2663V38.3802H546.855C540.447 38.3802 536.008 41.6713 536.008 46.7346C536.008 51.7979 539.388 54.4815 543.727 54.4815C547.359 54.4815 549.781 53.0131 551.547 50.8359L552.202 54.0764H557.348V38.8359C557.348 30.684 552.707 28.1523 546.653 28.1523C541.456 28.1523 537.774 31.0384 536.966 35.241L542.264 36.4561ZM542.566 46.6334C542.566 44.3549 544.231 43.3422 546.905 43.3422H551.092V43.8485C551.092 47.1397 548.065 49.1144 545.19 49.1144C543.424 49.1144 542.566 47.8486 542.566 46.6334Z" fill="#202226"/>
<path d="M562.766 41.3171C562.766 49.1652 566.7 54.4817 574.369 54.4817C577.497 54.4817 579.818 52.7602 580.524 51.4437V54.0766H586.78V18.2285H580.524V30.8868C579.414 29.469 576.942 28.1526 574.369 28.1526C566.7 28.1526 562.766 33.469 562.766 41.3171ZM569.324 41.3171C569.324 36.2538 571.948 33.5197 575.227 33.5197C578.506 33.5197 581.079 36.2538 581.079 41.3171C581.079 46.3804 578.506 49.1146 575.227 49.1146C571.948 49.1146 569.324 46.3804 569.324 41.3171Z" fill="#202226"/>
<path d="M616.44 40.7599C616.44 35.1903 613.06 28.1523 604.584 28.1523C595.856 28.1523 592.375 35.2916 592.375 41.3169C592.375 47.3422 595.856 54.4815 604.584 54.4815C610.739 54.4815 614.17 51.5448 616.137 47.0384L611.092 45.165C609.579 47.7979 607.813 49.1144 604.937 49.1144C601.052 49.1144 599.085 46.1777 598.934 43.3422H616.44V40.7599ZM604.584 33.5194C607.914 33.5194 609.478 35.8485 610.033 38.3802H599.085C599.539 35.9498 601.406 33.5194 604.584 33.5194Z" fill="#202226"/>
</g>
<path d="M23.951 28.1954H19.9022L12.634 49.1708L5.1219 20.8296H1.02438L10.0487 54H14.5364L21.8534 32.927L29.1704 54H33.707L42.7313 20.8296H38.7801L31.2192 49.3171L23.951 28.1954ZM65.2576 46.9269C64.4283 48.3415 63.404 49.4147 62.2332 50.1952C61.0625 50.9756 59.5503 51.3659 57.7455 51.3659C55.3553 51.3659 53.3553 50.5366 51.7943 48.9269C50.2334 47.3171 49.4041 45.1708 49.3065 42.5855H68.4771C68.6234 40.1465 68.282 37.9514 67.4039 35.9514C66.5259 34.0002 65.2088 32.488 63.4527 31.3661C61.6479 30.2441 59.5991 29.7076 57.2089 29.7076C55.1114 29.7076 53.1602 30.2929 51.4041 31.4149C49.5992 32.5368 48.1846 34.0978 47.1602 36.0002C46.1358 37.9026 45.5993 40.0001 45.5993 42.2928C45.5993 44.683 46.1358 46.7806 47.209 48.683C48.2334 50.5854 49.6968 52.0488 51.5504 53.122C53.4041 54.1951 55.4528 54.7317 57.7455 54.7317C62.6235 54.7317 66.2332 52.5854 68.5259 48.3415L65.2576 46.9269ZM57.2089 32.9758C59.3064 32.9758 61.0137 33.5612 62.3308 34.7319C63.6479 35.9026 64.4771 37.5124 64.8186 39.5123H49.5992C50.0382 37.5611 50.9651 36.0002 52.3309 34.7807C53.6967 33.5612 55.3065 32.9758 57.2089 32.9758ZM81.0317 54V50.683H79.6171C78.7878 50.683 78.2025 50.5366 77.9098 50.2439C77.6171 50 77.4708 49.4635 77.4708 48.7318V20.8296H73.7635V49.1708C73.7635 50.7805 74.1049 52 74.8366 52.7805C75.5196 53.6098 76.7878 54 78.6903 54H81.0317ZM96.374 54.7317C98.8618 54.7317 101.008 54.0976 102.813 52.8781C104.618 51.6586 106.032 49.9513 107.106 47.6586L103.837 46.2928C103.008 48.0001 102.033 49.2196 100.813 50.0488C99.5935 50.8781 98.0813 51.3171 96.374 51.3171C94.7643 51.3171 93.3497 50.9269 92.0326 50.0976C90.7156 49.3171 89.74 48.244 89.0083 46.8293C88.2766 45.4635 87.8863 43.9025 87.8863 42.1952C87.8863 40.4879 88.2278 38.9758 88.9595 37.5611C89.6912 36.1465 90.6668 35.0734 91.9351 34.2441C93.1546 33.4636 94.5692 33.0734 96.1301 33.0734C97.6423 33.0734 99.0569 33.4636 100.276 34.2441C101.496 35.0734 102.472 36.1465 103.203 37.4636L106.569 36.0002C105.496 34.049 104.032 32.488 102.228 31.3661C100.423 30.2441 98.374 29.7076 96.1301 29.7076C93.8863 29.7076 91.8375 30.2441 90.0326 31.3173C88.179 32.4392 86.7156 33.9514 85.6912 35.8538C84.6181 37.7563 84.0815 39.9026 84.0815 42.1952C84.0815 44.5367 84.6181 46.6342 85.74 48.5366C86.8132 50.4391 88.2766 51.9512 90.179 53.0732C92.0326 54.1951 94.0814 54.7317 96.374 54.7317ZM122.263 54.7317C124.555 54.7317 126.702 54.1951 128.604 53.0732C130.507 51.9512 131.97 50.4391 133.092 48.5366C134.165 46.6342 134.702 44.5367 134.702 42.1952C134.702 39.9026 134.165 37.7563 133.092 35.8538C131.97 33.9514 130.507 32.488 128.604 31.3661C126.702 30.2441 124.555 29.7076 122.263 29.7076C119.97 29.7076 117.921 30.2441 116.019 31.3661C114.116 32.488 112.604 33.9514 111.531 35.8538C110.409 37.7563 109.873 39.9026 109.873 42.1952C109.873 44.4879 110.409 46.6342 111.531 48.5366C112.604 50.4391 114.116 51.9512 116.019 53.0732C117.921 54.1951 119.97 54.7317 122.263 54.7317ZM122.263 51.3171C120.653 51.3171 119.19 50.9269 117.873 50.0976C116.555 49.3171 115.531 48.244 114.799 46.8293C114.068 45.4635 113.677 43.9025 113.677 42.1952C113.677 40.4879 114.068 38.9758 114.799 37.5611C115.531 36.1465 116.555 35.0734 117.873 34.2441C119.19 33.4636 120.653 33.0734 122.263 33.0734C123.921 33.0734 125.385 33.4636 126.702 34.2441C128.019 35.0734 129.043 36.1465 129.775 37.5611C130.507 38.9758 130.897 40.4879 130.897 42.1952C130.897 43.9025 130.507 45.4635 129.775 46.8293C129.043 48.244 128.019 49.3171 126.702 50.0976C125.385 50.9269 123.921 51.3171 122.263 51.3171ZM166.091 29.8051C164.481 29.8051 162.92 30.1466 161.505 30.8783C160.091 31.61 158.92 32.5368 157.993 33.6587C157.213 32.4392 156.188 31.5124 154.969 30.8295C153.749 30.1466 152.335 29.8051 150.823 29.8051C149.262 29.8051 147.847 30.0978 146.579 30.7319C145.262 31.3661 144.237 32.2441 143.506 33.3173L143.067 30.4393H139.993V54H143.701V37.2197C143.847 36.6831 144.188 36.1465 144.725 35.5124C145.262 34.8782 145.945 34.3417 146.871 33.8539C147.798 33.4148 148.871 33.1709 150.091 33.1709C151.944 33.1709 153.31 33.7563 154.237 34.8782C155.164 36.049 155.603 37.7075 155.603 39.805V54H159.31V39.5123C159.31 38.5367 159.261 37.7563 159.164 37.1221C159.603 36.0977 160.383 35.2197 161.457 34.3904C162.481 33.5612 163.847 33.1709 165.457 33.1709C167.359 33.1709 168.774 33.7563 169.749 34.927C170.725 36.0977 171.213 37.7075 171.213 39.805V54H174.92V38.488C174.92 36.8294 174.53 35.3173 173.749 34.0002C172.969 32.6831 171.896 31.6588 170.578 30.9271C169.213 30.1954 167.7 29.8051 166.091 29.8051ZM199.596 46.9269C198.767 48.3415 197.743 49.4147 196.572 50.1952C195.401 50.9756 193.889 51.3659 192.084 51.3659C189.694 51.3659 187.694 50.5366 186.133 48.9269C184.572 47.3171 183.743 45.1708 183.645 42.5855H202.816C202.962 40.1465 202.621 37.9514 201.743 35.9514C200.865 34.0002 199.548 32.488 197.791 31.3661C195.987 30.2441 193.938 29.7076 191.548 29.7076C189.45 29.7076 187.499 30.2929 185.743 31.4149C183.938 32.5368 182.523 34.0978 181.499 36.0002C180.475 37.9026 179.938 40.0001 179.938 42.2928C179.938 44.683 180.475 46.7806 181.548 48.683C182.572 50.5854 184.036 52.0488 185.889 53.122C187.743 54.1951 189.792 54.7317 192.084 54.7317C196.962 54.7317 200.572 52.5854 202.865 48.3415L199.596 46.9269ZM191.548 32.9758C193.645 32.9758 195.352 33.5612 196.67 34.7319C197.987 35.9026 198.816 37.5124 199.157 39.5123H183.938C184.377 37.5611 185.304 36.0002 186.67 34.7807C188.035 33.5612 189.645 32.9758 191.548 32.9758ZM231.795 30.4393H225.307V23.2198H221.6V30.4393H217.161V33.7075H221.6V48.1952C221.6 52.0488 223.698 54 227.941 54H231.795V50.6342H228.478C227.356 50.6342 226.576 50.3903 226.088 49.9025C225.551 49.4147 225.307 48.683 225.307 47.7074V33.7075H231.795V30.4393ZM247.979 54.7317C250.272 54.7317 252.418 54.1951 254.321 53.0732C256.223 51.9512 257.686 50.4391 258.808 48.5366C259.882 46.6342 260.418 44.5367 260.418 42.1952C260.418 39.9026 259.882 37.7563 258.808 35.8538C257.686 33.9514 256.223 32.488 254.321 31.3661C252.418 30.2441 250.272 29.7076 247.979 29.7076C245.687 29.7076 243.638 30.2441 241.735 31.3661C239.833 32.488 238.321 33.9514 237.248 35.8538C236.126 37.7563 235.589 39.9026 235.589 42.1952C235.589 44.4879 236.126 46.6342 237.248 48.5366C238.321 50.4391 239.833 51.9512 241.735 53.0732C243.638 54.1951 245.687 54.7317 247.979 54.7317ZM247.979 51.3171C246.369 51.3171 244.906 50.9269 243.589 50.0976C242.272 49.3171 241.248 48.244 240.516 46.8293C239.784 45.4635 239.394 43.9025 239.394 42.1952C239.394 40.4879 239.784 38.9758 240.516 37.5611C241.248 36.1465 242.272 35.0734 243.589 34.2441C244.906 33.4636 246.369 33.0734 247.979 33.0734C249.638 33.0734 251.101 33.4636 252.418 34.2441C253.735 35.0734 254.76 36.1465 255.491 37.5611C256.223 38.9758 256.613 40.4879 256.613 42.1952C256.613 43.9025 256.223 45.4635 255.491 46.8293C254.76 48.244 253.735 49.3171 252.418 50.0976C251.101 50.9269 249.638 51.3171 247.979 51.3171Z" fill="black"/>
<defs>
<clipPath id="clip0_27_9982">
<rect width="280" height="50" fill="white" transform="translate(337 18)"/>
</clipPath>
</defs>
</svg>
