<svg width="90" height="90" viewBox="0 0 90 90" fill="none" xmlns="http://www.w3.org/2000/svg">
<path fill-rule="evenodd" clip-rule="evenodd" d="M90 11.4004C89.6797 8.4707 88.2998 5.7793 86.1797 3.75C84.1504 1.63086 81.46 0.330078 78.5996 0C77.2998 0.0800781 76.0801 0.410156 75.0195 1.06055C73.4805 1.71094 57.7695 10.8203 53.46 13.5098C53.0703 13.7637 52.6318 13.9746 52.2217 14.1699L51.9102 14.3203C53.9648 15.9023 55.6348 17.8887 56.8291 20.125C57.9072 22.1465 58.5977 24.373 58.8301 26.6895L37.0996 13.8301L36.4502 13.4199C36.1299 13.2598 35.7197 13.0195 35.2305 12.6895L33.8496 11.8809C27.75 8.30078 16.2695 1.63086 14.9697 1.06055C13.8301 0.410156 12.6104 0.0800781 11.3896 0C8.45996 0.320312 5.76953 1.61914 3.74023 3.74023C1.62988 5.7793 0.330078 8.46094 0 11.3906C0.0800781 12.6094 0.410156 13.8301 1.05957 14.8906C1.70996 16.4395 10.8203 32.1406 13.5098 36.6191C15.0596 39.1406 15.8701 42.0703 15.8701 45.0801C15.8701 48.0898 15.0596 51.0195 13.5098 53.5391C10.8203 57.8496 1.79004 73.5508 1.05957 75.0996C0.410156 76.1602 0.0800781 77.3809 0 78.5996C0.320312 81.5293 1.7002 84.2207 3.82031 86.25C5.78027 88.3594 8.45996 89.6602 11.3896 89.9902C12.6904 89.9902 13.4199 89.6602 14.9697 88.9297C16.5098 88.1992 32.2197 79.1699 36.5303 76.4805C37.0195 76.1602 37.5898 75.9102 38.0801 75.6699C37.4297 75.1797 36.8604 74.6895 36.29 74.1191C33.3604 71.2695 31.5703 67.3691 31.0801 63.3008L52.4004 75.9102C52.6455 76.0059 52.8594 76.1348 53.0615 76.2559C53.1973 76.3379 53.3281 76.416 53.46 76.4805C57.7803 79.1699 73.7305 87.9609 75.1904 88.6895C76.0352 89.1094 76.6621 89.3965 77.2744 89.5645C77.7275 89.6895 78.1719 89.75 78.6904 89.75C80.3643 89.6094 81.9844 89.0742 83.4473 88.2266C84.4736 87.6328 85.4229 86.8848 86.2598 86.0098C88.3701 84.0508 89.6699 81.3691 90 78.4395C90 77.7812 89.9033 77.2656 89.6992 76.6855C89.5264 76.1914 89.2754 75.6523 88.9404 74.9395C88.4844 73.9805 84.8008 67.5078 81.4395 61.7266C79.4121 58.2383 77.502 55.002 76.4902 53.3809C74.9404 50.8594 74.1299 47.9297 74.1299 44.9199C74.1299 41.9902 74.9404 38.9805 76.4902 36.4609C79.1797 32.1504 88.21 16.5293 88.9404 14.9805C89.6699 13.4297 90 12.6191 90 11.4004ZM42.5156 30.8613L58.0322 40C58.9297 40.5254 59.2275 41.6777 58.6982 42.5723L49.6035 58.0195C49.0771 58.9121 47.9248 59.2109 47.0312 58.6836L31.5117 49.5469C30.6182 49.0195 30.3193 47.8672 30.8457 46.9746L37.1123 36.3359L41.1426 38.7051C41.0205 39.5762 41.418 40.4766 42.2217 40.9512C42.3789 41.0449 42.543 41.1172 42.71 41.168C42.8242 41.2012 42.9395 41.2246 43.0547 41.2402L45.0596 48.9883C44.8291 49.1621 44.627 49.3809 44.4717 49.6445C43.8457 50.709 44.2002 52.0781 45.2637 52.7051C46.3281 53.332 47.6982 52.9766 48.3252 51.9141C48.9512 50.8496 48.5967 49.4785 47.5332 48.8516C47.3164 48.7246 47.0879 48.6406 46.8555 48.5918L44.8672 40.9082L48.542 43.0723C48.4219 43.9395 48.8203 44.834 49.6211 45.3047C50.6855 45.9316 52.0557 45.5762 52.6826 44.5137C53.1006 43.8027 53.0811 42.9551 52.7051 42.2832C52.5176 41.9492 52.2432 41.6602 51.8896 41.4531C51.5518 41.2539 51.1826 41.1543 50.8164 41.1445C50.3574 41.1328 49.9033 41.2637 49.5205 41.5176L45.5791 39.1992C45.6445 38.377 45.25 37.5469 44.4873 37.0996C43.7305 36.6562 42.8223 36.707 42.1318 37.1582L38.0469 34.75L39.9443 31.5273C40.4697 30.6328 41.6221 30.3359 42.5156 30.8613Z" fill="#F2694E"/>
</svg>
