<svg width="586" height="586" viewBox="0 0 586 586" fill="none" xmlns="http://www.w3.org/2000/svg">
<path d="M446.25 430.7C418.59 430.7 390.92 431.211 363.28 430.48C349.98 430.13 338.45 424.071 328.51 414.798C318.23 405.214 311.75 393.698 309.68 380.029C307.32 364.456 309.69 349.595 319.06 336.367C332.92 316.799 351.97 308.607 375.71 308.787C424.7 309.178 473.69 308.657 522.68 309.008C548.7 309.188 568.41 321.095 579.3 344.899C589.79 367.811 586.35 389.752 570.14 409.11C557.78 423.881 541.63 431.061 522.23 430.971C496.9 430.851 471.57 430.941 446.25 430.941C446.25 430.871 446.25 430.791 446.25 430.7Z" fill="#EBB22D"/>
<path d="M137.21 276.802C110.22 276.802 83.23 277.192 56.25 276.632C42.67 276.351 30.92 270.373 20.86 261.14C15.56 256.273 10.62 250.775 7.65001 244.526C4.11001 237.096 1.56002 228.934 1.13002 220.422C-0.689978 183.86 26.56 154.939 63.06 154.899C113.7 154.829 164.35 154.839 214.99 154.899C250.74 154.949 277.88 182.668 276.92 218.409C276.15 247.36 253.23 271.955 225.59 276.031C221.28 276.672 217 276.902 212.68 276.902C187.52 276.902 162.37 276.902 137.21 276.902C137.21 276.872 137.21 276.832 137.21 276.802Z" fill="#3AC6EF"/>
<path d="M155.06 445.201C155.06 419.705 154.98 394.219 155.09 368.723C155.18 346.952 165.37 330.418 183.12 318.862C202.86 306.013 223.99 305.182 244.69 316.328C265.18 327.354 276.53 345.309 276.78 368.582C277.35 420.726 277.23 472.89 276.87 525.044C276.65 556.589 251.25 582.937 220.33 584.869C188.22 586.872 160.69 564.521 155.79 532.635C155.2 528.82 155.03 525.024 155.03 521.199C155.01 495.873 155.02 470.547 155.02 445.221C155.04 445.201 155.05 445.201 155.06 445.201Z" fill="#E0225C"/>
<path d="M309.01 138.365C309.01 112.869 308.82 87.3728 309.06 61.8766C309.39 26.8068 337.67 -0.161504 372.61 0.920031C404.93 1.92145 430.83 29.1401 430.93 62.6176C431.08 112.108 430.96 161.608 431 211.098C431 215.835 430.86 220.512 430.14 225.239C426.23 250.835 406.76 270.353 382.05 275.69C363.45 279.716 345.94 275.8 331.52 263.563C317 251.215 309 234.932 309 215.355C309 189.688 309 164.022 309.01 138.365Z" fill="#2FB77E"/>
<path d="M88.7699 308.918C98.9299 308.918 109.08 309.048 119.23 308.837C122.35 308.777 123.12 309.699 123.1 312.743C122.96 331.9 123.2 351.047 122.99 370.205C122.65 401.569 101.37 424.161 72.9299 429.859C54.7499 433.504 37.6099 429.799 23.7199 417.732C3.08989 399.817 -4.07011 375.372 4.44989 350.106C12.7299 325.571 35.3599 309.388 61.3099 308.948C70.4599 308.797 79.6199 308.928 88.7799 308.928C88.7699 308.928 88.7699 308.928 88.7699 308.918Z" fill="#E0225C"/>
<path d="M346.17 462.956C356.29 463.507 368.71 461.554 380.87 464.058C405.58 469.145 422.21 483.916 428.69 508.261C435.1 532.345 428.44 553.265 409.61 569.968C395.91 582.116 379.63 586.672 361.8 584.739C349.17 583.367 338.2 577.779 328.66 568.957C314.41 555.778 308.88 539.435 308.97 520.568C309.05 502.743 309.06 484.907 308.92 467.082C308.89 463.898 309.65 462.796 313.02 462.866C323.34 463.097 333.67 462.956 346.17 462.956Z" fill="#EBB22D"/>
<path d="M497.47 276.902C487.31 276.902 477.15 276.822 466.99 276.952C464.23 276.982 462.85 276.662 462.88 273.267C463.07 253.279 462.3 233.25 463.21 213.292C464.34 188.527 476.76 170.201 499.45 160.226C521.87 150.372 543.44 153.337 562.51 169.039C583.99 186.724 590.78 214.163 579.8 239.779C569.75 263.223 551.02 275.019 525.94 276.742C516.49 277.393 506.96 276.842 497.47 276.842C497.47 276.872 497.47 276.892 497.47 276.902Z" fill="#2FB77E"/>
<path d="M239.76 122.863C230.05 122.192 218.06 123.825 206.12 121.972C181.83 118.197 161.36 98.9393 156.29 74.8151C149.47 42.349 169.38 10.5939 201.57 2.60253C236.08 -5.95963 270.51 17.013 276.14 52.213C277.68 61.8467 276.77 71.4803 276.94 81.114C277.15 93.101 276.81 105.108 277.08 117.095C277.18 121.451 276.28 123.194 271.45 122.994C261.65 122.573 251.81 122.863 239.76 122.863Z" fill="#3AC6EF"/>
</svg>
