<svg width="19" height="19" viewBox="0 0 19 19" fill="none" xmlns="http://www.w3.org/2000/svg">
<path d="M13.8656 9.58996C12.5399 8.26991 11.2206 6.95591 9.89496 5.63586C8.97421 6.23191 8.04135 6.83604 7.13119 7.42554C8.10441 9.75727 9.75622 11.3958 12.072 12.3719C12.662 11.4566 13.2609 10.528 13.8656 9.58996ZM14.2233 9.26468C14.4208 9.05977 14.618 8.85309 14.8181 8.64894C15.059 8.40265 15.0615 8.14171 14.8201 7.89845C14.5358 7.61203 14.2503 7.32687 13.9655 7.04095C13.9369 7.01219 13.9105 6.98115 13.8761 6.94355C13.9087 6.91554 13.9347 6.89434 13.9594 6.87188C14.839 6.07117 15.7172 5.26894 16.5983 4.46999C17.0582 4.05285 17.117 3.43939 16.8067 2.98843C16.3831 2.37244 15.5406 2.33661 15.0335 2.89506C14.3554 3.64203 13.6761 4.38773 12.9973 5.13368C12.8507 5.29468 12.7039 5.45517 12.552 5.62147C12.5142 5.5864 12.4829 5.5594 12.4539 5.53038C12.1623 5.23941 11.8722 4.94694 11.5793 4.65699C11.3725 4.45208 11.1061 4.44299 10.8934 4.64109C10.6692 4.85029 10.4535 5.06857 10.2385 5.27853C11.5687 6.60918 12.885 7.9257 14.2233 9.26468ZM13.7339 13.7313C13.2367 14.1038 12.6852 14.2943 12.1171 14.4452C11.4792 14.6145 10.8303 14.7276 10.1727 14.773C9.52363 14.8177 8.87229 14.8692 8.22297 14.8591C7.49798 14.8477 6.77247 14.7871 6.05025 14.7167C5.43271 14.6567 4.82476 14.5242 4.2322 14.3349C3.80084 14.1972 3.38511 14.0223 3.01731 13.7404C3.00924 13.7631 3.00142 13.7745 3.00142 13.7858C3.00066 14.177 2.99915 14.5679 3.00117 14.959C3.00192 15.1074 3.05969 15.2343 3.15908 15.3454C3.36669 15.5775 3.63611 15.7135 3.91587 15.8296C4.67416 16.144 5.47484 16.2844 6.28309 16.3833C7.07594 16.4802 7.87309 16.5102 8.67225 16.4971C9.78271 16.4787 10.8841 16.3813 11.964 16.109C12.4647 15.9828 12.9569 15.8289 13.3832 15.523C13.5679 15.3905 13.7276 15.229 13.7321 14.9825C13.7389 14.5747 13.7339 14.1669 13.7339 13.7313ZM8.56151 14.4283C9.22243 14.3751 9.88462 14.3344 10.5438 14.2655C11.3205 14.1845 12.0836 14.0273 12.8114 13.7341C13.0954 13.6198 13.3709 13.4812 13.5797 13.245C13.7129 13.0944 13.7821 12.9208 13.7028 12.7232C13.6108 12.4935 13.4223 12.3507 13.2137 12.2351C13.1852 12.2192 13.1322 12.2341 13.0959 12.2482C12.9826 12.2916 12.8757 12.3552 12.7594 12.3853C12.6174 12.4219 12.5301 12.5044 12.4587 12.6263C12.3525 12.8077 12.1835 12.8857 11.9781 12.8506C11.8818 12.8339 11.7932 12.7746 11.6986 12.7411C11.6494 12.7237 11.5932 12.7055 11.5435 12.7123C11.1492 12.7668 10.7562 12.8312 10.3619 12.8849C9.64472 12.9826 8.92249 13.0035 8.20002 12.9985C7.37235 12.9929 6.54771 12.9382 5.72912 12.8067C5.05407 12.6984 4.3828 12.571 3.75467 12.2891C3.59322 12.2167 3.48349 12.2389 3.34929 12.3436C2.88361 12.7075 2.88942 13.1009 3.37451 13.4383C3.77737 13.7187 4.23498 13.8683 4.70242 13.9895C5.96725 14.3175 7.25833 14.4066 8.56151 14.4283ZM3.01403 9.78023C3.00798 9.80017 3.00142 9.81153 3.00142 9.82313C3.00066 10.214 2.99864 10.6052 3.00142 10.9961C3.00268 11.1846 3.09576 11.3314 3.23199 11.4538C3.53218 11.7238 3.8972 11.873 4.27307 11.9949C5.42515 12.3681 6.61658 12.4958 7.81885 12.521C8.48558 12.5349 9.15407 12.5034 9.8208 12.4721C10.1868 12.4549 10.5511 12.3961 10.9502 12.3525C10.8974 12.3138 10.8765 12.2944 10.8523 12.2813C10.1669 11.9103 9.54154 11.4548 8.95705 10.9405C8.92149 10.9093 8.8617 10.8918 8.81276 10.8911C8.63643 10.8881 8.4601 10.8992 8.28377 10.8976C7.44349 10.8906 6.60598 10.8434 5.77503 10.7109C4.80635 10.5567 3.85331 10.3561 3.01403 9.78023ZM8.45001 10.4298C8.42529 10.395 8.41192 10.3755 8.39804 10.3566C8.0923 9.93619 7.78379 9.51779 7.48309 9.09384C7.43642 9.02797 7.3943 8.99946 7.31433 8.99492C6.58 8.95403 5.85222 8.86823 5.1416 8.66938C4.72008 8.55153 4.30788 8.41375 3.97464 8.10941C3.95144 8.08821 3.89089 8.07938 3.8644 8.09452C3.66083 8.20884 3.45347 8.31962 3.26327 8.45387C3.13764 8.5427 3.03951 8.66913 3.01302 8.83366C2.97115 9.09434 3.11595 9.26619 3.29884 9.4113C3.68858 9.72043 4.15224 9.87159 4.62195 10.0005C5.69279 10.2945 6.79064 10.3914 7.89554 10.429C8.07414 10.4351 8.25299 10.4298 8.45001 10.4298ZM7.14355 8.52781C7.10798 8.45766 7.09007 8.42081 7.07115 8.38473C6.95133 8.15433 6.82822 7.92545 6.71168 7.69328C6.57722 7.42478 6.63398 7.20751 6.87817 7.03742C6.95032 6.9872 7.026 6.94203 7.09966 6.89409C7.30121 6.76286 7.50226 6.63139 7.70357 6.49991C6.77928 6.5206 5.87089 6.60539 4.9963 6.89282C4.76548 6.96878 4.5392 7.08688 4.34219 7.22896C4.09421 7.40813 4.11717 7.66679 4.37195 7.84015C4.49254 7.92217 4.62321 7.99333 4.75741 8.05036C5.20795 8.24164 5.68472 8.33779 6.16578 8.40996C6.48061 8.45715 6.7977 8.48668 7.14355 8.52781Z" fill="white"/>
</svg>
